<svg width="30" height="36" viewBox="0 0 30 36" fill="none" xmlns="http://www.w3.org/2000/svg">
<path d="M27.9996 14.8451C27.9996 7.75074 22.1795 2 15 2C7.8205 2 2 7.75074 2 14.8451C2 18.5387 3.5784 21.8677 6.10419 24.211L14.9983 33L23.8624 24.2415C26.4078 21.8966 27.9996 18.5548 27.9996 14.8451Z" fill="url(#paint0_linear_2683_54205)"/>
<path d="M28 14.8447C27.9998 7.75053 22.1794 2 15 2C7.82063 2 2.00022 7.75053 2 14.8447L2.00488 15.1904C2.09989 18.7459 3.65767 21.9409 6.10449 24.2109L14.998 33L23.8623 24.2412C26.3282 21.9694 27.8995 18.7624 27.9951 15.1914L28 14.8447ZM30 14.8447C30 19.1217 28.1695 22.9737 25.2559 25.6768L14.998 35.8115L4.69824 25.6338C1.812 22.9332 0 19.0991 0 14.8447C0.000219396 6.62339 6.73877 0 15 0C23.2613 0 29.9998 6.62347 30 14.8447Z" fill="#E8EFF6"/>
<g clip-path="url(#clip0_2683_54205)">
<path d="M24.0001 8.85922H22.2159V7H20.5206V8.85922H18.7363V10.6258H20.5206V12.4851H22.2159V10.6258H24.0001V8.85922Z" fill="white"/>
<path d="M13.8446 13.455C13.7869 13.3924 10.2653 9.60019 7.59795 14.1101C4.62223 19.1415 13.714 24.8132 13.844 24.8941V24.8949C13.844 24.8949 13.8443 24.8947 13.8447 24.8944C13.8452 24.8947 13.8455 24.8949 13.8455 24.8949V24.8941C13.9755 24.8133 23.0672 19.1415 20.0915 14.1101C17.4242 9.60019 13.9025 13.3924 13.8448 13.455H13.8446ZM12.1801 22.2669L13.7393 18.3412H11.5417L15.3195 13.6522L13.9172 17.3598H16.0102L12.1801 22.267V22.2669Z" fill="white"/>
</g>
<defs>
<linearGradient id="paint0_linear_2683_54205" x1="3.94997" y1="6.65" x2="25.8241" y2="27.6166" gradientUnits="userSpaceOnUse">
<stop stop-color="#009DFF"/>
<stop offset="1" stop-color="#0072DD"/>
</linearGradient>
<clipPath id="clip0_2683_54205">
<rect width="17" height="17.8947" fill="white" transform="translate(7 7)"/>
</clipPath>
</defs>
</svg>
