<svg width="230" height="90" viewBox="0 0 230 90" fill="none" xmlns="http://www.w3.org/2000/svg">
<rect width="230" height="90" fill="white"/>
<g clip-path="url(#clip0_1079_21174)">
<path d="M166.499 34.9394C164.254 34.9394 161.865 35.801 160.27 37.3951C157.998 39.6664 157.553 42.3817 157.553 45.8057C157.553 49.2308 158.089 52.0365 160.269 54.309C161.886 56.0147 163.985 56.6431 166.336 56.6431C166.39 56.6431 166.445 56.6431 166.499 56.6431C169.129 56.613 171.134 55.1681 171.756 53.9541L173.964 56.258H174.649V44.8011H165.968V47.9616H170.958C170.958 49.5582 170.72 50.8563 169.602 52.0364C168.891 52.7752 167.827 53.2492 166.473 53.2492C165.259 53.2492 163.903 52.8028 163.073 51.9198C161.628 50.4135 161.422 47.7271 161.422 45.8057C161.422 43.8893 161.6 41.2894 163.043 39.7818C163.867 38.9001 165.259 38.3659 166.473 38.3659C167.919 38.3659 169.07 38.7785 169.807 39.6363C170.252 40.1731 170.661 40.7287 170.72 41.5577H174.619C174.5 39.7279 173.735 38.3947 172.7 37.3349C171.282 35.8888 169.07 34.9394 166.499 34.9394Z" fill="#201E20"/>
<path d="M181.584 45.8062C181.584 43.8898 181.648 41.2886 183.09 39.7823C183.913 38.8994 185.191 38.3952 186.397 38.3952C187.606 38.3952 188.88 38.8994 189.709 39.7823C191.152 41.2886 191.214 43.8898 191.214 45.8062C191.214 47.7263 191.152 50.2949 189.709 51.8012C188.88 52.6891 187.606 53.1883 186.397 53.1883C185.191 53.1883 183.913 52.6891 183.09 51.8012C181.648 50.2949 181.584 47.7263 181.584 45.8062ZM186.397 34.9399C184.159 34.9399 181.97 35.71 180.374 37.3041C178.1 39.5754 177.716 42.381 177.716 45.8062C177.716 49.2301 178.1 52.0056 180.374 54.2807C181.97 55.876 184.159 56.6423 186.397 56.6423C188.642 56.6423 190.825 55.876 192.419 54.2807C194.693 52.0056 195.079 49.2301 195.079 45.8062C195.079 42.381 194.693 39.5754 192.419 37.3041C190.825 35.71 188.642 34.9399 186.397 34.9399Z" fill="#201E20"/>
<path d="M214.727 35.3235H210.978V49.4957L202.032 35.3235H197.988V56.2583H201.738V41.8803L210.802 56.2583H214.727V35.3235Z" fill="#201E20"/>
<path d="M99.8385 35.3235H96.0283V43.5045H87.4383V35.3235H83.6294V56.2583H87.4383V47.1366H96.0283V56.2583H99.8385V35.3235Z" fill="#201E20"/>
<path d="M118.102 35.3235H103.813V56.2583H118.101V52.803H107.617V47.0764H116.772V43.6525H107.617V38.7787H118.102V35.3235Z" fill="#201E20"/>
<path d="M137.599 35.3235H133.465L128.915 42.6517L124.22 35.3235H120.06L126.583 45.599L120.002 56.2583H124.102L128.801 48.6429L133.489 56.2583H137.683L131.161 45.6316L137.599 35.3235Z" fill="#201E20"/>
<path d="M144.288 48.822L147.269 39.9913L150.25 48.822H144.288ZM149.424 35.3232H145.263L137.913 56.2581H141.751L143.108 52.2447H151.431L152.793 56.2581H156.775L149.424 35.3232Z" fill="#201E20"/>
<path d="M15.2905 60.9507H33.0385L28.6012 53.2663L15.2905 60.9507Z" fill="#7EC9D5"/>
<path d="M50.7894 60.9507L68.5374 30.2081L41.9136 45.5794V60.9507H50.7894Z" fill="#7EC9D5"/>
<path d="M41.9141 76.3252L68.5391 60.9502H50.7899L41.9141 76.3252Z" fill="#B3DF60"/>
<path d="M28.6014 53.2661L41.9145 45.5805V14.8354L24.1641 45.5805L28.6014 53.2661Z" fill="#B3DF60"/>
<path d="M33.0386 60.9506L41.9132 76.3257V60.9506H33.0386Z" fill="#B3DF60"/>
<path d="M15.2905 30.2069V60.9507L24.1639 45.5794L15.2905 30.2069Z" fill="#7EC9D5"/>
<path d="M68.5375 30.2081L50.7896 60.9507H68.5388V30.2081H68.5375Z" fill="#3499BE"/>
<path d="M41.9137 45.5797L28.6006 53.2653L33.0391 60.9509H41.9137V45.5797Z" fill="#3499BE"/>
<path d="M41.9139 14.835L15.29 30.2076L24.1634 45.5801L41.9139 14.835Z" fill="#3499BE"/>
</g>
<defs>
<clipPath id="clip0_1079_21174">
<rect width="200" height="62.766" fill="white" transform="translate(15 14)"/>
</clipPath>
</defs>
</svg>
