<svg width="230" height="90" viewBox="0 0 230 90" fill="none" xmlns="http://www.w3.org/2000/svg">
<rect width="230" height="90" fill="white"/>
<g clip-path="url(#clip0_1079_21196)">
<path d="M226.12 22L226.117 45.0016C226.117 49.6921 222.321 53.5072 217.653 53.5072C212.986 53.5072 209.192 49.6921 209.192 45.0016C209.192 40.3111 212.988 36.4975 217.653 36.4975H223.296V34.6079H217.653C211.951 34.6079 207.312 39.2703 207.312 45.0016C207.312 50.7328 211.952 55.3968 217.653 55.3968C223.355 55.3968 227.997 50.7344 227.997 45.0016L228 22H226.118H226.12Z" fill="#0078BE"/>
<path d="M200.803 49.5628C199.298 51.9299 196.663 53.5043 193.667 53.5043C189 53.5043 185.203 49.6892 185.203 44.9987C185.203 40.3082 189 36.4946 193.667 36.4946C198.014 36.4946 201.604 39.8088 202.074 44.0546H193.667V45.9443H203.964C203.992 45.6322 204.01 45.3185 204.01 44.9987C204.01 39.2674 199.371 34.605 193.667 34.605C187.962 34.605 183.323 39.2674 183.323 44.9987C183.323 50.7299 187.962 55.3939 193.667 55.3939C197.329 55.3939 200.55 53.47 202.388 50.577L200.803 49.5628Z" fill="#0078BE"/>
<path d="M172.542 34.605C169.714 34.605 167.245 36.1841 165.961 38.5122C164.677 36.1856 162.208 34.605 159.379 34.605C155.232 34.605 151.857 37.9957 151.857 42.165V55.3939H153.739V42.165C153.739 39.038 156.269 36.4946 159.379 36.4946C162.489 36.4946 165.02 39.0365 165.022 42.1619V55.3955H166.902V42.1666C166.902 42.1666 166.902 42.165 166.902 42.1635C166.903 39.038 169.434 36.4962 172.544 36.4962C175.654 36.4962 178.186 39.0396 178.186 42.1666V55.3955H180.066V42.1666C180.066 37.9972 176.693 34.6065 172.544 34.6065L172.542 34.605Z" fill="#0078BE"/>
<path d="M138.212 34.605C132.509 34.605 127.869 39.2674 127.869 44.9987C127.869 50.7299 132.509 55.3939 138.212 55.3939H143.854V53.5043H138.212C133.547 53.5043 129.75 49.6892 129.75 44.9987C129.75 40.3082 133.547 36.4946 138.212 36.4946C142.878 36.4946 146.675 40.3097 146.675 44.9987V55.3939H148.556V44.9987C148.556 39.2674 143.916 34.605 138.212 34.605Z" fill="#0078BE"/>
<path d="M123.118 49.5611C121.613 51.9282 118.983 53.5058 115.987 53.5058C111.321 53.5058 107.525 49.6906 107.525 45.0001C107.525 40.3096 111.321 36.4961 115.987 36.4961C118.983 36.4961 121.613 38.0736 123.118 40.4407L124.703 39.4265C122.865 36.5335 119.649 34.6064 115.987 34.6064C110.284 34.6064 105.643 39.2689 105.643 45.0001C105.643 50.7314 110.282 55.3954 115.987 55.3954C119.648 55.3954 122.865 53.4683 124.703 50.5754L123.118 49.5627V49.5611Z" fill="#0078BE"/>
<path d="M92.0022 55.3954C86.2995 55.3954 81.6587 50.733 81.6587 45.0001C81.6587 39.2673 86.2979 34.6064 92.0022 34.6064C97.7065 34.6064 102.346 39.2689 102.346 45.0001C102.346 50.7314 97.705 55.3954 92.0022 55.3954ZM92.0022 36.4961C87.335 36.4961 83.5389 40.3112 83.5389 45.0001C83.5389 49.6891 87.335 53.5058 92.0022 53.5058C96.6694 53.5058 100.466 49.6906 100.466 45.0001C100.466 40.3096 96.6694 36.4961 92.0022 36.4961Z" fill="#0078BE"/>
<path d="M68.4552 45.0001V55.3954H70.3354V45.0001C70.3354 40.3112 74.1315 36.4961 78.7971 36.4961V34.6064C73.0944 34.6064 68.4536 39.2689 68.4536 45.0001H68.4552Z" fill="#0078BE"/>
<path d="M46.3505 67.9998V44.9998C46.349 40.3093 50.1451 36.4942 54.8123 36.4942C59.4794 36.4942 63.2756 40.3093 63.2756 44.9998C63.2756 49.6903 59.4794 53.5039 54.8123 53.5039H49.1716V55.392H54.8123C60.515 55.392 65.1558 50.7296 65.1558 44.9983C65.1558 39.267 60.515 34.603 54.8123 34.603C49.1095 34.603 44.4688 39.2654 44.4688 44.9983V67.9983H46.3505V67.9998Z" fill="#0078BE"/>
<path d="M31.2216 46.331C30.9391 44.0497 29.8833 42.1445 28.1708 40.8228C26.7004 39.6869 25.0811 39.1126 23.3577 39.1126C21.4402 39.1126 19.6904 40.0223 18.4529 40.9867C17.2574 40.0504 15.4316 39.0752 13.5079 39.0752C11.7627 39.0752 10.1418 39.6759 8.69167 40.8603C7.12197 42.1429 6.15314 43.967 5.96528 46.0002C5.75412 48.2768 6.52888 50.5705 8.12341 52.4757C11.0796 56.0084 18.4529 59.9531 18.4529 59.9531V64.8449C21.0458 63.116 27.514 58.7438 30.2792 52.3228C31.1223 50.3645 31.4561 48.2377 31.2201 46.3341L31.2216 46.331ZM26.4318 50.647C24.4849 54.8974 21.4355 57.767 18.4529 59.9437V55.1502C15.5247 53.6476 12.5406 51.1947 11.3218 49.7498C10.4539 48.7215 9.50834 46.5416 10.9957 44.6863C13.2036 41.9338 17.1736 44.0965 18.4529 45.5008C19.6624 44.3493 22.513 41.9603 25.4475 44.1652C27.4659 45.6818 27.3494 48.6419 26.4318 50.647Z" fill="white"/>
<path d="M25.449 44.1637C22.5145 41.9588 19.6624 44.3462 18.4544 45.4993C17.1751 44.095 13.2066 41.9308 10.9972 44.6848C9.50982 46.5401 10.4554 48.7215 11.3233 49.7483C12.5421 51.1932 15.5262 53.6461 18.4544 55.1487V59.9422C21.437 57.7655 24.4848 54.896 26.4333 50.6455C27.3525 48.6404 27.4673 45.6803 25.449 44.1637Z" fill="#0078BE"/>
<path d="M24.8855 34.6064H2V57.6064C2 63.3471 6.62989 68.0001 12.342 68.0001H35.2275V45.0001C35.2275 39.2595 30.5976 34.6064 24.8855 34.6064ZM30.2809 52.3199C27.5157 58.7424 21.0475 63.113 18.4546 64.8419V59.9501C18.4546 59.9501 11.0812 56.0055 8.12506 52.4728C6.53053 50.5676 5.75577 48.2738 5.96693 45.9972C6.15479 43.964 7.12207 42.14 8.69332 40.8573C10.1435 39.673 11.7644 39.0723 13.5095 39.0723C15.4332 39.0723 17.2606 40.0491 18.4546 40.9837C19.692 40.0194 21.4403 39.1097 23.3593 39.1097C25.0827 39.1097 26.7021 39.6855 28.1724 40.8199C29.8849 42.1415 30.9407 44.0467 31.2233 46.328C31.4593 48.2317 31.1255 50.3585 30.2824 52.3168L30.2809 52.3199Z" fill="#0078BE"/>
</g>
<defs>
<clipPath id="clip0_1079_21196">
<rect width="226" height="46" fill="white" transform="translate(2 22)"/>
</clipPath>
</defs>
</svg>
