<svg width="180" height="71" viewBox="0 0 180 71" fill="none" xmlns="http://www.w3.org/2000/svg">
<rect width="180" height="70.4348" fill="white"/>
<g clip-path="url(#clip0_2742_61193)">
<path d="M48.3584 36.9568V18.272H54.5511L57.3757 32.4725L60.2779 18.272H66.4706V36.9568L62.7821 36.986V20.9412L59.3558 36.9568H55.4441L52.0274 20.9412V36.9568H48.3584Z" fill="#F5333F"/>
<path d="M3.91309 30.8709L7.57241 30.5118C7.79566 31.7348 8.24215 32.6375 8.9119 33.2199C9.58164 33.7925 10.494 34.0837 11.6394 34.0837C12.8527 34.0837 13.7651 33.8314 14.3766 33.3169C14.9881 32.8025 15.2987 32.2007 15.2987 31.5212C15.2987 31.0844 15.1725 30.7059 14.9105 30.3953C14.6484 30.0847 14.2019 29.8226 13.5613 29.5897C13.1245 29.4344 12.115 29.1626 10.5523 28.7743C8.54305 28.2696 7.12591 27.6581 6.31057 26.9301C5.16522 25.9012 4.59254 24.6588 4.59254 23.1834C4.59254 22.2322 4.86432 21.3489 5.39817 20.5239C5.93202 19.6988 6.70854 19.0679 7.71801 18.6408C8.72747 18.2137 9.95048 17.9905 11.3773 17.9905C13.7166 17.9905 15.4734 18.5049 16.6479 19.5241C17.8321 20.5433 18.4533 21.9119 18.5116 23.6202L14.7552 23.7852C14.5902 22.834 14.2504 22.1448 13.7166 21.7275C13.1924 21.3101 12.3965 21.0965 11.3385 21.0965C10.2805 21.0965 9.38751 21.3198 8.77601 21.7663C8.37804 22.0575 8.17421 22.436 8.17421 22.9213C8.17421 23.3581 8.35863 23.7367 8.73718 24.0473C9.21279 24.4453 10.3582 24.8626 12.1927 25.2897C14.0175 25.7265 15.3764 26.1633 16.25 26.6292C17.1235 27.0951 17.8127 27.7163 18.3077 28.522C18.8027 29.3276 19.0454 30.3079 19.0454 31.4824C19.0454 32.5501 18.7445 33.5499 18.1524 34.4817C17.5603 35.4135 16.7256 36.1027 15.6384 36.5589C14.5513 37.0151 13.2021 37.2383 11.5909 37.2383C9.24191 37.2383 7.42681 36.6948 6.17468 35.6076C4.91285 34.5205 4.15575 32.9384 3.91309 30.8515" fill="#F5333F"/>
<path d="M25.8594 18.3203H22.103V36.9275H25.8594V18.3203Z" fill="#F5333F"/>
<path d="M33.3716 26.1922H36.1477C37.9531 26.1922 39.079 26.1146 39.5255 25.9593C39.972 25.804 40.3214 25.5419 40.5835 25.173C40.8359 24.8042 40.962 24.3383 40.962 23.7753C40.962 23.1444 40.797 22.6397 40.4573 22.2611C40.1273 21.8729 39.6517 21.6302 39.0402 21.5331C38.7393 21.4943 37.8172 21.4652 36.2933 21.4652H33.3619V26.1922H33.3716ZM29.6152 36.9372V18.3203H37.526C39.5158 18.3203 40.962 18.4853 41.8647 18.825C42.7674 19.1551 43.4857 19.7569 44.0293 20.611C44.5728 21.4652 44.8446 22.4455 44.8446 23.5424C44.8446 24.9401 44.437 26.0952 43.6119 26.9979C42.7869 27.9103 41.5638 28.4829 39.9332 28.7159C40.7485 29.1915 41.4183 29.706 41.9424 30.2786C42.4665 30.8416 43.1848 31.8511 44.0778 33.2973L46.3491 36.9275H41.855L39.1372 32.88C38.1763 31.4337 37.5163 30.5213 37.1571 30.1427C36.798 29.7642 36.4291 29.5118 36.0312 29.3662C35.6332 29.2303 35.0023 29.1527 34.1384 29.1527H33.3813V36.9275H29.6249L29.6152 36.9372Z" fill="#F5333F"/>
<path d="M70.2368 36.9275V18.3203H84.0394V21.4652H73.9932V25.5904H83.3405V28.7256H73.9932V33.7924H84.3888V36.9275H70.2368Z" fill="#F5333F"/>
<path d="M91.3194 21.4652V33.7924H94.1245C95.1728 33.7924 95.9299 33.7341 96.3958 33.6176C97.0073 33.4623 97.5121 33.21 97.91 32.8411C98.308 32.4723 98.638 31.8802 98.8904 31.0454C99.1428 30.2107 99.2689 29.075 99.2689 27.6385C99.2689 26.2019 99.1428 25.0954 98.8904 24.3286C98.638 23.5618 98.2789 22.96 97.8227 22.5232C97.3665 22.0961 96.7841 21.8049 96.0852 21.6496C95.5611 21.5331 94.5322 21.4749 92.9986 21.4749H91.3097L91.3194 21.4652ZM87.563 18.3203H94.4351C95.9785 18.3203 97.1627 18.4368 97.978 18.6795C99.0651 18.9998 100.007 19.5724 100.783 20.3975C101.56 21.2225 102.152 22.2223 102.559 23.4162C102.967 24.6101 103.171 26.0757 103.171 27.8132C103.171 29.3468 102.977 30.6669 102.598 31.7734C102.132 33.1323 101.472 34.2194 100.608 35.0639C99.9581 35.6948 99.0748 36.1898 97.9683 36.549C97.1432 36.8111 96.027 36.9372 94.639 36.9372H87.563V18.3203Z" fill="#F5333F"/>
<path d="M5.62097 47.5949C5.6598 47.8958 5.74716 48.1288 5.87334 48.2743C6.1063 48.5461 6.49455 48.682 7.05752 48.682C7.38754 48.682 7.65932 48.6432 7.87286 48.5752C8.27083 48.4394 8.46496 48.1773 8.46496 47.8084C8.46496 47.5852 8.36789 47.4202 8.17376 47.3037C7.97964 47.1872 7.66903 47.0805 7.25165 46.9931L6.53338 46.8378C5.82481 46.6825 5.33949 46.5078 5.07741 46.3331C4.63092 46.0225 4.40767 45.5468 4.40767 44.8965C4.40767 44.3044 4.63092 43.8094 5.06771 43.4114C5.5045 43.0135 6.14512 42.8193 6.99929 42.8193C7.70786 42.8193 8.30965 43.0038 8.81439 43.3726C9.30942 43.7414 9.57149 44.285 9.60061 44.9839H8.27083C8.25142 44.5859 8.06699 44.3044 7.73697 44.1297C7.51373 44.0229 7.24195 43.9647 6.91193 43.9647C6.54308 43.9647 6.25189 44.0326 6.03835 44.1782C5.82481 44.3238 5.70833 44.5277 5.70833 44.78C5.70833 45.013 5.8151 45.1974 6.02864 45.3139C6.16453 45.3915 6.46543 45.4789 6.91193 45.5857L8.0767 45.8574C8.59114 45.9739 8.96969 46.1389 9.22206 46.3428C9.62002 46.6534 9.81415 47.1096 9.81415 47.7017C9.81415 48.2938 9.5812 48.8082 9.11529 49.2159C8.64938 49.6138 7.97964 49.8177 7.12547 49.8177C6.2713 49.8177 5.56274 49.6235 5.06771 49.2256C4.56297 48.8276 4.32031 48.2841 4.32031 47.5949H5.64039H5.62097Z" fill="#636569"/>
<path d="M13.6967 46.4983C13.6772 46.3139 13.6093 46.1489 13.5122 46.0033C13.3666 45.8091 13.1434 45.7024 12.8425 45.7024C12.4057 45.7024 12.1145 45.9159 11.9495 46.343C11.8621 46.5662 11.8233 46.8768 11.8233 47.2457C11.8233 47.6145 11.8621 47.896 11.9495 48.1096C12.1048 48.5172 12.396 48.7211 12.8134 48.7211C13.1143 48.7211 13.3278 48.6434 13.454 48.4784C13.5802 48.3134 13.6578 48.1095 13.6869 47.8475H14.9973C14.9682 48.2357 14.8226 48.6046 14.5702 48.954C14.1626 49.517 13.5705 49.7985 12.7843 49.7985C11.998 49.7985 11.4156 49.5655 11.0371 49.0996C10.6585 48.6337 10.4741 48.0222 10.4741 47.2748C10.4741 46.4303 10.678 45.78 11.0953 45.3141C11.503 44.8482 12.0757 44.6152 12.8037 44.6152C13.4152 44.6152 13.9199 44.7511 14.3179 45.0326C14.7061 45.3044 14.9391 45.7994 15.0167 46.4983H13.7064H13.6967Z" fill="#636569"/>
<path d="M19.5015 44.7607C19.7442 44.8675 19.948 45.0228 20.113 45.246C20.2489 45.4304 20.3266 45.6149 20.3557 45.809C20.3848 46.0031 20.4042 46.3234 20.4042 46.7602V49.643H19.0939V46.6535C19.0939 46.3914 19.0453 46.1778 18.958 46.0128C18.8415 45.7799 18.6182 45.6731 18.2979 45.6731C17.9776 45.6731 17.7058 45.7896 17.5311 46.0128C17.3564 46.2361 17.269 46.5661 17.269 46.9835V49.643H15.9878V43.033H17.269V45.3722C17.4535 45.0907 17.667 44.8869 17.9097 44.7801C18.1523 44.6636 18.4144 44.6151 18.6765 44.6151C18.9774 44.6151 19.2492 44.6636 19.5015 44.7704V44.7607Z" fill="#636569"/>
<path d="M24.0144 44.7412H25.3151L26.0624 48.2744L26.8293 44.7412H28.1687L26.7419 49.6527H25.4218L24.655 46.0807L23.8785 49.6527H22.5487L21.1704 44.7412H22.5487L23.3155 48.2646L24.0241 44.7412H24.0144Z" fill="#636569"/>
<path d="M32.168 44.8384C32.5078 44.9937 32.7892 45.2364 33.0125 45.5664C33.2163 45.8576 33.3425 46.1973 33.4008 46.5759C33.4396 46.7991 33.4493 47.1291 33.4396 47.5465H29.8676C29.887 48.0415 30.0617 48.3813 30.3821 48.5851C30.5762 48.7113 30.8091 48.7695 31.0906 48.7695C31.3818 48.7695 31.6245 48.6919 31.7992 48.5463C31.8963 48.4686 31.9836 48.3522 32.0613 48.2066H33.3716C33.3328 48.4977 33.1775 48.7889 32.896 49.0898C32.4592 49.5655 31.838 49.8081 31.0518 49.8081C30.4015 49.8081 29.8191 49.6043 29.3241 49.2063C28.829 48.8084 28.5767 48.1483 28.5767 47.2456C28.5767 46.3915 28.7999 45.7411 29.2561 45.2849C29.7123 44.8287 30.2947 44.6055 31.013 44.6055C31.4401 44.6055 31.8283 44.6831 32.168 44.8384ZM30.2462 45.945C30.0617 46.1294 29.955 46.3817 29.9064 46.7021H32.1195C32.1001 46.3623 31.9836 46.1003 31.7798 45.9255C31.5759 45.7508 31.3236 45.6635 31.0227 45.6635C30.6927 45.6635 30.4403 45.7605 30.2559 45.945H30.2462Z" fill="#636569"/>
<path d="M35.5072 44.1493H34.2065V42.9651H35.5072V44.1493ZM34.2065 44.7317H35.5072V49.6431H34.2065V44.7317Z" fill="#636569"/>
<path d="M36.5649 45.7797V44.7314H40.4475V45.7992L38.0403 48.5849H40.5348V49.6429H36.3999V48.6431L38.8362 45.7797H36.5746H36.5649Z" fill="#636569"/>
<path d="M44.7379 44.8384C45.0776 44.9937 45.3591 45.2364 45.5823 45.5664C45.7862 45.8576 45.9123 46.1973 45.9706 46.5759C46.0094 46.7991 46.0191 47.1291 46.0094 47.5465H42.4374C42.4569 48.0415 42.6316 48.3813 42.9519 48.5851C43.146 48.7113 43.379 48.7695 43.6604 48.7695C43.9516 48.7695 44.1943 48.6919 44.369 48.5463C44.4661 48.4686 44.5534 48.3522 44.6311 48.2066H45.9415C45.9026 48.4977 45.7473 48.7889 45.4658 49.0898C45.0291 49.5655 44.4078 49.8081 43.6216 49.8081C42.9713 49.8081 42.3889 49.6043 41.8939 49.2063C41.3989 48.8084 41.1465 48.1483 41.1465 47.2456C41.1465 46.3915 41.3697 45.7411 41.8259 45.2849C42.2821 44.8287 42.8645 44.6055 43.5828 44.6055C44.0099 44.6055 44.3981 44.6831 44.7379 44.8384ZM42.816 45.945C42.6316 46.1294 42.5248 46.3817 42.4763 46.7021H44.6893C44.6699 46.3623 44.5534 46.1003 44.3496 45.9255C44.1458 45.7508 43.8934 45.6635 43.5925 45.6635C43.2625 45.6635 43.0101 45.7605 42.8257 45.945H42.816Z" fill="#636569"/>
<path d="M49.494 44.6249C49.494 44.6249 49.5426 44.6249 49.6008 44.6249V45.9353C49.5232 45.9353 49.4455 45.9159 49.3873 45.9159C49.329 45.9159 49.2708 45.9159 49.232 45.9159C48.7175 45.9159 48.3681 46.0809 48.1934 46.4206C48.0963 46.6051 48.0478 46.8962 48.0478 47.2942V49.6432H46.7568V44.7317H47.9798V45.5859C48.174 45.2559 48.3487 45.0326 48.4943 44.9161C48.7369 44.7123 49.0476 44.6152 49.4261 44.6152C49.4455 44.6152 49.4746 44.6152 49.4843 44.6152L49.494 44.6249Z" fill="#636569"/>
<path d="M54.4735 49.6429H53.0952V43.0037H54.4735V49.6429Z" fill="#636569"/>
<path d="M59.7147 45.0229C60.035 45.285 60.2 45.7315 60.2 46.343V49.6432H58.8896V46.6536C58.8896 46.3915 58.8508 46.1974 58.7829 46.0615C58.6567 45.8091 58.4237 45.6829 58.0646 45.6829C57.6278 45.6829 57.3366 45.8674 57.1716 46.2362C57.0842 46.4303 57.0454 46.6827 57.0454 46.9836V49.6432H55.7642V44.7414H57.0066V45.4597C57.1716 45.2073 57.3269 45.0229 57.4725 44.9161C57.7346 44.722 58.0646 44.6152 58.4723 44.6152C58.977 44.6152 59.3944 44.7511 59.7147 45.0132V45.0229Z" fill="#636569"/>
<path d="M62.4717 48.0803C62.5008 48.3036 62.559 48.4686 62.6464 48.5656C62.8114 48.7403 63.1026 48.818 63.5297 48.818C63.782 48.818 63.9859 48.7792 64.1315 48.7015C64.2771 48.6239 64.3547 48.5171 64.3547 48.3618C64.3547 48.2065 64.2965 48.1094 64.1703 48.0318C64.0538 47.9541 63.6073 47.8279 62.8308 47.6435C62.2776 47.5076 61.8796 47.3329 61.6563 47.1291C61.4331 46.9252 61.3166 46.6341 61.3166 46.2458C61.3166 45.7896 61.4913 45.4013 61.8505 45.081C62.2096 44.751 62.7046 44.5957 63.355 44.5957C64.0053 44.5957 64.4712 44.7219 64.8595 44.9645C65.2477 45.2072 65.471 45.6343 65.5292 46.2361H64.248C64.2285 46.0711 64.18 45.9449 64.1121 45.8478C63.9665 45.6731 63.7335 45.5858 63.3938 45.5858C63.1123 45.5858 62.9182 45.6246 62.792 45.7119C62.6658 45.7993 62.6173 45.8964 62.6173 46.0225C62.6173 46.1681 62.6852 46.2749 62.8114 46.3429C62.9376 46.4108 63.3841 46.5273 64.1509 46.702C64.6653 46.8185 65.0439 47.0029 65.2962 47.2456C65.5486 47.4882 65.6748 47.7988 65.6748 48.1677C65.6748 48.653 65.4904 49.051 65.1312 49.3616C64.7721 49.6722 64.2091 49.8275 63.452 49.8275C62.6949 49.8275 62.1125 49.6625 61.7437 49.3421C61.3749 49.0121 61.1904 48.6045 61.1904 48.0997H62.4911L62.4717 48.0803Z" fill="#636569"/>
<path d="M66.1987 45.7022V44.7897H66.8879V43.4211H68.1594V44.7897H68.9554V45.7022H68.1594V48.2938C68.1594 48.4976 68.1885 48.6238 68.2371 48.6723C68.2856 48.7209 68.4409 48.75 68.703 48.75C68.7418 48.75 68.7806 48.75 68.8292 48.75C68.8777 48.75 68.9165 48.75 68.9554 48.75V49.7109L68.3439 49.7303C67.7421 49.7497 67.3247 49.643 67.1014 49.4197C66.9558 49.2741 66.8879 49.0412 66.8879 48.7403V45.7216H66.1987V45.7022Z" fill="#636569"/>
<path d="M71.1781 44.1493H69.8774V42.9651H71.1781V44.1493ZM69.8774 44.7317H71.1781V49.6431H69.8774V44.7317Z" fill="#636569"/>
<path d="M72.0132 45.7022V44.7897H72.7023V43.4211H73.9739V44.7897H74.7698V45.7022H73.9739V48.2938C73.9739 48.4976 74.003 48.6238 74.0515 48.6723C74.1001 48.7209 74.2554 48.75 74.5174 48.75C74.5563 48.75 74.5951 48.75 74.6436 48.75C74.6922 48.75 74.731 48.75 74.7698 48.75V49.7109L74.1583 49.7303C73.5565 49.7497 73.1391 49.643 72.9159 49.4197C72.7703 49.2741 72.7023 49.0412 72.7023 48.7403V45.7216H72.0132V45.7022Z" fill="#636569"/>
<path d="M76.9534 44.7412V47.7017C76.9534 47.9832 76.9825 48.187 77.0504 48.3326C77.1669 48.585 77.3999 48.7014 77.7396 48.7014C78.1764 48.7014 78.4773 48.5267 78.6326 48.1676C78.7199 47.9735 78.7588 47.7211 78.7588 47.4105V44.7412H80.0594V49.6527H78.817V48.9635C78.817 48.9635 78.7782 49.0217 78.7297 49.0994C78.6811 49.1771 78.6229 49.245 78.5549 49.2935C78.3511 49.478 78.157 49.5944 77.9726 49.6624C77.7881 49.7303 77.5649 49.7594 77.3125 49.7594C76.5845 49.7594 76.0992 49.4974 75.8468 48.9732C75.7012 48.682 75.6333 48.2646 75.6333 47.7017V44.7412H76.9437H76.9534Z" fill="#636569"/>
<path d="M80.9043 45.7022V44.7897H81.5935V43.4211H82.865V44.7897H83.6609V45.7022H82.865V48.2938C82.865 48.4976 82.8941 48.6238 82.9426 48.6723C82.9912 48.7209 83.1465 48.75 83.4086 48.75C83.4474 48.75 83.4862 48.75 83.5347 48.75C83.5833 48.75 83.6221 48.75 83.6609 48.75V49.7109L83.0494 49.7303C82.4476 49.7497 82.0302 49.643 81.807 49.4197C81.6614 49.2741 81.5935 49.0412 81.5935 48.7403V45.7216H80.9043V45.7022Z" fill="#636569"/>
<path d="M89.2517 42.9456C89.3196 42.9456 89.407 42.9553 89.5235 42.965V44.0133C89.4555 44.0133 89.3294 43.9939 89.1643 43.9939C88.9993 43.9939 88.8731 44.023 88.8149 44.1103C88.747 44.188 88.7178 44.2753 88.7178 44.3724V44.7898H89.5623V45.6925H88.7178V49.6527H87.4463V45.6925H86.728V44.7898H87.4269V44.4792C87.4269 43.955 87.5142 43.5959 87.689 43.3921C87.8734 43.1009 88.3199 42.9553 89.0382 42.9553C89.1158 42.9553 89.1935 42.9553 89.2614 42.9553L89.2517 42.9456Z" fill="#636569"/>
<path d="M91.6585 44.7414V47.7018C91.6585 47.9833 91.6876 48.1872 91.7555 48.3327C91.872 48.5851 92.1049 48.7016 92.4447 48.7016C92.8815 48.7016 93.1824 48.5269 93.3377 48.1677C93.425 47.9736 93.4638 47.7212 93.4638 47.4106V44.7414H94.7645V49.6528H93.5221V48.9637C93.5221 48.9637 93.4833 49.0219 93.4347 49.0996C93.3862 49.1772 93.328 49.2452 93.26 49.2937C93.0562 49.4781 92.862 49.5946 92.6776 49.6625C92.4932 49.7305 92.27 49.7596 92.0176 49.7596C91.2896 49.7596 90.8043 49.4975 90.5519 48.9734C90.4063 48.6822 90.3384 48.2648 90.3384 47.7018V44.7414H91.6487H91.6585ZM91.0664 42.9263H92.2408V43.994H91.0664V42.9263ZM92.8718 42.9263H94.0462V43.994H92.8718V42.9263Z" fill="#636569"/>
<path d="M98.8319 44.6249C98.8319 44.6249 98.8805 44.6249 98.9387 44.6249V45.9353C98.8611 45.9353 98.7834 45.9159 98.7252 45.9159C98.6669 45.9159 98.6087 45.9159 98.5699 45.9159C98.0554 45.9159 97.706 46.0809 97.5313 46.4206C97.4342 46.6051 97.3857 46.8962 97.3857 47.2942V49.6432H96.0947V44.7317H97.3177V45.5859C97.5119 45.2559 97.6866 45.0326 97.8322 44.9161C98.0748 44.7123 98.3854 44.6152 98.764 44.6152C98.7834 44.6152 98.8125 44.6152 98.8222 44.6152L98.8319 44.6249Z" fill="#636569"/>
<path d="M106.801 43.1784C107.044 43.2852 107.247 43.4405 107.422 43.6443C107.568 43.8094 107.674 43.9938 107.752 44.2073C107.83 44.4112 107.878 44.6441 107.878 44.9062C107.878 45.2168 107.801 45.5274 107.636 45.838C107.48 46.1389 107.218 46.3621 106.849 46.4883C107.16 46.6145 107.374 46.7892 107.5 47.0125C107.626 47.2357 107.694 47.5852 107.694 48.0511V48.4976C107.694 48.7985 107.704 49.0023 107.733 49.1188C107.772 49.2935 107.859 49.4197 107.985 49.4973V49.6623H106.451C106.413 49.5167 106.384 49.4003 106.364 49.3032C106.325 49.1188 106.306 48.9246 106.306 48.7305V48.1093C106.286 47.6822 106.219 47.4007 106.083 47.2648C105.937 47.1192 105.675 47.0513 105.296 47.0513H103.938V49.6526H102.579V43.0134H105.753C106.209 43.0134 106.558 43.0814 106.801 43.1881V43.1784ZM103.938 44.1588V45.9448H105.432C105.733 45.9448 105.947 45.9059 106.102 45.838C106.364 45.7118 106.5 45.4594 106.5 45.0906C106.5 44.6926 106.374 44.4209 106.121 44.285C105.976 44.2073 105.762 44.1685 105.481 44.1685H103.947L103.938 44.1588Z" fill="#636569"/>
<path d="M112.392 44.8384C112.731 44.9937 113.013 45.2364 113.236 45.5664C113.44 45.8576 113.566 46.1973 113.624 46.5759C113.663 46.7991 113.673 47.1291 113.663 47.5465H110.091C110.111 48.0415 110.285 48.3813 110.606 48.5851C110.8 48.7113 111.033 48.7695 111.314 48.7695C111.605 48.7695 111.848 48.6919 112.023 48.5463C112.12 48.4686 112.207 48.3522 112.285 48.2066H113.595C113.556 48.4977 113.401 48.7889 113.12 49.0898C112.683 49.5655 112.062 49.8081 111.275 49.8081C110.625 49.8081 110.043 49.6043 109.548 49.2063C109.053 48.8084 108.8 48.1483 108.8 47.2456C108.8 46.3915 109.024 45.7411 109.48 45.2849C109.936 44.8287 110.518 44.6055 111.237 44.6055C111.664 44.6055 112.052 44.6831 112.392 44.8384ZM110.47 45.945C110.285 46.1294 110.179 46.3817 110.13 46.7021H112.343C112.324 46.3623 112.207 46.1003 112.003 45.9255C111.8 45.7508 111.547 45.6635 111.246 45.6635C110.916 45.6635 110.664 45.7605 110.48 45.945H110.47Z" fill="#636569"/>
<path d="M113.916 45.7022V44.7897H114.605V43.4211H115.877V44.7897H116.673V45.7022H115.877V48.2938C115.877 48.4976 115.906 48.6238 115.954 48.6723C116.003 48.7209 116.158 48.75 116.42 48.75C116.459 48.75 116.498 48.75 116.546 48.75C116.585 48.75 116.634 48.75 116.673 48.75V49.7109L116.061 49.7303C115.459 49.7497 115.042 49.643 114.819 49.4197C114.673 49.2741 114.605 49.0412 114.605 48.7403V45.7216H113.916V45.7022Z" fill="#636569"/>
<path d="M117.08 45.7022V44.7897H117.769V43.4211H119.041V44.7897H119.837V45.7022H119.041V48.2938C119.041 48.4976 119.07 48.6238 119.118 48.6723C119.167 48.7209 119.322 48.75 119.584 48.75C119.623 48.75 119.662 48.75 119.711 48.75C119.749 48.75 119.798 48.75 119.837 48.75V49.7109L119.225 49.7303C118.623 49.7497 118.206 49.643 117.983 49.4197C117.837 49.2741 117.769 49.0412 117.769 48.7403V45.7216H117.08V45.7022Z" fill="#636569"/>
<path d="M122.02 44.7412V47.7017C122.02 47.9832 122.049 48.187 122.117 48.3326C122.234 48.585 122.467 48.7014 122.806 48.7014C123.243 48.7014 123.544 48.5267 123.699 48.1676C123.787 47.9735 123.826 47.7211 123.826 47.4105V44.7412H125.126V49.6527H123.874V48.9635C123.874 48.9635 123.835 49.0217 123.787 49.0994C123.738 49.1771 123.68 49.245 123.612 49.2935C123.408 49.478 123.214 49.5944 123.03 49.6624C122.845 49.7303 122.622 49.7594 122.37 49.7594C121.642 49.7594 121.156 49.4974 120.904 48.9732C120.768 48.682 120.69 48.2646 120.69 47.7017V44.7412H122.001H122.02Z" fill="#636569"/>
<path d="M130.426 45.0229C130.746 45.285 130.911 45.7315 130.911 46.343V49.6432H129.601V46.6536C129.601 46.3915 129.562 46.1974 129.494 46.0615C129.368 45.8091 129.125 45.6829 128.776 45.6829C128.349 45.6829 128.048 45.8674 127.883 46.2362C127.796 46.4303 127.757 46.6827 127.757 46.9836V49.6432H126.476V44.7414H127.718V45.4597C127.883 45.2073 128.038 45.0229 128.184 44.9161C128.446 44.722 128.776 44.6152 129.184 44.6152C129.688 44.6152 130.106 44.7511 130.426 45.0132V45.0229Z" fill="#636569"/>
<path d="M134.619 44.7317C134.93 44.8579 135.182 45.1006 135.376 45.4403V44.7317H136.628V49.3908C136.628 50.0217 136.522 50.4973 136.308 50.8273C135.939 51.3806 135.24 51.6524 134.202 51.6524C133.571 51.6524 133.066 51.5262 132.668 51.2836C132.27 51.0409 132.057 50.672 132.008 50.177H133.406C133.445 50.3226 133.503 50.4391 133.581 50.4973C133.716 50.6138 133.949 50.672 134.279 50.672C134.745 50.672 135.046 50.5167 135.211 50.2061C135.318 50.012 135.366 49.6723 135.366 49.2064V48.8958C135.24 49.1093 135.114 49.2646 134.969 49.3714C134.716 49.5655 134.386 49.6626 133.969 49.6626C133.338 49.6626 132.833 49.4393 132.455 49.0025C132.076 48.556 131.892 47.964 131.892 47.2069C131.892 46.4497 132.076 45.8674 132.435 45.3626C132.794 44.8676 133.309 44.6152 133.978 44.6152C134.221 44.6152 134.435 44.6541 134.619 44.7317ZM135.056 48.2454C135.26 48.0222 135.366 47.6533 135.366 47.1583C135.366 46.6924 135.269 46.343 135.075 46.1003C134.881 45.8577 134.619 45.7315 134.289 45.7315C133.843 45.7315 133.532 45.945 133.357 46.3624C133.27 46.5856 133.221 46.8671 133.221 47.1971C133.221 47.4786 133.27 47.731 133.367 47.9542C133.542 48.3716 133.852 48.5755 134.299 48.5755C134.6 48.5755 134.852 48.459 135.056 48.2357V48.2454Z" fill="#636569"/>
<path d="M138.91 48.0803C138.939 48.3036 138.997 48.4686 139.084 48.5656C139.24 48.7403 139.541 48.818 139.968 48.818C140.22 48.818 140.424 48.7792 140.569 48.7015C140.715 48.6239 140.793 48.5171 140.793 48.3618C140.793 48.2065 140.734 48.1094 140.608 48.0318C140.482 47.9541 140.045 47.8279 139.269 47.6435C138.715 47.5076 138.318 47.3329 138.094 47.1291C137.871 46.9252 137.755 46.6341 137.755 46.2458C137.755 45.7896 137.929 45.4013 138.288 45.081C138.648 44.751 139.143 44.5957 139.793 44.5957C140.404 44.5957 140.909 44.7219 141.297 44.9645C141.686 45.2072 141.909 45.6343 141.967 46.2361H140.686C140.666 46.0711 140.618 45.9449 140.55 45.8478C140.404 45.6731 140.171 45.5858 139.822 45.5858C139.541 45.5858 139.346 45.6246 139.22 45.7119C139.104 45.7993 139.045 45.8964 139.045 46.0225C139.045 46.1681 139.113 46.2749 139.24 46.3429C139.366 46.4108 139.812 46.5273 140.579 46.702C141.094 46.8185 141.472 47.0029 141.724 47.2456C141.977 47.4882 142.103 47.7988 142.103 48.1677C142.103 48.653 141.919 49.051 141.559 49.3616C141.2 49.6722 140.637 49.8275 139.88 49.8275C139.123 49.8275 138.541 49.6625 138.172 49.3421C137.803 49.0121 137.619 48.6045 137.619 48.0997H138.919L138.91 48.0803Z" fill="#636569"/>
<path d="M149.257 44.7609C149.47 44.8483 149.654 44.9939 149.829 45.1977C149.965 45.3725 150.062 45.5763 150.111 45.8287C150.14 45.9937 150.159 46.2363 150.159 46.5566V49.653H148.839V46.5275C148.839 46.3431 148.81 46.1878 148.752 46.0713C148.635 45.8481 148.431 45.7316 148.121 45.7316C147.771 45.7316 147.519 45.8772 147.383 46.1684C147.315 46.3237 147.276 46.5081 147.276 46.7314V49.653H145.985V46.7314C145.985 46.4402 145.956 46.2266 145.898 46.1004C145.791 45.8675 145.578 45.7413 145.267 45.7413C144.898 45.7413 144.656 45.8578 144.529 46.1004C144.462 46.2363 144.423 46.4402 144.423 46.7022V49.653H143.122V44.7512H144.374V45.4695C144.53 45.2172 144.685 45.0327 144.821 44.926C145.073 44.7318 145.393 44.6348 145.791 44.6348C146.17 44.6348 146.471 44.7124 146.704 44.8871C146.888 45.0424 147.034 45.2366 147.131 45.4792C147.296 45.188 147.509 44.9842 147.752 44.8483C148.014 44.7124 148.315 44.6445 148.635 44.6445C148.849 44.6445 149.062 44.6833 149.276 44.7707L149.257 44.7609Z" fill="#636569"/>
<path d="M154.625 44.8384C154.964 44.9937 155.246 45.2364 155.469 45.5664C155.673 45.8576 155.799 46.1973 155.857 46.5759C155.896 46.7991 155.906 47.1291 155.896 47.5465H152.324C152.344 48.0415 152.518 48.3813 152.839 48.5851C153.033 48.7113 153.266 48.7695 153.547 48.7695C153.838 48.7695 154.081 48.6919 154.256 48.5463C154.353 48.4686 154.44 48.3522 154.518 48.2066H155.828C155.789 48.4977 155.634 48.7889 155.353 49.0898C154.916 49.5655 154.295 49.8081 153.508 49.8081C152.858 49.8081 152.276 49.6043 151.781 49.2063C151.286 48.8084 151.033 48.1483 151.033 47.2456C151.033 46.3915 151.256 45.7411 151.713 45.2849C152.159 44.8287 152.751 44.6055 153.47 44.6055C153.897 44.6055 154.285 44.6831 154.625 44.8384ZM152.703 45.945C152.518 46.1294 152.412 46.3817 152.363 46.7021H154.576C154.557 46.3623 154.44 46.1003 154.236 45.9255C154.032 45.7508 153.78 45.6635 153.479 45.6635C153.149 45.6635 152.897 45.7605 152.712 45.945H152.703Z" fill="#636569"/>
<path d="M159.254 44.8189C159.487 44.9451 159.672 45.1295 159.817 45.3624V43.0232H161.118V49.6527H159.866V48.9732C159.681 49.2644 159.477 49.478 159.244 49.6042C159.011 49.7303 158.72 49.7983 158.371 49.7983C157.798 49.7983 157.313 49.5653 156.925 49.0994C156.536 48.6335 156.333 48.0414 156.333 47.3134C156.333 46.4787 156.527 45.8186 156.915 45.3333C157.303 44.8577 157.818 44.615 158.458 44.615C158.759 44.615 159.021 44.683 159.254 44.8092V44.8189ZM159.574 48.3132C159.759 48.0414 159.856 47.692 159.856 47.2649C159.856 46.6631 159.701 46.236 159.4 45.9739C159.215 45.8186 159.002 45.741 158.749 45.741C158.371 45.741 158.099 45.8866 157.924 46.1681C157.75 46.4496 157.662 46.799 157.662 47.2261C157.662 47.6823 157.75 48.0414 157.934 48.3132C158.109 48.585 158.381 48.7209 158.749 48.7209C159.118 48.7209 159.39 48.585 159.574 48.3132Z" fill="#636569"/>
<path d="M163.69 44.1493H162.39V42.9651H163.69V44.1493ZM162.39 44.7317H163.69V49.6431H162.39V44.7317Z" fill="#636569"/>
<path d="M164.748 45.7797V44.7314H168.631V45.7992L166.223 48.5849H168.718V49.6429H164.583V48.6431L167.019 45.7797H164.758H164.748Z" fill="#636569"/>
<path d="M171.048 44.1493H169.747V42.9651H171.048V44.1493ZM169.747 44.7317H171.048V49.6431H169.747V44.7317Z" fill="#636569"/>
<path d="M176.338 45.0229C176.658 45.285 176.823 45.7315 176.823 46.343V49.6432H175.513V46.6536C175.513 46.3915 175.474 46.1974 175.406 46.0615C175.28 45.8091 175.037 45.6829 174.688 45.6829C174.261 45.6829 173.96 45.8674 173.795 46.2362C173.707 46.4303 173.668 46.6827 173.668 46.9836V49.6432H172.387V44.7414H173.63V45.4597C173.795 45.2073 173.95 45.0229 174.096 44.9161C174.358 44.722 174.688 44.6152 175.095 44.6152C175.6 44.6152 176.017 44.7511 176.338 45.0132V45.0229Z" fill="#636569"/>
</g>
<defs>
<clipPath id="clip0_2742_61193">
<rect width="172.91" height="33.6522" fill="white" transform="translate(3.91309 18)"/>
</clipPath>
</defs>
</svg>
