<svg width="180" height="71" viewBox="0 0 180 71" fill="none" xmlns="http://www.w3.org/2000/svg">
<rect width="180" height="70.4348" fill="white"/>
<g clip-path="url(#clip0_2742_61253)">
<g clip-path="url(#clip1_2742_61253)">
<path d="M160.03 34.9317V52.8438H161.907H163.784V34.9317V17.0197H161.907H160.03V34.9317Z" fill="black"/>
<path d="M15.563 35.1913V53.1033H17.44H19.3171V35.1913V17.2793H17.44H15.563V35.1913Z" fill="black"/>
<path d="M26.7212 34.1787L26.76 44.4716L28.6241 44.5105C29.8798 44.5365 30.54 44.4976 30.6565 44.3937C30.7601 44.3159 30.8377 44.0303 30.8377 43.7577C30.8377 43.4981 30.8766 43.2515 30.9154 43.1996C30.9543 43.1607 31.2132 43.3294 31.4721 43.589C31.731 43.8356 32.2358 44.199 32.5853 44.3937C33.1679 44.6923 33.375 44.7312 34.5918 44.7312C35.8087 44.7312 36.0287 44.6923 36.7537 44.3548C38.32 43.6409 39.4721 41.9535 39.8475 39.8638C40.0806 38.5529 40.0676 35.9699 39.8346 34.7238C39.6145 33.5427 38.9543 32.1019 38.3071 31.3621C37.4139 30.3237 35.5886 29.6488 34.1129 29.7786C33.1808 29.8694 32.1581 30.2718 31.731 30.7261C31.5756 30.8948 31.3944 31.0376 31.3297 31.0376C31.2779 31.0376 31.2261 29.4281 31.2261 27.4682V23.8988H28.9607H26.6953L26.7212 34.1787ZM34.1129 33.4259C35.2391 33.8931 35.5498 34.9056 35.4721 37.839C35.4203 39.9936 35.3168 40.3311 34.5918 40.9541C34.2423 41.2397 34.0611 41.2916 33.3491 41.2916C32.4429 41.2916 32.1323 41.1877 31.5886 40.6685L31.2261 40.3311V37.3328C31.2261 33.958 31.239 33.9191 32.184 33.4908C32.8183 33.2052 33.5303 33.1793 34.1129 33.4259Z" fill="black"/>
<path d="M125.816 34.1786L125.855 44.4715H128.017H130.191L130.23 42.3818L130.256 40.305L130.89 39.682L131.525 39.059L132.418 40.5906C132.923 41.4472 133.57 42.5765 133.881 43.1086C134.761 44.6662 134.476 44.5364 137.272 44.5364C138.774 44.5364 139.706 44.4845 139.706 44.4066C139.706 44.3417 138.541 42.4337 137.117 40.1752C135.693 37.9038 134.528 35.9958 134.528 35.9179C134.541 35.84 135.641 34.4901 136.975 32.9196C138.321 31.349 139.382 30.0381 139.331 29.9991C139.292 29.9602 138.088 29.9472 136.651 29.9732L134.049 30.0121L132.185 32.3485L130.321 34.6978L130.282 29.2982L130.256 23.8987H128.017H125.79L125.816 34.1786Z" fill="black"/>
<path d="M56.7928 26.5205C56.754 26.6114 56.7151 27.4161 56.7022 28.3117L56.6634 29.9342L55.7831 29.9731L54.9028 30.012L54.9417 31.5307L54.9805 33.0493L55.8608 33.0882L56.7281 33.1272V36.5928C56.7281 38.5008 56.7928 40.5516 56.8575 41.1486C57.0776 42.8879 57.686 43.8354 58.9935 44.4325C59.576 44.7051 59.822 44.731 61.3883 44.7181C62.411 44.7181 63.2783 44.6532 63.4984 44.5623L63.8479 44.4066V42.849V41.2914H63.0065C61.9838 41.2914 61.5696 41.1097 61.3883 40.6035C61.3107 40.3699 61.2589 38.8123 61.2589 36.6706V33.1142H62.411C63.343 33.1142 63.5761 33.0753 63.6408 32.9065C63.7832 32.5431 63.7314 30.1548 63.5761 30.051C63.4984 30.012 62.9676 29.9601 62.3851 29.9471L61.3236 29.9342L61.2848 28.143L61.2459 26.3647H59.0453C57.4012 26.3647 56.8317 26.4037 56.7928 26.5205Z" fill="black"/>
<path d="M70.191 29.9475C67.8738 30.4538 66.3204 31.8556 65.4272 34.2698C65.1683 34.9707 65.0906 35.438 65.0389 36.8787C64.9741 38.9555 65.1036 39.7472 65.7508 41.0712C67.1489 43.8618 70.4499 45.3026 74.0228 44.6536C75.4985 44.394 77.9581 42.9143 77.9581 42.2913C77.9581 42.0446 76.1328 39.916 75.9645 39.9679C75.8869 39.9938 75.6409 40.1885 75.4208 40.3962C74.8254 40.9673 73.8545 41.2918 72.7412 41.2918C71.615 41.2918 70.9548 41.0192 70.3463 40.3183C69.9321 39.864 69.8285 39.6564 69.6214 38.9814L69.5308 38.6959H74.0228H78.5147L78.437 36.9047C78.3205 34.2308 77.8416 32.842 76.5471 31.544C75.0195 30.0254 72.6117 29.4154 70.191 29.9475ZM72.9872 33.517C73.6215 33.8155 74.0745 34.5813 74.0745 35.3601V35.8403H71.7962H69.5179L69.6085 35.412C69.9968 33.6208 71.4855 32.7901 72.9872 33.517Z" fill="black"/>
<path d="M104.754 29.9473C102.217 30.4924 100.392 32.3355 99.7706 34.9704C99.4858 36.1645 99.5117 38.5528 99.8224 39.7599C100.418 42.0833 101.777 43.6409 103.926 44.4326C104.56 44.6663 104.988 44.7182 106.437 44.7182C108.043 44.7312 108.263 44.7052 109.169 44.3677C111.033 43.6798 112.327 42.291 113.001 40.2532C113.324 39.2667 113.363 38.9682 113.363 37.3976C113.363 35.4507 113.221 34.6589 112.612 33.3739C112.12 32.3226 110.813 30.9727 109.803 30.4794C108.418 29.8045 106.399 29.5838 104.754 29.9473ZM107.408 33.4258C108.004 33.6854 108.586 34.5291 108.78 35.4247C108.858 35.853 108.91 36.8135 108.871 37.7351C108.832 39.1758 108.793 39.3835 108.444 40.0585C107.965 40.98 107.46 41.2915 106.424 41.2915C105.104 41.2915 104.379 40.4738 104.094 38.6956C103.939 37.6702 104.004 35.9958 104.25 35.1392C104.677 33.6075 106.049 32.8677 107.408 33.4258Z" fill="black"/>
<path d="M122.101 29.8563C121.466 30.051 120.974 30.3755 120.444 30.9596C120.146 31.2841 119.874 31.5567 119.848 31.5567C119.822 31.5567 119.77 31.2322 119.732 30.8428C119.693 30.4534 119.628 30.09 119.602 30.038C119.563 29.9731 118.631 29.9472 117.518 29.9731L115.499 30.0121V37.2677V44.5364H117.699H119.9V39.9156V35.2948L120.392 34.8016C121 34.1786 121.699 33.9839 123.071 34.0488L124.107 34.0877L124.146 31.998L124.172 29.9082L123.77 29.8174C123.253 29.7135 122.515 29.7395 122.101 29.8563Z" fill="black"/>
<path d="M144.496 29.9345C141.454 30.6224 139.797 32.9587 140.535 35.5157C140.716 36.0998 140.91 36.4113 141.428 36.9435C142.282 37.8002 143.331 38.2934 145.402 38.8256C147.266 39.3188 147.914 39.6303 148.121 40.1365C148.496 41.0191 147.68 41.8109 146.412 41.8109C145.169 41.8109 144.379 41.3177 144.146 40.3831L144.03 39.9288L142.101 39.8899C141.04 39.8769 140.108 39.8769 140.017 39.9159C139.913 39.9548 139.9 40.1495 139.978 40.5908C140.302 42.3171 141.635 43.693 143.668 44.4198C144.742 44.7962 146.943 44.8871 148.25 44.6145C150.075 44.2251 151.525 43.2776 152.147 42.0445C152.535 41.2787 152.626 39.8639 152.341 38.9813C151.862 37.5406 150.386 36.5022 148.056 35.957C145.959 35.4768 145.389 35.2821 145.001 34.9187C144.302 34.2567 144.613 33.1794 145.609 32.8549C146.632 32.5174 147.991 33.1275 147.991 33.9192C147.991 34.4903 148.172 34.5423 150.412 34.5423H152.522V33.9841C152.522 32.777 151.448 31.2973 150.049 30.5834C148.664 29.8696 146.101 29.571 144.496 29.9345Z" fill="black"/>
<path d="M40.6758 30.0252C40.6758 30.129 40.87 30.791 41.1159 31.5049C45.5302 44.4327 45.5949 44.6404 45.4007 45.1725C44.9218 46.5484 44.4946 46.8729 43.2001 46.8729H42.4881V48.4953C42.4881 49.9231 42.514 50.1438 42.7211 50.2216C42.8376 50.2736 43.5884 50.3125 44.3651 50.3125C45.6596 50.3125 45.8538 50.2736 46.514 49.9491C47.3684 49.5337 48.1581 48.729 48.6111 47.8204C48.7794 47.4829 49.8668 44.4586 51.0189 41.0969C52.184 37.7352 53.5044 33.9321 53.9575 32.6211C54.4105 31.3102 54.7859 30.168 54.7859 30.0901C54.7859 29.9733 54.1775 29.9473 52.4299 29.9603L50.061 29.9863L48.9218 33.8542C48.3004 35.9699 47.7438 37.7611 47.692 37.813C47.6402 37.8649 47.1095 36.1257 46.5011 33.9581L45.4137 29.9992H43.2519C42.0609 29.9992 40.9994 29.9603 40.8829 29.9214C40.7535 29.8694 40.6758 29.9084 40.6758 30.0252Z" fill="black"/>
<path d="M79.3818 30.116C79.3818 30.2588 80.042 33.1403 82.2815 42.7194L82.6958 44.4716L84.521 44.5106C85.8673 44.5365 86.3722 44.4976 86.4628 44.3808C86.5275 44.2899 86.7994 43.4203 87.0712 42.4598C88.068 38.7865 88.8059 36.2165 88.8706 36.1516C88.9483 36.0737 89.2331 36.9953 90.3334 41.032C90.8124 42.7843 91.2525 44.2899 91.3302 44.3678C91.4596 44.5495 94.7477 44.6144 94.9807 44.4327C95.0584 44.3808 95.2784 43.6409 95.4855 42.7843C95.6797 41.9276 96.1328 39.9936 96.4823 38.5009C98.1911 31.1674 98.4241 30.1031 98.3723 30.0382C98.3076 29.9733 94.2428 29.9733 94.1781 30.0382C94.1651 30.0641 93.8415 31.8943 93.4661 34.1268C93.0907 36.3463 92.7412 38.1245 92.6765 38.0596C92.6247 38.0077 92.1069 36.1646 91.5243 33.984L90.4758 29.9992H88.8706C88.0033 29.9992 87.2784 30.0252 87.2784 30.0511C87.2784 30.2199 85.1812 38.1245 85.0906 38.2673C85.0388 38.3841 84.767 37.0213 84.4304 34.9705C84.1327 33.0624 83.8091 31.1544 83.7314 30.7391L83.589 29.9862L81.4789 29.9603C79.7831 29.9343 79.3818 29.9733 79.3818 30.116Z" fill="black"/>
</g>
</g>
<defs>
<clipPath id="clip0_2742_61253">
<rect width="148.696" height="36.5509" fill="white" transform="translate(15.2607 16.9419)"/>
</clipPath>
<clipPath id="clip1_2742_61253">
<rect width="148.696" height="36.5509" fill="white" transform="translate(15.2607 16.9419)"/>
</clipPath>
</defs>
</svg>
