<svg width="30" height="36" viewBox="0 0 30 36" fill="none" xmlns="http://www.w3.org/2000/svg">
<path d="M27.9996 14.8451C27.9996 7.75074 22.1795 2 15 2C7.8205 2 2 7.75074 2 14.8451C2 18.5387 3.5784 21.8677 6.10419 24.211L14.9983 33L23.8624 24.2415C26.4078 21.8966 27.9996 18.5548 27.9996 14.8451Z" fill="url(#paint0_linear_2683_48234)"/>
<path d="M28 14.8447C27.9998 7.75053 22.1794 2 15 2C7.82063 2 2.00022 7.75053 2 14.8447L2.00488 15.1904C2.09989 18.7459 3.65767 21.9409 6.10449 24.2109L14.998 33L23.8623 24.2412C26.3282 21.9694 27.8995 18.7624 27.9951 15.1914L28 14.8447ZM30 14.8447C30 19.1217 28.1695 22.9737 25.2559 25.6768L14.998 35.8115L4.69824 25.6338C1.812 22.9332 0 19.0991 0 14.8447C0.000219396 6.62339 6.73877 0 15 0C23.2613 0 29.9998 6.62347 30 14.8447Z" fill="#E8EFF6"/>
<path d="M22.2002 13.9998L22.3018 14.0047C22.8062 14.0558 23.2002 14.4819 23.2002 14.9998C23.2002 15.5177 22.8062 15.9439 22.3018 15.9949L22.2002 15.9998H7.7998C7.24752 15.9998 6.7998 15.5521 6.7998 14.9998C6.7998 14.4475 7.24752 13.9998 7.7998 13.9998H22.2002Z" fill="white"/>
<path d="M15.9998 22.2002L15.9949 22.3018C15.9439 22.8062 15.5177 23.2002 14.9998 23.2002C14.4819 23.2002 14.0558 22.8062 14.0047 22.3018L13.9998 22.2002L13.9998 7.7998C13.9998 7.24752 14.4475 6.7998 14.9998 6.7998C15.5521 6.7998 15.9998 7.24752 15.9998 7.7998L15.9998 22.2002Z" fill="white"/>
<defs>
<linearGradient id="paint0_linear_2683_48234" x1="3.94997" y1="6.65" x2="25.8241" y2="27.6166" gradientUnits="userSpaceOnUse">
<stop stop-color="#009DFF"/>
<stop offset="1" stop-color="#0072DD"/>
</linearGradient>
</defs>
</svg>
