<svg width="24" height="24" viewBox="0 0 24 24" fill="none" xmlns="http://www.w3.org/2000/svg">
<path d="M0 12C0 5.37258 5.37258 0 12 0V0C18.6274 0 24 5.37258 24 12V12C24 18.6274 18.6274 24 12 24V24C5.37258 24 0 18.6274 0 12V12Z" fill="#CDCDCD" fill-opacity="0.2"/>
<path fill-rule="evenodd" clip-rule="evenodd" d="M17.9399 6.3999C17.9399 6.67604 17.7161 6.8999 17.4399 6.8999L14.4616 6.8999L14.4616 10.6837L10.6808 10.6837L10.6808 14.5431L6.89994 14.5431L6.89994 17.5999C6.89994 17.876 6.67608 18.0999 6.39994 18.0999C6.1238 18.0999 5.89994 17.876 5.89994 17.5999L5.89994 13.5431L9.68076 13.5431L9.68076 9.68369L13.4616 9.68369L13.4616 5.8999L17.4399 5.8999C17.7161 5.8999 17.9399 6.12376 17.9399 6.3999Z" fill="#666666"/>
</svg>
