<svg width="16" height="16" viewBox="0 0 16 16" fill="none" xmlns="http://www.w3.org/2000/svg">
<path fill-rule="evenodd" clip-rule="evenodd" d="M3.03988 7.02045C3.31602 7.02045 3.53988 7.24431 3.53988 7.52045V13.1005H12.4599V7.52045C12.4599 7.24431 12.6837 7.02045 12.9599 7.02045C13.236 7.02045 13.4599 7.24431 13.4599 7.52045V13.6005C13.4599 13.8766 13.236 14.1005 12.9599 14.1005H3.03988C2.76374 14.1005 2.53988 13.8766 2.53988 13.6005V7.52045C2.53988 7.24431 2.76374 7.02045 3.03988 7.02045Z" fill="#666666"/>
<path fill-rule="evenodd" clip-rule="evenodd" d="M7.79248 1.03133C7.96791 0.908059 8.20241 0.910357 8.37539 1.03705L14.0554 5.19705C14.2782 5.36021 14.3265 5.67308 14.1633 5.89586C14.0002 6.11865 13.6873 6.16698 13.4645 6.00381L8.07392 2.05577L2.44743 6.00953C2.22149 6.16829 1.90963 6.11384 1.75086 5.8879C1.59209 5.66196 1.64654 5.3501 1.87248 5.19133L7.79248 1.03133Z" fill="#666666"/>
</svg>
