<svg width="16" height="16" viewBox="0 0 16 16" fill="none" xmlns="http://www.w3.org/2000/svg">
<g clip-path="url(#clip0_1494_27486)">
<path fill-rule="evenodd" clip-rule="evenodd" d="M14.1111 1.58389C14.2499 1.72341 14.2939 1.93132 14.2236 2.11509L9.53801 14.3645C9.46331 14.5598 9.275 14.688 9.06593 14.6859C8.85686 14.6837 8.67119 14.5518 8.60047 14.355L6.66902 8.98105L1.30954 7.02302C1.11313 6.95126 0.982115 6.76486 0.981125 6.55575C0.980135 6.34664 1.10938 6.159 1.3051 6.08539L13.5806 1.46846C13.7647 1.3992 13.9724 1.44438 14.1111 1.58389ZM12.8926 2.79559L2.91954 6.54657L7.23198 8.12208C7.37127 8.17297 7.48078 8.28305 7.53094 8.4226L9.08561 12.7482L12.8926 2.79559Z" fill="white"/>
</g>
<defs>
<clipPath id="clip0_1494_27486">
<rect width="16" height="16" fill="white"/>
</clipPath>
</defs>
</svg>
