<svg width="34" height="34" viewBox="0 0 34 34" fill="none" xmlns="http://www.w3.org/2000/svg">
<rect width="34" height="34" rx="17" fill="#98C867" fill-opacity="0.2"/>
<path fill-rule="evenodd" clip-rule="evenodd" d="M21.5021 10.8192L11.938 20.3833L11.6854 22.4395L13.7416 22.187L23.3057 12.6229L21.5021 10.8192ZM22.0677 9.26361C21.7553 8.95119 21.2488 8.95119 20.9364 9.26361L10.7069 19.4931C10.5807 19.6193 10.5003 19.7841 10.4785 19.9613L10.0874 23.146C10.024 23.6624 10.4626 24.101 10.979 24.0376L14.1637 23.6464C14.3408 23.6247 14.5056 23.5443 14.6319 23.4181L24.8614 13.1886C25.1738 12.8762 25.1738 12.3696 24.8614 12.0572L22.0677 9.26361Z" fill="#154430"/>
<path fill-rule="evenodd" clip-rule="evenodd" d="M21.2695 15.0302L18.6695 12.4302L19.7301 11.3695L22.3301 13.9695L21.2695 15.0302Z" fill="#154430"/>
</svg>
