<svg width="24" height="24" viewBox="0 0 24 24" fill="none" xmlns="http://www.w3.org/2000/svg">
<path d="M0 12C0 5.37258 5.37258 0 12 0V0C18.6274 0 24 5.37258 24 12V12C24 18.6274 18.6274 24 12 24V24C5.37258 24 0 18.6274 0 12V12Z" fill="#CDCDCD" fill-opacity="0.2"/>
<path fill-rule="evenodd" clip-rule="evenodd" d="M7.04013 11.02C7.31627 11.02 7.54013 11.2438 7.54013 11.52V17.1H16.4601V11.52C16.4601 11.2438 16.684 11.02 16.9601 11.02C17.2363 11.02 17.4601 11.2438 17.4601 11.52V17.6C17.4601 17.8761 17.2363 18.1 16.9601 18.1H7.04013C6.76398 18.1 6.54013 17.8761 6.54013 17.6V11.52C6.54013 11.2438 6.76398 11.02 7.04013 11.02Z" fill="#666666"/>
<path fill-rule="evenodd" clip-rule="evenodd" d="M11.7927 5.03085C11.9682 4.90757 12.2027 4.90987 12.3756 5.03656L18.0556 9.19656C18.2784 9.35972 18.3267 9.67259 18.1636 9.89538C18.0004 10.1182 17.6875 10.1665 17.4648 10.0033L12.0742 6.05528L6.44767 10.009C6.22173 10.1678 5.90987 10.1134 5.7511 9.88741C5.59234 9.66148 5.64679 9.34961 5.87273 9.19085L11.7927 5.03085Z" fill="#666666"/>
</svg>
