<svg width="20" height="20" viewBox="0 0 20 20" fill="none" xmlns="http://www.w3.org/2000/svg">
<path d="M15.5 10.0002C15.5 6.96259 13.0376 4.50015 10 4.50015C6.96243 4.50015 4.5 6.96259 4.5 10.0002C4.5 13.0377 6.96243 15.5002 10 15.5002V17.0002C6.13401 17.0002 3 13.8661 3 10.0002C3 6.13416 6.13401 3.00015 10 3.00015C13.866 3.00015 17 6.13416 17 10.0002C17 13.8661 13.866 17.0002 10 17.0002V15.5002C13.0376 15.5002 15.5 13.0377 15.5 10.0002Z" fill="white"/>
<path d="M16.7998 10.7501L16.7236 10.7462C16.3454 10.7079 16.0498 10.3885 16.0498 10.0001C16.0498 9.61176 16.3454 9.29238 16.7236 9.25403L16.7998 9.25012H18.2002C18.6144 9.25012 18.9502 9.58591 18.9502 10.0001C18.9502 10.4143 18.6144 10.7501 18.2002 10.7501H16.7998Z" fill="white"/>
<path d="M1.7998 10.7501L1.72363 10.7462C1.34539 10.7079 1.0498 10.3885 1.0498 10.0001C1.0498 9.61176 1.34539 9.29238 1.72363 9.25403L1.7998 9.25012H3.2002C3.61441 9.25012 3.9502 9.58591 3.9502 10.0001C3.9502 10.4143 3.61441 10.7501 3.2002 10.7501H1.7998Z" fill="white"/>
<path d="M9.25012 16.7998L9.25403 16.7236C9.29238 16.3454 9.61176 16.0498 10.0001 16.0498C10.3885 16.0498 10.7079 16.3454 10.7462 16.7236L10.7501 16.7998V18.2002C10.7501 18.6144 10.4143 18.9502 10.0001 18.9502C9.58591 18.9502 9.25012 18.6144 9.25012 18.2002V16.7998Z" fill="white"/>
<path d="M9.25012 1.7998L9.25403 1.72363C9.29238 1.34538 9.61176 1.0498 10.0001 1.0498C10.3885 1.0498 10.7079 1.34539 10.7462 1.72363L10.7501 1.7998V3.2002C10.7501 3.61441 10.4143 3.9502 10.0001 3.9502C9.58591 3.9502 9.25012 3.61441 9.25012 3.2002V1.7998Z" fill="white"/>
<path d="M9.25012 10.8997V6.80005C9.25012 6.38584 9.58591 6.05005 10.0001 6.05005C10.4143 6.05005 10.7501 6.38584 10.7501 6.80005V10.8997C10.7501 11.3139 10.4143 11.6497 10.0001 11.6497C9.58591 11.6497 9.25012 11.3139 9.25012 10.8997Z" fill="white"/>
<ellipse cx="10.0003" cy="13.2" rx="0.8" ry="0.8" transform="rotate(-180 10.0003 13.2)" fill="white"/>
</svg>
