<svg width="20" height="20" viewBox="0 0 20 20" fill="none" xmlns="http://www.w3.org/2000/svg">
<path d="M0 10C0 4.47715 4.47715 0 10 0V0C15.5228 0 20 4.47715 20 10V10C20 15.5228 15.5228 20 10 20V20C4.47715 20 0 15.5228 0 10V10Z" fill="#62AD4B"/>
<path d="M0 10C0 4.47715 4.47715 0 10 0V0C15.5228 0 20 4.47715 20 10V10C20 15.5228 15.5228 20 10 20V20C4.47715 20 0 15.5228 0 10V10Z" fill="url(#paint0_linear_1493_26478)"/>
<path d="M0 10C0 4.47715 4.47715 0 10 0V0C15.5228 0 20 4.47715 20 10V10C20 15.5228 15.5228 20 10 20V20C4.47715 20 0 15.5228 0 10V10Z" fill="url(#paint1_linear_1493_26478)"/>
<path fill-rule="evenodd" clip-rule="evenodd" d="M10 14.125C12.2782 14.125 14.125 12.2782 14.125 10C14.125 7.72183 12.2782 5.875 10 5.875C7.72183 5.875 5.875 7.72183 5.875 10C5.875 12.2782 7.72183 14.125 10 14.125ZM10 15.25C12.8995 15.25 15.25 12.8995 15.25 10C15.25 7.10051 12.8995 4.75 10 4.75C7.10051 4.75 4.75 7.10051 4.75 10C4.75 12.8995 7.10051 15.25 10 15.25Z" fill="white"/>
<path fill-rule="evenodd" clip-rule="evenodd" d="M10 7.03711C10.3107 7.03711 10.5625 7.28895 10.5625 7.59961V10.0666L11.5977 11.1019C11.8174 11.3215 11.8174 11.6777 11.5977 11.8974C11.3781 12.117 11.0219 12.117 10.8023 11.8974L9.67725 10.7724C9.66458 10.7597 9.65263 10.7465 9.64142 10.733C9.51685 10.6298 9.4375 10.474 9.4375 10.2996V7.59961C9.4375 7.28895 9.68934 7.03711 10 7.03711Z" fill="white"/>
<defs>
<linearGradient id="paint0_linear_1493_26478" x1="1.5" y1="3" x2="15.5" y2="19" gradientUnits="userSpaceOnUse">
<stop stop-color="#81B96F"/>
<stop offset="1" stop-color="#62AD4B"/>
</linearGradient>
<linearGradient id="paint1_linear_1493_26478" x1="2.69235" y1="1.6129" x2="13.876" y2="16.7996" gradientUnits="userSpaceOnUse">
<stop stop-color="#93C460"/>
<stop offset="1" stop-color="#7BAF45"/>
</linearGradient>
</defs>
</svg>
