<svg width="28" height="28" viewBox="0 0 28 28" fill="none" xmlns="http://www.w3.org/2000/svg">
<path d="M0 14C0 6.26801 6.26801 0 14 0V0C21.732 0 28 6.26801 28 14V14C28 21.732 21.732 28 14 28V28C6.26801 28 0 21.732 0 14V14Z" fill="#FF0000"/>
<path d="M19.5 14.0002C19.5 10.9626 17.0376 8.50015 14 8.50015C10.9624 8.50015 8.5 10.9626 8.5 14.0002C8.5 17.0377 10.9624 19.5002 14 19.5002V21.0002C10.134 21.0002 7 17.8661 7 14.0002C7 10.1342 10.134 7.00015 14 7.00015C17.866 7.00015 21 10.1342 21 14.0002C21 17.8661 17.866 21.0002 14 21.0002V19.5002C17.0376 19.5002 19.5 17.0377 19.5 14.0002Z" fill="white"/>
<path d="M20.7998 14.7501L20.7236 14.7462C20.3454 14.7079 20.0498 14.3885 20.0498 14.0001C20.0498 13.6118 20.3454 13.2924 20.7236 13.254L20.7998 13.2501H22.2002C22.6144 13.2501 22.9502 13.5859 22.9502 14.0001C22.9502 14.4143 22.6144 14.7501 22.2002 14.7501H20.7998Z" fill="white"/>
<path d="M5.7998 14.7501L5.72363 14.7462C5.34539 14.7079 5.0498 14.3885 5.0498 14.0001C5.0498 13.6118 5.34539 13.2924 5.72363 13.254L5.7998 13.2501H7.2002C7.61441 13.2501 7.9502 13.5859 7.9502 14.0001C7.9502 14.4143 7.61441 14.7501 7.2002 14.7501H5.7998Z" fill="white"/>
<path d="M13.2501 20.7998L13.254 20.7236C13.2924 20.3454 13.6118 20.0498 14.0001 20.0498C14.3885 20.0498 14.7079 20.3454 14.7462 20.7236L14.7501 20.7998V22.2002C14.7501 22.6144 14.4143 22.9502 14.0001 22.9502C13.5859 22.9502 13.2501 22.6144 13.2501 22.2002V20.7998Z" fill="white"/>
<path d="M13.2501 5.7998L13.254 5.72363C13.2924 5.34538 13.6118 5.0498 14.0001 5.0498C14.3885 5.0498 14.7079 5.34539 14.7462 5.72363L14.7501 5.7998V7.2002C14.7501 7.61441 14.4143 7.9502 14.0001 7.9502C13.5859 7.9502 13.2501 7.61441 13.2501 7.2002V5.7998Z" fill="white"/>
<path d="M13.2501 14.8997V10.8C13.2501 10.3858 13.5859 10.05 14.0001 10.05C14.4143 10.05 14.7501 10.3858 14.7501 10.8V14.8997C14.7501 15.3139 14.4143 15.6497 14.0001 15.6497C13.5859 15.6497 13.2501 15.3139 13.2501 14.8997Z" fill="white"/>
<ellipse cx="14.0003" cy="17.2" rx="0.8" ry="0.8" transform="rotate(-180 14.0003 17.2)" fill="white"/>
</svg>
