<svg width="20" height="20" viewBox="0 0 20 20" fill="none" xmlns="http://www.w3.org/2000/svg">
<path fill-rule="evenodd" clip-rule="evenodd" d="M14.5021 3.81925L4.93796 13.3833L4.68545 15.4395L6.74163 15.187L16.3057 5.62291L14.5021 3.81925ZM15.0677 2.26361C14.7553 1.95119 14.2488 1.95119 13.9364 2.26361L3.70687 12.4931C3.58066 12.6193 3.50028 12.7841 3.47852 12.9613L3.08742 16.146C3.024 16.6624 3.46258 17.101 3.97897 17.0376L7.16369 16.6464C7.34085 16.6247 7.50565 16.5443 7.63186 16.4181L17.8614 6.1886C18.1738 5.87618 18.1738 5.36965 17.8614 5.05723L15.0677 2.26361Z" fill="white"/>
<path fill-rule="evenodd" clip-rule="evenodd" d="M14.2695 8.03016L11.6695 5.43016L12.7301 4.3695L15.3301 6.9695L14.2695 8.03016Z" fill="white"/>
</svg>
