<svg width="16" height="16" viewBox="0 0 16 16" fill="none" xmlns="http://www.w3.org/2000/svg">
<path fill-rule="evenodd" clip-rule="evenodd" d="M7.9999 12.5994C10.5404 12.5994 12.5999 10.5399 12.5999 7.99941C12.5999 5.4589 10.5404 3.39941 7.9999 3.39941C5.45939 3.39941 3.3999 5.4589 3.3999 7.99941C3.3999 10.5399 5.45939 12.5994 7.9999 12.5994ZM7.9999 13.5994C11.0927 13.5994 13.5999 11.0922 13.5999 7.99941C13.5999 4.90662 11.0927 2.39941 7.9999 2.39941C4.90711 2.39941 2.3999 4.90662 2.3999 7.99941C2.3999 11.0922 4.90711 13.5994 7.9999 13.5994Z" fill="#C24400"/>
<path fill-rule="evenodd" clip-rule="evenodd" d="M8.00024 4.93945C8.27639 4.93945 8.50024 5.16331 8.50024 5.43945V8.11235L9.6338 9.2459C9.82906 9.44116 9.82906 9.75774 9.6338 9.95301C9.43854 10.1483 9.12195 10.1483 8.92669 9.95301L7.72669 8.75301C7.71314 8.73945 7.70053 8.72532 7.68886 8.71068C7.57391 8.61907 7.50024 8.47786 7.50024 8.31945V5.43945C7.50024 5.16331 7.7241 4.93945 8.00024 4.93945Z" fill="#C24400"/>
</svg>
