<svg width="24" height="24" viewBox="0 0 24 24" fill="none" xmlns="http://www.w3.org/2000/svg">
<path d="M0 12C0 5.37258 5.37258 0 12 0V0C18.6274 0 24 5.37258 24 12V12C24 18.6274 18.6274 24 12 24V24C5.37258 24 0 18.6274 0 12V12Z" fill="#98C867" fill-opacity="0.2"/>
<path fill-rule="evenodd" clip-rule="evenodd" d="M7.03988 11.0205C7.31602 11.0205 7.53988 11.2443 7.53988 11.5205V17.1005H16.4599V11.5205C16.4599 11.2443 16.6837 11.0205 16.9599 11.0205C17.236 11.0205 17.4599 11.2443 17.4599 11.5205V17.6005C17.4599 17.8766 17.236 18.1005 16.9599 18.1005H7.03988C6.76374 18.1005 6.53988 17.8766 6.53988 17.6005V11.5205C6.53988 11.2443 6.76374 11.0205 7.03988 11.0205Z" fill="#154430"/>
<path fill-rule="evenodd" clip-rule="evenodd" d="M11.7925 5.03133C11.9679 4.90806 12.2024 4.91036 12.3754 5.03705L18.0554 9.19705C18.2782 9.36021 18.3265 9.67308 18.1633 9.89586C18.0002 10.1186 17.6873 10.167 17.4645 10.0038L12.0739 6.05577L6.44743 10.0095C6.22149 10.1683 5.90963 10.1138 5.75086 9.8879C5.59209 9.66196 5.64654 9.3501 5.87248 9.19133L11.7925 5.03133Z" fill="#154430"/>
</svg>
