<svg width="20" height="20" viewBox="0 0 20 20" fill="none" xmlns="http://www.w3.org/2000/svg">
<path fill-rule="evenodd" clip-rule="evenodd" d="M13.4697 13.4702C13.7626 13.1773 14.2375 13.1773 14.5304 13.4702L17.7304 16.6702C18.0233 16.9631 18.0233 17.4379 17.7304 17.7308C17.4375 18.0237 16.9626 18.0237 16.6697 17.7308L13.4697 14.5308C13.1768 14.2379 13.1768 13.7631 13.4697 13.4702Z" fill="#154430"/>
<path fill-rule="evenodd" clip-rule="evenodd" d="M8.4 13.3C11.1062 13.3 13.3 11.1062 13.3 8.4C13.3 5.6938 11.1062 3.5 8.4 3.5C5.6938 3.5 3.5 5.6938 3.5 8.4C3.5 11.1062 5.6938 13.3 8.4 13.3ZM8.4 14.8C11.9346 14.8 14.8 11.9346 14.8 8.4C14.8 4.86538 11.9346 2 8.4 2C4.86538 2 2 4.86538 2 8.4C2 11.9346 4.86538 14.8 8.4 14.8Z" fill="#154430"/>
</svg>
