<svg width="20" height="20" viewBox="0 0 20 20" fill="none" xmlns="http://www.w3.org/2000/svg">
<path fill-rule="evenodd" clip-rule="evenodd" d="M4.37882 4.37885C4.67171 4.08596 5.14658 4.08596 5.43948 4.37885L15.6218 14.5612C15.9147 14.8541 15.9147 15.329 15.6218 15.6218C15.3289 15.9147 14.854 15.9147 14.5612 15.6218L4.37882 5.43951C4.08592 5.14662 4.08592 4.67174 4.37882 4.37885Z" fill="#30805D"/>
<path fill-rule="evenodd" clip-rule="evenodd" d="M15.6214 4.37885C15.9143 4.67174 15.9143 5.14662 15.6214 5.43951L5.43902 15.6218C5.14613 15.9147 4.67125 15.9147 4.37836 15.6218C4.08547 15.329 4.08547 14.8541 4.37836 14.5612L14.5607 4.37885C14.8536 4.08596 15.3285 4.08596 15.6214 4.37885Z" fill="#30805D"/>
</svg>
