<svg width="24" height="24" viewBox="0 0 24 24" fill="none" xmlns="http://www.w3.org/2000/svg">
<path d="M0 12C0 5.37258 5.37258 0 12 0V0C18.6274 0 24 5.37258 24 12V12C24 18.6274 18.6274 24 12 24V24C5.37258 24 0 18.6274 0 12V12Z" fill="#98C867" fill-opacity="0.2"/>
<path fill-rule="evenodd" clip-rule="evenodd" d="M12.0015 17.501C15.0394 17.501 17.502 15.0384 17.502 12.0006C17.502 8.96276 15.0394 6.50012 12.0015 6.50012C8.96373 6.50012 6.5011 8.96276 6.5011 12.0006C6.5011 15.0384 8.96373 17.501 12.0015 17.501ZM12.0015 19.0011C15.8679 19.0011 19.0021 15.8669 19.0021 12.0006C19.0021 8.13426 15.8679 5 12.0015 5C8.13524 5 5.00098 8.13426 5.00098 12.0006C5.00098 15.8669 8.13524 19.0011 12.0015 19.0011Z" fill="#154430"/>
<path fill-rule="evenodd" clip-rule="evenodd" d="M12.001 10.8505C12.4152 10.8505 12.751 11.1863 12.751 11.6006V15.2006C12.751 15.6148 12.4152 15.9506 12.001 15.9506C11.5867 15.9506 11.2509 15.6148 11.2509 15.2006V11.6006C11.2509 11.1863 11.5867 10.8505 12.001 10.8505Z" fill="#154430"/>
<path d="M11.2012 8.80023C11.2012 8.3584 11.5593 8.00023 12.0012 8.00023C12.443 8.00023 12.8012 8.3584 12.8012 8.80023C12.8012 9.24206 12.443 9.60023 12.0012 9.60023C11.5593 9.60023 11.2012 9.24206 11.2012 8.80023Z" fill="#154430"/>
</svg>
