<svg width="24" height="24" viewBox="0 0 24 24" fill="none" xmlns="http://www.w3.org/2000/svg">
<path d="M0 12C0 5.37258 5.37258 0 12 0V0C18.6274 0 24 5.37258 24 12V12C24 18.6274 18.6274 24 12 24V24C5.37258 24 0 18.6274 0 12V12Z" fill="#CDCDCD" fill-opacity="0.2"/>
<path fill-rule="evenodd" clip-rule="evenodd" d="M11.9999 16.6004C14.5404 16.6004 16.5999 14.5409 16.5999 12.0004C16.5999 9.45988 14.5404 7.40039 11.9999 7.40039C9.45939 7.40039 7.3999 9.45988 7.3999 12.0004C7.3999 14.5409 9.45939 16.6004 11.9999 16.6004ZM11.9999 17.6004C15.0927 17.6004 17.5999 15.0932 17.5999 12.0004C17.5999 8.9076 15.0927 6.40039 11.9999 6.40039C8.90711 6.40039 6.3999 8.9076 6.3999 12.0004C6.3999 15.0932 8.90711 17.6004 11.9999 17.6004Z" fill="#666666"/>
<path fill-rule="evenodd" clip-rule="evenodd" d="M12.0002 8.94043C12.2763 8.94043 12.5002 9.16429 12.5002 9.44043V12.1133L13.6337 13.2469C13.829 13.4421 13.829 13.7587 13.6337 13.954C13.4385 14.1492 13.1219 14.1492 12.9266 13.954L11.7266 12.754C11.7131 12.7404 11.7004 12.7263 11.6888 12.7117C11.5738 12.62 11.5002 12.4788 11.5002 12.3204V9.44043C11.5002 9.16429 11.724 8.94043 12.0002 8.94043Z" fill="#666666"/>
</svg>
