<svg width="24" height="24" viewBox="0 0 24 24" fill="none" xmlns="http://www.w3.org/2000/svg">
<path d="M0 11.9978C0 5.3716 5.3716 0 11.9978 0V0C18.624 0 23.9956 5.3716 23.9956 11.9978V11.9978C23.9956 18.624 18.624 23.9956 11.9978 23.9956V23.9956C5.3716 23.9956 0 18.624 0 11.9978V11.9978Z" fill="#CDCDCD" fill-opacity="0.2"/>
<path fill-rule="evenodd" clip-rule="evenodd" d="M13.8139 15.3939C15.0556 14.014 16.1166 12.3201 16.1166 10.663C16.1166 8.42924 14.2827 6.59961 11.998 6.59961C9.7133 6.59961 7.87939 8.42924 7.87939 10.663C7.87939 12.3513 8.94254 14.0457 10.1803 15.4142C10.7811 16.0784 11.3849 16.624 11.8394 17.0037C11.8932 17.0486 11.9448 17.0912 11.9939 17.1312C12.0442 17.0897 12.0971 17.0456 12.1523 16.999C12.6075 16.6143 13.2122 16.0626 13.8139 15.3939ZM11.998 18.3961C11.998 18.3961 17.1166 14.7516 17.1166 10.663C17.1166 7.86677 14.8247 5.59961 11.998 5.59961C9.17125 5.59961 6.87939 7.86677 6.87939 10.663C6.87939 14.811 11.998 18.3961 11.998 18.3961Z" fill="#666666"/>
<path fill-rule="evenodd" clip-rule="evenodd" d="M11.9972 9.3186C11.2244 9.3186 10.5979 9.94511 10.5979 10.7179C10.5979 11.4908 11.2244 12.1173 11.9972 12.1173C12.77 12.1173 13.3965 11.4908 13.3965 10.7179C13.3965 9.94511 12.77 9.3186 11.9972 9.3186ZM11.9972 8.3186C10.6721 8.3186 9.59786 9.39282 9.59786 10.7179C9.59786 12.0431 10.6721 13.1173 11.9972 13.1173C13.3223 13.1173 14.3965 12.0431 14.3965 10.7179C14.3965 9.39282 13.3223 8.3186 11.9972 8.3186Z" fill="#666666"/>
</svg>
