<svg width="40" height="40" viewBox="0 0 40 40" fill="none" xmlns="http://www.w3.org/2000/svg">
<circle opacity="0.4" cx="20" cy="20" r="20" fill="#93C460"/>
<path d="M30 20C30 25.5228 25.5228 30 20 30C14.4772 30 10 25.5228 10 20C10 14.4772 14.4772 10 20 10C25.5228 10 30 14.4772 30 20Z" fill="url(#paint0_linear_1684_57693)"/>
<path fill-rule="evenodd" clip-rule="evenodd" d="M32 20C32 26.6274 26.6274 32 20 32C13.3726 32 8 26.6274 8 20C8 13.3726 13.3726 8 20 8C26.6274 8 32 13.3726 32 20ZM20 30C25.5228 30 30 25.5228 30 20C30 14.4772 25.5228 10 20 10C14.4772 10 10 14.4772 10 20C10 25.5228 14.4772 30 20 30Z" fill="#ECF6E8"/>
<defs>
<linearGradient id="paint0_linear_1684_57693" x1="14.5" y1="12" x2="26" y2="28" gradientUnits="userSpaceOnUse">
<stop stop-color="#81B96F"/>
<stop offset="1" stop-color="#62AD4B"/>
</linearGradient>
</defs>
</svg>
