<svg width="60" height="40" viewBox="0 0 60 40" fill="none" xmlns="http://www.w3.org/2000/svg">
<path d="M25.9478 13.1289C25.9478 15.9854 25.4717 18.6953 24.5195 21.2588C23.5674 23.8223 22.249 26.2026 20.5645 28.3999C18.9531 30.5972 17.0488 32.6113 14.8516 34.4424C12.7275 36.2734 10.4937 37.8848 8.1499 39.2764L4.19482 35.8706C5.51318 34.6255 6.7583 33.0508 7.93018 31.1465C9.10205 29.2422 9.87109 27.3745 10.2373 25.5435C7.4541 24.7378 5.14697 23.2363 3.31592 21.0391C1.48486 18.7686 0.569336 16.1318 0.569336 13.1289C0.569336 11.3711 0.898926 9.72314 1.55811 8.18506C2.21729 6.64697 3.09619 5.32861 4.19482 4.22998C5.3667 3.05811 6.72168 2.14258 8.25977 1.4834C9.79785 0.750977 11.4458 0.384766 13.2036 0.384766C14.9614 0.384766 16.6094 0.750977 18.1475 1.4834C19.6855 2.14258 21.0039 3.05811 22.1025 4.22998C23.2744 5.32861 24.1899 6.64697 24.8491 8.18506C25.5815 9.72314 25.9478 11.3711 25.9478 13.1289ZM59.6758 13.1289C59.6758 15.9854 59.1997 18.6953 58.2476 21.2588C57.2954 23.8223 56.0137 26.2026 54.4023 28.3999C52.791 30.5972 50.8867 32.6113 48.6895 34.4424C46.5654 36.2734 44.3315 37.8848 41.9878 39.2764L37.9229 35.8706C39.2412 34.6255 40.4863 33.0508 41.6582 31.1465C42.8301 29.2422 43.5991 27.3745 43.9653 25.5435C41.1821 24.7378 38.875 23.2363 37.0439 21.0391C35.2129 18.7686 34.2974 16.1318 34.2974 13.1289C34.2974 11.3711 34.627 9.72314 35.2861 8.18506C35.9453 6.64697 36.8242 5.32861 37.9229 4.22998C39.0947 3.05811 40.4497 2.14258 41.9878 1.4834C43.5259 0.750977 45.1738 0.384766 46.9316 0.384766C48.6895 0.384766 50.3374 0.750977 51.8755 1.4834C53.4136 2.14258 54.7319 3.05811 55.8306 4.22998C57.0024 5.32861 57.918 6.64697 58.5771 8.18506C59.3096 9.72314 59.6758 11.3711 59.6758 13.1289Z" fill="#98C867"/>
</svg>
