<svg width="160" height="50" viewBox="0 0 160 50" fill="none" xmlns="http://www.w3.org/2000/svg">
<g clip-path="url(#clip0_2683_69151)">
<path d="M134.469 0H25.1079C11.3687 0 0.230957 11.1378 0.230957 24.8769C0.230957 38.6161 11.3687 49.7538 25.1079 49.7538H134.469C148.209 49.7538 159.346 38.6161 159.346 24.8769C159.346 11.1378 148.209 0 134.469 0Z" fill="white"/>
<path d="M49.3153 17.2768C48.8076 17.2768 48.3845 17.146 48.0461 16.8768C47.7076 16.6153 47.4691 16.2537 47.3384 15.8076L48.4384 15.546C48.4691 15.7306 48.5691 15.8922 48.7307 16.0306C48.8922 16.1691 49.0768 16.2306 49.2691 16.2306C49.3999 16.2306 49.5384 16.1922 49.6768 16.123C49.8153 16.0537 49.9307 15.946 49.9999 15.7922C50.0461 15.6922 50.0691 15.5768 50.0768 15.4383C50.0845 15.2999 50.0922 15.146 50.0922 14.9614V10.4922H51.2153V14.9614C51.2153 15.1691 51.2153 15.346 51.2153 15.5076C51.2153 15.6691 51.1999 15.8076 51.1691 15.946C51.1384 16.0845 51.0845 16.223 50.9922 16.3691C50.8076 16.6845 50.5768 16.9153 50.2845 17.0614C49.9922 17.2076 49.6691 17.2845 49.3076 17.2845L49.3153 17.2768Z" fill="black"/>
<path d="M54.8772 17.2762C54.3695 17.2762 53.9311 17.1685 53.5464 16.9454C53.1618 16.73 52.8695 16.4223 52.6541 16.0377C52.4387 15.6531 52.3311 15.207 52.3311 14.6993C52.3311 14.1531 52.4387 13.6839 52.6464 13.2762C52.8541 12.8762 53.1464 12.5608 53.5157 12.3454C53.8849 12.13 54.3157 12.0146 54.808 12.0146C55.3234 12.0146 55.7618 12.1377 56.1234 12.3762C56.4849 12.6146 56.7541 12.9608 56.9311 13.3993C57.108 13.8377 57.1695 14.3608 57.1311 14.9531H56.0311V14.5454C56.0311 14.007 55.9311 13.607 55.7464 13.3608C55.5618 13.1146 55.2618 12.9839 54.8618 12.9839C54.408 12.9839 54.0695 13.1223 53.8464 13.407C53.6234 13.6916 53.5157 14.0993 53.5157 14.6454C53.5157 15.1531 53.6234 15.5377 53.8464 15.8146C54.0695 16.0916 54.3926 16.23 54.8157 16.23C55.0926 16.23 55.3234 16.1685 55.5234 16.0454C55.7234 15.9223 55.8772 15.7454 55.9849 15.5146L57.0849 15.8454C56.8926 16.2916 56.6003 16.6454 56.2003 16.8916C55.8003 17.1377 55.3618 17.2685 54.8849 17.2685L54.8772 17.2762ZM53.1618 14.9531V14.1146H56.5926V14.9531H53.1618Z" fill="black"/>
<path d="M57.6152 13.0224V12.1532H61.0922V13.0224H57.6152ZM61.0922 17.1378C60.7614 17.1993 60.4383 17.2224 60.1229 17.2147C59.8075 17.207 59.5229 17.1455 59.2768 17.0378C59.0306 16.9301 58.8383 16.7532 58.7075 16.5224C58.5922 16.307 58.5306 16.0839 58.5306 15.8609C58.5306 15.6378 58.5229 15.3839 58.5229 15.0993V10.7686H59.6306V15.0378C59.6306 15.2378 59.6306 15.4147 59.6306 15.5609C59.6306 15.7147 59.6691 15.8378 59.7229 15.9301C59.8306 16.1147 60.0075 16.2147 60.2537 16.2378C60.4999 16.2609 60.7768 16.2455 61.0845 16.1993V17.1301L61.0922 17.1378Z" fill="black"/>
<path d="M61.6997 17.1378V16.984L64.3382 13.1224H61.9689V12.1455H66.0689V12.2994L63.4382 16.1532H65.9612V17.1301H61.6997V17.1378Z" fill="black"/>
<path d="M66.5308 13.0224V12.1532H70.0077V13.0224H66.5308ZM70.0077 17.1378C69.6769 17.1993 69.3538 17.2224 69.0384 17.2147C68.7231 17.207 68.4385 17.1455 68.1923 17.0378C67.9461 16.9301 67.7538 16.7532 67.6231 16.5224C67.5077 16.307 67.4461 16.0839 67.4461 15.8609C67.4461 15.6378 67.4385 15.3839 67.4385 15.0993V10.7686H68.5461V15.0378C68.5461 15.2378 68.5461 15.4147 68.5461 15.5609C68.5461 15.7147 68.5846 15.8378 68.6385 15.9301C68.7461 16.1147 68.9231 16.2147 69.1692 16.2378C69.4154 16.2609 69.6923 16.2455 70 16.1993V17.1301L70.0077 17.1378Z" fill="black"/>
<path d="M72.9229 17.1383V10.4922H74.0459V13.6383H73.9075V17.1383H72.9229ZM75.3305 17.2768C74.8459 17.2768 74.4382 17.1614 74.1075 16.9306C73.7767 16.6999 73.5305 16.3845 73.3613 15.9845C73.1921 15.5845 73.1152 15.1383 73.1152 14.646C73.1152 14.1537 73.1998 13.6922 73.3613 13.2999C73.5229 12.9076 73.769 12.5922 74.0921 12.3614C74.4152 12.1306 74.8152 12.0153 75.2844 12.0153C75.7536 12.0153 76.1613 12.1306 76.5075 12.3614C76.8536 12.5922 77.1229 12.8999 77.3152 13.2999C77.5075 13.6999 77.5998 14.146 77.5998 14.646C77.5998 15.146 77.5075 15.5922 77.3152 15.9922C77.1229 16.3922 76.8613 16.6999 76.5229 16.9306C76.1844 17.1614 75.7844 17.2768 75.3229 17.2768H75.3305ZM75.1613 16.2768C75.4536 16.2768 75.6921 16.2076 75.8767 16.0614C76.0613 15.9153 76.1998 15.723 76.2921 15.4768C76.3844 15.2306 76.4305 14.9537 76.4305 14.646C76.4305 14.3383 76.3844 14.0691 76.2921 13.823C76.1998 13.5768 76.0536 13.3768 75.8613 13.2306C75.669 13.0845 75.4229 13.0076 75.1229 13.0076C74.8229 13.0076 74.6075 13.0768 74.4305 13.2153C74.2536 13.3537 74.1228 13.546 74.0382 13.7845C73.9536 14.0306 73.9075 14.3153 73.9075 14.6383C73.9075 14.9614 73.9536 15.246 74.0382 15.4922C74.1228 15.7383 74.2536 15.9306 74.4382 16.0691C74.6229 16.2076 74.8613 16.2768 75.1613 16.2768Z" fill="black"/>
<path d="M80.8845 17.2762C80.3768 17.2762 79.9384 17.1685 79.5538 16.9454C79.1691 16.73 78.8768 16.4223 78.6615 16.0377C78.4461 15.6531 78.3384 15.207 78.3384 14.6993C78.3384 14.1531 78.4461 13.6839 78.6538 13.2762C78.8615 12.8762 79.1538 12.5608 79.523 12.3454C79.8922 12.13 80.323 12.0146 80.8153 12.0146C81.3307 12.0146 81.7691 12.1377 82.1307 12.3762C82.4922 12.6146 82.7615 12.9608 82.9384 13.3993C83.1153 13.8377 83.1768 14.3608 83.1384 14.9531H82.0384V14.5454C82.0384 14.007 81.9384 13.607 81.7538 13.3608C81.5692 13.1146 81.2691 12.9839 80.8691 12.9839C80.4153 12.9839 80.0768 13.1223 79.8538 13.407C79.6307 13.6916 79.523 14.0993 79.523 14.6454C79.523 15.1531 79.6307 15.5377 79.8538 15.8146C80.0768 16.0916 80.3999 16.23 80.823 16.23C81.0999 16.23 81.3307 16.1685 81.5307 16.0454C81.7307 15.9223 81.8845 15.7454 81.9922 15.5146L83.0922 15.8454C82.8999 16.2916 82.6076 16.6454 82.2076 16.8916C81.8076 17.1377 81.3691 17.2685 80.8922 17.2685L80.8845 17.2762ZM79.1691 14.9531V14.1146H82.5999V14.9531H79.1691Z" fill="black"/>
<path d="M84.269 11.3922V10.3691H85.3844V11.3922H84.269ZM84.269 17.1307V12.1461H85.3844V17.1307H84.269Z" fill="black"/>
<path d="M35.8696 19.1766L19.5004 9.93043C18.6927 9.46889 17.9696 9.52274 17.5234 9.96889L31.2465 23.792L33.8465 22.5535C35.2004 21.792 37.2234 19.9458 35.8696 19.1766Z" fill="url(#paint0_linear_2683_69151)"/>
<path d="M31.2153 23.7539L34.6385 25.8616C35.9924 26.6308 37.1847 27.377 35.8385 28.3462L19.5924 37.6001C18.7231 38.0924 17.8999 38.0154 17.4614 37.4693L21.8693 32.2616L31.2153 23.7539Z" fill="url(#paint1_linear_2683_69151)"/>
<path d="M41.5308 22.3307L35.8847 19.1846L31.2153 23.7538L35.8385 28.3461L41.5231 25.1C41.6924 25.0077 41.8385 24.9 41.9693 24.7923C42.1001 24.6846 42.2001 24.5692 42.2847 24.4538C42.3078 24.423 42.3231 24.3923 42.3462 24.3615C42.7693 23.6692 42.5001 22.8692 41.5308 22.323V22.3307Z" fill="url(#paint2_linear_2683_69151)"/>
<path d="M17.5311 9.96191C17.2311 10.2619 17.0542 10.7311 17.0542 11.3542L17.085 36.1619C17.085 36.7158 17.2234 37.1773 17.4696 37.4773L31.2157 23.7542L17.5311 9.96191Z" fill="url(#paint3_linear_2683_69151)"/>
<path d="M67.8773 26.692C70.5388 26.692 72.6696 28.5843 72.6696 31.4228C72.6696 34.2612 70.5388 36.1535 67.8773 36.1535C65.2157 36.1535 63.085 34.2612 63.085 31.4228C63.085 28.5843 65.2157 26.692 67.8773 26.692ZM67.9157 34.2997C69.6234 34.2997 70.6542 32.9151 70.6542 31.4074C70.6542 29.8997 69.6234 28.5151 67.9157 28.5151C66.208 28.5151 65.1773 29.8997 65.1773 31.4074C65.1773 32.9151 66.208 34.2997 67.9157 34.2997ZM78.3773 26.692C81.0388 26.692 83.1696 28.5843 83.1696 31.4228C83.1696 34.2612 81.0388 36.1535 78.3773 36.1535C75.7157 36.1535 73.585 34.2612 73.585 31.4228C73.585 28.5843 75.7157 26.692 78.3773 26.692ZM78.4157 34.2997C80.1234 34.2997 81.1542 32.9151 81.1542 31.4074C81.1542 29.8997 80.1234 28.5151 78.4157 28.5151C76.708 28.5151 75.6773 29.8997 75.6773 31.4074C75.6773 32.9151 76.708 34.2997 78.4157 34.2997ZM100.37 32.8689C100.808 33.7151 101.639 34.3151 102.754 34.3151C103.87 34.3151 104.623 33.7689 105.077 32.9766L106.723 34.1074C105.893 35.3843 104.454 36.1458 102.77 36.1458C100.108 36.1458 97.9773 34.2535 97.9773 31.4151C97.9773 28.5766 100.254 26.492 102.8 26.5997C102.8 26.5997 105.739 26.6305 106.823 30.1535L100.377 32.8535L100.37 32.8689ZM104.4 29.492C104.123 28.8689 103.508 28.4382 102.639 28.4382C100.962 28.4382 100.054 29.792 100.016 31.2843L104.4 29.4843V29.492ZM91.508 34.7458C90.7157 36.1151 88.9696 36.1535 88.9696 36.1535C86.308 36.1535 84.1773 34.2612 84.1773 31.4228C84.1773 28.5843 86.308 26.692 88.9696 26.692C88.9696 26.692 90.5465 26.6689 91.385 27.8228L92.1388 28.4458L91.5157 34.7458H91.508ZM88.908 34.3305C90.5619 34.3305 91.5157 32.9305 91.5157 31.4074C91.5157 29.8843 90.5619 28.4843 88.908 28.4843C87.2542 28.4843 86.2619 29.8843 86.2619 31.4074C86.2619 32.9305 87.2542 34.3305 88.908 34.3305Z" fill="black"/>
<path d="M91.3693 28.0922L91.677 29.6383V31.5383L91.4154 33.5229V35.7537C91.4154 37.2614 90.6154 38.646 88.9385 38.646C87.7154 38.646 86.7924 37.9152 86.377 36.9383L84.5693 37.7229C85.2847 39.4383 86.9462 40.4999 88.9 40.4999C91.5154 40.4999 93.3539 38.6076 93.3539 35.7691V26.8922H91.3693V28.0845V28.0922ZM94.8616 21.7768H96.9154V35.9152H94.8616V21.7768ZM122.292 21.7768H124.346V35.9152H122.292V21.7768ZM62.2231 28.0845H55.4385V30.0614H60.2231C60.1308 32.3691 58.4077 34.2383 55.3154 34.2383C52.2231 34.2383 49.9693 31.7768 49.9693 28.7383C49.9693 25.6999 52.277 23.2383 55.3154 23.2383C56.7231 23.2383 58.077 23.7768 59.0923 24.7383L60.4539 23.3152C59.0616 22.0152 57.2231 21.2922 55.3154 21.2999C51.1693 21.2999 47.8154 24.6306 47.8154 28.7383C47.8154 32.846 51.177 36.1768 55.3154 36.1768C55.3154 36.1768 62.877 36.5537 62.2231 28.0845ZM143.608 26.9076H141.285L138.831 33.1537L136.308 26.9076H134.046L137.823 35.4845L135.623 40.1999H137.808L143.592 26.9076H143.608ZM116.662 21.7691H112.608H111.446V35.9076H113.5V30.4306H116.654C119.108 30.4306 121.1 28.4922 121.1 26.0999C121.1 23.7076 119.108 21.7691 116.654 21.7691H116.662ZM116.523 28.5614H113.508V23.6614H116.523C117.939 23.6614 119.092 24.7614 119.092 26.1153C119.092 27.4691 117.939 28.5691 116.523 28.5691V28.5614ZM129.615 26.5691C127.739 26.5691 126.446 27.4537 125.754 28.7306L127.631 29.4768C128 28.8537 128.731 28.4306 129.639 28.4306C130.985 28.4306 131.908 29.3306 131.908 30.4383C131.908 30.4383 130.977 29.9076 129.485 29.9076C125.477 29.9076 125.6 33.0383 125.6 33.0383C125.6 36.3383 129.123 36.1691 129.123 36.1691C130.892 36.1691 131.854 34.6922 131.854 34.6922V35.8999H133.885V30.346C133.885 28.2537 132.154 26.5614 129.608 26.5614L129.615 26.5691ZM131.869 32.146C131.354 34.7076 128.823 34.2999 128.823 34.2999C128.3 34.2306 127.877 33.8614 127.739 33.3537C127.554 32.6614 127.931 32.0306 128.646 31.7691C128.646 31.7691 130.208 31.2153 131.877 32.0922V32.1383L131.869 32.146Z" fill="black"/>
</g>
<defs>
<linearGradient id="paint0_linear_2683_69151" x1="15.8691" y1="16.2001" x2="34.6221" y2="16.2001" gradientUnits="userSpaceOnUse">
<stop offset="0.08" stop-color="#54B06A"/>
<stop offset="0.37" stop-color="#65B362"/>
</linearGradient>
<linearGradient id="paint1_linear_2683_69151" x1="15.8911" y1="30.3005" x2="34.7381" y2="30.3005" gradientUnits="userSpaceOnUse">
<stop offset="0.12" stop-color="#DF2253"/>
<stop offset="0.45" stop-color="#E63D49"/>
</linearGradient>
<linearGradient id="paint2_linear_2683_69151" x1="29.6149" y1="23.2504" x2="40.8479" y2="23.2504" gradientUnits="userSpaceOnUse">
<stop offset="0.08" stop-color="#FCC40D"/>
<stop offset="0.29" stop-color="#FDCE0F"/>
<stop offset="0.68" stop-color="#FEE40E"/>
<stop offset="0.77" stop-color="#FEE90F"/>
</linearGradient>
<linearGradient id="paint3_linear_2683_69151" x1="22.4713" y1="9.43284" x2="22.4713" y2="36.9278" gradientUnits="userSpaceOnUse">
<stop offset="0.2" stop-color="#48BCE8"/>
<stop offset="0.59" stop-color="#61C4E2"/>
</linearGradient>
<clipPath id="clip0_2683_69151">
<rect width="159.231" height="50" fill="white" transform="translate(0.230957)"/>
</clipPath>
</defs>
</svg>
