<svg width="163" height="51" viewBox="0 0 163 51" fill="none" xmlns="http://www.w3.org/2000/svg">
<g clip-path="url(#clip0_2725_61144)">
<path d="M137.514 0.251953H25.4839C11.4096 0.251953 0 11.6615 0 25.7359C0 39.8103 11.4096 51.2198 25.4839 51.2198H137.514C151.588 51.2198 162.998 39.8103 162.998 25.7359C162.998 11.6615 151.588 0.251953 137.514 0.251953Z" fill="url(#paint0_linear_2725_61144)"/>
<path d="M50.283 17.9502C49.7629 17.9502 49.3295 17.8162 48.9828 17.5404C48.6361 17.2725 48.3918 16.9021 48.2578 16.4451L49.3847 16.1772C49.4162 16.3663 49.5186 16.5318 49.6841 16.6736C49.8496 16.8154 50.0387 16.8785 50.2357 16.8785C50.3697 16.8785 50.5115 16.8391 50.6533 16.7682C50.7952 16.6972 50.9134 16.5869 50.9843 16.4293C51.0316 16.3269 51.0552 16.2087 51.0631 16.0668C51.071 15.925 51.0789 15.7674 51.0789 15.5783V11H52.2293V15.5783C52.2293 15.791 52.2293 15.9723 52.2293 16.1378C52.2293 16.3032 52.2136 16.4451 52.1821 16.5869C52.1505 16.7288 52.0954 16.8706 52.0008 17.0203C51.8117 17.3434 51.5753 17.5798 51.2759 17.7295C50.9764 17.8792 50.6455 17.958 50.2751 17.958L50.283 17.9502Z" fill="white"/>
<path d="M55.9804 17.9505C55.4603 17.9505 55.0111 17.8402 54.6171 17.6116C54.2231 17.391 53.9237 17.0758 53.703 16.6818C53.4824 16.2878 53.3721 15.8308 53.3721 15.3107C53.3721 14.7512 53.4824 14.2705 53.6951 13.8529C53.9079 13.4431 54.2073 13.12 54.5856 12.8994C54.9638 12.6787 55.4051 12.5605 55.9094 12.5605C56.4374 12.5605 56.8866 12.6866 57.2569 12.9309C57.6273 13.1752 57.9031 13.5298 58.0843 13.9789C58.2656 14.4281 58.3286 14.964 58.2892 15.5707H57.1624V15.1531C57.1624 14.6015 57.0599 14.1917 56.8708 13.9395C56.6817 13.6874 56.3743 13.5534 55.9646 13.5534C55.4997 13.5534 55.1529 13.6953 54.9244 13.9868C54.6959 14.2784 54.5856 14.696 54.5856 15.2555C54.5856 15.7756 54.6959 16.1696 54.9244 16.4533C55.1529 16.737 55.4839 16.8788 55.9173 16.8788C56.201 16.8788 56.4374 16.8158 56.6423 16.6897C56.8471 16.5636 57.0048 16.3824 57.1151 16.146L58.2419 16.4848C58.0449 16.9418 57.7455 17.3043 57.3357 17.5565C56.926 17.8086 56.4768 17.9426 55.9882 17.9426L55.9804 17.9505ZM54.2231 15.5707V14.7118H57.7376V15.5707H54.2231Z" fill="white"/>
<path d="M58.7852 13.592V12.7016H62.3469V13.592H58.7852ZM62.3469 17.8079C62.0081 17.8709 61.6771 17.8945 61.354 17.8866C61.031 17.8788 60.7394 17.8157 60.4872 17.7054C60.2351 17.5951 60.0381 17.4138 59.9041 17.1774C59.7859 16.9568 59.7229 16.7283 59.7229 16.4998C59.7229 16.2712 59.715 16.0112 59.715 15.7196V11.2832H60.8497V15.6566C60.8497 15.8615 60.8497 16.0427 60.8497 16.1924C60.8497 16.35 60.8891 16.4761 60.9443 16.5707C61.0546 16.7598 61.2358 16.8622 61.488 16.8859C61.7402 16.9095 62.0238 16.8938 62.339 16.8465V17.8L62.3469 17.8079Z" fill="white"/>
<path d="M62.9697 17.8085V17.6509L65.6726 13.6951H63.2455V12.6943H67.4456V12.8519L64.7506 16.7998H67.3352V17.8006H62.9697V17.8085Z" fill="white"/>
<path d="M67.918 13.592V12.7016H71.4797V13.592H67.918ZM71.4797 17.8079C71.1409 17.8709 70.8099 17.8945 70.4868 17.8866C70.1638 17.8788 69.8722 17.8157 69.62 17.7054C69.3679 17.5951 69.1709 17.4138 69.0369 17.1774C68.9187 16.9568 68.8557 16.7283 68.8557 16.4998C68.8557 16.2712 68.8478 16.0112 68.8478 15.7196V11.2832H69.9825V15.6566C69.9825 15.8615 69.9825 16.0427 69.9825 16.1924C69.9825 16.35 70.0219 16.4761 70.0771 16.5707C70.1874 16.7598 70.3687 16.8622 70.6208 16.8859C70.873 16.9095 71.1566 16.8938 71.4718 16.8465V17.8L71.4797 17.8079Z" fill="white"/>
<path d="M74.4658 17.8083V11H75.6163V14.2229H75.4745V17.8083H74.4658ZM76.9323 17.9502C76.4358 17.9502 76.0182 17.832 75.6793 17.5956C75.3405 17.3592 75.0883 17.0361 74.915 16.6263C74.7416 16.2166 74.6628 15.7595 74.6628 15.2552C74.6628 14.7509 74.7495 14.2781 74.915 13.8762C75.0805 13.4743 75.3326 13.1512 75.6636 12.9148C75.9945 12.6784 76.4043 12.5602 76.885 12.5602C77.3657 12.5602 77.7833 12.6784 78.1379 12.9148C78.4925 13.1512 78.7683 13.4664 78.9653 13.8762C79.1623 14.286 79.2569 14.743 79.2569 15.2552C79.2569 15.7674 79.1623 16.2244 78.9653 16.6342C78.7683 17.044 78.5004 17.3592 78.1537 17.5956C77.8069 17.832 77.3972 17.9502 76.9244 17.9502H76.9323ZM76.7589 16.9258C77.0583 16.9258 77.3026 16.8548 77.4917 16.7051C77.6809 16.5554 77.8227 16.3584 77.9173 16.1062C78.0118 15.8541 78.0591 15.5704 78.0591 15.2552C78.0591 14.94 78.0118 14.6642 77.9173 14.412C77.8227 14.1599 77.673 13.955 77.476 13.8053C77.279 13.6556 77.0268 13.5768 76.7195 13.5768C76.4122 13.5768 76.1915 13.6477 76.0103 13.7895C75.8291 13.9314 75.6951 14.1284 75.6084 14.3726C75.5217 14.6248 75.4745 14.9164 75.4745 15.2473C75.4745 15.5783 75.5217 15.8698 75.6084 16.122C75.6951 16.3742 75.8291 16.5712 76.0182 16.713C76.2073 16.8548 76.4516 16.9258 76.7589 16.9258Z" fill="white"/>
<path d="M82.622 17.9505C82.1019 17.9505 81.6527 17.8402 81.2587 17.6116C80.8647 17.391 80.5653 17.0758 80.3446 16.6818C80.124 16.2878 80.0137 15.8308 80.0137 15.3107C80.0137 14.7512 80.124 14.2705 80.3367 13.8529C80.5495 13.4431 80.849 13.12 81.2272 12.8994C81.6054 12.6787 82.0467 12.5605 82.551 12.5605C83.079 12.5605 83.5282 12.6866 83.8985 12.9309C84.2689 13.1752 84.5447 13.5298 84.7259 13.9789C84.9072 14.4281 84.9702 14.964 84.9308 15.5707H83.804V15.1531C83.804 14.6015 83.7015 14.1917 83.5124 13.9395C83.3233 13.6874 83.016 13.5534 82.6062 13.5534C82.1413 13.5534 81.7946 13.6953 81.566 13.9868C81.3375 14.2784 81.2272 14.696 81.2272 15.2555C81.2272 15.7756 81.3375 16.1696 81.566 16.4533C81.7946 16.737 82.1255 16.8788 82.5589 16.8788C82.8426 16.8788 83.079 16.8158 83.2839 16.6897C83.4888 16.5636 83.6464 16.3824 83.7567 16.146L84.8835 16.4848C84.6865 16.9418 84.3871 17.3043 83.9773 17.5565C83.5676 17.8086 83.1184 17.9426 82.6298 17.9426L82.622 17.9505ZM80.8647 15.5707V14.7118H84.3792V15.5707H80.8647Z" fill="white"/>
<path d="M86.0889 11.9221V10.874H87.2315V11.9221H86.0889ZM86.0889 17.8006V12.6943H87.2315V17.8006H86.0889Z" fill="white"/>
<path d="M36.579 19.8974L19.8103 10.4256C18.9829 9.95279 18.2422 10.008 17.7852 10.465L31.8431 24.6254L34.5065 23.3567C35.8934 22.5766 37.9659 20.6854 36.579 19.8974Z" fill="url(#paint1_linear_2725_61144)"/>
<path d="M31.8042 24.5859L35.2478 26.7451C36.6347 27.5331 37.8561 28.2974 36.4771 29.2903L19.8345 38.77C18.9441 39.2743 18.1718 39.1955 17.7227 38.636L22.167 33.3012L31.8042 24.5859Z" fill="url(#paint2_linear_2725_61144)"/>
<path d="M42.3078 23.1275L36.5238 19.873L31.8037 24.5853L36.4766 29.2897L42.2999 25.9643C42.4732 25.8697 42.623 25.7594 42.7569 25.6491C42.8909 25.5388 42.9933 25.4206 43.08 25.3024C43.1036 25.2709 43.1194 25.2393 43.143 25.2078C43.5764 24.4986 43.3006 23.6791 42.3078 23.1196V23.1275Z" fill="url(#paint3_linear_2725_61144)"/>
<path d="M17.722 10.4561C17.4146 10.7634 17.2334 11.2441 17.2334 11.8823L17.2649 37.2954C17.2649 37.8627 17.4068 38.3355 17.6589 38.6428L31.7405 24.5849L17.722 10.4561Z" fill="url(#paint4_linear_2725_61144)"/>
<path d="M42.9771 23.6641C43.442 24.3811 43.1977 25.311 42.126 25.902L19.6759 38.6991C18.8091 39.1877 18.0684 38.9986 17.6113 38.4864C18.0368 39.1562 18.8327 39.3374 19.8335 38.77L42.2836 25.9729C43.4105 25.374 43.6154 24.4127 42.9771 23.6641Z" fill="#CCCCCC"/>
<path d="M69.2969 27.5957C72.0234 27.5957 74.2062 29.5342 74.2062 32.4419C74.2062 35.3496 72.0234 37.2881 69.2969 37.2881C66.5705 37.2881 64.3877 35.3496 64.3877 32.4419C64.3877 29.5342 66.5705 27.5957 69.2969 27.5957ZM69.3363 35.389C71.0857 35.389 72.1416 33.9706 72.1416 32.4262C72.1416 30.8817 71.0857 29.4633 69.3363 29.4633C67.587 29.4633 66.5311 30.8817 66.5311 32.4262C66.5311 33.9706 67.587 35.389 69.3363 35.389ZM80.0532 27.5957C82.7796 27.5957 84.9624 29.5342 84.9624 32.4419C84.9624 35.3496 82.7796 37.2881 80.0532 37.2881C77.3267 37.2881 75.1439 35.3496 75.1439 32.4419C75.1439 29.5342 77.3267 27.5957 80.0532 27.5957ZM80.0926 35.389C81.8419 35.389 82.8978 33.9706 82.8978 32.4262C82.8978 30.8817 81.8419 29.4633 80.0926 29.4633C78.3432 29.4633 77.2873 30.8817 77.2873 32.4262C77.2873 33.9706 78.3432 35.389 80.0926 35.389ZM102.582 33.9234C103.031 34.7902 103.882 35.4048 105.025 35.4048C106.168 35.4048 106.94 34.8453 107.405 34.0337L109.091 35.192C108.24 36.5001 106.766 37.2802 105.041 37.2802C102.314 37.2802 100.131 35.3418 100.131 32.434C100.131 29.5263 102.464 27.3908 105.072 27.5012C105.072 27.5012 108.082 27.5327 109.193 31.1417L102.59 33.9076L102.582 33.9234ZM106.711 30.464C106.428 29.8258 105.797 29.3845 104.907 29.3845C103.189 29.3845 102.259 30.7714 102.22 32.3001L106.711 30.4562V30.464ZM93.5043 35.8461C92.6927 37.2487 90.9039 37.2881 90.9039 37.2881C88.1774 37.2881 85.9947 35.3496 85.9947 32.4419C85.9947 29.5342 88.1774 27.5957 90.9039 27.5957C90.9039 27.5957 92.5193 27.5721 93.3782 28.7541L94.1505 29.3924L93.5122 35.8461H93.5043ZM90.8409 35.4206C92.5351 35.4206 93.5122 33.9864 93.5122 32.4262C93.5122 30.8659 92.5351 29.4318 90.8409 29.4318C89.1467 29.4318 88.1302 30.8659 88.1302 32.4262C88.1302 33.9864 89.1467 35.4206 90.8409 35.4206Z" fill="white"/>
<path d="M93.3627 29.0294L93.6779 30.6133V32.5596L93.41 34.5927V36.8779C93.41 38.4224 92.5905 39.8408 90.8726 39.8408C89.6197 39.8408 88.6741 39.0922 88.2486 38.0914L86.3968 38.8952C87.1296 40.6524 88.8317 41.7399 90.8332 41.7399C93.5124 41.7399 95.3957 39.8014 95.3957 36.8936V27.8001H93.3627V29.0215V29.0294ZM96.9402 22.5599H99.0442V37.0434H96.9402V22.5599ZM125.04 22.5599H127.144V37.0434H125.04V22.5599ZM63.5053 29.0215H56.5552V31.0467H61.4565C61.362 33.4107 59.5969 35.3255 56.4291 35.3255C53.2613 35.3255 50.9525 32.8039 50.9525 29.6913C50.9525 26.5787 53.3165 24.0571 56.4291 24.0571C57.8711 24.0571 59.258 24.6087 60.2982 25.5937L61.6929 24.1359C60.2667 22.8042 58.3833 22.0635 56.4291 22.0714C52.1818 22.0714 48.7461 25.4834 48.7461 29.6913C48.7461 33.8992 52.1897 37.3113 56.4291 37.3113C56.4291 37.3113 64.1751 37.6974 63.5053 29.0215ZM146.876 27.8159H144.496L141.982 34.2144L139.398 27.8159H137.081L140.95 36.6021L138.696 41.4325H140.934L146.86 27.8159H146.876ZM119.272 22.552H115.119H113.93V37.0355H116.033V31.4249H119.264C121.778 31.4249 123.819 29.4392 123.819 26.9885C123.819 24.5378 121.778 22.552 119.264 22.552H119.272ZM119.13 29.5101H116.041V24.4905H119.13C120.58 24.4905 121.762 25.6174 121.762 27.0042C121.762 28.3911 120.58 29.518 119.13 29.518V29.5101ZM132.542 27.4692C130.619 27.4692 129.296 28.3754 128.586 29.6834L130.509 30.4478C130.887 29.8095 131.636 29.3761 132.566 29.3761C133.945 29.3761 134.89 30.2981 134.89 31.4328C134.89 31.4328 133.937 30.8891 132.408 30.8891C128.303 30.8891 128.429 34.0962 128.429 34.0962C128.429 37.4768 132.038 37.3034 132.038 37.3034C133.85 37.3034 134.835 35.7904 134.835 35.7904V37.0276H136.916V31.3382C136.916 29.1949 135.143 27.4613 132.534 27.4613L132.542 27.4692ZM134.851 33.1822C134.323 35.8062 131.73 35.3886 131.73 35.3886C131.195 35.3176 130.761 34.9394 130.619 34.4193C130.43 33.7101 130.816 33.064 131.549 32.796C131.549 32.796 133.149 32.2287 134.859 33.127V33.1743L134.851 33.1822Z" fill="white"/>
</g>
<defs>
<linearGradient id="paint0_linear_2725_61144" x1="0" y1="25.7359" x2="162.998" y2="25.7359" gradientUnits="userSpaceOnUse">
<stop stop-color="#37855E"/>
<stop offset="1" stop-color="#88BD65"/>
</linearGradient>
<linearGradient id="paint1_linear_2725_61144" x1="16.0904" y1="16.8483" x2="35.301" y2="16.8483" gradientUnits="userSpaceOnUse">
<stop offset="0.08" stop-color="#54B06A"/>
<stop offset="0.37" stop-color="#65B362"/>
</linearGradient>
<linearGradient id="paint2_linear_2725_61144" x1="16.0428" y1="31.2923" x2="35.3497" y2="31.2923" gradientUnits="userSpaceOnUse">
<stop offset="0.12" stop-color="#DF2253"/>
<stop offset="0.45" stop-color="#E63D49"/>
</linearGradient>
<linearGradient id="paint3_linear_2725_61144" x1="30.1012" y1="24.0696" x2="41.6083" y2="24.0696" gradientUnits="userSpaceOnUse">
<stop offset="0.08" stop-color="#FCC40D"/>
<stop offset="0.29" stop-color="#FDCE0F"/>
<stop offset="0.68" stop-color="#FEE40E"/>
<stop offset="0.77" stop-color="#FEE90F"/>
</linearGradient>
<linearGradient id="paint4_linear_2725_61144" x1="22.7827" y1="9.91407" x2="22.7827" y2="38.08" gradientUnits="userSpaceOnUse">
<stop offset="0.2" stop-color="#48BCE8"/>
<stop offset="0.59" stop-color="#61C4E2"/>
</linearGradient>
<clipPath id="clip0_2725_61144">
<rect width="162.998" height="50.9679" fill="white"/>
</clipPath>
</defs>
</svg>
