<svg width="20" height="20" viewBox="0 0 20 20" fill="none" xmlns="http://www.w3.org/2000/svg">
<path d="M10.363 11.9565C10.0999 12.1024 9.76874 12.0776 9.52808 11.8832L1.72827 5.58341L2.19995 5.0004L2.67065 4.41642L9.99976 10.3373L17.3279 4.41642C17.65 4.15625 18.1222 4.20681 18.3826 4.52873C18.6427 4.85083 18.5931 5.32308 18.2712 5.58341L10.4705 11.8832L10.363 11.9565ZM1.72827 5.58341C1.40617 5.32312 1.35574 4.85091 1.61597 4.52873C1.87618 4.20664 2.34845 4.1564 2.67065 4.41642L1.72827 5.58341Z" fill="white"/>
<path d="M17.4502 5.40039C17.4502 5.15193 17.2484 4.9503 17 4.9502H3C2.75147 4.9502 2.5498 5.15186 2.5498 5.40039V14.4004C2.54991 14.6488 2.75154 14.8506 3 14.8506H17C17.2484 14.8505 17.4501 14.6488 17.4502 14.4004V5.40039ZM18.9502 14.4004C18.9501 15.4772 18.0768 16.3505 17 16.3506H3C1.92311 16.3506 1.04991 15.4773 1.0498 14.4004V5.40039C1.0498 4.32344 1.92304 3.4502 3 3.4502H17C18.0769 3.4503 18.9502 4.3235 18.9502 5.40039V14.4004Z" fill="white"/>
</svg>
