<svg width="20" height="20" viewBox="0 0 20 20" fill="none" xmlns="http://www.w3.org/2000/svg">
<path d="M15.5 10C15.5 6.96243 13.0376 4.5 10 4.5C6.96243 4.5 4.5 6.96243 4.5 10C4.5 13.0376 6.96243 15.5 10 15.5V17C6.13401 17 3 13.866 3 10C3 6.13401 6.13401 3 10 3C13.866 3 17 6.13401 17 10C17 13.866 13.866 17 10 17V15.5C13.0376 15.5 15.5 13.0376 15.5 10Z" fill="white"/>
<path d="M11.2676 3.45996C11.6729 3.92932 12.186 4.89466 12.5938 6.03125C13.0089 7.18844 13.3506 8.61851 13.3506 10.0498C13.3506 11.4818 13.0082 12.8964 12.5918 14.0352C12.1836 15.1513 11.6682 16.097 11.2559 16.5527L10.1445 15.5469C10.3655 15.3026 10.8002 14.5681 11.1836 13.5195C11.5588 12.4934 11.8506 11.2577 11.8506 10.0498C11.8506 8.8411 11.5582 7.58756 11.1816 6.53809C10.798 5.46867 10.3609 4.70473 10.1328 4.44043L11.2676 3.45996Z" fill="white"/>
<path d="M8.73242 16.54C8.32711 16.0707 7.81404 15.1053 7.40625 13.9687C6.99109 12.8116 6.64941 11.3815 6.64941 9.9502C6.64941 8.51816 6.99179 7.10362 7.4082 5.96484C7.81636 4.84872 8.33177 3.90305 8.74414 3.44727L9.85547 4.45312C9.63452 4.6974 9.19984 5.43188 8.81641 6.48047C8.4412 7.50664 8.14941 8.74234 8.14941 9.9502C8.14941 11.1589 8.44185 12.4124 8.81836 13.4619C9.20203 14.5313 9.63912 15.2953 9.86719 15.5596L8.73242 16.54Z" fill="white"/>
<path d="M16.1504 10.75L3.9502 10.75L3.9502 9.25L16.1504 9.25L16.1504 10.75Z" fill="white"/>
</svg>
