<svg width="20" height="20" viewBox="0 0 20 20" fill="none" xmlns="http://www.w3.org/2000/svg">
<path d="M18.0479 9.25C18.462 9.25011 18.7979 9.58586 18.7979 10C18.7979 10.4141 18.462 10.7499 18.0479 10.75L2.84766 10.75C2.43344 10.75 2.09766 10.4142 2.09766 10C2.09766 9.58579 2.43344 9.25 2.84766 9.25L18.0479 9.25Z" fill="white"/>
<path d="M9.24908 3.73113L2.97972 10.0005L9.24908 16.2698C9.54197 16.5627 9.54197 17.0376 9.24908 17.3305C8.95619 17.6234 8.48131 17.6234 8.18842 17.3305L1.38873 10.5308C1.09584 10.2379 1.09584 9.76305 1.38873 9.47016L8.18842 2.67047C8.48131 2.37758 8.95619 2.37758 9.24908 2.67047C9.54185 2.96338 9.54193 3.43828 9.24908 3.73113Z" fill="white"/>
</svg>
