<svg width="20" height="20" viewBox="0 0 20 20" fill="none" xmlns="http://www.w3.org/2000/svg">
<path d="M17.1992 9.25C17.6133 9.25021 17.9492 9.58592 17.9492 10C17.9492 10.4141 17.6133 10.7498 17.1992 10.75H2.79883C2.38461 10.75 2.04883 10.4142 2.04883 10C2.04883 9.58579 2.38461 9.25 2.79883 9.25H17.1992Z" fill="#98C867"/>
<path d="M10.749 17.2002C10.7488 17.6142 10.4131 17.9502 9.99902 17.9502C9.58494 17.9502 9.24923 17.6142 9.24902 17.2002L9.24902 2.7998C9.24902 2.38559 9.58481 2.0498 9.99902 2.0498C10.4132 2.0498 10.749 2.38559 10.749 2.7998L10.749 17.2002Z" fill="#98C867"/>
</svg>
