<svg width="20" height="20" viewBox="0 0 20 20" fill="none" xmlns="http://www.w3.org/2000/svg">
<path d="M15.499 10C15.499 6.96243 13.0366 4.5 9.99902 4.5C6.96146 4.5 4.49902 6.96243 4.49902 10C4.49902 13.0376 6.96146 15.5 9.99902 15.5V17C6.13303 17 2.99902 13.866 2.99902 10C2.99902 6.13401 6.13303 3 9.99902 3C13.865 3 16.999 6.13401 16.999 10C16.999 13.866 13.865 17 9.99902 17V15.5C13.0366 15.5 15.499 13.0376 15.499 10Z" fill="white"/>
<path d="M9.24805 13.1992V9.59961C9.24805 9.1854 9.58383 8.84961 9.99805 8.84961C10.4123 8.84961 10.748 9.1854 10.748 9.59961V13.1992C10.748 13.6134 10.4123 13.9492 9.99805 13.9492C9.58383 13.9492 9.24805 13.6134 9.24805 13.1992Z" fill="white"/>
<path d="M9.19883 6.8001C9.19883 6.35827 9.557 6.0001 9.99883 6.0001C10.4407 6.0001 10.7988 6.35827 10.7988 6.8001C10.7988 7.24193 10.4407 7.6001 9.99883 7.6001C9.557 7.6001 9.19883 7.24193 9.19883 6.8001Z" fill="white"/>
</svg>
