<svg width="20" height="20" viewBox="0 0 20 20" fill="none" xmlns="http://www.w3.org/2000/svg">
<path d="M4.13035 16.9302C3.83746 17.2231 3.36259 17.2231 3.06969 16.9302C2.7768 16.6373 2.7768 16.1624 3.06969 15.8695L15.9696 2.96967C16.2624 2.67678 16.7373 2.67678 17.0302 2.96967C17.3231 3.26256 17.3231 3.73744 17.0302 4.03033L4.13035 16.9302Z" fill="#30805D"/>
<path d="M16.4502 14.2002V3.5498H5.7998C5.38559 3.5498 5.0498 3.21402 5.0498 2.7998C5.0498 2.38559 5.38559 2.0498 5.7998 2.0498H17.2002C17.6142 2.05002 17.9502 2.38572 17.9502 2.7998V14.2002C17.95 14.6141 17.6141 14.95 17.2002 14.9502C16.7861 14.9502 16.4504 14.6142 16.4502 14.2002Z" fill="#30805D"/>
</svg>
