<svg width="20" height="20" viewBox="0 0 20 20" fill="none" xmlns="http://www.w3.org/2000/svg">
<path d="M1.95215 10.75C1.53803 10.7499 1.20215 10.4141 1.20215 10C1.20215 9.58585 1.53803 9.25011 1.95215 9.25L17.1523 9.25C17.5666 9.25 17.9023 9.58579 17.9023 10C17.9023 10.4142 17.5666 10.75 17.1523 10.75L1.95215 10.75Z" fill="#C9DCB7"/>
<path d="M10.7509 16.2689L17.0203 9.99951L10.7509 3.73015C10.458 3.43726 10.458 2.96238 10.7509 2.66949C11.0438 2.3766 11.5187 2.3766 11.8116 2.66949L18.6113 9.46918C18.9042 9.76207 18.9042 10.2369 18.6113 10.5298L11.8116 17.3295C11.5187 17.6224 11.0438 17.6224 10.7509 17.3295C10.4582 17.0366 10.4581 16.5617 10.7509 16.2689Z" fill="#C9DCB7"/>
</svg>
