<svg width="20" height="20" viewBox="0 0 20 20" fill="none" xmlns="http://www.w3.org/2000/svg">
<path d="M11.4121 10C11.4121 9.21932 10.7797 8.58611 9.99902 8.58594C9.21824 8.58594 8.58496 9.21921 8.58496 10C8.58514 10.7806 9.21834 11.4131 9.99902 11.4131C10.7796 11.4129 11.4119 10.7805 11.4121 10ZM12.9121 10C12.9119 11.609 11.608 12.9129 9.99902 12.9131C8.38992 12.9131 7.08514 11.6091 7.08496 10C7.08496 8.39079 8.38981 7.08594 9.99902 7.08594C11.6081 7.08611 12.9121 8.39089 12.9121 10Z" fill="#98C867"/>
<path d="M9.99929 2.0376C10.3251 2.0376 10.6076 2.03738 10.8401 2.05322C11.0792 2.06953 11.3209 2.10562 11.5598 2.20459C11.8258 2.31477 12.0672 2.47659 12.2708 2.68018C12.4744 2.88378 12.6362 3.1251 12.7464 3.39111H12.7454C12.8356 3.60784 12.8755 3.82931 12.8938 4.05127L12.9065 4.27295V4.28272C12.9082 4.35337 12.9276 4.42283 12.9632 4.48389C12.997 4.5418 13.0453 4.58969 13.1018 4.62549C13.1613 4.65688 13.2269 4.67492 13.2942 4.67529C13.3649 4.67565 13.4352 4.65741 13.4973 4.62354L13.5061 4.61963C13.7697 4.48043 14.04 4.35803 14.3479 4.31689H14.3489C14.6344 4.27922 14.9252 4.29807 15.2034 4.37256C15.4119 4.42842 15.6105 4.51488 15.7932 4.62842L15.971 4.75049L15.9719 4.75244C16.176 4.90983 16.3276 5.09969 16.4612 5.29834C16.5262 5.39506 16.5944 5.5049 16.6663 5.62549L16.8958 6.01807V6.01904C17.0583 6.30102 17.1996 6.54518 17.302 6.75439C17.4073 6.96963 17.4967 7.19725 17.5305 7.45361C17.5682 7.73904 17.5493 8.02902 17.4749 8.30713C17.4004 8.58527 17.2722 8.84624 17.0969 9.07471L17.096 9.07373C16.9058 9.32205 16.6623 9.49662 16.4153 9.65283L16.4114 9.65479C16.2726 9.74175 16.2053 9.87379 16.2034 9.99463C16.2052 10.0635 16.224 10.131 16.2581 10.1909C16.2756 10.2217 16.2971 10.2507 16.3216 10.2759L16.4046 10.3413L16.4134 10.3472C16.6009 10.4652 16.7836 10.5923 16.9436 10.7524L17.096 10.9243L17.0969 10.9253C17.2722 11.1538 17.4004 11.4147 17.4749 11.6929C17.5493 11.9709 17.5681 12.261 17.5305 12.5464C17.497 12.8039 17.4075 13.0316 17.302 13.2466C17.1994 13.4558 17.0574 13.6994 16.8948 13.981C16.7319 14.263 16.5911 14.5082 16.4612 14.7017C16.3277 14.9004 16.1759 15.0911 15.971 15.2485V15.2495C15.7425 15.4248 15.4815 15.5529 15.2034 15.6274C14.9252 15.7019 14.6344 15.7208 14.3489 15.6831H14.3479C14.04 15.642 13.7695 15.5199 13.5061 15.3804L13.4973 15.3765C13.4353 15.3426 13.3658 15.3244 13.2952 15.3247C13.2254 15.3251 13.1562 15.3428 13.095 15.3765C12.9916 15.4393 12.9124 15.5636 12.9065 15.7261V15.7271C12.8955 16.0253 12.8656 16.3212 12.7473 16.6079L12.7464 16.6089C12.6362 16.875 12.4744 17.1172 12.2708 17.3208C12.0673 17.5242 11.8256 17.6853 11.5598 17.7954C11.3209 17.8944 11.0792 17.9305 10.8401 17.9468C10.6076 17.9626 10.3251 17.9624 9.99929 17.9624C9.67363 17.9624 9.3919 17.9626 9.15945 17.9468C8.92025 17.9305 8.67878 17.8944 8.43972 17.7954C8.17364 17.6853 7.93146 17.5244 7.72781 17.3208C7.52413 17.1171 7.36241 16.875 7.25222 16.6089V16.6079C7.13246 16.3194 7.1039 16.0218 7.09304 15.7271V15.7261C7.08719 15.5639 7.00688 15.4402 6.90164 15.3765C6.84097 15.3435 6.77348 15.3251 6.70437 15.3247C6.63359 15.3243 6.56337 15.3425 6.50124 15.3765L6.49343 15.3804C6.22981 15.52 5.95893 15.642 5.65066 15.6831H5.64968C5.36424 15.7208 5.07429 15.7019 4.79617 15.6274C4.51806 15.553 4.25703 15.4247 4.02859 15.2495L4.02664 15.2485C3.82251 15.0911 3.67104 14.9004 3.53738 14.7017C3.40746 14.5084 3.26705 14.2641 3.10378 13.9819L3.10281 13.981C2.94026 13.6989 2.79896 13.4549 2.69656 13.2456C2.59124 13.0304 2.50188 12.8027 2.46804 12.5464C2.43045 12.261 2.44926 11.9709 2.52371 11.6929C2.59819 11.4147 2.72731 11.1538 2.90261 10.9253C3.09288 10.6771 3.33729 10.5033 3.58425 10.3472L3.58718 10.3452C3.72807 10.257 3.79503 10.1228 3.79519 10.0005C3.79519 9.87829 3.72827 9.74304 3.58621 9.65381L3.58523 9.65283C3.33541 9.4956 3.09363 9.32222 2.90359 9.07568L2.90261 9.07471C2.72731 8.84621 2.59819 8.58532 2.52371 8.30713C2.44928 8.02908 2.43043 7.73898 2.46804 7.45361C2.50155 7.19616 2.59208 6.96839 2.69753 6.75342C2.80013 6.54433 2.94133 6.30038 3.10378 6.01904C3.267 5.73639 3.40829 5.49177 3.53835 5.29834C3.67197 5.09969 3.82267 4.90953 4.02566 4.75244L4.02859 4.75049C4.48974 4.39687 5.07253 4.24112 5.64871 4.31689H5.64968C5.88162 4.34771 6.09217 4.42376 6.29421 4.51904L6.49343 4.61963L6.50124 4.62451C6.56337 4.65843 6.63359 4.67565 6.70437 4.67529C6.77146 4.67494 6.83648 4.65663 6.89578 4.62549C6.95282 4.58963 7.0014 4.54216 7.03542 4.48389C7.0711 4.42278 7.09038 4.35346 7.09206 4.28272L7.09304 4.27295C7.10403 3.97567 7.1339 3.67888 7.25222 3.39209V3.39111C7.36235 3.12514 7.52429 2.88377 7.72781 2.68018C7.9315 2.47648 8.17356 2.31478 8.43972 2.20459C8.67877 2.10559 8.92026 2.06952 9.15945 2.05322C9.3919 2.0374 9.67364 2.0376 9.99929 2.0376ZM5.29519 10.0005C5.29504 10.6816 4.92462 11.2748 4.38503 11.6138L4.38601 11.6147C4.17019 11.7512 4.11474 11.81 4.09304 11.8384H4.09206C4.03682 11.9104 3.99644 11.9929 3.97292 12.0806C3.94944 12.1683 3.94353 12.2601 3.95535 12.3501C3.95902 12.3779 3.97228 12.4394 4.04421 12.5864C4.11897 12.7392 4.22924 12.9318 4.40164 13.231L4.62136 13.6069C4.68289 13.7102 4.73493 13.794 4.78249 13.8647C4.87178 13.9975 4.9182 14.0407 4.94167 14.0591L5.05691 14.1313C5.09738 14.1513 5.14007 14.1665 5.18386 14.1782C5.27137 14.2017 5.3626 14.2085 5.45242 14.1968L5.553 14.1675C5.60396 14.1479 5.67655 14.1149 5.78249 14.0591C6.06735 13.9036 6.38764 13.8231 6.71218 13.8247C6.99604 13.8262 7.27541 13.891 7.53054 14.0132L7.63894 14.0688L7.64871 14.0747C8.23696 14.4158 8.5688 15.0321 8.59206 15.6714L8.61355 15.9351L8.63796 16.0327V16.0347C8.6727 16.1186 8.72417 16.195 8.78835 16.2593C8.85258 16.3235 8.92906 16.3749 9.01296 16.4097H9.01394C9.0397 16.4203 9.0986 16.4396 9.26101 16.4507C9.4307 16.4622 9.65308 16.4624 9.99929 16.4624C10.3454 16.4624 10.5679 16.4622 10.7376 16.4507C10.9006 16.4396 10.96 16.4203 10.9856 16.4097L11.1057 16.3462C11.1434 16.321 11.1781 16.2914 11.2102 16.2593C11.2745 16.195 11.3258 16.1187 11.3606 16.0347C11.3751 15.9992 11.3984 15.9188 11.4075 15.6714C11.4307 15.0328 11.762 14.4144 12.3518 14.0737L12.3606 14.0688C12.6438 13.9105 12.9629 13.8264 13.2874 13.8247C13.6088 13.8231 13.9255 13.9025 14.2083 14.0552L14.4456 14.1675C14.4978 14.1876 14.5271 14.1942 14.5462 14.1968H14.5452C14.6354 14.2087 14.7278 14.2017 14.8157 14.1782C14.9032 14.1547 14.985 14.1142 15.0569 14.0591C15.0789 14.0422 15.1248 14.0006 15.2161 13.8647C15.311 13.7234 15.4228 13.5309 15.596 13.231C15.7694 12.9307 15.8804 12.7382 15.9553 12.5854C16.0268 12.4397 16.0397 12.3799 16.0432 12.353V12.3511C16.0551 12.2609 16.0492 12.1684 16.0257 12.0806C16.0023 11.9935 15.9621 11.912 15.9075 11.8403L15.8323 11.7671C15.7898 11.7328 15.7247 11.6867 15.6233 11.6226L15.5218 11.5562C15.29 11.394 15.0971 11.1816 14.9563 10.9351C14.7954 10.6532 14.7079 10.3348 14.7034 10.0103V10.0005C14.7034 9.31796 15.0752 8.72201 15.6165 8.3833C15.8296 8.2483 15.8849 8.18982 15.9065 8.16162C15.9618 8.08953 16.0021 8.00719 16.0257 7.91943C16.0492 7.83167 16.0551 7.73999 16.0432 7.6499C16.0396 7.62209 16.0263 7.56058 15.9544 7.41357C15.8795 7.26068 15.7686 7.06771 15.596 6.76807V6.76709C15.4234 6.46882 15.3119 6.27727 15.2171 6.13623C15.1258 6.00044 15.079 5.95771 15.0559 5.93994V5.93897C14.9844 5.8845 14.9026 5.8451 14.8157 5.82178C14.7278 5.79825 14.6354 5.7923 14.5452 5.8042L14.5442 5.80322C14.5053 5.80877 14.4244 5.8306 14.2063 5.9458L14.2053 5.94482C13.923 6.09683 13.6072 6.17693 13.2864 6.17529C12.9622 6.17358 12.6436 6.0893 12.3606 5.93115L12.3518 5.92627L12.3421 5.92041C12.0637 5.75434 11.8317 5.52062 11.6682 5.24072C11.5047 4.96058 11.4143 4.64315 11.4065 4.31885V4.31787C11.397 4.0745 11.3749 3.99934 11.3616 3.96729L11.3606 3.96533C11.3258 3.88128 11.2746 3.80506 11.2102 3.74072C11.1781 3.70855 11.1434 3.67896 11.1057 3.65381L10.9856 3.59033C10.96 3.57972 10.9006 3.56043 10.7376 3.54932C10.5679 3.53777 10.3454 3.5376 9.99929 3.5376C9.65308 3.5376 9.4307 3.53776 9.26101 3.54932C9.09869 3.56039 9.03972 3.5797 9.01394 3.59033H9.01296C8.92905 3.62513 8.85259 3.67648 8.78835 3.74072C8.72437 3.80478 8.67368 3.88076 8.63894 3.96436C8.62457 3.99919 8.60128 4.07923 8.59206 4.32861L8.59109 4.32764C8.58193 4.64887 8.49341 4.96312 8.33132 5.24072C8.16775 5.52083 7.93512 5.75428 7.65652 5.92041L7.64773 5.92627L7.63894 5.93115C7.35574 6.08953 7.03665 6.1736 6.71218 6.17529C6.38764 6.17695 6.06735 6.09643 5.78249 5.94092V5.93994C5.56899 5.82744 5.49052 5.80931 5.45242 5.8042V5.80322C5.27074 5.77953 5.0871 5.82946 4.94167 5.94092C4.91765 5.95999 4.8709 6.00476 4.78249 6.13623C4.68759 6.27742 4.57534 6.46993 4.40261 6.76904C4.22926 7.06925 4.11915 7.2618 4.04421 7.41455C3.9723 7.56116 3.9588 7.62123 3.95535 7.64795V7.6499C3.94351 7.73996 3.94943 7.83169 3.97292 7.91943C3.99631 8.0067 4.03627 8.08884 4.09109 8.16064L4.16726 8.23291C4.2109 8.26815 4.27795 8.31651 4.38406 8.3833L4.57839 8.52197C5.01133 8.87241 5.29519 9.40317 5.29519 10.0005Z" fill="#98C867"/>
</svg>
