<svg width="20" height="20" viewBox="0 0 20 20" fill="none" xmlns="http://www.w3.org/2000/svg">
<path d="M14.8984 8.33105C14.8983 5.67897 12.7199 3.501 9.99902 3.50098C7.27816 3.50098 5.0998 5.67895 5.09961 8.33105C5.09961 10.3453 6.37506 12.4042 7.91211 14.1035C8.65342 14.9231 9.3991 15.598 9.96094 16.0674C9.97131 16.0761 9.98195 16.0843 9.99219 16.0928C10.0046 16.0823 10.0176 16.0722 10.0303 16.0615C10.5932 15.5858 11.3413 14.9045 12.084 14.0791C13.6268 12.3644 14.8984 10.306 14.8984 8.33105ZM16.3936 8.57031C16.2006 13.5673 10.0405 17.9694 9.99902 17.999L9.72363 17.7969C8.4985 16.8678 3.59961 12.8685 3.59961 8.33105C3.5998 4.83525 6.46509 2.00098 9.99902 2.00098L10.3281 2.00879C13.7091 2.17826 16.3983 4.94444 16.3984 8.33105L16.3936 8.57031Z" fill="white"/>
<path d="M8.49805 8.39941C8.49805 9.22784 9.16962 9.89941 9.99805 9.89941C10.8265 9.89941 11.498 9.22784 11.498 8.39941C11.498 7.57099 10.8265 6.89941 9.99805 6.89941L9.99805 5.39941C11.6549 5.39941 12.998 6.74256 12.998 8.39941C12.998 10.0563 11.6549 11.3994 9.99805 11.3994C8.34119 11.3994 6.99805 10.0563 6.99805 8.39941C6.99805 6.74256 8.34119 5.39941 9.99805 5.39941L9.99805 6.89941C9.16962 6.89941 8.49805 7.57099 8.49805 8.39941Z" fill="white"/>
</svg>
