<?xml version="1.0" encoding="utf-8"?>
<!-- Generator: Adobe Illustrator 28.0.0, SVG Export Plug-In . SVG Version: 6.00 Build 0)  -->
<svg version="1.1" id="Logo" xmlns="http://www.w3.org/2000/svg" xmlns:xlink="http://www.w3.org/1999/xlink" x="0px" y="0px"
	 viewBox="0 0 255.12 46.19" style="enable-background:new 0 0 255.12 46.19;" xml:space="preserve">
<style type="text/css">
	.st0{fill:#144430;}
	.st1{fill:#97C568;}
</style>
<g>
	<g>
		<path class="st0" d="M61.24,19.94c0.72-1.4,1.71-2.48,2.97-3.24c1.25-0.76,2.65-1.13,4.18-1.13c1.17,0,2.28,0.25,3.34,0.76
			c1.06,0.51,1.9,1.18,2.53,2.03V9.83h4.6v23.99h-4.6v-2.66c-0.56,0.89-1.35,1.6-2.37,2.14c-1.02,0.54-2.19,0.81-3.53,0.81
			c-1.51,0-2.9-0.39-4.15-1.17c-1.25-0.78-2.24-1.87-2.97-3.29c-0.72-1.41-1.09-3.04-1.09-4.88C60.16,22.96,60.52,21.35,61.24,19.94
			z M73.64,22c-0.43-0.79-1.02-1.39-1.75-1.82c-0.74-0.42-1.52-0.63-2.37-0.63c-0.84,0-1.62,0.21-2.33,0.62
			c-0.71,0.41-1.29,1.01-1.73,1.8c-0.44,0.79-0.66,1.72-0.66,2.8c0,1.08,0.22,2.03,0.66,2.84c0.44,0.81,1.03,1.43,1.75,1.86
			c0.72,0.43,1.5,0.65,2.32,0.65c0.84,0,1.63-0.21,2.37-0.63c0.73-0.42,1.32-1.03,1.75-1.81c0.43-0.79,0.65-1.73,0.65-2.84
			S74.07,22.79,73.64,22z"/>
		<path class="st0" d="M99.86,26.2H86.73c0.11,1.3,0.56,2.31,1.36,3.05c0.8,0.74,1.78,1.1,2.95,1.1c1.69,0,2.88-0.72,3.6-2.17h4.89
			c-0.52,1.73-1.51,3.15-2.98,4.26c-1.47,1.11-3.27,1.67-5.41,1.67c-1.73,0-3.28-0.38-4.65-1.15c-1.37-0.77-2.44-1.85-3.21-3.26
			c-0.77-1.4-1.15-3.03-1.15-4.86c0-1.86,0.38-3.49,1.13-4.89c0.76-1.4,1.81-2.48,3.18-3.24c1.36-0.76,2.93-1.13,4.7-1.13
			c1.71,0,3.24,0.37,4.59,1.1c1.35,0.74,2.4,1.78,3.14,3.13s1.12,2.9,1.12,4.65C99.99,25.09,99.95,25.68,99.86,26.2z M95.29,23.15
			c-0.02-1.17-0.44-2.1-1.26-2.8c-0.82-0.7-1.83-1.05-3.01-1.05c-1.12,0-2.07,0.34-2.84,1.02c-0.77,0.68-1.24,1.63-1.41,2.84H95.29z
			"/>
		<path class="st0" d="M111.53,19.58h-3.14v14.23h-4.6V19.58h-2.04v-3.73h2.04v-0.91c0-2.2,0.63-3.82,1.88-4.86
			c1.25-1.04,3.14-1.52,5.67-1.46v3.82c-1.1-0.02-1.87,0.16-2.3,0.55c-0.43,0.39-0.65,1.09-0.65,2.11v0.75h3.14V19.58z"/>
		<path class="st0" d="M114.79,12.96c-0.53-0.51-0.79-1.14-0.79-1.9c0-0.76,0.26-1.39,0.79-1.9c0.53-0.51,1.19-0.76,1.99-0.76
			c0.8,0,1.46,0.25,1.99,0.76c0.53,0.51,0.79,1.14,0.79,1.9c0,0.76-0.27,1.39-0.79,1.9c-0.53,0.51-1.19,0.76-1.99,0.76
			C115.98,13.72,115.32,13.46,114.79,12.96z M119.02,15.86v17.96h-4.54V15.86H119.02z"/>
		<path class="st0" d="M134.12,33.81l-6.09-7.65v7.65h-4.54V9.83h4.54v13.65l6.03-7.62h5.9l-7.91,9.01l7.97,8.95H134.12z"/>
		<path class="st0" d="M141.85,19.94c0.72-1.4,1.71-2.48,2.95-3.24c1.24-0.76,2.63-1.13,4.17-1.13c1.34,0,2.51,0.27,3.52,0.81
			c1,0.54,1.81,1.22,2.41,2.04v-2.56h4.57v17.96h-4.57v-2.63c-0.58,0.84-1.39,1.54-2.41,2.09c-1.03,0.55-2.21,0.83-3.55,0.83
			c-1.51,0-2.89-0.39-4.13-1.17c-1.24-0.78-2.23-1.87-2.95-3.29c-0.72-1.41-1.09-3.04-1.09-4.88
			C140.77,22.96,141.13,21.35,141.85,19.94z M154.25,22c-0.43-0.79-1.02-1.39-1.75-1.82c-0.74-0.42-1.52-0.63-2.37-0.63
			c-0.84,0-1.62,0.21-2.33,0.62c-0.71,0.41-1.29,1.01-1.73,1.8c-0.44,0.79-0.66,1.72-0.66,2.8c0,1.08,0.22,2.03,0.66,2.84
			c0.44,0.81,1.03,1.43,1.75,1.86c0.72,0.43,1.5,0.65,2.32,0.65c0.84,0,1.63-0.21,2.37-0.63c0.73-0.42,1.32-1.03,1.75-1.81
			c0.43-0.79,0.65-1.73,0.65-2.84S154.68,22.79,154.25,22z"/>
		<path class="st0" d="M170.73,16.41c0.94-0.54,2.01-0.81,3.23-0.81v4.76h-1.2c-1.43,0-2.5,0.34-3.23,1
			c-0.72,0.67-1.09,1.84-1.09,3.5v8.95h-4.54V15.86h4.54v2.79C169.03,17.69,169.79,16.95,170.73,16.41z"/>
		<path class="st0" d="M182.94,19.58v8.69c0,0.61,0.15,1.04,0.44,1.31c0.29,0.27,0.78,0.4,1.48,0.4h2.11v3.83h-2.85
			c-3.82,0-5.74-1.86-5.74-5.58v-8.65h-2.14v-3.73h2.14v-4.44h4.57v4.44h4.02v3.73H182.94z"/>
		<path class="st0" d="M206.79,26.2h-13.13c0.11,1.3,0.56,2.31,1.36,3.05c0.8,0.74,1.78,1.1,2.95,1.1c1.69,0,2.88-0.72,3.6-2.17
			h4.89c-0.52,1.73-1.51,3.15-2.98,4.26c-1.47,1.11-3.27,1.67-5.41,1.67c-1.73,0-3.28-0.38-4.65-1.15
			c-1.37-0.77-2.44-1.85-3.21-3.26c-0.77-1.4-1.15-3.03-1.15-4.86c0-1.86,0.38-3.49,1.13-4.89c0.76-1.4,1.82-2.48,3.18-3.24
			c1.36-0.76,2.93-1.13,4.7-1.13c1.71,0,3.24,0.37,4.59,1.1c1.35,0.74,2.4,1.78,3.14,3.13c0.75,1.35,1.12,2.9,1.12,4.65
			C206.92,25.09,206.88,25.68,206.79,26.2z M202.22,23.15c-0.02-1.17-0.44-2.1-1.26-2.8c-0.82-0.7-1.83-1.05-3.01-1.05
			c-1.12,0-2.07,0.34-2.84,1.02c-0.77,0.68-1.24,1.63-1.41,2.84H202.22z"/>
		<path class="st0" d="M210.21,33.28c-0.53-0.51-0.79-1.14-0.79-1.9c0-0.76,0.26-1.39,0.79-1.9c0.53-0.51,1.2-0.76,2.03-0.76
			c0.8,0,1.46,0.25,1.98,0.76c0.52,0.51,0.78,1.14,0.78,1.9c0,0.76-0.26,1.39-0.78,1.9c-0.52,0.51-1.18,0.76-1.98,0.76
			C211.41,34.04,210.74,33.79,210.21,33.28z"/>
		<path class="st0" d="M218.62,19.96c0.76-1.39,1.8-2.47,3.14-3.24c1.34-0.77,2.87-1.15,4.6-1.15c2.23,0,4.07,0.56,5.53,1.67
			c1.46,1.11,2.44,2.67,2.93,4.68h-4.89c-0.26-0.78-0.7-1.39-1.31-1.83c-0.62-0.44-1.38-0.66-2.28-0.66c-1.3,0-2.32,0.47-3.08,1.41
			c-0.76,0.94-1.13,2.27-1.13,4c0,1.71,0.38,3.03,1.13,3.97c0.76,0.94,1.78,1.41,3.08,1.41c1.84,0,3.04-0.82,3.6-2.46h4.89
			c-0.5,1.95-1.48,3.49-2.95,4.64c-1.47,1.14-3.31,1.72-5.51,1.72c-1.73,0-3.26-0.38-4.6-1.15c-1.34-0.77-2.39-1.85-3.14-3.24
			c-0.76-1.39-1.13-3.02-1.13-4.88S217.87,21.35,218.62,19.96z"/>
		<path class="st0" d="M251.75,16.49c1.06,0.6,1.89,1.47,2.48,2.63c0.59,1.16,0.89,2.54,0.89,4.16v10.54h-4.54V23.9
			c0-1.43-0.36-2.52-1.07-3.29c-0.71-0.77-1.69-1.15-2.92-1.15c-1.25,0-2.24,0.38-2.97,1.15c-0.72,0.77-1.09,1.86-1.09,3.29v9.92
			H238V9.83h4.54v8.27c0.58-0.78,1.36-1.39,2.33-1.83c0.97-0.44,2.05-0.66,3.24-0.66C249.48,15.6,250.69,15.89,251.75,16.49z"/>
	</g>
	<path class="st1" d="M48.16,30.6l-7.95,0l6.09-6.1c3.51-3.64,5.17-9.09,3.3-14.84c-1.33-4.07-4.38-7.27-8.41-8.72
		c-6.35-2.28-12.3-0.24-16,3.87c-3.7-4.11-9.66-6.16-16-3.87C5.16,2.4,2.11,5.6,0.78,9.67c-1.87,5.75-0.22,11.2,3.29,14.84
		L17.46,37.9c0.26,0.26,0.68,0.26,0.94,0l3.61-3.61c0.26-0.26,0.26-0.68,0-0.94l-7.99-7.99l0.01-0.01L8.57,19.9
		c-2.2-2.2-2.99-5.54-1.76-8.4c2.43-5.62,9.17-6.52,12.98-2.71l4.92,4.92c0.27,0.27,0.7,0.27,0.96,0l4.98-4.98
		c2.2-2.2,5.54-2.99,8.4-1.76c5.61,2.43,6.52,9.17,2.7,12.98l-5.4,5.4l0.01,0.01l-7.53,7.53c-0.34,0.34-0.1,0.92,0.38,0.92l9.66,0
		L28.3,45.38c-0.39,0.43,0.18,1.05,0.64,0.71l19.51-14.64c0.11-0.07,0.17-0.21,0.17-0.36C48.63,30.82,48.43,30.6,48.16,30.6z"/>
</g>
</svg>
