<svg width="100" height="40" viewBox="0 0 100 40" fill="none" xmlns="http://www.w3.org/2000/svg">
<g clip-path="url(#clip0_1492_26327)">
<path d="M97.0303 9.12988L97.029 18.825C97.029 20.8021 95.4223 22.4101 93.4469 22.4101C91.4716 22.4101 89.8656 20.8021 89.8656 18.825C89.8656 16.848 91.4723 15.2406 93.4469 15.2406H95.835V14.4441H93.4469C91.0333 14.4441 89.0698 16.4093 89.0698 18.825C89.0698 21.2407 91.034 23.2066 93.4469 23.2066C95.8599 23.2066 97.8247 21.2414 97.8247 18.825L97.826 9.12988H97.0296H97.0303Z" fill="#0078BE"/>
<path d="M86.3154 20.7471C85.6787 21.7448 84.5635 22.4084 83.2953 22.4084C81.3199 22.4084 79.7133 20.8004 79.7133 18.8233C79.7133 16.8463 81.3199 15.2389 83.2953 15.2389C85.1352 15.2389 86.6545 16.6358 86.8536 18.4254H83.2953V19.2219H87.6533C87.6652 19.0903 87.673 18.9581 87.673 18.8233C87.673 16.4076 85.7096 14.4424 83.2953 14.4424C80.881 14.4424 78.9175 16.4076 78.9175 18.8233C78.9175 21.239 80.881 23.2049 83.2953 23.2049C84.8454 23.2049 86.2083 22.394 86.9864 21.1746L86.3154 20.7471Z" fill="#0078BE"/>
<path d="M74.354 14.4424C73.1568 14.4424 72.1119 15.108 71.5685 16.0893C71.025 15.1086 69.9802 14.4424 68.7829 14.4424C67.0277 14.4424 65.5991 15.8716 65.5991 17.6289V23.2049H66.3956V17.6289C66.3956 16.3109 67.4667 15.2389 68.7829 15.2389C70.0991 15.2389 71.1702 16.3102 71.1709 17.6276V23.2056H71.9667V17.6296C71.9667 17.6296 71.9667 17.6289 71.9667 17.6283C71.9673 16.3109 73.0385 15.2395 74.3547 15.2395C75.6709 15.2395 76.7427 16.3116 76.7427 17.6296V23.2056H77.5385V17.6296C77.5385 15.8722 76.1105 14.443 74.3547 14.443L74.354 14.4424Z" fill="#0078BE"/>
<path d="M59.8241 14.4424C57.4104 14.4424 55.4463 16.4076 55.4463 18.8233C55.4463 21.239 57.4104 23.2049 59.8241 23.2049H62.2121V22.4084H59.8241C57.8494 22.4084 56.2427 20.8004 56.2427 18.8233C56.2427 16.8463 57.8494 15.2389 59.8241 15.2389C61.7987 15.2389 63.4061 16.8469 63.4061 18.8233V23.2049H64.2019V18.8233C64.2019 16.4076 62.2384 14.4424 59.8241 14.4424Z" fill="#0078BE"/>
<path d="M53.436 20.7467C52.7993 21.7445 51.6861 22.4094 50.4178 22.4094C48.4432 22.4094 46.8365 20.8013 46.8365 18.8243C46.8365 16.8472 48.4432 15.2398 50.4178 15.2398C51.6861 15.2398 52.7993 15.9048 53.436 16.9025L54.1069 16.475C53.3289 15.2556 51.968 14.4434 50.4178 14.4434C48.0042 14.4434 46.04 16.4086 46.04 18.8243C46.04 21.24 48.0035 23.2059 50.4178 23.2059C51.9673 23.2059 53.3289 22.3936 54.1069 21.1742L53.436 20.7474V20.7467Z" fill="#0078BE"/>
<path d="M40.2665 23.2059C37.8528 23.2059 35.8887 21.2407 35.8887 18.8243C35.8887 16.4079 37.8522 14.4434 40.2665 14.4434C42.6807 14.4434 44.6442 16.4086 44.6442 18.8243C44.6442 21.24 42.6801 23.2059 40.2665 23.2059ZM40.2665 15.2398C38.2911 15.2398 36.6845 16.8479 36.6845 18.8243C36.6845 20.8007 38.2911 22.4094 40.2665 22.4094C42.2418 22.4094 43.8485 20.8013 43.8485 18.8243C43.8485 16.8472 42.2418 15.2398 40.2665 15.2398Z" fill="#0078BE"/>
<path d="M30.3005 18.8243V23.2059H31.0962V18.8243C31.0962 16.8479 32.7029 15.2398 34.6776 15.2398V14.4434C32.264 14.4434 30.2998 16.4086 30.2998 18.8243H30.3005Z" fill="#0078BE"/>
<path d="M20.9449 28.5191V18.8246C20.9442 16.8476 22.5509 15.2395 24.5262 15.2395C26.5015 15.2395 28.1082 16.8476 28.1082 18.8246C28.1082 20.8017 26.5015 22.4091 24.5262 22.4091H22.1389V23.2049H24.5262C26.9399 23.2049 28.904 21.2397 28.904 18.824C28.904 16.4082 26.9399 14.4424 24.5262 14.4424C22.1126 14.4424 20.1484 16.4076 20.1484 18.824V28.5184H20.9449V28.5191Z" fill="#0078BE"/>
<path d="M14.5418 19.3864C14.4222 18.4249 13.9754 17.6218 13.2506 17.0647C12.6283 16.5859 11.9429 16.3439 11.2135 16.3439C10.4019 16.3439 9.66134 16.7273 9.13761 17.1338C8.63162 16.7392 7.85884 16.3281 7.04466 16.3281C6.30605 16.3281 5.62001 16.5813 5.00625 17.0805C4.34189 17.6212 3.93185 18.39 3.85233 19.247C3.76296 20.2066 4.09087 21.1734 4.76574 21.9764C6.01691 23.4655 9.13761 25.1281 9.13761 25.1281V27.19C10.235 26.4613 12.9726 24.6184 14.143 21.912C14.4998 21.0866 14.6411 20.1901 14.5412 19.3877L14.5418 19.3864ZM12.5146 21.2056C11.6906 22.9972 10.4 24.2067 9.13761 25.1242V23.1037C7.89827 22.4704 6.63527 21.4365 6.11942 20.8274C5.75209 20.394 5.3519 19.4752 5.98143 18.6932C6.91586 17.533 8.59614 18.4446 9.13761 19.0365C9.64951 18.5511 10.856 17.5442 12.098 18.4735C12.9522 19.1128 12.903 20.3605 12.5146 21.2056Z" fill="white"/>
<path d="M12.0988 18.4729C10.8568 17.5436 9.64967 18.5499 9.13842 19.0359C8.59695 18.444 6.91733 17.5318 5.98224 18.6926C5.35271 19.4746 5.7529 20.3941 6.12023 20.8268C6.63608 21.4359 7.89908 22.4698 9.13842 23.1031V25.1236C10.4008 24.2061 11.6907 22.9966 12.5154 21.205C12.9044 20.3599 12.953 19.1122 12.0988 18.4729Z" fill="#0078BE"/>
<path d="M11.8604 14.4443H2.17432V24.1388C2.17432 26.5585 4.13387 28.5197 6.55144 28.5197H16.2375V18.8253C16.2375 16.4056 14.278 14.4443 11.8604 14.4443ZM14.1439 21.9105C12.9736 24.6176 10.236 26.4598 9.13856 27.1886V25.1267C9.13856 25.1267 6.01786 23.464 4.76669 21.975C4.09182 21.1719 3.76391 20.2051 3.85328 19.2455C3.93279 18.3886 4.34218 17.6197 5.00719 17.0791C5.62095 16.5799 6.30699 16.3267 7.0456 16.3267C7.85979 16.3267 8.63323 16.7384 9.13856 17.1323C9.66229 16.7259 10.4022 16.3425 11.2144 16.3425C11.9438 16.3425 12.6292 16.5851 13.2515 17.0633C13.9763 17.6204 14.4232 18.4234 14.5428 19.385C14.6427 20.1874 14.5014 21.0838 14.1446 21.9092L14.1439 21.9105Z" fill="#0078BE"/>
</g>
<defs>
<clipPath id="clip0_1492_26327">
<rect width="95.6522" height="19.389" fill="white" transform="translate(2.17383 9.13086)"/>
</clipPath>
</defs>
</svg>
