<svg width="150" height="28" viewBox="0 0 150 28" fill="none" xmlns="http://www.w3.org/2000/svg">
<g clip-path="url(#clip0_877_721)">
<g clip-path="url(#clip1_877_721)">
<path d="M36.0066 11.7239C36.4299 10.9008 37.012 10.2658 37.7528 9.81891C38.4878 9.37206 39.3109 9.15451 40.2105 9.15451C40.8984 9.15451 41.551 9.3015 42.1743 9.60136C42.7975 9.90122 43.2914 10.2952 43.6618 10.7949V5.77963H46.3664V19.8848H43.6618V18.3208C43.3326 18.8441 42.8681 19.2615 42.2684 19.579C41.6686 19.8965 40.9807 20.0553 40.1929 20.0553C39.305 20.0553 38.4878 19.826 37.7528 19.3674C37.0179 18.9087 36.4358 18.2679 36.0066 17.433C35.5833 16.604 35.3657 15.6456 35.3657 14.5637C35.3716 13.4995 35.5833 12.5529 36.0066 11.7239ZM43.2973 12.9351C43.0445 12.4706 42.6976 12.1178 42.2684 11.865C41.8333 11.6181 41.3747 11.4946 40.8749 11.4946C40.381 11.4946 39.9224 11.6181 39.505 11.8591C39.0875 12.1002 38.7465 12.453 38.4878 12.9175C38.2291 13.3819 38.0997 13.9287 38.0997 14.5637C38.0997 15.1987 38.2291 15.7573 38.4878 16.2335C38.7465 16.7098 39.0934 17.0743 39.5167 17.3271C39.94 17.58 40.3986 17.7093 40.8808 17.7093C41.3747 17.7093 41.8391 17.5858 42.2742 17.3389C42.7034 17.092 43.0503 16.7333 43.3032 16.2747C43.556 15.8102 43.6853 15.2575 43.6853 14.6049C43.6853 13.9523 43.5501 13.3996 43.2973 12.9351Z" fill="white"/>
<path d="M58.7136 15.4045H50.9937C51.0584 16.1688 51.3229 16.7627 51.7933 17.1978C52.2637 17.6329 52.8399 17.8445 53.5278 17.8445C54.5214 17.8445 55.2211 17.4212 55.6444 16.5686H58.5195C58.2138 17.5858 57.6317 18.4207 56.7674 19.0734C55.9031 19.726 54.8448 20.0552 53.5866 20.0552C52.5694 20.0552 51.6581 19.8318 50.8526 19.3791C50.0471 18.9264 49.4179 18.2914 48.9652 17.4623C48.5125 16.6392 48.2891 15.6808 48.2891 14.6049C48.2891 13.5113 48.5125 12.5529 48.9535 11.7297C49.4003 10.9066 50.0177 10.2716 50.8232 9.82476C51.6228 9.37791 52.5459 9.16037 53.5866 9.16037C54.592 9.16037 55.4916 9.37791 56.2853 9.80712C57.079 10.2422 57.6964 10.8537 58.1315 11.6474C58.5666 12.4412 58.79 13.3525 58.79 14.3814C58.79 14.7519 58.7665 15.0988 58.7136 15.4045ZM56.0266 13.6112C56.0148 12.9233 55.7679 12.3765 55.2858 11.9649C54.8036 11.5534 54.2098 11.3476 53.516 11.3476C52.8575 11.3476 52.2989 11.5475 51.8462 11.9473C51.3935 12.3471 51.1171 12.9057 51.0172 13.6171H56.0266V13.6112Z" fill="white"/>
<path d="M65.5749 11.5122H63.7288V19.8789H61.0241V11.5122H59.8247V9.31913H61.0241V8.78408C61.0241 7.49057 61.3946 6.53808 62.1295 5.9266C62.8645 5.31513 63.9757 5.03291 65.4632 5.06818V7.31419C64.8165 7.30243 64.3637 7.40826 64.1109 7.63756C63.8581 7.86687 63.7288 8.27844 63.7288 8.87816V9.31913H65.5749V11.5122Z" fill="white"/>
<path d="M67.4918 7.61993C67.1802 7.32008 67.0273 6.94966 67.0273 6.50281C67.0273 6.05596 67.1802 5.68555 67.4918 5.38569C67.8034 5.08583 68.1915 4.93884 68.6619 4.93884C69.1322 4.93884 69.5203 5.08583 69.8319 5.38569C70.1435 5.68555 70.2964 6.05596 70.2964 6.50281C70.2964 6.94966 70.1376 7.32008 69.8319 7.61993C69.5203 7.91979 69.1322 8.06678 68.6619 8.06678C68.1915 8.06678 67.8034 7.91391 67.4918 7.61993ZM69.9789 9.32501V19.8848H67.3096V9.32501H69.9789Z" fill="white"/>
<path d="M78.8569 19.8789L75.2763 15.381V19.8789H72.6069V5.77963H75.2763V13.8053L78.8217 9.32502H82.2906L77.6399 14.6225L82.3259 19.8848H78.8569V19.8789Z" fill="white"/>
<path d="M83.4021 11.7239C83.8254 10.9007 84.4075 10.2658 85.1366 9.8189C85.8656 9.37206 86.6829 9.15451 87.5883 9.15451C88.3762 9.15451 89.0641 9.31326 89.658 9.63076C90.2459 9.94825 90.7222 10.3481 91.0749 10.8302V9.32502H93.7619V19.8848H91.0749V18.3384C90.7339 18.8323 90.2577 19.2439 89.658 19.5673C89.0524 19.8906 88.3586 20.0553 87.5707 20.0553C86.6829 20.0553 85.8715 19.826 85.1424 19.3674C84.4134 18.9087 83.8313 18.2679 83.408 17.433C82.9846 16.6039 82.7671 15.6456 82.7671 14.5637C82.7671 13.4995 82.9788 12.5529 83.4021 11.7239ZM90.6928 12.9351C90.4399 12.4706 90.0931 12.1178 89.6638 11.865C89.2288 11.6181 88.7701 11.4946 88.2704 11.4946C87.7765 11.4946 87.3179 11.6181 86.9004 11.8591C86.483 12.1002 86.142 12.453 85.8833 12.9174C85.6246 13.3819 85.4952 13.9287 85.4952 14.5637C85.4952 15.1987 85.6246 15.7573 85.8833 16.2335C86.142 16.7098 86.4889 17.0743 86.9122 17.3271C87.3355 17.58 87.7941 17.7093 88.2763 17.7093C88.7701 17.7093 89.2346 17.5858 89.6697 17.3389C90.0989 17.092 90.4458 16.7333 90.6986 16.2747C90.9515 15.8102 91.0808 15.2575 91.0808 14.6049C91.0808 13.9523 90.9456 13.3996 90.6928 12.9351Z" fill="white"/>
<path d="M100.382 9.6484C100.935 9.3309 101.564 9.17215 102.281 9.17215V11.9708H101.576C100.735 11.9708 100.106 12.1707 99.6764 12.5588C99.2531 12.9527 99.0355 13.6406 99.0355 14.6166V19.8789H96.3662V9.32502H99.0355V10.9654C99.3824 10.401 99.8293 9.96589 100.382 9.6484Z" fill="white"/>
<path d="M107.561 11.5122V16.6216C107.561 16.9802 107.649 17.233 107.82 17.3918C107.99 17.5505 108.278 17.627 108.69 17.627H109.93V19.8789H108.255C106.009 19.8789 104.88 18.7853 104.88 16.5981V11.5122H103.622V9.31912H104.88V6.70859H107.567V9.31912H109.93V11.5122H107.561Z" fill="white"/>
<path d="M121.584 15.4045H113.864C113.929 16.1688 114.194 16.7627 114.664 17.1978C115.134 17.6329 115.71 17.8445 116.398 17.8445C117.392 17.8445 118.092 17.4212 118.515 16.5686H121.39C121.084 17.5858 120.502 18.4207 119.638 19.0734C118.774 19.726 117.715 20.0552 116.457 20.0552C115.44 20.0552 114.529 19.8318 113.723 19.3791C112.918 18.9264 112.289 18.2914 111.836 17.4623C111.383 16.6392 111.16 15.6808 111.16 14.6049C111.16 13.5113 111.383 12.5529 111.824 11.7297C112.271 10.9066 112.894 10.2716 113.694 9.82476C114.493 9.37791 115.416 9.16037 116.457 9.16037C117.463 9.16037 118.362 9.37791 119.156 9.80712C119.95 10.2422 120.567 10.8537 121.002 11.6474C121.443 12.4412 121.661 13.3525 121.661 14.3814C121.661 14.7519 121.637 15.0988 121.584 15.4045ZM118.897 13.6112C118.885 12.9233 118.639 12.3765 118.156 11.9649C117.674 11.5534 117.08 11.3476 116.387 11.3476C115.728 11.3476 115.17 11.5475 114.717 11.9473C114.264 12.3471 113.988 12.9057 113.888 13.6171H118.897V13.6112Z" fill="white"/>
<path d="M123.595 19.5673C123.283 19.2674 123.13 18.897 123.13 18.4501C123.13 18.0033 123.283 17.6329 123.595 17.333C123.906 17.0332 124.3 16.8862 124.788 16.8862C125.259 16.8862 125.647 17.0332 125.953 17.333C126.258 17.6329 126.411 18.0033 126.411 18.4501C126.411 18.897 126.258 19.2674 125.953 19.5673C125.647 19.8671 125.259 20.0141 124.788 20.0141C124.3 20.0141 123.906 19.8671 123.595 19.5673Z" fill="white"/>
<path d="M128.539 11.7356C128.986 10.9184 129.598 10.2834 130.386 9.83066C131.173 9.37793 132.073 9.15451 133.09 9.15451C134.401 9.15451 135.483 9.48377 136.342 10.1364C137.2 10.789 137.776 11.7063 138.064 12.888H135.189C135.036 12.4294 134.778 12.0708 134.419 11.8121C134.054 11.5534 133.608 11.424 133.078 11.424C132.314 11.424 131.714 11.7004 131.267 12.2531C130.821 12.8057 130.603 13.5877 130.603 14.6049C130.603 15.6103 130.827 16.3864 131.267 16.9391C131.714 17.4918 132.314 17.7681 133.078 17.7681C134.16 17.7681 134.866 17.286 135.195 16.3217H138.07C137.776 17.4682 137.2 18.3737 136.336 19.0499C135.471 19.7201 134.39 20.0611 133.096 20.0611C132.079 20.0611 131.179 19.8377 130.391 19.385C129.604 18.9323 128.986 18.2973 128.545 17.48C128.098 16.6627 127.881 15.7044 127.881 14.6108C127.881 13.5172 128.098 12.5529 128.539 11.7356Z" fill="white"/>
<path d="M148.019 9.69544C148.642 10.0482 149.13 10.5597 149.477 11.2418C149.824 11.9238 150 12.7352 150 13.6877V19.8848H147.331V14.0522C147.331 13.2114 147.119 12.5706 146.701 12.1178C146.284 11.6651 145.708 11.4417 144.985 11.4417C144.25 11.4417 143.668 11.6651 143.238 12.1178C142.815 12.5706 142.598 13.2114 142.598 14.0522V19.8848H139.934V5.77963H142.603V10.6421C142.944 10.1834 143.403 9.82479 143.973 9.56609C144.544 9.30738 145.179 9.17803 145.878 9.17803C146.684 9.17215 147.395 9.34266 148.019 9.69544Z" fill="white"/>
<path d="M28.3163 17.9915H23.642L27.2227 14.405C29.2864 12.2648 30.2624 9.06044 29.163 5.67968C28.381 3.28669 26.5877 1.40522 24.2182 0.552679C20.4847 -0.787866 16.9863 0.411569 14.8109 2.82808C12.6354 0.411569 9.13122 -0.793746 5.40356 0.552679C3.03409 1.4111 1.24081 3.29257 0.458827 5.68556C-0.640656 9.06632 0.329476 12.2707 2.39321 14.4109L10.266 22.2836C10.4188 22.4365 10.6658 22.4365 10.8187 22.2836L12.9412 20.1611C13.0941 20.0082 13.0941 19.7613 12.9412 19.6084L8.2434 14.9106L8.24928 14.9048L5.03902 11.7004C3.74552 10.4069 3.28103 8.44308 4.00422 6.76152C5.43296 3.4572 9.3958 2.92803 11.6359 5.16815L14.5287 8.06091C14.6874 8.21966 14.9402 8.21966 15.0931 8.06091L18.0211 5.13288C19.3147 3.83937 21.2784 3.37488 22.96 4.09807C26.2584 5.52681 26.7935 9.48965 24.5475 11.7298L21.3725 14.9048L21.3784 14.9106L16.9511 19.338C16.7512 19.5379 16.8923 19.8789 17.1745 19.8789H22.8542L16.6394 26.6816C16.4101 26.9344 16.7453 27.2989 17.0157 27.099L28.4868 18.4913C28.5515 18.4501 28.5868 18.3678 28.5868 18.2796C28.5926 18.1209 28.4751 17.9915 28.3163 17.9915Z" fill="#97C568"/>
</g>
</g>
<defs>
<clipPath id="clip0_877_721">
<rect width="150" height="27.551" fill="white"/>
</clipPath>
<clipPath id="clip1_877_721">
<rect width="150" height="27.1578" fill="white"/>
</clipPath>
</defs>
</svg>
