<svg width="21" height="21" viewBox="0 0 21 21" fill="none" xmlns="http://www.w3.org/2000/svg">
<path d="M0 10.1114C0 4.52702 4.52702 0 10.1114 0V0C15.6957 0 20.2228 4.52702 20.2228 10.1114V10.1114C20.2228 15.6957 15.6957 20.2228 10.1114 20.2228V20.2228C4.52702 20.2228 0 15.6957 0 10.1114V10.1114Z" fill="#98C867"/>
<path fill-rule="evenodd" clip-rule="evenodd" d="M10.1112 15.2109C12.928 15.2109 15.2114 12.9275 15.2114 10.1107C15.2114 7.294 12.928 5.01058 10.1112 5.01058C7.29449 5.01058 5.01107 7.294 5.01107 10.1107C5.01107 12.9275 7.29449 15.2109 10.1112 15.2109ZM10.1112 16.4109C13.5907 16.4109 16.4114 13.5902 16.4114 10.1107C16.4114 6.63124 13.5907 3.81055 10.1112 3.81055C6.63173 3.81055 3.81104 6.63124 3.81104 10.1107C3.81104 13.5902 6.63173 16.4109 10.1112 16.4109Z" fill="white"/>
<path fill-rule="evenodd" clip-rule="evenodd" d="M10.3492 4.21158C10.6 3.99498 10.9789 4.02271 11.1955 4.2735C11.5515 4.68567 12.0091 5.54486 12.375 6.56463C12.7467 7.60075 13.0515 8.87878 13.0515 10.1559C13.0515 11.4335 12.7465 12.6975 12.3737 13.7168C12.0076 14.7181 11.548 15.5589 11.1864 15.9586C10.964 16.2043 10.5846 16.2233 10.3389 16.001C10.0931 15.7786 10.0742 15.3992 10.2965 15.1535C10.5049 14.9231 10.9003 14.2519 11.2467 13.3046C11.5865 12.3754 11.8515 11.2543 11.8515 10.1559C11.8515 9.05686 11.5862 7.91981 11.2454 6.96987C10.8988 6.00359 10.5014 5.30573 10.2873 5.05787C10.0707 4.80708 10.0984 4.42818 10.3492 4.21158Z" fill="white"/>
<path fill-rule="evenodd" clip-rule="evenodd" d="M9.8738 16.0105C9.623 16.2271 9.24411 16.1994 9.02751 15.9486C8.67155 15.5364 8.21392 14.6772 7.84806 13.6574C7.47634 12.6213 7.17155 11.3433 7.17155 10.0662C7.17155 8.78854 7.47659 7.52459 7.84931 6.50529C8.21545 5.504 8.67507 4.66316 9.03668 4.26348C9.25901 4.01775 9.63845 3.99878 9.88418 4.22111C10.1299 4.44343 10.1489 4.82287 9.92655 5.0686C9.71815 5.29895 9.32274 5.97015 8.97636 6.91742C8.63656 7.84668 8.37158 8.9678 8.37158 10.0662C8.37158 11.1652 8.6368 12.3022 8.97761 13.2522C9.32427 14.2185 9.72167 14.9163 9.93572 15.1642C10.1523 15.415 10.1246 15.7939 9.8738 16.0105Z" fill="white"/>
<path fill-rule="evenodd" clip-rule="evenodd" d="M4.667 9.51101L15.6473 9.51101V10.711L4.667 10.711L4.667 9.51101Z" fill="white"/>
</svg>
