<svg width="160" height="50" viewBox="0 0 160 50" fill="none" xmlns="http://www.w3.org/2000/svg">
<g clip-path="url(#clip0_2683_69150)">
<path d="M134.238 0H24.8769C11.1378 0 0 11.1378 0 24.8769C0 38.6161 11.1378 49.7538 24.8769 49.7538H134.238C147.978 49.7538 159.115 38.6161 159.115 24.8769C159.115 11.1378 147.978 0 134.238 0Z" fill="white"/>
<path d="M37.9841 18.5387C37.6456 18.031 37.2533 17.5849 36.7687 17.231C34.8995 15.8618 32.861 15.508 30.6456 16.2387C29.9533 16.4695 29.2764 16.7464 28.5918 16.9926C28.1533 17.1541 27.6995 17.1464 27.261 16.9926C26.7995 16.831 26.3456 16.6695 25.8918 16.4849C24.4995 15.9003 23.0841 15.7618 21.6379 16.2695C19.461 17.031 18.061 18.5541 17.3226 20.708C16.7379 22.3926 16.7072 24.131 16.9687 25.8772C17.3995 28.7849 18.5149 31.4157 20.2995 33.7618C20.7764 34.3849 21.2687 34.9849 21.8764 35.4772C22.6995 36.1464 23.6226 36.4157 24.661 36.1233C25.1302 35.9926 25.5841 35.8157 26.0302 35.6233C27.0225 35.2003 28.0379 35.031 29.1072 35.2003C29.7687 35.3003 30.3687 35.5849 30.9764 35.8387C31.6149 36.108 32.2764 36.2541 32.9687 36.1849C33.8841 36.0926 34.6149 35.631 35.2149 34.9772C36.561 33.5157 37.6149 31.8695 38.361 30.0233C38.4841 29.7157 38.5841 29.4003 38.6995 29.108C36.5687 28.0464 35.2764 26.4233 35.1226 24.0464C34.9687 21.6695 36.0456 19.8695 37.9841 18.5464V18.5387ZM33.0995 9.39258C32.9533 9.40796 32.8225 9.40796 32.6995 9.43104C30.8149 9.79258 29.3764 10.7849 28.4226 12.4541C27.9072 13.3618 27.6225 14.3233 27.6918 15.3849C27.6995 15.5541 27.761 15.5849 27.9225 15.5926C28.6225 15.5926 29.2764 15.431 29.8918 15.1157C31.5764 14.2464 32.5687 12.8464 33.0072 11.031C33.1379 10.5003 33.1687 9.96181 33.0995 9.39258Z" fill="black"/>
<path d="M47.7612 17.1383V10.4922H52.0535V11.5383H48.8766V13.1768H51.4997V14.223H48.8766V16.0999H52.0535V17.146H47.7612V17.1383Z" fill="black"/>
<path d="M53.161 17.1387V12.1541H54.1456V13.3695L54.0226 13.2157C54.0841 13.0464 54.1687 12.9003 54.2687 12.7618C54.3687 12.6234 54.4918 12.508 54.6379 12.4234C54.761 12.3387 54.8995 12.2772 55.0456 12.2311C55.1918 12.1849 55.3456 12.1541 55.5072 12.1464C55.661 12.1387 55.8149 12.1464 55.961 12.1695V13.208C55.8149 13.1618 55.6456 13.1541 55.4533 13.1695C55.261 13.1849 55.0841 13.2387 54.9302 13.3311C54.7764 13.4157 54.6533 13.5234 54.5533 13.6464C54.4533 13.7695 54.3841 13.9234 54.3379 14.0849C54.2918 14.2464 54.2687 14.4311 54.2687 14.6157V17.1464H53.1533L53.161 17.1387Z" fill="black"/>
<path d="M56.8306 17.1383V10.4922H57.8229V13.9922H57.9536V17.1383H56.8306ZM60.2844 17.1383V14.7383C60.2844 14.5845 60.2767 14.4076 60.2536 14.2153C60.2306 14.023 60.1844 13.8383 60.1075 13.6614C60.0306 13.4845 59.9152 13.3383 59.7536 13.223C59.5998 13.1076 59.3844 13.0537 59.1229 13.0537C58.9844 13.0537 58.8383 13.0768 58.6998 13.123C58.5613 13.1691 58.4383 13.246 58.3229 13.3614C58.2075 13.4768 58.1229 13.6306 58.0536 13.823C57.9844 14.0153 57.9536 14.2691 57.9536 14.5768L57.2921 14.2922C57.2921 13.8691 57.3767 13.4845 57.5383 13.1383C57.6998 12.7922 57.946 12.523 58.269 12.3153C58.5921 12.1076 58.9844 12.0076 59.4536 12.0076C59.8229 12.0076 60.1306 12.0691 60.369 12.1922C60.6075 12.3153 60.7998 12.4691 60.9383 12.6614C61.0767 12.8537 61.1844 13.0537 61.2536 13.2691C61.3229 13.4845 61.3613 13.6845 61.3844 13.8768C61.4075 14.0691 61.4152 14.223 61.4152 14.346V17.1306H60.2921L60.2844 17.1383Z" fill="black"/>
<path d="M64.0076 17.2768C63.6461 17.2768 63.3461 17.2076 63.0922 17.0691C62.8461 16.9307 62.6538 16.7461 62.5307 16.523C62.4076 16.2999 62.3384 16.0461 62.3384 15.7691C62.3384 15.5307 62.3768 15.3153 62.4615 15.123C62.5384 14.9307 62.6615 14.7614 62.8307 14.623C62.9999 14.4845 63.2153 14.3691 63.4768 14.2768C63.6768 14.2153 63.9076 14.1538 64.1845 14.0999C64.4538 14.0461 64.7461 13.9999 65.0615 13.9538C65.3768 13.9076 65.7076 13.8614 66.0538 13.8076L65.6538 14.0307C65.6538 13.6845 65.5768 13.4307 65.423 13.2691C65.2691 13.1076 64.9999 13.023 64.6307 13.023C64.4076 13.023 64.1922 13.0768 63.9768 13.1768C63.7691 13.2845 63.623 13.4614 63.5384 13.7153L62.523 13.3999C62.6461 12.9768 62.8845 12.6384 63.2307 12.3845C63.5768 12.1307 64.0461 11.9999 64.6307 11.9999C65.0768 11.9999 65.4615 12.0691 65.7999 12.2153C66.1384 12.3614 66.3845 12.5999 66.5461 12.923C66.6384 13.0999 66.6922 13.2768 66.7076 13.4614C66.723 13.6461 66.7384 13.8461 66.7384 14.0614V17.123H65.7615V16.0461L65.923 16.223C65.6999 16.5845 65.4384 16.8461 65.1384 17.0153C64.8384 17.1845 64.4615 17.2691 64.0153 17.2691L64.0076 17.2768ZM63.2538 11.3845V10.3691H64.2691V11.3845H63.2538ZM64.2307 16.3922C64.4845 16.3922 64.6999 16.3461 64.8768 16.2614C65.0538 16.1768 65.1999 16.0614 65.3076 15.9307C65.4153 15.7999 65.4845 15.6768 65.523 15.5691C65.5845 15.4307 65.6153 15.2614 65.623 15.0845C65.623 14.8999 65.6307 14.7538 65.6307 14.6384L65.9691 14.7384C65.6307 14.7922 65.3461 14.8384 65.1076 14.8768C64.8691 14.9153 64.6615 14.9538 64.4922 14.9922C64.323 15.0307 64.1691 15.0691 64.0384 15.1076C63.9076 15.1538 63.7999 15.2076 63.7076 15.2691C63.6153 15.3307 63.5461 15.3999 63.4999 15.4845C63.4538 15.5614 63.4307 15.6614 63.4307 15.7691C63.4307 15.8922 63.4615 15.9999 63.523 16.0922C63.5845 16.1845 63.6768 16.2614 63.7922 16.3153C63.9076 16.3691 64.0538 16.3999 64.2307 16.3999V16.3922ZM65.1615 11.3845V10.3691H66.1768V11.3845H65.1615Z" fill="black"/>
<path d="M68.0229 17.1381V10.3535H69.1383V17.1381H68.0229Z" fill="black"/>
<path d="M69.9692 13.0234V12.1541H73.4462V13.0234H69.9692ZM73.4462 17.1388C73.1154 17.2003 72.7923 17.2234 72.4769 17.2157C72.1615 17.208 71.8769 17.1465 71.6308 17.0388C71.3846 16.9311 71.1923 16.7541 71.0615 16.5234C70.9462 16.308 70.8846 16.0849 70.8846 15.8618C70.8846 15.6388 70.8769 15.3849 70.8769 15.1003V10.7695H71.9846V15.0388C71.9846 15.2388 71.9846 15.4157 71.9846 15.5618C71.9846 15.7157 72.0231 15.8388 72.0769 15.9311C72.1846 16.1157 72.3615 16.2157 72.6077 16.2388C72.8539 16.2618 73.1308 16.2465 73.4385 16.2003V17.1311L73.4462 17.1388Z" fill="black"/>
<path d="M74.6074 17.1381V10.3535H75.7228V17.1381H74.6074Z" fill="black"/>
<path d="M77.1997 11.3922V10.3691H78.3151V11.3922H77.1997ZM77.1997 17.1307V12.1461H78.3151V17.1307H77.1997Z" fill="black"/>
<path d="M81.8613 17.2772C81.3459 17.2772 80.9075 17.1618 80.5459 16.931C80.1844 16.7002 79.9075 16.3849 79.7152 15.9925C79.5228 15.6002 79.4229 15.1464 79.4229 14.6464C79.4229 14.1387 79.5305 13.6849 79.7229 13.2849C79.9229 12.8925 80.1998 12.5772 80.569 12.3541C80.9382 12.131 81.369 12.0156 81.8767 12.0156C82.4459 12.0156 82.9228 12.1541 83.3152 12.4387C83.7075 12.7233 83.9613 13.1156 84.0844 13.6079L82.9767 13.9079C82.8921 13.6387 82.7459 13.431 82.5459 13.2849C82.3459 13.1387 82.1152 13.0618 81.8613 13.0618C81.569 13.0618 81.3305 13.131 81.1459 13.2695C80.9613 13.4079 80.8228 13.5925 80.7305 13.8387C80.6382 14.0772 80.5998 14.3541 80.5998 14.6541C80.5998 15.131 80.7075 15.5079 80.9152 15.8002C81.1305 16.0925 81.4459 16.2387 81.8613 16.2387C82.1536 16.2387 82.3921 16.1695 82.5613 16.0387C82.7305 15.9079 82.8613 15.7079 82.9459 15.4541L84.0844 15.7079C83.9305 16.2156 83.6613 16.6079 83.2767 16.8772C82.8921 17.1464 82.4229 17.2849 81.8613 17.2849V17.2772Z" fill="black"/>
<path d="M85 17.1383V10.4922H85.9923V13.9922H86.1231V17.1383H85ZM88.4538 17.1383V14.7383C88.4538 14.5845 88.4462 14.4076 88.4231 14.2153C88.4 14.023 88.3538 13.8383 88.2769 13.6614C88.2 13.4845 88.0846 13.3383 87.9231 13.223C87.7692 13.1076 87.5538 13.0537 87.2923 13.0537C87.1538 13.0537 87.0077 13.0768 86.8692 13.123C86.7308 13.1691 86.6077 13.246 86.4923 13.3614C86.3769 13.4768 86.2923 13.6306 86.2231 13.823C86.1538 14.0153 86.1231 14.2691 86.1231 14.5768L85.4615 14.2922C85.4615 13.8691 85.5462 13.4845 85.7077 13.1383C85.8692 12.7922 86.1154 12.523 86.4385 12.3153C86.7615 12.1076 87.1538 12.0076 87.6231 12.0076C87.9923 12.0076 88.3 12.0691 88.5385 12.1922C88.7769 12.3153 88.9692 12.4691 89.1077 12.6614C89.2462 12.8537 89.3538 13.0537 89.4231 13.2691C89.4923 13.4845 89.5308 13.6845 89.5538 13.8768C89.5769 14.0691 89.5846 14.223 89.5846 14.346V17.1306H88.4615L88.4538 17.1383Z" fill="black"/>
<path d="M92.7231 11.3922V10.3691H93.8385V11.3922H92.7231ZM92.7231 17.1307V12.1461H93.8385V17.1307H92.7231Z" fill="black"/>
<path d="M95.2075 17.1388V12.1542H96.1921V13.7004H96.3306V17.1388H95.2075ZM98.2152 17.1388V14.1234C98.2152 13.7773 98.1306 13.5081 97.9614 13.3081C97.7921 13.1157 97.5614 13.0157 97.2691 13.0157C96.9768 13.0157 96.7614 13.1157 96.5921 13.3081C96.4229 13.5004 96.3383 13.7542 96.3383 14.0619L95.8383 13.7311C95.8383 13.4081 95.9152 13.1157 96.0768 12.8619C96.2383 12.6004 96.4537 12.4004 96.7229 12.2542C96.9921 12.1081 97.2998 12.0311 97.6383 12.0311C98.0075 12.0311 98.3229 12.1081 98.5767 12.2696C98.8306 12.4311 99.0152 12.6465 99.1383 12.9157C99.2614 13.185 99.3229 13.4927 99.3229 13.8388V17.1465H98.2152V17.1388ZM101.208 17.1388V14.1081C101.208 13.7696 101.123 13.5004 100.954 13.3081C100.784 13.1157 100.554 13.0157 100.269 13.0157C100.092 13.0157 99.9306 13.0542 99.7921 13.1388C99.6537 13.2234 99.5383 13.3388 99.4537 13.5004C99.3691 13.6619 99.3306 13.8465 99.3306 14.0696L98.8383 13.7773C98.8383 13.4311 98.9152 13.1311 99.0691 12.8619C99.2306 12.6004 99.4383 12.3927 99.7152 12.2465C99.9844 12.1004 100.284 12.0234 100.623 12.0234C101.177 12.0234 101.592 12.1927 101.892 12.5234C102.184 12.8542 102.331 13.2927 102.331 13.8311V17.1388H101.215H101.208Z" fill="black"/>
<path d="M57.0461 36.6846H54.4768L53.0691 32.2615H48.1768L46.8384 36.6846H44.3384L49.1845 21.623H52.1845L57.0461 36.6846ZM52.6538 30.4L51.3768 26.4769C51.2461 26.0692 50.9922 25.1307 50.623 23.6384H50.5691C50.4153 24.2846 50.1845 25.2307 49.8538 26.4769L48.5999 30.4H52.6461H52.6538Z" fill="black"/>
<path d="M69.5001 31.1305C69.5001 32.9767 69.0001 34.4382 67.9924 35.5074C67.0924 36.469 65.9693 36.9382 64.6463 36.9382C63.2078 36.9382 62.177 36.4305 61.5463 35.3997V41.0997H59.1309V29.3997C59.1309 28.2382 59.1001 27.0536 59.0386 25.8305H61.1617L61.2924 27.5536H61.3309C62.1386 26.2613 63.3616 25.6074 64.9924 25.6074C66.277 25.6074 67.3386 26.1151 68.1924 27.1305C69.0693 28.1536 69.5001 29.4767 69.5001 31.1382V31.1305ZM67.0386 31.2151C67.0386 30.1536 66.8078 29.2843 66.3232 28.6074C65.8001 27.892 65.1001 27.5382 64.2232 27.5382C63.6309 27.5382 63.0924 27.7459 62.6001 28.1305C62.1232 28.5305 61.7924 29.0382 61.654 29.6843C61.5847 29.9767 61.5386 30.2228 61.5386 30.4151V32.2305C61.5386 33.0151 61.7847 33.692 62.2617 34.2305C62.7386 34.769 63.377 35.0459 64.1463 35.0459C65.054 35.0459 65.754 34.692 66.2693 33.992C66.777 33.292 67.0309 32.369 67.0309 31.2151H67.0386Z" fill="black"/>
<path d="M81.9845 31.1305C81.9845 32.9767 81.4845 34.4382 80.4768 35.5074C79.5768 36.469 78.4537 36.9382 77.1306 36.9382C75.6922 36.9382 74.6614 36.4305 74.0306 35.3997V41.0997H71.6153V29.3997C71.6153 28.2382 71.5845 27.0536 71.5229 25.8305H73.646L73.7768 27.5536H73.8153C74.6229 26.2613 75.846 25.6074 77.4768 25.6074C78.7614 25.6074 79.8229 26.1151 80.6768 27.1305C81.5537 28.1536 81.9845 29.4767 81.9845 31.1382V31.1305ZM79.5229 31.2151C79.5229 30.1536 79.2922 29.2843 78.8076 28.6074C78.2845 27.892 77.5845 27.5382 76.7076 27.5382C76.1153 27.5382 75.5768 27.7459 75.0845 28.1305C74.6076 28.5305 74.2922 29.0382 74.1383 29.6843C74.0691 29.9767 74.0229 30.2228 74.0229 30.4151V32.2305C74.0229 33.0151 74.2691 33.692 74.746 34.2305C75.2229 34.769 75.8614 35.0459 76.6306 35.0459C77.5383 35.0459 78.2537 34.692 78.7537 33.992C79.2768 33.292 79.5153 32.369 79.5153 31.2151H79.5229Z" fill="black"/>
<path d="M95.9543 32.4621C95.9543 33.7467 95.5082 34.7851 94.6158 35.5928C93.6389 36.4697 92.2697 36.9082 90.5158 36.9082C88.8928 36.9082 87.6005 36.5928 86.6235 35.9697L87.1851 33.9621C88.2466 34.5851 89.4082 34.9005 90.6697 34.9005C91.5774 34.9005 92.2928 34.6928 92.7928 34.2851C93.3005 33.8774 93.5543 33.3236 93.5543 32.6467C93.5543 32.0313 93.3389 31.5236 92.9312 31.1082C92.5158 30.6928 91.8158 30.3005 90.8543 29.9467C88.1928 28.9544 86.8774 27.5159 86.8774 25.6313C86.8774 24.4005 87.3466 23.3851 88.2774 22.5928C89.2082 21.8082 90.4389 21.4082 91.9774 21.4082C93.3466 21.4082 94.4851 21.639 95.3928 22.1236L94.7774 24.0851C93.9235 23.6236 92.962 23.3928 91.8774 23.3928C91.0312 23.3928 90.3543 23.6082 89.8774 24.0159C89.4774 24.3928 89.2774 24.839 89.2774 25.3851C89.2774 25.9774 89.5081 26.4774 89.9697 26.8544C90.3697 27.2082 91.1005 27.6005 92.162 28.0159C93.4543 28.539 94.4081 29.1467 95.0158 29.8544C95.6389 30.5544 95.9466 31.4313 95.9466 32.4774" fill="black"/>
<path d="M103.946 27.6382H101.285V32.9074C101.285 34.2459 101.754 34.9151 102.692 34.9151C103.123 34.9151 103.477 34.8767 103.761 34.7997L103.831 36.6382C103.354 36.8151 102.731 36.8997 101.954 36.8997C100.992 36.8997 100.261 36.6074 99.723 36.0228C99.1845 35.4382 98.9153 34.4613 98.9153 33.0997V27.6228H97.3384V25.8151H98.9153V23.8228L101.285 23.1074V25.8074H103.946V27.6228" fill="black"/>
<path d="M115.923 31.1691C115.923 32.8383 115.446 34.2075 114.492 35.2768C113.492 36.3768 112.169 36.9306 110.515 36.9306C108.862 36.9306 107.646 36.3998 106.7 35.3537C105.754 34.3075 105.285 32.9691 105.285 31.3537C105.285 29.7383 105.777 28.2922 106.746 27.2229C107.723 26.1537 109.039 25.6152 110.692 25.6152C112.346 25.6152 113.569 26.146 114.539 27.2075C115.469 28.2306 115.923 29.5537 115.923 31.1768V31.1691ZM113.423 31.2229C113.423 30.2229 113.208 29.3768 112.777 28.6614C112.269 27.7922 111.546 27.3691 110.608 27.3691C109.669 27.3691 108.892 27.7998 108.392 28.6614C107.954 29.3768 107.746 30.2383 107.746 31.2691C107.746 32.2999 107.962 33.1229 108.392 33.8306C108.915 34.6999 109.646 35.1229 110.585 35.1229C111.523 35.1229 112.223 34.6845 112.754 33.8075C113.192 33.0768 113.415 32.2152 113.415 31.2152L113.423 31.2229Z" fill="black"/>
<path d="M123.777 27.9466C123.546 27.9082 123.284 27.8851 123.015 27.8851C122.169 27.8851 121.508 28.2005 121.046 28.8466C120.646 29.4082 120.446 30.1312 120.446 30.9851V36.6851H118.031V29.2389C118.031 27.9851 118.008 26.8389 117.961 25.8235H120.061L120.154 27.9005H120.223C120.477 27.1851 120.877 26.6082 121.423 26.1774C121.961 25.7928 122.546 25.5928 123.169 25.5928C123.392 25.5928 123.6 25.6158 123.769 25.6312V27.9389" fill="black"/>
<path d="M134.562 30.7386C134.562 31.1693 134.531 31.5309 134.47 31.8309H127.231C127.262 32.9001 127.608 33.7309 128.285 34.2924C128.901 34.7924 129.685 35.0463 130.654 35.0463C131.724 35.0463 132.701 34.8693 133.577 34.5386L133.954 36.2078C132.924 36.6539 131.708 36.8847 130.316 36.8847C128.631 36.8847 127.308 36.3847 126.347 35.3924C125.385 34.4001 124.908 33.0693 124.908 31.4078C124.908 29.7463 125.354 28.4078 126.254 27.3155C127.193 26.1539 128.454 25.5693 130.047 25.5693C131.639 25.5693 132.801 26.1539 133.593 27.3155C134.239 28.2539 134.562 29.3847 134.562 30.7386ZM132.254 30.1155C132.277 29.4001 132.108 28.777 131.785 28.2616C131.37 27.5847 130.724 27.254 129.87 27.254C129.085 27.254 128.439 27.577 127.954 28.2309C127.554 28.754 127.308 29.3847 127.239 30.1078H132.254V30.1155Z" fill="black"/>
</g>
<defs>
<clipPath id="clip0_2683_69150">
<rect width="159.231" height="50" fill="white"/>
</clipPath>
</defs>
</svg>
