<svg width="163" height="51" viewBox="0 0 163 51" fill="none" xmlns="http://www.w3.org/2000/svg">
<g clip-path="url(#clip0_2725_61098)">
<path d="M137.514 0H25.4839C11.4096 0 0 11.4096 0 25.4839C0 39.5583 11.4096 50.9679 25.4839 50.9679H137.514C151.588 50.9679 162.998 39.5583 162.998 25.4839C162.998 11.4096 151.588 0 137.514 0Z" fill="url(#paint0_linear_2725_61098)"/>
<path d="M38.9109 18.9904C38.5642 18.4703 38.1623 18.0133 37.6658 17.6508C35.751 16.2482 33.6628 15.8857 31.3934 16.6343C30.6842 16.8707 29.9907 17.1544 29.2894 17.4065C28.8402 17.572 28.3753 17.5641 27.9261 17.4065C27.4533 17.2411 26.9884 17.0756 26.5235 16.8865C25.0972 16.2876 23.6473 16.1457 22.1659 16.6658C19.9358 17.4459 18.5017 19.0062 17.7452 21.2126C17.1463 22.9383 17.1148 24.7192 17.3827 26.508C17.824 29.4866 18.9666 32.1816 20.7947 34.585C21.2833 35.2232 21.7876 35.8379 22.4101 36.3422C23.2533 37.0278 24.1989 37.3036 25.2627 37.0041C25.7434 36.8702 26.2083 36.6889 26.6653 36.4919C27.6819 36.0585 28.722 35.8852 29.8173 36.0585C30.495 36.161 31.1097 36.4525 31.7322 36.7126C32.3862 36.9884 33.0639 37.1381 33.7731 37.0672C34.7108 36.9726 35.4594 36.4998 36.0741 35.83C37.4531 34.3328 38.5326 32.6465 39.297 30.7553C39.4231 30.4401 39.5255 30.117 39.6437 29.8176C37.461 28.7301 36.1371 27.0674 35.9795 24.6325C35.8219 22.1976 36.9251 20.3537 38.9109 18.9983V18.9904ZM33.9071 9.62109C33.7574 9.63685 33.6234 9.63685 33.4973 9.66049C31.5667 10.0309 30.0932 11.0474 29.116 12.7573C28.5881 13.6872 28.2965 14.6722 28.3674 15.7596C28.3753 15.933 28.4383 15.9645 28.6038 15.9724C29.3209 15.9724 29.9907 15.8069 30.6211 15.4838C32.3468 14.5934 33.3634 13.1592 33.8125 11.2995C33.9465 10.7558 33.978 10.2042 33.9071 9.62109Z" fill="white"/>
<path d="M48.9268 17.5564V10.748H53.3238V11.8197H50.0694V13.4982H52.7564V14.5699H50.0694V16.4926H53.3238V17.5643H48.9268V17.5564Z" fill="white"/>
<path d="M54.4581 17.5565V12.4503H55.4667V13.6953L55.3406 13.5377C55.4037 13.3644 55.4904 13.2146 55.5928 13.0728C55.6952 12.931 55.8213 12.8128 55.971 12.7261C56.0971 12.6394 56.239 12.5764 56.3887 12.5291C56.5384 12.4818 56.696 12.4503 56.8615 12.4424C57.0191 12.4345 57.1767 12.4424 57.3264 12.466V13.5298C57.1767 13.4826 57.0033 13.4747 56.8063 13.4905C56.6093 13.5062 56.4281 13.5614 56.2705 13.6559C56.1129 13.7426 55.9868 13.8529 55.8844 13.979C55.7819 14.1051 55.711 14.2627 55.6637 14.4282C55.6164 14.5937 55.5928 14.7828 55.5928 14.9719V17.5644H54.4502L54.4581 17.5565Z" fill="white"/>
<path d="M58.2178 17.5564V10.748H59.2343V14.3335H59.3683V17.5564H58.2178ZM61.7559 17.5564V15.0978C61.7559 14.9402 61.748 14.759 61.7244 14.562C61.7007 14.365 61.6535 14.1759 61.5747 13.9946C61.4959 13.8134 61.3777 13.6637 61.2122 13.5455C61.0546 13.4273 60.8339 13.3721 60.566 13.3721C60.4242 13.3721 60.2745 13.3957 60.1326 13.443C59.9908 13.4903 59.8647 13.5691 59.7465 13.6873C59.6283 13.8055 59.5416 13.9631 59.4707 14.1601C59.3998 14.3571 59.3683 14.6171 59.3683 14.9323L58.6906 14.6408C58.6906 14.2074 58.7773 13.8134 58.9427 13.4588C59.1082 13.1042 59.3604 12.8284 59.6913 12.6156C60.0223 12.4028 60.4242 12.3004 60.9049 12.3004C61.2831 12.3004 61.5983 12.3634 61.8426 12.4895C62.0869 12.6156 62.2839 12.7732 62.4257 12.9702C62.5675 13.1672 62.6779 13.3721 62.7488 13.5927C62.8197 13.8134 62.8591 14.0183 62.8827 14.2153C62.9064 14.4123 62.9143 14.5699 62.9143 14.6959V17.5485H61.7638L61.7559 17.5564Z" fill="white"/>
<path d="M65.5693 17.6983C65.199 17.6983 64.8917 17.6274 64.6316 17.4856C64.3795 17.3437 64.1825 17.1546 64.0564 16.9261C63.9303 16.6976 63.8594 16.4375 63.8594 16.1538C63.8594 15.9096 63.8988 15.6889 63.9855 15.4919C64.0643 15.2949 64.1903 15.1216 64.3637 14.9797C64.5371 14.8379 64.7577 14.7197 65.0256 14.6251C65.2305 14.5621 65.4669 14.499 65.7506 14.4439C66.0264 14.3887 66.3258 14.3414 66.6489 14.2942C66.972 14.2469 67.3108 14.1996 67.6654 14.1444L67.2557 14.373C67.2557 14.0184 67.1769 13.7583 67.0193 13.5928C66.8617 13.4274 66.5859 13.3407 66.2076 13.3407C65.9791 13.3407 65.7585 13.3958 65.5378 13.4983C65.3251 13.6086 65.1753 13.7898 65.0887 14.0499L64.0485 13.7268C64.1746 13.2934 64.4189 12.9467 64.7735 12.6866C65.1281 12.4266 65.6087 12.2926 66.2076 12.2926C66.6647 12.2926 67.0587 12.3636 67.4054 12.5133C67.7521 12.663 68.0043 12.9073 68.1697 13.2382C68.2643 13.4195 68.3195 13.6007 68.3352 13.7898C68.351 13.979 68.3667 14.1838 68.3667 14.4045V17.5407H67.366V16.4375L67.5315 16.6188C67.3029 16.9891 67.035 17.257 66.7277 17.4304C66.4204 17.6038 66.0343 17.6904 65.5772 17.6904L65.5693 17.6983ZM64.7971 11.6622V10.6221H65.8373V11.6622H64.7971ZM65.7979 16.7921C66.0579 16.7921 66.2785 16.7448 66.4598 16.6582C66.641 16.5715 66.7907 16.4533 66.9011 16.3193C67.0114 16.1854 67.0823 16.0593 67.1217 15.949C67.1847 15.8071 67.2163 15.6338 67.2241 15.4525C67.2241 15.2634 67.232 15.1137 67.232 14.9955L67.5787 15.0979C67.232 15.1531 66.9405 15.2004 66.6962 15.2398C66.4519 15.2792 66.2391 15.3186 66.0658 15.358C65.8924 15.3974 65.7348 15.4368 65.6009 15.4762C65.4669 15.5234 65.3566 15.5786 65.262 15.6416C65.1675 15.7047 65.0965 15.7756 65.0493 15.8623C65.002 15.9411 64.9783 16.0435 64.9783 16.1538C64.9783 16.2799 65.0099 16.3902 65.0729 16.4848C65.1359 16.5794 65.2305 16.6582 65.3487 16.7133C65.4669 16.7685 65.6166 16.8 65.7979 16.8V16.7921ZM66.7513 11.6622V10.6221H67.7915V11.6622H66.7513Z" fill="white"/>
<path d="M69.6826 17.5566V10.6064H70.8252V17.5566H69.6826Z" fill="white"/>
<path d="M71.6768 13.3411V12.4506H75.2385V13.3411H71.6768ZM75.2385 17.5569C74.8997 17.6199 74.5687 17.6436 74.2456 17.6357C73.9226 17.6278 73.631 17.5648 73.3788 17.4544C73.1267 17.3441 72.9297 17.1629 72.7957 16.9265C72.6775 16.7058 72.6145 16.4773 72.6145 16.2488C72.6145 16.0203 72.6066 15.7602 72.6066 15.4687V11.0322H73.7413V15.4056C73.7413 15.6105 73.7413 15.7918 73.7413 15.9415C73.7413 16.0991 73.7807 16.2252 73.8359 16.3197C73.9462 16.5088 74.1274 16.6113 74.3796 16.6349C74.6318 16.6586 74.9154 16.6428 75.2306 16.5955V17.549L75.2385 17.5569Z" fill="white"/>
<path d="M76.4287 17.5566V10.6064H77.5713V17.5566H76.4287Z" fill="white"/>
<path d="M79.083 11.6701V10.6221H80.2256V11.6701H79.083ZM79.083 17.5486V12.4424H80.2256V17.5486H79.083Z" fill="white"/>
<path d="M83.8593 17.6985C83.3313 17.6985 82.8822 17.5803 82.5118 17.3439C82.1414 17.1075 81.8578 16.7844 81.6608 16.3826C81.4638 15.9807 81.3613 15.5158 81.3613 15.0036C81.3613 14.4835 81.4716 14.0186 81.6686 13.6088C81.8735 13.2069 82.1572 12.8838 82.5354 12.6553C82.9137 12.4268 83.355 12.3086 83.8751 12.3086C84.4582 12.3086 84.9467 12.4504 85.3486 12.742C85.7505 13.0336 86.0105 13.4354 86.1366 13.9398L85.0019 14.2471C84.9152 13.9713 84.7655 13.7585 84.5606 13.6088C84.3557 13.4591 84.1193 13.3803 83.8593 13.3803C83.5598 13.3803 83.3156 13.4512 83.1264 13.593C82.9373 13.7349 82.7955 13.924 82.7009 14.1762C82.6064 14.4204 82.567 14.7041 82.567 15.0114C82.567 15.5 82.6773 15.8861 82.8901 16.1856C83.1107 16.485 83.4338 16.6347 83.8593 16.6347C84.1587 16.6347 84.403 16.5638 84.5764 16.4298C84.7497 16.2959 84.8837 16.091 84.9704 15.831L86.1366 16.091C85.979 16.6111 85.7032 17.013 85.3092 17.2888C84.9152 17.5646 84.4345 17.7064 83.8593 17.7064V17.6985Z" fill="white"/>
<path d="M87.0742 17.5564V10.748H88.0907V14.3335H88.2247V17.5564H87.0742ZM90.6123 17.5564V15.0978C90.6123 14.9402 90.6045 14.759 90.5808 14.562C90.5572 14.365 90.5099 14.1759 90.4311 13.9946C90.3523 13.8134 90.2341 13.6637 90.0686 13.5455C89.911 13.4273 89.6904 13.3721 89.4225 13.3721C89.2806 13.3721 89.1309 13.3957 88.9891 13.443C88.8472 13.4903 88.7211 13.5691 88.6029 13.6873C88.4847 13.8055 88.3981 13.9631 88.3271 14.1601C88.2562 14.3571 88.2247 14.6171 88.2247 14.9323L87.547 14.6408C87.547 14.2074 87.6337 13.8134 87.7992 13.4588C87.9647 13.1042 88.2168 12.8284 88.5478 12.6156C88.8787 12.4028 89.2806 12.3004 89.7613 12.3004C90.1395 12.3004 90.4547 12.3634 90.699 12.4895C90.9433 12.6156 91.1403 12.7732 91.2821 12.9702C91.424 13.1672 91.5343 13.3721 91.6052 13.5927C91.6761 13.8134 91.7155 14.0183 91.7392 14.2153C91.7628 14.4123 91.7707 14.5699 91.7707 14.6959V17.5485H90.6202L90.6123 17.5564Z" fill="white"/>
<path d="M94.9854 11.6701V10.6221H96.128V11.6701H94.9854ZM94.9854 17.5486V12.4424H96.128V17.5486H94.9854Z" fill="white"/>
<path d="M97.5303 17.5566V12.4504H98.5389V14.0342H98.6808V17.5566H97.5303ZM100.611 17.5566V14.4676C100.611 14.113 100.525 13.8372 100.351 13.6324C100.178 13.4354 99.9416 13.3329 99.6421 13.3329C99.3427 13.3329 99.122 13.4354 98.9487 13.6324C98.7753 13.8294 98.6886 14.0894 98.6886 14.4046L98.1764 14.0658C98.1764 13.7348 98.2552 13.4354 98.4207 13.1753C98.5862 12.9074 98.8068 12.7025 99.0826 12.5528C99.3584 12.4031 99.6736 12.3243 100.02 12.3243C100.399 12.3243 100.722 12.4031 100.982 12.5686C101.242 12.734 101.431 12.9547 101.557 13.2305C101.683 13.5063 101.746 13.8215 101.746 14.1761V17.5645H100.611V17.5566ZM103.677 17.5566V14.4519C103.677 14.1052 103.59 13.8294 103.417 13.6324C103.243 13.4354 103.007 13.3329 102.715 13.3329C102.534 13.3329 102.369 13.3723 102.227 13.459C102.085 13.5457 101.967 13.6639 101.88 13.8294C101.793 13.9948 101.754 14.184 101.754 14.4125L101.25 14.113C101.25 13.7584 101.328 13.4511 101.486 13.1753C101.652 12.9074 101.864 12.6946 102.148 12.5449C102.424 12.3952 102.731 12.3164 103.078 12.3164C103.645 12.3164 104.071 12.4898 104.378 12.8286C104.677 13.1674 104.827 13.6166 104.827 14.1682V17.5566H103.685H103.677Z" fill="white"/>
<path d="M58.4377 37.5804H55.8058L54.3637 33.0494H49.352L47.9809 37.5804H45.4199L50.3843 22.1514H53.4575L58.4377 37.5804ZM53.9382 31.1425L52.6301 27.1237C52.4962 26.706 52.2361 25.7447 51.8579 24.2159H51.8027C51.6451 24.8778 51.4087 25.8471 51.0699 27.1237L49.7854 31.1425H53.9303H53.9382Z" fill="white"/>
<path d="M71.1963 31.8903C71.1963 33.7815 70.6841 35.2787 69.6518 36.374C68.7299 37.359 67.5794 37.8397 66.224 37.8397C64.7505 37.8397 63.6945 37.3196 63.0484 36.2637V42.1028H60.5741V30.1173C60.5741 28.9274 60.5425 27.7139 60.4795 26.4609H62.6544L62.7883 28.2261H62.8277C63.6551 26.9022 64.9081 26.2324 66.5786 26.2324C67.8946 26.2324 68.982 26.7525 69.8567 27.7927C70.755 28.8407 71.1963 30.1961 71.1963 31.8981V31.8903ZM68.6747 31.9769C68.6747 30.8895 68.4383 29.9991 67.9419 29.3056C67.406 28.5728 66.6889 28.2103 65.7906 28.2103C65.1839 28.2103 64.6323 28.4231 64.1279 28.8171C63.6394 29.2268 63.3005 29.7469 63.1587 30.4088C63.0878 30.7083 63.0405 30.9604 63.0405 31.1574V33.0171C63.0405 33.8209 63.2927 34.5143 63.7812 35.0659C64.2698 35.6175 64.9238 35.9012 65.7118 35.9012C66.6417 35.9012 67.3587 35.5387 67.8867 34.8216C68.4068 34.1045 68.6668 33.159 68.6668 31.9769H68.6747Z" fill="white"/>
<path d="M83.9844 31.8903C83.9844 33.7815 83.4722 35.2787 82.4399 36.374C81.5179 37.359 80.3675 37.8397 79.0121 37.8397C77.5385 37.8397 76.4826 37.3196 75.8365 36.2637V42.1028H73.3621V30.1173C73.3621 28.9274 73.3306 27.7139 73.2676 26.4609H75.4425L75.5764 28.2261H75.6158C76.4432 26.9022 77.6961 26.2324 79.3667 26.2324C80.6827 26.2324 81.7701 26.7525 82.6448 27.7927C83.5431 28.8407 83.9844 30.1961 83.9844 31.8981V31.8903ZM81.4628 31.9769C81.4628 30.8895 81.2264 29.9991 80.7299 29.3056C80.1941 28.5728 79.477 28.2103 78.5787 28.2103C77.9719 28.2103 77.4203 28.4231 76.916 28.8171C76.4275 29.2268 76.1044 29.7469 75.9468 30.4088C75.8759 30.7083 75.8286 30.9604 75.8286 31.1574V33.0171C75.8286 33.8209 76.0807 34.5143 76.5693 35.0659C77.0579 35.6175 77.7119 35.9012 78.4999 35.9012C79.4297 35.9012 80.1626 35.5387 80.6748 34.8216C81.2106 34.1045 81.4549 33.159 81.4549 31.9769H81.4628Z" fill="white"/>
<path d="M98.2948 33.2533C98.2948 34.5692 97.8377 35.633 96.9237 36.4604C95.9229 37.3587 94.5203 37.8079 92.7236 37.8079C91.0609 37.8079 89.7371 37.4848 88.7363 36.8465L89.3116 34.7899C90.399 35.4281 91.5889 35.7512 92.8812 35.7512C93.8111 35.7512 94.5439 35.5385 95.0561 35.1208C95.5762 34.7032 95.8362 34.1358 95.8362 33.4424C95.8362 32.812 95.6156 32.2919 95.1979 31.8664C94.7724 31.4409 94.0553 31.039 93.0703 30.6765C90.3438 29.66 88.9964 28.1864 88.9964 26.2558C88.9964 24.995 89.4771 23.9549 90.4305 23.1432C91.384 22.3394 92.6448 21.9297 94.2208 21.9297C95.6235 21.9297 96.7897 22.1661 97.7195 22.6625L97.0891 24.6719C96.2145 24.1991 95.2295 23.9627 94.1184 23.9627C93.2516 23.9627 92.5581 24.1834 92.0696 24.601C91.6598 24.9871 91.4549 25.4442 91.4549 26.0037C91.4549 26.6104 91.6913 27.1226 92.1641 27.5087C92.5739 27.8712 93.3225 28.2731 94.4099 28.6986C95.7338 29.2345 96.7109 29.857 97.3334 30.5819C97.9717 31.299 98.2869 32.1973 98.2869 33.269" fill="white"/>
<path d="M106.483 28.3132H103.756V33.711C103.756 35.0821 104.237 35.7677 105.198 35.7677C105.64 35.7677 106.002 35.7283 106.294 35.6495L106.365 37.5328C105.876 37.7141 105.238 37.8007 104.442 37.8007C103.457 37.8007 102.708 37.5013 102.157 36.9024C101.605 36.3035 101.329 35.3028 101.329 33.908V28.2974H99.7139V26.4456H101.329V24.4047L103.756 23.6719V26.4378H106.483V28.2974" fill="white"/>
<path d="M118.752 31.9296C118.752 33.6396 118.263 35.0422 117.286 36.1375C116.261 37.2644 114.906 37.8317 113.212 37.8317C111.518 37.8317 110.273 37.288 109.303 36.2163C108.334 35.1446 107.854 33.7735 107.854 32.1187C107.854 30.4639 108.358 28.9825 109.351 27.8872C110.351 26.7918 111.699 26.2402 113.393 26.2402C115.087 26.2402 116.34 26.784 117.333 27.8714C118.287 28.9194 118.752 30.2748 118.752 31.9375V31.9296ZM116.191 31.9848C116.191 30.9604 115.97 30.0936 115.529 29.3607C115.009 28.4703 114.268 28.0369 113.306 28.0369C112.345 28.0369 111.549 28.4782 111.037 29.3607C110.588 30.0936 110.375 30.9761 110.375 32.032C110.375 33.088 110.596 33.9311 111.037 34.6561C111.573 35.5465 112.321 35.9799 113.283 35.9799C114.244 35.9799 114.961 35.5308 115.505 34.6324C115.954 33.8838 116.183 33.0013 116.183 31.9769L116.191 31.9848Z" fill="white"/>
<path d="M126.797 28.6281C126.561 28.5887 126.293 28.565 126.017 28.565C125.15 28.565 124.473 28.8881 124 29.55C123.59 30.1253 123.385 30.866 123.385 31.7407V37.5798H120.911V29.9519C120.911 28.6675 120.887 27.4934 120.84 26.4532H122.991L123.086 28.5808H123.157C123.417 27.848 123.826 27.257 124.386 26.8157C124.937 26.4217 125.536 26.2168 126.175 26.2168C126.403 26.2168 126.616 26.2404 126.789 26.2562V28.6202" fill="white"/>
<path d="M137.844 31.4887C137.844 31.93 137.813 32.3004 137.75 32.6077H130.335C130.366 33.703 130.721 34.554 131.414 35.1293C132.045 35.6415 132.849 35.9015 133.841 35.9015C134.937 35.9015 135.938 35.7203 136.836 35.3814L137.222 37.0914C136.166 37.5485 134.921 37.7849 133.495 37.7849C131.769 37.7849 130.414 37.2726 129.429 36.2561C128.444 35.2396 127.955 33.8764 127.955 32.1743C127.955 30.4722 128.412 29.1011 129.334 27.9821C130.295 26.7922 131.588 26.1934 133.219 26.1934C134.85 26.1934 136.04 26.7922 136.852 27.9821C137.514 28.9435 137.844 30.1018 137.844 31.4887ZM135.48 30.8504C135.504 30.1176 135.331 29.4793 135 28.9514C134.574 28.2579 133.912 27.9191 133.038 27.9191C132.234 27.9191 131.572 28.25 131.076 28.9198C130.666 29.4557 130.414 30.1018 130.343 30.8426H135.48V30.8504Z" fill="white"/>
</g>
<defs>
<linearGradient id="paint0_linear_2725_61098" x1="0" y1="25.4839" x2="162.998" y2="25.4839" gradientUnits="userSpaceOnUse">
<stop stop-color="#154430"/>
<stop offset="1" stop-color="#37855E"/>
</linearGradient>
<clipPath id="clip0_2725_61098">
<rect width="162.998" height="50.9679" fill="white"/>
</clipPath>
</defs>
</svg>
