<svg width="20" height="20" viewBox="0 0 20 20" fill="none" xmlns="http://www.w3.org/2000/svg">
<path d="M9.25 1.95215L9.25391 1.87598C9.29217 1.49764 9.61157 1.20215 10 1.20215C10.3884 1.20215 10.7078 1.49764 10.7461 1.87598L10.75 1.95215L10.75 17.1523C10.75 17.5666 10.4142 17.9023 10 17.9023C9.58579 17.9023 9.25 17.5666 9.25 17.1523L9.25 1.95215Z" fill="white"/>
<path d="M3.73065 10.7509L10 17.0203L16.2694 10.7509C16.5623 10.458 17.0371 10.458 17.33 10.7509C17.6229 11.0438 17.6229 11.5187 17.33 11.8116L10.5303 18.6113C10.2374 18.9042 9.76257 18.9042 9.46967 18.6113L2.66999 11.8116C2.37709 11.5187 2.37709 11.0438 2.66999 10.7509C2.96289 10.4582 3.4378 10.4581 3.73065 10.7509Z" fill="white"/>
</svg>
