<svg width="230" height="90" viewBox="0 0 230 90" fill="none" xmlns="http://www.w3.org/2000/svg">
<rect width="230" height="90" fill="white"/>
<g clip-path="url(#clip0_1079_21176)">
<path d="M29.7416 45.5345L29.7145 34.2628L29.6964 23H25V36.6287V50.2573H48.3016V45.5795L39.0261 45.5615L29.7416 45.5345Z" fill="black"/>
<path d="M57.3332 23H52.6367V36.6287V50.2573H57.3332V23Z" fill="black"/>
<path d="M63.7456 36.6287V50.2573H68.442V38.8326H87.0472V34.0649H68.442V27.7678H87.0472V23H63.7456V36.6287Z" fill="black"/>
<path d="M114.594 45.5795H95.9884V38.8326H114.594V34.0649H95.9884V27.7678H114.594V23H91.292V36.6287V50.2573H114.594V45.5795Z" fill="black"/>
<path d="M133.56 50.2573V27.7678H144.217V23H118.296V25.3839V27.7678H128.954V50.2573H133.56Z" fill="black"/>
<path d="M170.861 45.5795L161.54 45.5615L152.21 45.5345L152.183 42.1791L152.165 38.8326H170.861V34.0649H152.165V27.7678H170.861V23H147.469V36.6287V50.2573H170.861V45.5795Z" fill="black"/>
<path d="M184.769 49.6906C186.792 50.2393 186.919 50.2483 196.086 50.2573H204.368V45.5795H196.673C192.437 45.5795 188.572 45.5345 188.093 45.4895C185.708 45.2556 183.821 44.3471 182.313 42.7008C180.877 41.1356 180.163 39.1115 180.163 36.6017C180.163 35.4232 180.271 34.7485 180.624 33.651C181.157 31.9868 181.437 31.528 182.692 30.2866C183.938 29.0362 185.329 28.2985 187.072 27.9387C187.831 27.7858 188.436 27.7678 196.131 27.7678H204.368V23L195.996 23.009C188.436 23.027 187.515 23.045 186.594 23.1889C185.573 23.3508 183.884 23.7916 183.369 24.0345C183.225 24.1065 182.864 24.2594 182.575 24.3854C182.286 24.5113 181.861 24.7362 181.644 24.8891C181.418 25.0331 181.211 25.159 181.184 25.159C181.021 25.159 179.802 26.1755 179.061 26.9402C175.846 30.2416 174.753 34.9195 175.954 40.272C176.099 40.9197 176.605 42.341 176.74 42.4669C176.785 42.5209 176.821 42.6019 176.821 42.6649C176.821 42.8178 177.661 44.2481 178.158 44.9498C179.007 46.1282 180.822 47.8015 181.924 48.4132C182.177 48.5481 182.538 48.755 182.737 48.863C183.234 49.1508 184.173 49.5287 184.769 49.6906Z" fill="black"/>
<path d="M78.3675 60.3778C78.2321 60.1079 77.9882 59.82 77.7534 59.6581C77.4282 59.4332 77.2657 59.3882 76.7147 59.3613C75.9561 59.3163 75.4774 59.4872 74.9265 59.964C74.7459 60.1169 74.5833 60.2428 74.5472 60.2428C74.5201 60.2428 74.493 59.3882 74.493 58.3537V56.4646H74.0143C73.7434 56.4646 73.4995 56.4916 73.4724 56.5276C73.4363 56.5546 73.4092 58.6866 73.4092 61.2504V65.9102H74.493V61.4303L75.0349 60.9265C75.6581 60.3508 76.1367 60.1709 76.6064 60.3328C76.9134 60.4318 77.3018 60.7916 77.4373 61.0974C77.4824 61.1964 77.5366 62.3119 77.5637 63.5713L77.6089 65.8652L78.6565 65.9192L78.6294 63.3734C78.6024 60.8366 78.6024 60.8186 78.3675 60.3778Z" fill="black"/>
<path d="M137.462 59.9727L137.127 60.2426L137.082 58.3804L137.037 56.5093L136.522 56.4823L135.999 56.4553V65.9189L136.522 65.8919L137.037 65.8649L137.064 63.652L137.082 61.439L137.615 60.9352C138.428 60.1616 139.214 60.0716 139.729 60.6924C140.072 61.0972 140.153 61.6909 140.153 63.8949V65.9189L140.677 65.8919L141.192 65.8649L141.219 63.58C141.246 60.9982 141.183 60.5844 140.668 59.9997C139.9 59.1271 138.509 59.1091 137.462 59.9727Z" fill="black"/>
<path d="M176.929 59.9727L176.595 60.2426L176.55 58.3804L176.505 56.5093L175.99 56.4823L175.466 56.4553V65.9189L175.99 65.8919L176.505 65.8649L176.532 63.661L176.55 61.457L177.02 60.9892C177.833 60.1706 178.664 60.0536 179.196 60.6924C179.54 61.0972 179.621 61.6909 179.621 63.8949V65.9189L180.145 65.8919L180.659 65.8649L180.687 63.58C180.714 60.9982 180.65 60.5844 180.136 59.9997C179.368 59.1271 177.977 59.1091 176.929 59.9727Z" fill="black"/>
<path d="M38.3309 57.0582C38.1683 57.2202 38.1412 57.7419 38.2767 58.0028C38.358 58.1377 38.4754 58.1737 38.8457 58.1737C39.1076 58.1737 39.3695 58.1287 39.4327 58.0658C39.496 58.0028 39.5411 57.7689 39.5411 57.544C39.5411 57.3191 39.496 57.0852 39.4327 57.0222C39.2702 56.8603 38.5025 56.8873 38.3309 57.0582Z" fill="black"/>
<path d="M166.308 57.0582C166.146 57.2202 166.119 57.7419 166.254 58.0028C166.336 58.1377 166.453 58.1737 166.823 58.1737C167.085 58.1737 167.347 58.1287 167.41 58.0658C167.473 58.0028 167.519 57.7689 167.519 57.544C167.519 57.3191 167.473 57.0852 167.41 57.0222C167.248 56.8603 166.48 56.8873 166.308 57.0582Z" fill="black"/>
<path d="M36.2263 57.112L35.7115 57.139L34.7181 60.8902C34.1762 62.9593 33.7156 64.6415 33.7065 64.6235C33.6885 64.6145 33.2369 62.9863 32.6859 61.0072C32.1441 59.0281 31.6654 57.3369 31.6383 57.2469C31.5841 57.13 31.4667 57.094 31.0512 57.094C30.7442 57.094 30.5003 57.139 30.4461 57.2019C30.3919 57.2649 29.9403 58.9651 29.4255 60.9802C28.9107 62.9953 28.4772 64.6415 28.4682 64.6235C28.4592 64.6145 28.0166 63.0042 27.4928 61.0522C26.9689 59.1001 26.4993 57.4088 26.4451 57.2919C26.3729 57.121 26.2916 57.094 25.8129 57.094C25.3342 57.094 25.271 57.112 25.271 57.2739C25.271 57.5438 27.6102 65.658 27.7276 65.8019C27.7998 65.8829 28.0347 65.9099 28.5133 65.8919L29.1997 65.8649L30.0577 62.5185C30.5274 60.6833 30.9338 59.154 30.9609 59.136C30.988 59.1091 31.4125 60.5304 31.9002 62.2936C32.3879 64.0568 32.8214 65.595 32.8666 65.703C32.9388 65.8919 33.0021 65.9099 33.6162 65.9099C34.0407 65.9099 34.3116 65.8649 34.3658 65.7929C34.5284 65.604 36.8586 57.3729 36.7953 57.2289C36.7592 57.112 36.6328 57.094 36.2263 57.112Z" fill="black"/>
<path d="M107.079 57.0942C106.51 57.0942 106.429 57.1211 106.203 57.337C106.049 57.508 105.489 58.7044 104.577 60.8994C103.81 62.7165 103.177 64.1919 103.159 64.1829C103.15 64.1649 102.572 62.7345 101.877 61.0073C100.332 57.1661 100.432 57.382 100.134 57.2201C99.8447 57.0762 98.8241 57.0582 98.5893 57.1931C98.4358 57.2741 98.4268 57.5799 98.4268 61.6011V65.9191L98.9506 65.8921L99.4654 65.8651L99.5106 61.9969C99.5557 58.3266 99.5647 58.1467 99.7002 58.4885C99.7815 58.6864 100.468 60.4406 101.227 62.3747L102.608 65.9101H103.078C103.349 65.9101 103.593 65.8651 103.638 65.7931C103.692 65.7391 104.424 63.985 105.273 61.9069L106.817 58.1287L106.871 65.8651H107.955L107.982 61.646C108.009 56.7253 108.082 57.0942 107.079 57.0942Z" fill="black"/>
<path d="M44.4001 59.361C43.9305 59.343 43.777 59.37 43.4879 59.5409C43.3073 59.6579 43.0183 59.9097 42.8557 60.1076L42.5667 60.4675L42.4764 59.4779H41.5732V65.865L42.0971 65.892L42.6119 65.9189V61.7989L42.8467 61.448C43.4518 60.5484 43.9215 60.2606 44.5175 60.4225C45.0323 60.5664 45.1407 60.5035 45.1407 60.0447C45.1407 59.4779 45.0594 59.406 44.4001 59.361Z" fill="black"/>
<path d="M56.8276 59.3613C56.078 59.3073 55.6173 59.4782 54.9761 60.0539L54.4974 60.4857L54.2536 60.1079C53.793 59.3882 52.6459 59.1184 51.7699 59.5142C51.5622 59.6131 51.228 59.829 51.0293 60.009C50.8396 60.1889 50.65 60.3328 50.6138 60.3328C50.5867 60.3328 50.5596 60.1259 50.5596 59.874V59.4242L50.09 59.4512L49.6113 59.4782V65.8652H50.6951L50.7403 63.5803L50.7854 61.3044L51.2641 60.8636C51.8873 60.2878 52.3118 60.1619 52.7814 60.3868C53.522 60.7556 53.6304 61.2234 53.6304 64.0031V65.9192L54.1542 65.8922L54.669 65.8652L54.6961 63.6433L54.7142 61.4303L55.2109 60.9265C55.9425 60.1889 56.6108 60.0809 57.1527 60.6117C57.5321 60.9895 57.6043 61.5203 57.6043 63.8502V65.9192L58.1281 65.8922L58.6429 65.8652V60.8186L58.4081 60.3778C58.0739 59.7301 57.5772 59.4062 56.8276 59.3613Z" fill="black"/>
<path d="M64.0617 59.4422C63.4385 59.2712 62.3276 59.3252 61.6502 59.5501C60.8735 59.82 60.6748 59.9909 60.6748 60.4317C60.6748 60.6206 60.72 60.8005 60.7651 60.8275C60.8193 60.8545 61.1264 60.7466 61.4606 60.5846C61.9573 60.3417 62.2012 60.2788 62.7521 60.2608C63.3482 60.2338 63.4656 60.2518 63.7456 60.4407C64.1068 60.6836 64.2784 61.0794 64.2784 61.6911L64.2875 62.1049L63.2759 62.1589C61.5509 62.2399 60.6297 62.7526 60.4219 63.7242C60.1329 65.0466 60.9819 66.0001 62.427 66.0001C63.1224 66.0001 63.592 65.8382 64.152 65.4064L64.4681 65.1725V65.9102H65.3713V63.4543C65.3713 61.943 65.3351 60.8725 65.2719 60.6476C65.1364 60.1798 64.5313 59.5771 64.0617 59.4422ZM64.2875 63.6072V64.2729L63.872 64.6417C63.2579 65.1815 62.7521 65.2984 62.1289 65.0466C61.3251 64.7317 61.289 63.6072 62.0747 63.1844C62.3818 63.0225 62.7702 62.9595 63.5469 62.9505L64.2875 62.9415V63.6072Z" fill="black"/>
<path d="M69.6254 60.2877C70.1402 60.2157 70.6369 60.3417 71.1788 60.7015C71.7117 61.0523 71.8742 60.9983 71.8742 60.5036C71.8742 60.0538 71.5491 59.703 70.9079 59.4871C70.4743 59.3341 69.4718 59.3071 69.0744 59.4241C68.2616 59.676 67.7558 60.1348 67.3675 60.9624C67.1778 61.3762 67.1326 61.6281 67.1055 62.5096C67.0604 63.796 67.2501 64.5697 67.7739 65.1724C68.3158 65.8111 68.6861 65.955 69.797 65.955C70.6188 65.955 70.7995 65.9281 71.1517 65.7391C71.793 65.4063 71.8742 65.3073 71.8742 64.8216C71.8742 64.5877 71.8381 64.3718 71.793 64.3358C71.7388 64.3088 71.4588 64.4437 71.1607 64.6327C70.8627 64.8306 70.4563 65.0105 70.2485 65.0465C69.3996 65.1814 68.6319 64.7046 68.3971 63.895C68.2345 63.3642 68.2164 62.1048 68.37 61.5291C68.5145 60.9264 69.0835 60.3686 69.6254 60.2877Z" fill="black"/>
<path d="M84.3826 59.4959C83.8407 59.307 82.7208 59.307 82.1969 59.4959C81.6189 59.6938 80.9777 60.3235 80.6706 60.9802C80.4268 61.511 80.4087 61.6189 80.4087 62.7164C80.4087 63.8139 80.4268 63.9219 80.6706 64.4526C81.1764 65.5411 81.9983 65.9999 83.4253 65.9999C84.7168 65.9909 85.638 65.712 85.7193 65.2982C85.7825 64.9474 85.638 64.6146 85.4393 64.6955C84.509 65.0913 83.353 65.2173 82.7027 65.0014C82.0344 64.7765 81.5376 63.9938 81.5376 63.1482V62.8514L83.7323 62.8334L85.918 62.8064L85.9451 62.1227C85.9902 60.8723 85.3761 59.8288 84.3826 59.4959ZM84.8793 62.0417H81.5196L81.5828 61.7089C81.7183 60.9802 82.0976 60.4945 82.6847 60.2786C83.1091 60.1346 83.2898 60.1256 83.7504 60.2516C84.3826 60.4315 84.8793 61.1242 84.8793 61.8348V62.0417Z" fill="black"/>
<path d="M91.7886 59.514C91.2919 59.2891 90.4609 59.2981 89.9461 59.532C89.7204 59.631 89.3681 59.8469 89.1604 60.0268L88.772 60.3326L88.7449 59.9098L88.7179 59.478L88.2482 59.4511L87.7695 59.4241V65.9191L88.2934 65.8921L88.8082 65.8651L88.8353 63.6521L88.8533 61.4391L89.3772 60.9354C90.199 60.1617 90.9848 60.0718 91.4996 60.6925C91.8428 61.0973 91.9241 61.691 91.9241 63.895V65.9191L92.4479 65.8921L92.9627 65.8651L92.9898 63.5801C93.0169 60.9983 92.9537 60.5845 92.4389 59.9998C92.2853 59.8199 91.9873 59.604 91.7886 59.514Z" fill="black"/>
<path d="M114.106 59.5949C113.627 59.343 112.29 59.2711 111.767 59.469C110.475 59.9458 109.87 60.9623 109.861 62.6715C109.852 64.2817 110.267 65.1633 111.297 65.6851C111.749 65.919 111.947 65.955 112.67 65.9819C113.645 66.0269 114.783 65.811 115.054 65.5411C115.235 65.3612 115.298 64.7945 115.144 64.6955C115.099 64.6686 114.756 64.7495 114.377 64.8755C113.221 65.2623 111.992 65.1453 111.505 64.5966C111.261 64.3267 111.089 63.8319 111.053 63.3462L111.026 62.8964L113.167 62.8694C115.659 62.8424 115.56 62.8874 115.461 61.9068C115.343 60.7824 114.883 59.9907 114.106 59.5949ZM114.323 62.0418H110.99L111.044 61.7449C111.171 61.0432 111.604 60.5035 112.209 60.2876C112.625 60.1347 112.724 60.1347 113.185 60.2336C113.826 60.3865 114.323 61.0612 114.323 61.7899V62.0418Z" fill="black"/>
<path d="M122.171 60.3775C122.035 60.1076 121.791 59.8197 121.557 59.6578C121.222 59.4239 121.078 59.3879 120.482 59.3609C119.895 59.343 119.714 59.3699 119.335 59.5499C119.091 59.6758 118.766 59.9007 118.621 60.0536C118.468 60.2066 118.323 60.3325 118.287 60.3325C118.251 60.3325 118.206 60.1436 118.188 59.9007L118.161 59.4779H117.258L117.23 62.6894L117.212 65.9099H118.296V61.43L118.838 60.9262C119.461 60.3505 119.94 60.1706 120.41 60.3325C120.717 60.4314 121.105 60.7913 121.24 61.0971C121.277 61.1961 121.34 62.3116 121.367 63.571L121.412 65.8649L122.46 65.9189L122.433 63.3731C122.406 60.8363 122.406 60.8183 122.171 60.3775Z" fill="black"/>
<path d="M126.669 62.2308C125.756 61.871 125.522 61.7091 125.368 61.3402C125.26 61.0704 125.26 61.0074 125.404 60.7105C125.684 60.1258 126.587 59.9999 127.418 60.4227C127.861 60.6476 128.014 60.6476 128.078 60.4227C128.159 60.0988 128.005 59.757 127.689 59.5771C127.454 59.4421 127.174 59.3881 126.56 59.3612C125.847 59.3342 125.693 59.3612 125.296 59.5501C124.528 59.9189 124.257 60.3417 124.257 61.1603C124.257 62.0689 124.645 62.4917 126.054 63.0674C127.039 63.4722 127.373 63.7961 127.292 64.2729C127.201 64.8666 126.804 65.1185 125.937 65.1095C125.522 65.1095 125.269 65.0465 124.826 64.8306C124.519 64.6777 124.221 64.5787 124.167 64.6057C124.004 64.7047 124.067 65.3614 124.257 65.5503C124.736 66.0271 126.605 66.153 127.373 65.7572C128.303 65.2714 128.665 64.2459 128.231 63.3373C128.005 62.8785 127.599 62.5907 126.669 62.2308Z" fill="black"/>
<path d="M133.804 64.5787C132.603 65.3793 131.591 65.2174 131.067 64.1379C130.833 63.6611 130.806 63.5262 130.806 62.6716C130.806 61.817 130.833 61.6821 131.067 61.2053C131.582 60.1528 132.648 59.9549 133.723 60.6925C134.21 61.0344 134.346 61.0344 134.418 60.6835C134.518 60.2517 134.328 59.9369 133.804 59.649C133.172 59.3072 132.034 59.2442 131.356 59.5231C130.426 59.8919 129.839 60.7555 129.668 62.0149C129.523 62.9954 129.649 63.931 130.029 64.6957C130.489 65.6132 131.167 66 132.35 66C133.1 66 133.849 65.7662 134.228 65.4153C134.4 65.2534 134.463 65.1095 134.463 64.8576C134.463 64.2549 134.364 64.2099 133.804 64.5787Z" fill="black"/>
<path d="M147.062 59.559C146.466 59.2801 145.391 59.2621 144.696 59.532C143.756 59.8918 143.088 60.8544 142.962 62.0328C142.772 63.877 143.323 65.2443 144.488 65.7661C145.057 66.018 146.493 66.0719 147.288 65.874C148.119 65.6581 148.281 65.5322 148.281 65.1004C148.281 64.9115 148.245 64.7316 148.209 64.7046C148.164 64.6776 147.83 64.7586 147.468 64.8845C146.908 65.0824 146.683 65.1094 146.023 65.0824C145.355 65.0644 145.183 65.0194 144.876 64.8125C144.434 64.5247 144.199 64.0479 144.145 63.3642L144.109 62.8514H146.231C148.01 62.8514 148.371 62.8335 148.462 62.7165C148.543 62.6265 148.561 62.3747 148.534 61.9249C148.462 60.7914 147.956 59.9818 147.062 59.559ZM144.127 62.0418V61.7899C144.136 61.4571 144.416 60.8724 144.696 60.6205C145.219 60.1347 146.095 60.0537 146.719 60.4316C147.071 60.6475 147.324 61.1063 147.414 61.655L147.468 62.0418H144.127Z" fill="black"/>
<path d="M154.378 59.5141C153.89 59.2892 152.969 59.2892 152.473 59.5141C152.265 59.6131 151.931 59.829 151.732 60.0089C151.542 60.1888 151.353 60.3328 151.316 60.3328C151.289 60.3328 151.262 60.1258 151.262 59.874V59.4242L150.793 59.4512L150.314 59.4781V65.8652H151.398L151.488 61.3313L151.804 61.0074C152.256 60.5397 152.978 60.2068 153.358 60.2878C153.764 60.3777 154.044 60.5756 154.225 60.9085C154.351 61.1424 154.387 61.5562 154.423 63.5263L154.469 65.8652H155.552V63.4363C155.552 61.0884 155.543 60.9894 155.345 60.5576C155.083 59.9909 154.83 59.721 154.378 59.5141Z" fill="black"/>
<path d="M162.904 62.2215C161.91 61.7897 161.558 61.5019 161.558 61.0881C161.558 60.2425 162.57 59.9366 163.735 60.4314C163.969 60.5393 164.213 60.5933 164.258 60.5573C164.367 60.4944 164.385 59.9816 164.286 59.8287C164.114 59.5678 163.563 59.3969 162.777 59.3609C162.037 59.3339 161.919 59.3519 161.486 59.5768C160.926 59.8556 160.574 60.3234 160.501 60.8632C160.366 61.8347 160.854 62.4914 162.073 62.9592C163.346 63.454 163.726 63.9038 163.455 64.5964C163.211 65.2441 161.838 65.2891 160.763 64.6864C160.51 64.5335 160.456 64.5335 160.375 64.6504C160.239 64.8483 160.339 65.451 160.537 65.604C160.835 65.8289 161.576 65.9998 162.29 65.9998C163.807 65.9998 164.629 65.3251 164.629 64.0747C164.629 63.1661 164.304 62.8153 162.904 62.2215Z" fill="black"/>
<path d="M173.272 64.5787C172.071 65.3793 171.023 65.2084 170.518 64.1289C170.31 63.6791 170.274 63.4992 170.274 62.6716C170.274 61.844 170.301 61.6821 170.536 61.2053C171.05 60.1528 172.116 59.9549 173.191 60.6925C173.679 61.0344 173.814 61.0344 173.886 60.6835C173.986 60.2517 173.796 59.9369 173.272 59.649C172.64 59.3072 171.502 59.2442 170.825 59.5231C169.894 59.8919 169.307 60.7555 169.136 62.0149C168.991 62.9954 169.118 63.931 169.497 64.6957C169.958 65.6132 170.635 66 171.818 66C172.568 66 173.317 65.7662 173.697 65.4153C173.868 65.2534 173.932 65.1095 173.932 64.8576C173.932 64.2549 173.832 64.2099 173.272 64.5787Z" fill="black"/>
<path d="M186.53 59.5591C186.169 59.3881 185.934 59.3432 185.356 59.3522C184.959 59.3522 184.534 59.3881 184.408 59.4241C182.963 59.8649 182.213 61.3672 182.43 63.3733C182.556 64.5337 183.098 65.3794 183.956 65.7662C184.525 66.0181 185.961 66.072 186.756 65.8741C187.587 65.6582 187.75 65.5323 187.75 65.1005C187.75 64.9116 187.713 64.7317 187.677 64.7047C187.632 64.6777 187.298 64.7586 186.937 64.8846C186.377 65.0825 186.151 65.1095 185.492 65.0825C184.823 65.0645 184.652 65.0195 184.345 64.8126C183.902 64.5248 183.667 64.048 183.613 63.3643L183.577 62.8515H185.699C187.479 62.8515 187.84 62.8335 187.93 62.7166C188.011 62.6266 188.03 62.3748 188.002 61.925C187.93 60.7915 187.424 59.9819 186.53 59.5591ZM183.595 62.0419V61.79C183.604 61.4572 183.884 60.8725 184.164 60.6206C184.688 60.1348 185.564 60.0538 186.187 60.4317C186.539 60.6476 186.792 61.1063 186.883 61.6551L186.937 62.0419H183.595Z" fill="black"/>
<path d="M193.123 59.4331C192.744 59.2891 192.067 59.3251 191.769 59.505C191.624 59.604 191.344 59.8469 191.164 60.0448C190.974 60.2517 190.802 60.4226 190.775 60.4226C190.748 60.4226 190.73 60.1977 190.73 59.9188V59.4241L190.26 59.451L189.782 59.478V65.8651H190.866L190.893 63.751L190.911 61.637L191.254 61.1962C191.724 60.5755 192.022 60.3776 192.428 60.4046C192.609 60.4136 192.889 60.4406 193.033 60.4496C193.295 60.4676 193.304 60.4586 193.331 59.9908C193.358 59.559 193.34 59.514 193.123 59.4331Z" fill="black"/>
<path d="M198.272 59.5682C197.73 59.3073 196.438 59.2803 195.815 59.5322C195.12 59.8021 194.487 60.5217 194.243 61.3314C193.982 62.195 194.027 63.7422 194.334 64.4439C194.614 65.0826 195.273 65.6763 195.887 65.8563C196.799 66.1261 198.597 65.9822 199.202 65.5864C199.346 65.4874 199.401 65.3705 199.401 65.1006C199.401 64.9117 199.364 64.7318 199.328 64.7048C199.283 64.6778 198.967 64.7588 198.624 64.8757C197.793 65.1726 196.745 65.1816 196.176 64.9117C195.661 64.6598 195.336 64.1201 195.273 63.3914L195.219 62.8517H197.341C198.868 62.8517 199.482 62.8247 199.563 62.7437C199.726 62.5818 199.69 61.6732 199.491 61.0255C199.283 60.3688 198.859 59.856 198.272 59.5682ZM196.926 62.042C195.056 62.042 195.147 62.078 195.336 61.4033C195.517 60.7466 196.285 60.1619 196.962 60.1619C197.088 60.1619 197.341 60.2159 197.531 60.2788C198.127 60.4947 198.416 60.8816 198.543 61.6552L198.606 62.042H196.926Z" fill="black"/>
<path d="M204.765 59.4331C204.395 59.2891 203.718 59.3251 203.42 59.505C203.275 59.604 202.995 59.8469 202.814 60.0448C202.625 60.2517 202.453 60.4226 202.426 60.4226C202.399 60.4226 202.381 60.1977 202.381 59.9188V59.4241L201.911 59.451L201.433 59.478V65.8651H202.516L202.544 63.751L202.562 61.637L202.977 61.1063C203.474 60.4766 203.862 60.2877 204.35 60.4226C204.964 60.5935 205 60.5665 205 60.0178C205 59.568 204.982 59.514 204.765 59.4331Z" fill="black"/>
<path d="M38.3667 59.4241V62.6716V65.9191L38.8905 65.8921L39.4053 65.8651V59.478L38.8905 59.4511L38.3667 59.4241Z" fill="black"/>
<path d="M166.3 59.631C166.272 59.748 166.263 61.1963 166.272 62.8515L166.3 65.8651H167.383V59.4781L166.869 59.4511C166.39 59.4241 166.345 59.4421 166.3 59.631Z" fill="black"/>
</g>
<defs>
<clipPath id="clip0_1079_21176">
<rect width="180" height="43" fill="white" transform="translate(25 23)"/>
</clipPath>
</defs>
</svg>
