<?xml version="1.0" encoding="UTF-8" standalone="no"?>
<!-- Created with Inkscape (http://www.inkscape.org/) -->

<svg
   width="230"
   height="90"
   viewBox="0 0 60.854165 23.8125"
   version="1.1"
   id="svg1"
   xml:space="preserve"
   inkscape:export-filename="bitmap.svg"
   inkscape:export-xdpi="96"
   inkscape:export-ydpi="96"
   inkscape:version="1.4.3 (0d15f75, 2025-12-25)"
   sodipodi:docname="drawing.svg"
   xmlns:inkscape="http://www.inkscape.org/namespaces/inkscape"
   xmlns:sodipodi="http://sodipodi.sourceforge.net/DTD/sodipodi-0.dtd"
   xmlns="http://www.w3.org/2000/svg"
   xmlns:svg="http://www.w3.org/2000/svg"><sodipodi:namedview
     id="namedview1"
     pagecolor="#ffffff"
     bordercolor="#000000"
     borderopacity="0.25"
     inkscape:showpageshadow="2"
     inkscape:pageopacity="0.0"
     inkscape:pagecheckerboard="0"
     inkscape:deskcolor="#d1d1d1"
     inkscape:document-units="mm"
     inkscape:zoom="4.288551"
     inkscape:cx="135.01064"
     inkscape:cy="15.972761"
     inkscape:window-width="1920"
     inkscape:window-height="1111"
     inkscape:window-x="-9"
     inkscape:window-y="-9"
     inkscape:window-maximized="1"
     inkscape:current-layer="layer1" /><defs
     id="defs1"><style
       id="style1">
      .cls-1 {
        fill: #19191f;
      }
    </style><clipPath
       id="clip0_1079_21174"><rect
         width="200"
         height="62.766"
         fill="white"
         transform="translate(15 14)"
         id="rect16" /></clipPath><style
       id="style1-5">
      .cls-1 {
        fill: #19191f;
      }
    </style></defs><g
     inkscape:label="Layer 1"
     inkscape:groupmode="layer"
     id="layer1"><g
       style="display:none;fill:none"
       id="g1"
       transform="scale(0.26458333)"><rect
         width="230"
         height="90"
         fill="#ffffff"
         id="rect1"
         x="0"
         y="0" /><g
         clip-path="url(#clip0_1079_21174)"
         id="g16"><path
           d="m 166.499,34.9394 c -2.245,0 -4.634,0.8616 -6.229,2.4557 -2.272,2.2713 -2.717,4.9866 -2.717,8.4106 0,3.4251 0.536,6.2308 2.716,8.5033 1.617,1.7057 3.716,2.3341 6.067,2.3341 0.054,0 0.109,0 0.163,0 2.63,-0.0301 4.635,-1.475 5.257,-2.689 l 2.208,2.3039 h 0.685 V 44.8011 h -8.681 v 3.1605 h 4.99 c 0,1.5966 -0.238,2.8947 -1.356,4.0748 -0.711,0.7388 -1.775,1.2128 -3.129,1.2128 -1.214,0 -2.57,-0.4464 -3.4,-1.3294 -1.445,-1.5063 -1.651,-4.1927 -1.651,-6.1141 0,-1.9164 0.178,-4.5163 1.621,-6.0239 0.824,-0.8817 2.216,-1.4159 3.43,-1.4159 1.446,0 2.597,0.4126 3.334,1.2704 0.445,0.5368 0.854,1.0924 0.913,1.9214 h 3.899 c -0.119,-1.8298 -0.884,-3.163 -1.919,-4.2228 -1.418,-1.4461 -3.63,-2.3955 -6.201,-2.3955 z"
           fill="#201e20"
           id="path1-8" /><path
           d="m 181.584,45.8062 c 0,-1.9164 0.064,-4.5176 1.506,-6.0239 0.823,-0.8829 2.101,-1.3871 3.307,-1.3871 1.209,0 2.483,0.5042 3.312,1.3871 1.443,1.5063 1.505,4.1075 1.505,6.0239 0,1.9201 -0.062,4.4887 -1.505,5.995 -0.829,0.8879 -2.103,1.3871 -3.312,1.3871 -1.206,0 -2.484,-0.4992 -3.307,-1.3871 -1.442,-1.5063 -1.506,-4.0749 -1.506,-5.995 z m 4.813,-10.8663 c -2.238,0 -4.427,0.7701 -6.023,2.3642 -2.274,2.2713 -2.658,5.0769 -2.658,8.5021 0,3.4239 0.384,6.1994 2.658,8.4745 1.596,1.5953 3.785,2.3616 6.023,2.3616 2.245,0 4.428,-0.7663 6.022,-2.3616 2.274,-2.2751 2.66,-5.0506 2.66,-8.4745 0,-3.4252 -0.386,-6.2308 -2.66,-8.5021 -1.594,-1.5941 -3.777,-2.3642 -6.022,-2.3642 z"
           fill="#201e20"
           id="path2" /><path
           d="m 214.727,35.3235 h -3.749 v 14.1722 l -8.946,-14.1722 h -4.044 v 20.9348 h 3.75 v -14.378 l 9.064,14.378 h 3.925 z"
           fill="#201e20"
           id="path3" /><path
           d="m 99.8385,35.3235 h -3.8102 v 8.181 h -8.59 v -8.181 h -3.8089 v 20.9348 h 3.8089 v -9.1217 h 8.59 v 9.1217 h 3.8102 z"
           fill="#201e20"
           id="path4" /><path
           d="m 118.102,35.3235 h -14.289 v 20.9348 h 14.288 V 52.803 h -10.484 v -5.7266 h 9.155 v -3.4239 h -9.155 v -4.8738 h 10.485 z"
           fill="#201e20"
           id="path5" /><path
           d="m 137.599,35.3235 h -4.134 l -4.55,7.3282 -4.695,-7.3282 h -4.16 l 6.523,10.2755 -6.581,10.6593 h 4.1 l 4.699,-7.6154 4.688,7.6154 h 4.194 l -6.522,-10.6267 z"
           fill="#201e20"
           id="path6" /><path
           d="m 144.288,48.822 2.981,-8.8307 2.981,8.8307 z m 5.136,-13.4988 h -4.161 l -7.35,20.9349 h 3.838 l 1.357,-4.0134 h 8.323 l 1.362,4.0134 h 3.982 z"
           fill="#201e20"
           id="path7" /><path
           d="m 15.2905,60.9507 h 17.748 l -4.4373,-7.6844 z"
           fill="#7ec9d5"
           id="path8" /><path
           d="M 50.7894,60.9507 68.5374,30.2081 41.9136,45.5794 v 15.3713 z"
           fill="#7ec9d5"
           id="path9" /><path
           d="m 41.9141,76.3252 26.625,-15.375 H 50.7899 Z"
           fill="#b3df60"
           id="path10" /><path
           d="M 28.6014,53.2661 41.9145,45.5805 V 14.8354 L 24.1641,45.5805 Z"
           fill="#b3df60"
           id="path11" /><path
           d="m 33.0386,60.9506 8.8746,15.3751 V 60.9506 Z"
           fill="#b3df60"
           id="path12" /><path
           d="M 15.2905,30.2069 V 60.9507 L 24.1639,45.5794 Z"
           fill="#7ec9d5"
           id="path13" /><path
           d="M 68.5375,30.2081 50.7896,60.9507 H 68.5388 V 30.2081 Z"
           fill="#3499be"
           id="path14" /><path
           d="m 41.9137,45.5797 -13.3131,7.6856 4.4385,7.6856 h 8.8746 z"
           fill="#3499be"
           id="path15" /><path
           d="M 41.9139,14.835 15.29,30.2076 24.1634,45.5801 Z"
           fill="#3499be"
           id="path16" /></g></g><path
       class="cls-1"
       d="m 20.301877,14.528779 c -1.752229,0 -3.314401,1.134831 -3.314401,2.988215 0,1.866297 1.575425,2.988214 3.314401,2.988214 1.766672,0 3.3144,-1.145732 3.3144,-2.988214 0,-1.865702 -1.574877,-2.988215 -3.3144,-2.988215 z m 2.26934,2.988215 c 0,1.299027 -1.076685,2.05389 -2.26934,2.05389 -1.188066,0 -2.26079,-0.758422 -2.26079,-2.05389 0,-1.298077 1.066106,-2.061942 2.26079,-2.061942 1.190336,0 2.26934,0.768712 2.26934,2.061942 z m 2.626668,0 c 0,1.295581 1.071227,2.05389 2.260789,2.05389 0.686107,0 1.602702,-0.264176 2.01006,-1.207517 h 1.10517 c -0.555499,1.826782 -2.29549,2.141841 -3.115213,2.141841 -1.740297,0 -3.314401,-1.124461 -3.314401,-2.988214 0,-1.865831 1.574764,-2.988215 3.314401,-2.988215 0.308875,0 2.478831,0.05522 3.115632,2.101006 h -1.105074 c -0.486211,-1.072515 -1.621026,-1.174748 -2.010558,-1.174748 -1.203411,0 -2.26079,0.773139 -2.26079,2.061941 z m 10.715084,-1.988579 h -1.622281 c -0.368117,0 -0.554728,0.314366 -0.554728,0.934486 v 3.952537 c 0,0 -1.04506,0 -1.04506,0 v -3.952537 c 0,-0.485552 0.207656,-0.789532 0.646768,-0.934486 h -2.752959 v -0.909833 h 5.328244 v 0.909833 z m 2.797144,-0.90985 h -1.391696 c 0,0 -2.599149,5.796856 -2.599149,5.796856 h 1.130564 c 0,0 0.58239,-1.321618 0.58239,-1.321618 h 3.164085 c 0,0 0.582294,1.321618 0.582294,1.321618 h 1.130564 c 0,0 -2.599052,-5.796856 -2.599052,-5.796856 z m -0.629668,1.032244 1.109857,2.524948 h -2.352171 c 0,0 1.109937,-2.524948 1.109937,-2.524948 z m 7.370606,-1.032244 h 1.155635 c 0,0 -2.503484,5.796856 -2.503484,5.796856 H 42.65935 c 0,0 -2.503485,-5.796856 -2.503485,-5.796856 h 1.155636 c 0,0 1.99547,4.699399 1.99547,4.699399 h 0.148641 c 0,0 1.995471,-4.699399 1.995471,-4.699399 z m 2.628197,0.90985 v 1.521481 c 0,0 3.133909,0 3.133909,0 v 0.90162 h -3.133909 c 0,0 0,1.55409 0,1.55409 h 3.545534 v 0.909832 h -4.590594 c 0,0 0,-5.796856 0,-5.796856 h 4.590578 v 0.909833 H 48.079232 Z M 20.496716,5.9471474 22.376991,4.0668727 c -1.086654,-0.4458101 -2.584384,-0.7595813 -4.6732,-0.7595813 -3.464234,0 -6.272552,1.6481908 -6.272552,3.6813254 0,1.6703476 1.895491,3.0808672 4.49295,3.5310582 l -0.985032,0.985014 c -2.723056,-1.203604 -5.7097725,-0.09019 -5.7097725,1.432644 0,0.889237 1.0184105,1.638867 2.4080455,1.869083 l -1.039489,1.03949 c 0.753318,0.246012 1.539017,0.330759 2.387838,0.330759 1.827378,0 3.308764,-0.869416 3.308764,-1.941899 0,-0.578027 -0.430465,-1.096959 -1.11335,-1.452692 0.90732,0.21495 2.014423,0.347441 3.37116,0.347441 3.464234,0 6.272552,-1.64819 6.272552,-3.6813251 0,-1.6348257 -1.815736,-3.0207574 -4.328205,-3.5010425 z m -7.73307,8.6691166 c -1.362002,0 -2.466127,-0.504053 -2.466127,-1.125847 0,-0.621793 1.104125,-1.125845 2.466127,-1.125845 1.362004,0 2.466127,0.504052 2.466127,1.125845 0,0.621794 -1.104123,1.125847 -2.466127,1.125847 z m 5.421928,-4.219741 c -2.625316,0 -4.753551,-0.9761093 -4.753551,-2.1801967 0,-1.2040876 2.128235,-2.1801976 4.753551,-2.1801976 2.625316,0 4.75355,0.97611 4.75355,2.1801976 0,1.2041032 -2.128234,2.1801967 -4.75355,2.1801967 z"
       id="path1"
       style="stroke-width:0.161024" /></g></svg>
