<?xml version="1.0" encoding="UTF-8" standalone="no"?>
<!-- Created with Inkscape (http://www.inkscape.org/) -->

<svg
   width="230"
   height="90"
   viewBox="0 0 60.854165 23.8125"
   version="1.1"
   id="svg1"
   xml:space="preserve"
   xmlns:inkscape="http://www.inkscape.org/namespaces/inkscape"
   xmlns:sodipodi="http://sodipodi.sourceforge.net/DTD/sodipodi-0.dtd"
   xmlns="http://www.w3.org/2000/svg"
   xmlns:svg="http://www.w3.org/2000/svg"><sodipodi:namedview
     id="namedview1"
     pagecolor="#ffffff"
     bordercolor="#000000"
     borderopacity="0.25"
     inkscape:showpageshadow="2"
     inkscape:pageopacity="0.0"
     inkscape:pagecheckerboard="0"
     inkscape:deskcolor="#d1d1d1"
     inkscape:document-units="mm"><inkscape:page
       x="0"
       y="0"
       width="60.854164"
       height="23.8125"
       id="page2"
       margin="0"
       bleed="0" /></sodipodi:namedview><defs
     id="defs1"><style
       id="style1">
      .cls-1 {
        fill: #19191f;
      }
    </style></defs><g
     inkscape:label="Layer 1"
     inkscape:groupmode="layer"
     id="layer1"><path
       class="cls-1"
       d="m 16.389475,15.537445 c -2.426162,0 -4.589169,1.571304 -4.589169,4.137528 0,2.584104 2.181356,4.137528 4.589169,4.137528 2.446162,0 4.58917,-1.586399 4.58917,-4.137528 0,-2.58328 -2.180599,-4.137528 -4.58917,-4.137528 z m 3.142163,4.137528 c 0,1.798652 -1.490794,2.843848 -3.142163,2.843848 -1.645014,0 -3.130323,-1.050123 -3.130323,-2.843848 0,-1.797337 1.476146,-2.854996 3.130323,-2.854996 1.648158,0 3.142163,1.06437 3.142163,2.854996 z m 3.636925,0 c 0,1.793881 1.483237,2.843848 3.130324,2.843848 0.949993,0 2.219125,-0.365782 2.783159,-1.671947 h 1.530236 c -0.769153,2.529391 -3.178371,2.965627 -4.313372,2.965627 -2.409642,0 -4.58917,-1.556946 -4.58917,-4.137528 0,-2.583458 2.180442,-4.137528 4.58917,-4.137528 0.427673,0 3.432228,0.07645 4.313952,2.909085 H 29.08276 c -0.673216,-1.485021 -2.244498,-1.626576 -2.78385,-1.626576 -1.666262,0 -3.130325,1.070502 -3.130325,2.854997 z m 14.83627,-2.753417 h -2.246236 c -0.5097,0 -0.768084,0.435277 -0.768084,1.293903 v 5.472744 c 0,0 -1.447006,0 -1.447006,0 v -5.472744 c 0,-0.672302 0.287523,-1.093198 0.895525,-1.293903 h -3.811789 v -1.259768 h 7.377568 v 1.259768 z m 3.872968,-1.259791 h -1.926964 c 0,0 -3.598821,8.026415 -3.598821,8.026415 h 1.565397 c 0,0 0.806387,-1.829933 0.806387,-1.829933 h 4.381039 c 0,0 0.806253,1.829933 0.806253,1.829933 h 1.565397 c 0,0 -3.598688,-8.026415 -3.598688,-8.026415 z m -0.871847,1.42926 1.536724,3.496083 h -3.256852 c 0,0 1.536836,-3.496083 1.536836,-3.496083 z m 10.205453,-1.42926 h 1.600111 c 0,0 -3.466364,8.026415 -3.466364,8.026415 h -1.999179 c 0,0 -3.466364,-8.026415 -3.466364,-8.026415 h 1.600111 c 0,0 2.762959,6.506859 2.762959,6.506859 h 0.205811 c 0,0 2.76296,-6.506859 2.76296,-6.506859 z m 3.639042,1.259791 v 2.106666 c 0,0 4.339259,0 4.339259,0 v 1.248397 h -4.339259 c 0,0 0,2.151816 0,2.151816 h 4.909201 v 1.259768 h -6.356207 c 0,0 0,-8.026415 0,-8.026415 h 6.356185 v 1.259768 H 54.850427 Z M 16.659252,3.655185 19.262709,1.0517278 C 17.758113,0.4344523 15.684332,0 12.792126,0 7.9954961,0 4.1070555,2.2821102 4.1070555,5.0972195 c 0,2.3127888 2.6245266,4.2658165 6.2210065,4.8891573 L 8.9641731,11.350243 c -3.770386,-1.6665296 -7.9058398,-0.124878 -7.9058398,1.983661 0,1.231252 1.4101075,2.269201 3.3342173,2.587961 l -1.4392925,1.439293 c 1.0430547,0.340632 2.130946,0.457974 3.306237,0.457974 2.530215,0 4.5813659,-1.203806 4.5813659,-2.688782 0,-0.800346 -0.596029,-1.518866 -1.5415619,-2.01142 1.2562889,0.297624 2.7891989,0.481072 4.6677599,0.481072 4.79663,0 8.685071,-2.28211 8.685071,-5.0972199 0,-2.2636048 -2.514096,-4.182587 -5.9929,-4.8475971 z M 5.9519271,15.658577 c -1.8858506,0 -3.4146378,-0.697919 -3.4146378,-1.558864 0,-0.860945 1.5287872,-1.558863 3.4146378,-1.558863 1.885851,0 3.414637,0.697918 3.414637,1.558863 0,0.860945 -1.528786,1.558864 -3.414637,1.558864 z M 13.459209,9.815859 c -3.6350499,0 -6.5818359,-1.3515363 -6.5818359,-3.0187342 0,-1.667198 2.946786,-3.018735 6.5818359,-3.018735 3.635053,0 6.581839,1.351537 6.581839,3.018735 0,1.6672198 -2.946786,3.0187342 -6.581839,3.0187342 z"
       id="path1"
       style="stroke-width:0.222956" /></g></svg>
