<svg width="180" height="71" viewBox="0 0 180 71" fill="none" xmlns="http://www.w3.org/2000/svg">
<rect width="180" height="70.4348" fill="white"/>
<g clip-path="url(#clip0_2742_61005)">
<path d="M10.3809 19.8022V50.9169H41.5081V19.8022H10.3809ZM36.2472 45.6581H15.6418V25.0611H36.2472V45.6581Z" fill="#1E9AE2"/>
<path d="M34.0552 27.2522H17.834V32.0728H34.0552V27.2522Z" fill="black"/>
<path d="M34.0552 32.9495H17.834V37.77H34.0552V32.9495Z" fill="black"/>
<path d="M34.0552 38.6462H17.834V43.4668H34.0552V38.6462Z" fill="black"/>
<path d="M60.93 36.3894H54.5073V43.4669H52.0303V27.2522H54.4854V34.1982H60.9081V27.2522H63.3632V43.4669H60.9081V36.3894H60.93Z" fill="black"/>
<path d="M67.7908 30.0131C68.558 28.6108 70.3336 27.0989 72.8764 27.0989C75.4411 27.0989 77.1948 28.6108 77.962 30.0131C78.4881 30.9772 78.6634 31.4593 78.6634 35.3377C78.6634 39.238 78.4881 39.72 77.962 40.6622C77.1948 42.0646 75.4192 43.5765 72.8764 43.5765C70.3117 43.5765 68.558 42.0646 67.7908 40.6622C67.2647 39.6981 67.0894 39.216 67.0894 35.3377C67.0894 31.4593 67.2647 30.9772 67.7908 30.0131ZM70.3774 39.961C70.8816 40.5965 71.7146 41.1443 72.8764 41.1443C74.0382 41.1443 74.8931 40.5965 75.3753 39.961C76.011 39.1503 76.1864 38.6902 76.1864 35.3596C76.1864 32.029 76.011 31.5689 75.3753 30.7581C74.8712 30.1227 74.0382 29.5749 72.8764 29.5749C71.7146 29.5749 70.8597 30.1227 70.3774 30.7581C69.7418 31.5689 69.5664 32.029 69.5664 35.3596C69.5445 38.6902 69.7418 39.1284 70.3774 39.961Z" fill="black"/>
<path d="M82.5654 39.5228C83.793 40.5088 85.437 41.1443 87.1688 41.1443C89.1855 41.1443 90.3911 40.224 90.3911 38.8874C90.3911 37.748 89.7335 36.8715 88.2648 36.6962C87.5414 36.6086 86.9715 36.5209 86.1166 36.3894C83.3107 35.995 81.7982 34.1764 81.7982 31.8318C81.7982 29.049 83.7272 27.0989 87.0811 27.0989C89.0978 27.0989 90.8734 27.8001 92.342 28.7861L90.983 30.8239C89.7992 30.0789 88.3963 29.5749 86.9715 29.5749C85.459 29.5749 84.2533 30.3418 84.2533 31.8975C84.2533 32.8178 84.9109 33.7162 86.555 33.9792C86.9934 34.0449 87.6072 34.1325 88.3744 34.2202C91.3994 34.5927 92.8243 36.6743 92.8243 38.8874C92.8243 41.8674 90.6103 43.5984 87.1249 43.5984C84.7356 43.5984 82.6312 42.8753 80.9214 41.3634L82.5654 39.5228Z" fill="black"/>
<path d="M99.05 29.4434H94.6001V27.2522H105.955V29.4434H101.505V43.4669H99.05V29.4434Z" fill="black"/>
<path d="M108.52 27.2522H114.416C115.688 27.2522 116.806 27.4056 118.077 28.3916C119.063 29.1366 119.831 30.517 119.831 32.27C119.831 34.5707 118.077 37.1344 114.745 37.1344H110.997V43.4669H108.541V27.2522H108.52ZM110.975 34.8117H114.635C116.455 34.8117 117.354 33.4751 117.354 32.1823C117.354 31.0867 116.915 30.4294 116.301 30.0131C115.753 29.6406 115.249 29.5529 114.548 29.5529H110.997V34.8117H110.975Z" fill="black"/>
<path d="M123.031 30.0131C123.798 28.6108 125.574 27.0989 128.116 27.0989C130.681 27.0989 132.435 28.6108 133.202 30.0131C133.728 30.9772 133.903 31.4593 133.903 35.3377C133.903 39.238 133.728 39.72 133.202 40.6622C132.435 42.0646 130.659 43.5765 128.116 43.5765C125.552 43.5765 123.798 42.0646 123.031 40.6622C122.505 39.6981 122.329 39.216 122.329 35.3377C122.307 31.4593 122.505 30.9772 123.031 30.0131ZM125.595 39.961C126.1 40.5965 126.933 41.1443 128.094 41.1443C129.256 41.1443 130.111 40.5965 130.593 39.961C131.229 39.1503 131.404 38.6902 131.404 35.3596C131.404 32.029 131.229 31.5689 130.593 30.7581C130.089 30.1227 129.256 29.5749 128.094 29.5749C126.933 29.5749 126.078 30.1227 125.595 30.7581C124.96 31.5689 124.784 32.029 124.784 35.3596C124.784 38.6902 124.96 39.1284 125.595 39.961Z" fill="black"/>
<path d="M137.608 27.2522H140.064V43.4669H137.608V27.2522Z" fill="black"/>
<path d="M144.294 27.2522H146.618L153.961 38.7778H154.005V27.2522H156.46V43.4669H154.137L146.793 31.9413H146.75V43.4669H144.294V27.2522Z" fill="black"/>
<path d="M163.496 29.4434H159.046V27.2522H170.401V29.4434H165.951V43.4669H163.496V29.4434Z" fill="black"/>
</g>
<defs>
<clipPath id="clip0_2742_61005">
<rect width="160.435" height="31.5036" fill="white" transform="translate(10.1738 19.6079)"/>
</clipPath>
</defs>
</svg>
