<svg width="180" height="71" viewBox="0 0 180 71" fill="none" xmlns="http://www.w3.org/2000/svg">
<g clip-path="url(#clip0_2742_71560)">
<rect width="180" height="70.4348" fill="white"/>
<g clip-path="url(#clip1_2742_71560)">
<path d="M62.6284 0.802734V27.9397C62.6284 38.6223 64.311 46.6049 67.911 53.0419C72.2741 60.8093 79.4741 66.3266 89.961 69.8679C100.448 66.3266 107.648 60.8288 112.011 53.0419C115.611 46.6049 117.294 38.6223 117.294 27.9397V0.802734H62.6284ZM97.2784 55.9375C97.2784 56.7006 96.6915 57.0527 96.1241 57.0527C95.5567 57.0527 94.9893 56.681 94.9893 55.9375V55.7419C94.9893 56.7006 94.2458 57.1506 93.5415 57.1506C92.8371 57.1506 92.0936 56.681 92.0936 55.7419V55.1745C92.0936 55.9571 91.7415 56.5245 91.2523 56.8571H91.2915V62.4136C91.2915 63.2745 90.6262 63.6853 89.9806 63.6853C89.3349 63.6853 88.6697 63.2745 88.6697 62.4136V56.8571H88.7089C88.2197 56.5245 87.8675 55.9766 87.8675 55.1745V55.7419C87.8675 56.7006 87.1241 57.1506 86.4197 57.1506C85.7154 57.1506 84.9719 56.681 84.9719 55.7419V55.9375C84.9719 56.7006 84.3849 57.0527 83.8175 57.0527C83.2502 57.0527 82.6828 56.681 82.6828 55.9375V53.6875H97.2197V55.9375H97.2784ZM97.2784 50.4201H82.7415V47.6419L89.961 39.894L97.2784 47.7201V50.4201ZM82.7219 42.731V32.1658L87.6719 37.4484L82.7219 42.731ZM97.2784 42.8679L92.2306 37.4484L97.2784 32.0288V42.8679ZM97.2784 27.2158L89.961 35.0419L82.7415 27.294V24.6136H97.2784V27.2158ZM97.2784 21.3266H82.7415V19.0375C82.7415 18.2745 83.3284 17.9223 83.8762 17.9223C84.4436 17.9223 85.0306 18.294 85.0306 19.0375V19.2527C85.0306 18.294 85.7741 17.844 86.4784 17.844C87.1828 17.844 87.9262 18.3136 87.9262 19.2527V19.8201C87.9262 19.0571 88.2589 18.5093 88.7284 18.1766V13.3636C85.8719 13.5006 83.8762 14.4593 82.0958 16.2984C80.7849 14.2049 80.3741 12.3266 80.3741 10.4484C80.3741 8.57013 80.8436 6.75056 81.8023 5.10708C82.9175 6.63317 85.0306 8.9223 88.7284 9.19621V7.25925C88.7284 6.39838 89.3936 5.98752 90.0393 5.98752C90.6849 5.98752 91.3502 6.39838 91.3502 7.25925V9.21578C92.4262 9.21578 93.248 9.21578 93.248 9.21578L93.2675 13.344C93.2675 13.344 92.4262 13.344 91.3502 13.344V18.1766C91.8197 18.5093 92.1523 19.0571 92.1523 19.8201V19.2527C92.1523 18.294 92.8958 17.844 93.6002 17.844C94.3045 17.844 95.048 18.3136 95.048 19.2527V19.0375C95.048 18.2745 95.6349 17.9223 96.1828 17.9223C96.7502 17.9223 97.3371 18.294 97.3371 19.0375V21.3266H97.2784Z" fill="#009A3F"/>
<path d="M97.9242 24.9261C98.1199 24.9261 98.2569 24.7696 98.2569 24.5935V21.3261C98.2569 21.1304 98.1003 20.9935 97.9242 20.9935H97.6112V19.0565C97.6112 18.0978 96.8677 17.5891 96.1242 17.5891C95.6742 17.5891 95.2242 17.7848 94.9308 18.137C94.5786 17.7261 94.0503 17.5109 93.5221 17.5109C92.9156 17.5109 92.2895 17.8043 91.9569 18.3717C91.859 18.2348 91.7416 18.1174 91.6047 18.0196V13.6957H93.5221L93.5025 8.90217H91.6047V7.27826C91.6047 6.22174 90.7829 5.67391 89.9612 5.67391C89.1395 5.67391 88.3177 6.22174 88.3177 7.27826V8.84348C85.8134 8.56957 83.7003 7.2587 81.9982 4.93044L81.6851 4.5L81.4308 4.95C80.4525 6.63261 79.9634 8.49131 79.9634 10.4478C79.9634 12.6196 80.5308 14.537 81.7242 16.4739L81.959 16.8457L82.2525 16.5326C83.9547 14.7717 85.7938 13.9109 88.2982 13.7348V18.0391C88.1808 18.137 88.0634 18.2543 87.9656 18.3913C87.6525 17.8239 87.0264 17.5304 86.4003 17.5304C85.8721 17.5304 85.3438 17.7457 84.9916 18.1565C84.6982 17.8043 84.2482 17.6087 83.7982 17.6087C83.0547 17.6087 82.3112 18.1174 82.3112 19.0761V21.013H81.9786C81.7829 21.013 81.646 21.1696 81.646 21.3457V24.613C81.646 24.8087 81.8025 24.9457 81.9786 24.9457H82.3112V26.3935L82.2329 26.2957C82.1351 26.1978 81.9982 26.1587 81.8612 26.2174C81.7242 26.2761 81.646 26.3935 81.646 26.5304V31.4413C81.646 31.5196 81.6851 31.6174 81.7438 31.6761L82.3308 32.3022V42.6326L81.7438 43.2587C81.6851 43.3174 81.646 43.3957 81.646 43.4935V48.4044C81.646 48.5413 81.7242 48.6587 81.8612 48.7174C81.9003 48.737 81.9395 48.737 81.9786 48.737C82.0764 48.737 82.1547 48.6978 82.2329 48.6196L82.3112 48.5217V50.0674H81.9786C81.7829 50.0674 81.646 50.2239 81.646 50.4V53.6674C81.646 53.863 81.8025 54 81.9786 54H82.3112V55.9174C82.3112 56.8761 83.0547 57.3848 83.7982 57.3848C84.2482 57.3848 84.6982 57.1891 84.9916 56.837C85.3438 57.2478 85.8721 57.463 86.4003 57.463C87.0264 57.463 87.6329 57.1696 87.9656 56.6022C88.0634 56.7391 88.1808 56.8565 88.2982 56.9543V62.3739C88.2982 63.4304 89.1199 63.9783 89.9416 63.9783C90.7634 63.9783 91.5851 63.4304 91.5851 62.3739V56.9543C91.7025 56.8565 91.8199 56.7391 91.9373 56.6022C92.2503 57.1696 92.8764 57.463 93.5025 57.463C94.0308 57.463 94.559 57.2478 94.9112 56.837C95.2047 57.1891 95.6547 57.3848 96.1047 57.3848C96.8482 57.3848 97.5916 56.8761 97.5916 55.9174V54H97.9047C98.1003 54 98.2373 53.8435 98.2373 53.6674V50.4C98.2373 50.2043 98.0808 50.0674 97.9047 50.0674H97.5916V48.5217L97.6699 48.6C97.7286 48.6783 97.8264 48.6978 97.9242 48.6978C97.9634 48.6978 98.0025 48.6978 98.0416 48.6783C98.1786 48.6196 98.2569 48.5022 98.2569 48.3652V43.5326C98.2569 43.4543 98.2177 43.3565 98.159 43.2978L97.5916 42.6913V32.1652L98.159 31.5587C98.2177 31.5 98.2569 31.4217 98.2569 31.3239V26.4913C98.2569 26.3543 98.1786 26.237 98.0416 26.1783C97.9047 26.1196 97.7677 26.1587 97.6699 26.2565L97.5916 26.3348V24.887H97.9242V24.9261ZM97.5916 27.3913V31.2261L92.2503 36.9587L90.4503 35.0217L97.5916 27.3913ZM97.5916 43.6891V47.5239L82.3895 31.3043V27.3913L97.5916 43.6891ZM97.5916 50.7522V53.3348H82.3895V50.7522H97.5916ZM82.3895 47.5239V43.6109L87.6916 37.9565L89.5112 39.8935L82.3895 47.5239ZM87.2221 37.4674L85.3438 39.463V35.4522L87.2221 37.4674ZM88.2199 50.087V42.2609L89.9612 40.4022L91.7416 42.3V50.087H88.2199ZM87.5547 42.9848V50.087H85.3438V45.3522L87.5547 42.9848ZM92.4264 50.087V43.0239L94.6373 45.3717V50.087H92.4264ZM87.5547 24.9261V31.9304L85.3438 29.563V24.9261H87.5547ZM89.9612 34.5326L88.2199 32.6739V24.9457H91.7416V32.6348L89.9612 34.5326ZM92.7003 37.4674L94.6373 35.3935V39.5609L92.7003 37.4674ZM92.4264 31.8913V24.9261H94.6373V29.5435L92.4264 31.8913ZM82.3895 24.2609V21.6783H97.5916V24.2609H82.3895ZM95.3025 19.0565C95.3025 18.4304 95.8112 18.2739 96.1047 18.2739C96.3982 18.2739 96.9069 18.4304 96.9069 19.0565V20.9935H95.3025V19.2522V19.0565ZM92.4264 19.2522C92.4264 18.4109 93.1112 18.1761 93.5221 18.1761C93.9329 18.1761 94.6177 18.4109 94.6177 19.2522V20.9935H92.4069V19.8196V19.2522H92.4264ZM89.0221 7.2587C89.0221 6.51522 89.6286 6.31957 89.9808 6.31957C90.3329 6.31957 90.9395 6.51522 90.9395 7.2587V8.88261H89.3742C89.2569 8.88261 89.1199 8.88261 89.0025 8.86305V7.2587H89.0221ZM82.1156 15.7304C81.1177 14.0087 80.6677 12.3652 80.6677 10.4283C80.6677 8.76522 81.0395 7.18044 81.8025 5.71305C83.8177 8.25652 86.3612 9.54783 89.3742 9.54783H92.8373L92.8569 12.9913H89.3742C86.3025 12.9913 84.1112 13.813 82.1156 15.7304ZM89.0221 13.6761C89.1395 13.6761 89.2569 13.6761 89.3938 13.6761H90.959V17.6087C90.646 17.4913 90.3329 17.4326 90.0003 17.4326C89.6677 17.4326 89.3351 17.4913 89.0416 17.6087V13.6761H89.0221ZM89.9808 18.0978C90.8221 18.0978 91.7416 18.6261 91.7416 19.8196V20.9935H88.2199V19.8196C88.2199 18.6261 89.1395 18.0978 89.9808 18.0978ZM86.4395 18.1761C86.8503 18.1761 87.5351 18.4109 87.5351 19.2522V19.8196V20.9935H85.3242V19.2522C85.3438 18.4109 86.0286 18.1761 86.4395 18.1761ZM83.0547 19.0565C83.0547 18.4304 83.5634 18.2739 83.8569 18.2739C84.1503 18.2739 84.659 18.4304 84.659 19.0565V19.2717V21.013H83.0547V19.0565ZM83.0547 24.9261H84.659V28.8391L83.0547 27.1174V24.9261ZM83.0547 33.0065L84.659 34.7283V40.187L83.0547 41.9087V33.0065ZM83.0547 47.7978L84.659 46.0761V50.087H83.0547V47.7978ZM84.659 55.937C84.659 56.563 84.1503 56.7196 83.8569 56.7196C83.5634 56.7196 83.0547 56.563 83.0547 55.937V54.0196H84.659V55.7217V55.937ZM87.5547 55.7217C87.5547 56.563 86.8699 56.7978 86.459 56.7978C86.0482 56.7978 85.3634 56.563 85.3634 55.7217V54.0196H87.5742V55.1739V55.7217H87.5547ZM90.959 62.413C90.959 63.1565 90.3525 63.3522 90.0003 63.3522C89.6482 63.3522 89.0416 63.1565 89.0416 62.413V57.3848C89.3547 57.5022 89.6677 57.5609 90.0003 57.5609C90.3329 57.5609 90.6656 57.5022 90.959 57.3848V62.413ZM89.9808 56.8761C89.1395 56.8761 88.2199 56.3478 88.2199 55.1543V54H91.7416V55.1543C91.7416 56.3478 90.8416 56.8761 89.9808 56.8761ZM93.5221 56.7978C93.1112 56.7978 92.4264 56.563 92.4264 55.7217V55.1739V54.0196H94.6373V55.7217C94.6373 56.563 93.9329 56.7978 93.5221 56.7978ZM96.9264 55.937C96.9264 56.563 96.4177 56.7196 96.1242 56.7196C95.8308 56.7196 95.3221 56.563 95.3221 55.937V55.7413V54.0391H96.9264V55.937ZM96.9264 50.087H95.3221V46.0957L96.9264 47.8174V50.087ZM96.9264 41.987L95.3221 40.2652V34.65L96.9264 32.9283V41.987ZM96.9264 27.0978L95.3221 28.8196V24.9261H96.9264V27.0978Z" fill="black"/>
<path d="M89.9803 70.2785L89.8433 70.2394C79.2586 66.659 71.9803 61.1024 67.5781 53.2372C63.939 46.7416 62.2368 38.7003 62.2368 27.9394V0.411133H117.704V27.9394C117.704 38.7003 116.002 46.7416 112.363 53.2372C107.961 61.1024 100.682 66.659 90.0977 70.2394L89.9803 70.2785ZM63.039 1.19374V27.9198C63.039 38.5437 64.702 46.4481 68.2825 52.8264C72.5672 60.4764 79.6694 65.9155 89.9803 69.4177C100.291 65.8959 107.393 60.4764 111.678 52.8264C115.259 46.4481 116.922 38.5242 116.922 27.9198V1.19374H63.039Z" fill="black"/>
</g>
</g>
<defs>
<clipPath id="clip0_2742_71560">
<rect width="180" height="70.4348" fill="white"/>
</clipPath>
<clipPath id="clip1_2742_71560">
<rect width="56.7391" height="70.4348" fill="white" transform="translate(61.8262)"/>
</clipPath>
</defs>
</svg>
