<svg width="150" height="28" viewBox="0 0 150 28" fill="none" xmlns="http://www.w3.org/2000/svg">
<g clip-path="url(#clip0_1491_26095)">
<path d="M35.9535 12.1677C36.3813 11.3446 36.9695 10.7004 37.7004 10.253C38.4312 9.80569 39.2512 9.59097 40.1603 9.59097C40.8376 9.59097 41.4972 9.73412 42.121 10.0383C42.7449 10.3425 43.244 10.7362 43.6005 11.2372V6.20898H46.31V20.3811H43.6005V18.8064C43.2619 19.3253 42.7984 19.7548 42.2102 20.0769C41.6219 20.399 40.9267 20.56 40.1246 20.56C39.2333 20.56 38.4134 20.3274 37.6825 19.8801C36.9517 19.4148 36.3635 18.7706 35.9357 17.9296C35.5079 17.0886 35.2939 16.1402 35.2939 15.0487C35.2939 13.9571 35.5079 13.0266 35.9357 12.2035L35.9535 12.1677ZM43.244 13.3845C42.9945 12.9193 42.6558 12.5614 42.2102 12.3109C41.7645 12.0603 41.3189 11.9351 40.8198 11.9351C40.3207 11.9351 39.8751 12.0603 39.4472 12.293C39.0194 12.5435 38.6808 12.8835 38.4312 13.3487C38.1638 13.814 38.039 14.3687 38.039 15.0129C38.039 15.6571 38.1638 16.2118 38.4312 16.6949C38.6986 17.1781 39.0373 17.5359 39.4651 17.8043C39.8929 18.0549 40.3385 18.1801 40.8198 18.1801C41.3011 18.1801 41.7824 18.0549 42.2102 17.8043C42.638 17.5538 42.9767 17.1959 43.244 16.7307C43.5114 16.2655 43.6184 15.7107 43.6184 15.0487C43.6184 14.3866 43.4936 13.8319 43.244 13.3666V13.3845Z" fill="white"/>
<path d="M58.681 15.8537H50.9626C51.0339 16.6232 51.3013 17.2137 51.7648 17.661C52.2282 18.0905 52.8165 18.3052 53.4938 18.3052C54.492 18.3052 55.1872 17.8758 55.615 17.0169H58.5027C58.1997 18.0368 57.6115 18.8778 56.7558 19.5399C55.9002 20.202 54.8307 20.5241 53.5651 20.5241C52.5491 20.5241 51.64 20.2915 50.8378 19.8441C50.0357 19.3968 49.394 18.7526 48.9484 17.9116C48.5027 17.0884 48.271 16.1222 48.271 15.0485C48.271 13.9749 48.4849 12.9907 48.9305 12.1676C49.3762 11.3444 50.0001 10.7003 50.8022 10.2529C51.6043 9.80555 52.5312 9.59082 53.5651 9.59082C54.599 9.59082 55.4724 9.80555 56.2567 10.235C57.0589 10.6645 57.6649 11.2908 58.1106 12.0781C58.5562 12.8833 58.7701 13.7959 58.7701 14.8159C58.7701 15.1917 58.7523 15.5495 58.6988 15.8537H58.681ZM55.9894 14.0464C55.9894 13.3665 55.722 12.8118 55.2407 12.4002C54.7594 11.9886 54.1712 11.7739 53.476 11.7739C52.8165 11.7739 52.2639 11.9707 51.8004 12.3823C51.3369 12.7939 51.0696 13.3486 50.9804 14.0643H55.9894V14.0464Z" fill="white"/>
<path d="M65.5437 11.953H63.6899V20.3632H60.9804V11.953H59.7861V9.75201H60.9804V9.21519C60.9804 7.90892 61.3548 6.96053 62.0856 6.35213C62.8164 5.74373 63.9394 5.45743 65.4189 5.49322V7.74787C64.7772 7.74787 64.3138 7.83734 64.0642 8.06996C63.8147 8.30259 63.6899 8.71415 63.6899 9.32255V9.7699H65.5437V11.9709V11.953Z" fill="white"/>
<path d="M67.4508 8.03404C67.1477 7.72984 66.9873 7.35406 66.9873 6.90671C66.9873 6.45936 67.1477 6.08358 67.4508 5.77938C67.7538 5.47518 68.1459 5.33203 68.6272 5.33203C69.1085 5.33203 69.4828 5.47518 69.8037 5.77938C70.1067 6.08358 70.2672 6.45936 70.2672 6.90671C70.2672 7.35406 70.1067 7.72984 69.8037 8.03404C69.5007 8.33824 69.1085 8.48139 68.6272 8.48139C68.1459 8.48139 67.7716 8.33824 67.4508 8.03404ZM69.9463 9.75187V20.3631H67.2725V9.75187H69.9463Z" fill="white"/>
<path d="M78.8236 20.3456L75.2407 15.8363V20.3456H72.5669V6.19141H75.2407V14.2437L78.7879 9.75233H82.2639L77.6115 15.0669L82.2995 20.3456H78.8236Z" fill="white"/>
<path d="M83.6542 12.1676C84.082 11.3444 84.6524 10.7003 85.3832 10.2529C86.1141 9.80555 86.934 9.59082 87.8431 9.59082C88.6274 9.59082 89.3226 9.75187 89.9108 10.074C90.4991 10.3961 90.9804 10.7897 91.3369 11.2729V9.76976H94.0285V20.3809H91.3369V18.8242C90.9982 19.3252 90.5169 19.7368 89.9108 20.0589C89.3048 20.3809 88.6096 20.542 87.8253 20.542C86.934 20.542 86.1319 20.3094 85.401 19.862C84.6702 19.3968 84.0998 18.7526 83.672 17.9116C83.2442 17.0705 83.0303 16.1222 83.0303 15.0306C83.0303 13.9391 83.2442 13.0086 83.672 12.1855L83.6542 12.1676ZM90.9447 13.3844C90.6952 12.9191 90.3565 12.5612 89.9108 12.3107C89.483 12.0602 89.0196 11.9349 88.5205 11.9349C88.0214 11.9349 87.5579 12.0602 87.1479 12.2928C86.7201 12.5433 86.3814 12.8833 86.1319 13.3486C85.8645 13.8138 85.7397 14.3685 85.7397 15.0127C85.7397 15.6569 85.8645 16.2116 86.1319 16.6948C86.3993 17.1779 86.7379 17.5358 87.1657 17.8042C87.5936 18.0547 88.0392 18.18 88.5205 18.18C89.0017 18.18 89.483 18.0547 89.9108 17.8042C90.3387 17.5537 90.6952 17.1958 90.9447 16.7306C91.1943 16.2653 91.319 15.7106 91.319 15.0485C91.319 14.3864 91.1943 13.8317 90.9447 13.3665V13.3844Z" fill="white"/>
<path d="M100.641 10.074C101.194 9.75187 101.836 9.59082 102.531 9.59082V12.4002H101.818C100.98 12.4002 100.338 12.597 99.9283 12.9907C99.5005 13.3844 99.2866 14.0822 99.2866 15.0485V20.3273H96.6128V9.71608H99.2866V11.3623C99.6253 10.8076 100.071 10.3603 100.623 10.0382L100.641 10.074Z" fill="white"/>
<path d="M107.451 11.9528V17.0884C107.451 17.4463 107.54 17.6968 107.7 17.8579C107.878 18.0189 108.164 18.0905 108.574 18.0905H109.821V20.3451H108.146C105.9 20.3451 104.777 19.2536 104.777 17.0526V11.9349H103.511V9.73394H104.777V7.10352H107.468V9.73394H109.839V11.9349H107.468L107.451 11.9528Z" fill="white"/>
<path d="M121.48 15.8537H113.761C113.833 16.6232 114.1 17.2137 114.563 17.661C115.027 18.0905 115.615 18.3052 116.292 18.3052C117.291 18.3052 117.986 17.8758 118.414 17.0169H121.301C120.998 18.0368 120.41 18.8778 119.554 19.5399C118.681 20.202 117.629 20.5241 116.364 20.5241C115.348 20.5241 114.439 20.2915 113.619 19.8441C112.816 19.3968 112.175 18.7526 111.729 17.9116C111.283 17.0884 111.052 16.1222 111.052 15.0485C111.052 13.9749 111.266 12.9907 111.729 12.1676C112.175 11.3444 112.799 10.7003 113.601 10.2529C114.403 9.80555 115.33 9.59082 116.364 9.59082C117.398 9.59082 118.271 9.80555 119.055 10.235C119.857 10.6645 120.464 11.2908 120.909 12.0781C121.355 12.8833 121.569 13.7959 121.569 14.8159C121.569 15.1917 121.551 15.5495 121.497 15.8537H121.48ZM118.788 14.0464C118.788 13.3665 118.521 12.8118 118.039 12.4002C117.558 11.9886 116.97 11.7739 116.257 11.7739C115.597 11.7739 115.045 11.9707 114.581 12.3823C114.118 12.7939 113.85 13.3486 113.743 14.0643H118.752L118.788 14.0464Z" fill="white"/>
<path d="M123.494 20.0409C123.191 19.7367 123.03 19.3609 123.03 18.9135C123.03 18.4662 123.191 18.0904 123.494 17.7862C123.797 17.482 124.207 17.3389 124.688 17.3389C125.169 17.3389 125.544 17.482 125.847 17.7862C126.15 18.0904 126.31 18.4662 126.31 18.9135C126.31 19.3609 126.15 19.7367 125.847 20.0409C125.544 20.3451 125.151 20.4882 124.688 20.4882C124.225 20.4882 123.815 20.3451 123.494 20.0409Z" fill="white"/>
<path d="M128.431 12.1679C128.877 11.3448 129.483 10.7006 130.285 10.2532C131.069 9.80587 131.978 9.57324 132.994 9.57324C134.296 9.57324 135.383 9.89534 136.239 10.5574C137.094 11.2195 137.665 12.1321 137.968 13.331H135.08C134.919 12.8658 134.67 12.5079 134.313 12.2574C133.957 11.9889 133.511 11.8637 132.976 11.8637C132.21 11.8637 131.604 12.15 131.158 12.7047C130.713 13.2594 130.481 14.0468 130.481 15.0667C130.481 16.0867 130.695 16.8561 131.158 17.4108C131.604 17.9656 132.21 18.2519 132.976 18.2519C134.064 18.2519 134.759 17.7687 135.098 16.8024H137.985C137.7 17.9477 137.112 18.8603 136.256 19.5402C135.383 20.2202 134.313 20.5602 133.012 20.5602C131.996 20.5602 131.087 20.3276 130.303 19.8802C129.518 19.4329 128.894 18.7887 128.449 17.9656C128.003 17.1424 127.771 16.1762 127.771 15.0846C127.771 13.9931 127.985 13.0268 128.449 12.2037L128.431 12.1679Z" fill="white"/>
<path d="M148.021 10.1281C148.645 10.486 149.127 10.987 149.483 11.6849C149.84 12.3649 150 13.188 150 14.1364V20.3635H147.326V14.5122C147.326 13.6711 147.112 13.0269 146.702 12.5617C146.275 12.1143 145.704 11.8817 144.991 11.8817C144.278 11.8817 143.672 12.1143 143.244 12.5617C142.816 13.009 142.603 13.6532 142.603 14.5122V20.3635H139.929V6.19141H142.603V11.0765C142.941 10.6112 143.405 10.2534 143.975 10.0028C144.545 9.73443 145.187 9.60917 145.882 9.60917C146.685 9.60917 147.398 9.78811 148.021 10.1281Z" fill="white"/>
<path d="M16.9221 26.7987C16.9221 26.7987 16.8152 26.9956 16.8152 27.103C16.8152 27.3536 17.029 27.5684 17.2784 27.5684C17.3496 27.5684 17.4387 27.5505 17.5099 27.4968L17.599 27.4252L28.625 18.707C28.625 18.707 28.6784 18.6175 28.6784 18.5638C28.6784 18.4564 28.6072 18.3669 28.5003 18.3669H28.4647L28.3934 18.3848H24.1719L24.3322 18.2236C25.2762 17.3465 26.9506 15.6279 27.4494 15.1266H27.4672C30.4419 12.0833 31.0653 7.53622 28.9456 4.31387C27.5563 2.04033 25.3297 0.554476 22.64 0.124831C19.8968 -0.304815 16.9756 0.464967 14.838 2.16565L14.7846 2.20145L14.7312 2.16565C12.0237 0.142733 8.53239 -0.430128 5.64674 0.697691C2.72547 1.6823 0.58796 4.24227 0.10702 7.393C-0.445171 10.8481 1.42515 13.4259 3.08173 14.9655C3.36673 15.2161 10.3136 22.1263 10.5986 22.4306C10.7233 22.5559 10.9371 22.5559 11.0618 22.4306L13.3062 20.3003C13.3062 20.3003 13.413 20.1392 13.4309 20.0496C13.4309 19.9601 13.3952 19.8706 13.324 19.799L5.71799 12.1549C5.71799 12.1549 5.07674 11.4746 4.63142 10.5437C3.97236 8.95047 3.38454 6.05036 6.82237 4.34968L6.91144 4.31387C8.6927 3.75892 10.5452 4.06325 11.8812 5.15526C12.3265 5.5133 13.1102 6.26518 13.6802 6.82014C14.0187 7.14237 14.3571 7.48251 14.6243 7.73314C14.7312 7.84055 14.9271 7.84055 15.0518 7.73314C15.3724 7.44671 15.7999 7.05287 16.2452 6.64112L16.3343 6.55161C16.7796 6.13987 17.2249 5.71022 17.5456 5.4596C20.0215 3.38298 23.1744 4.13486 24.8665 5.88924C26.2203 7.28559 27.0397 9.80976 24.9022 12.2623C23.2278 13.8556 18.169 18.886 17.1715 19.8885C17.1003 19.9601 17.0824 20.0496 17.1181 20.1212C17.1537 20.2108 17.2428 20.2645 17.3318 20.2645H23.1565L23.014 20.4077L16.9934 26.7271V26.7808H16.9399L16.9221 26.7987Z" fill="#98C867"/>
</g>
<defs>
<clipPath id="clip0_1491_26095">
<rect width="150" height="27.551" fill="white"/>
</clipPath>
</defs>
</svg>
