<svg width="100" height="40" viewBox="0 0 100 40" fill="none" xmlns="http://www.w3.org/2000/svg">
<g clip-path="url(#clip0_1493_26344)">
<path d="M17.2671 19.5869L17.2566 15.1852L17.2496 10.7871H15.4346V16.1091V21.4312H24.44V19.6045L20.8553 19.5974L17.2671 19.5869Z" fill="black"/>
<path d="M27.9308 10.7871H26.1157V16.1091V21.4312H27.9308V10.7871Z" fill="black"/>
<path d="M30.4087 16.1091V21.4312H32.2237V16.9698H39.4141V15.108H32.2237V12.6489H39.4141V10.7871H30.4087V16.1091Z" fill="black"/>
<path d="M50.0601 19.6045H42.8697V16.9698H50.0601V15.108H42.8697V12.6489H50.0601V10.7871H41.0547V16.1091V21.4312H50.0601V19.6045Z" fill="black"/>
<path d="M57.3906 21.4312V12.6489H61.5094V10.7871H51.4917V11.718V12.6489H55.6105V21.4312H57.3906Z" fill="black"/>
<path d="M71.806 19.6045L68.2038 19.5974L64.5981 19.5869L64.5877 18.2766L64.5807 16.9698H71.806V15.108H64.5807V12.6489H71.806V10.7871H62.7656V16.1091V21.4312H71.806V19.6045Z" fill="black"/>
<path d="M77.181 21.2098C77.9629 21.4241 78.0118 21.4276 81.5546 21.4312H84.7554V19.6045H81.7815C80.1445 19.6045 78.6505 19.5869 78.4655 19.5693C77.5441 19.478 76.8145 19.1232 76.2316 18.4803C75.6767 17.8691 75.4009 17.0787 75.4009 16.0986C75.4009 15.6384 75.4428 15.3749 75.5789 14.9464C75.7849 14.2965 75.8931 14.1173 76.3782 13.6325C76.8599 13.1443 77.3975 12.8562 78.0711 12.7157C78.3643 12.656 78.5982 12.6489 81.5721 12.6489H84.7554V10.7871L81.5197 10.7906C78.5982 10.7976 78.2421 10.8047 77.8861 10.8609C77.4917 10.9241 76.839 11.0962 76.64 11.1911C76.5842 11.2192 76.4446 11.2789 76.3329 11.3281C76.2212 11.3773 76.0571 11.4651 75.9733 11.5248C75.8861 11.581 75.8058 11.6302 75.7953 11.6302C75.7325 11.6302 75.2613 12.0272 74.9751 12.3258C73.7325 13.615 73.3101 15.4417 73.7743 17.5319C73.8302 17.7848 74.0257 18.3398 74.078 18.389C74.0955 18.4101 74.1094 18.4417 74.1094 18.4663C74.1094 18.526 74.434 19.0846 74.626 19.3586C74.9541 19.8187 75.6557 20.4721 76.0815 20.711C76.1793 20.7637 76.3189 20.8445 76.3957 20.8867C76.5877 20.9991 76.9507 21.1466 77.181 21.2098Z" fill="black"/>
<path d="M36.0598 25.3836C36.0075 25.2782 35.9132 25.1658 35.8225 25.1025C35.6968 25.0147 35.634 24.9972 35.4211 24.9866C35.1279 24.9691 34.9429 25.0358 34.73 25.222C34.6601 25.2817 34.5973 25.3309 34.5834 25.3309C34.5729 25.3309 34.5624 24.9972 34.5624 24.5932V23.8555H34.3774C34.2727 23.8555 34.1785 23.866 34.168 23.8801C34.154 23.8906 34.1436 24.7232 34.1436 25.7243V27.544H34.5624V25.7946L34.7718 25.5979C35.0127 25.373 35.1977 25.3028 35.3792 25.366C35.4979 25.4047 35.648 25.5452 35.7003 25.6646C35.7178 25.7032 35.7387 26.1388 35.7492 26.6307L35.7666 27.5264L36.1715 27.5475L36.1611 26.5534C36.1506 25.5627 36.1506 25.5557 36.0598 25.3836Z" fill="black"/>
<path d="M58.8985 25.2251L58.7693 25.3305L58.7519 24.6033L58.7344 23.8726L58.5355 23.8621L58.333 23.8516V27.5471L58.5355 27.5366L58.7344 27.526L58.7449 26.6619L58.7519 25.7977L58.9578 25.601C59.2719 25.2989 59.5756 25.2637 59.7746 25.5061C59.9072 25.6642 59.9386 25.8961 59.9386 26.7567V27.5471L60.1411 27.5366L60.34 27.526L60.3505 26.6338C60.361 25.6256 60.3365 25.464 60.1376 25.2356C59.8409 24.8949 59.3034 24.8879 58.8985 25.2251Z" fill="black"/>
<path d="M74.1514 25.2251L74.0222 25.3305L74.0048 24.6033L73.9873 23.8726L73.7884 23.8621L73.5859 23.8516V27.5471L73.7884 27.5366L73.9873 27.526L73.9978 26.6654L74.0048 25.8047L74.1863 25.6221C74.5004 25.3024 74.8216 25.2567 75.0275 25.5061C75.1601 25.6642 75.1916 25.8961 75.1916 26.7567V27.5471L75.394 27.5366L75.593 27.526L75.6034 26.6338C75.6139 25.6256 75.5895 25.464 75.3905 25.2356C75.0938 24.8949 74.5563 24.8879 74.1514 25.2251Z" fill="black"/>
<path d="M20.5867 24.0865C20.5239 24.1497 20.5134 24.3535 20.5657 24.4553C20.5972 24.508 20.6425 24.5221 20.7856 24.5221C20.8869 24.5221 20.9881 24.5045 21.0125 24.4799C21.037 24.4553 21.0544 24.364 21.0544 24.2762C21.0544 24.1883 21.037 24.097 21.0125 24.0724C20.9497 24.0092 20.653 24.0197 20.5867 24.0865Z" fill="black"/>
<path d="M70.0467 24.0865C69.9838 24.1497 69.9734 24.3535 70.0257 24.4553C70.0571 24.508 70.1025 24.5221 70.2456 24.5221C70.3468 24.5221 70.4481 24.5045 70.4725 24.4799C70.4969 24.4553 70.5144 24.364 70.5144 24.2762C70.5144 24.1883 70.4969 24.097 70.4725 24.0724C70.4097 24.0092 70.113 24.0197 70.0467 24.0865Z" fill="black"/>
<path d="M19.7735 24.1086L19.5745 24.1191L19.1906 25.584C18.9812 26.392 18.8031 27.0489 18.7997 27.0418C18.7927 27.0383 18.6182 26.4025 18.4052 25.6297C18.1958 24.8568 18.0108 24.1964 18.0003 24.1613C17.9794 24.1156 17.934 24.1016 17.7735 24.1016C17.6548 24.1016 17.5605 24.1191 17.5396 24.1437C17.5187 24.1683 17.3441 24.8322 17.1452 25.6191C16.9462 26.406 16.7787 27.0489 16.7752 27.0418C16.7717 27.0383 16.6007 26.4095 16.3982 25.6472C16.1958 24.8849 16.0143 24.2245 15.9933 24.1788C15.9654 24.1121 15.934 24.1016 15.749 24.1016C15.564 24.1016 15.5396 24.1086 15.5396 24.1718C15.5396 24.2772 16.4436 27.4458 16.489 27.502C16.5169 27.5337 16.6076 27.5442 16.7926 27.5372L17.0579 27.5266L17.3895 26.2198C17.571 25.5032 17.7281 24.906 17.7386 24.899C17.749 24.8884 17.9131 25.4435 18.1016 26.132C18.29 26.8205 18.4576 27.4212 18.475 27.4634C18.503 27.5372 18.5274 27.5442 18.7648 27.5442C18.9288 27.5442 19.0335 27.5266 19.0545 27.4985C19.1173 27.4248 20.0178 24.2105 19.9934 24.1543C19.9794 24.1086 19.9306 24.1016 19.7735 24.1086Z" fill="black"/>
<path d="M47.1559 24.1011C46.936 24.1011 46.9046 24.1116 46.8173 24.1959C46.758 24.2627 46.5416 24.7299 46.189 25.587C45.8923 26.2966 45.648 26.8727 45.641 26.8692C45.6375 26.8622 45.4141 26.3037 45.1454 25.6292C44.5485 24.1292 44.5869 24.2135 44.4717 24.1503C44.36 24.0941 43.9656 24.087 43.8748 24.1397C43.8155 24.1713 43.812 24.2908 43.812 25.861V27.5472L44.0145 27.5367L44.2134 27.5261L44.2309 26.0156C44.2483 24.5823 44.2518 24.5121 44.3042 24.6456C44.3356 24.7229 44.6009 25.4079 44.8941 26.1631L45.4281 27.5437H45.6096C45.7143 27.5437 45.8086 27.5261 45.826 27.498C45.847 27.477 46.1297 26.792 46.4578 25.9805L47.0547 24.5051L47.0756 27.5261H47.4945L47.5049 25.8786C47.5154 23.9571 47.5433 24.1011 47.1559 24.1011Z" fill="black"/>
<path d="M22.9324 24.9862C22.7509 24.9792 22.6915 24.9898 22.5798 25.0565C22.51 25.1022 22.3983 25.2005 22.3355 25.2778L22.2238 25.4183L22.1889 25.0319H21.8398V27.5261L22.0423 27.5366L22.2412 27.5471V25.9382L22.332 25.8012C22.5659 25.4499 22.7474 25.3375 22.9777 25.4008C23.1767 25.457 23.2186 25.4324 23.2186 25.2532C23.2186 25.0319 23.1872 25.0038 22.9324 24.9862Z" fill="black"/>
<path d="M27.7352 24.9862C27.4455 24.9651 27.2675 25.0319 27.0196 25.2567L26.8346 25.4253L26.7404 25.2778C26.5624 24.9968 26.1191 24.8914 25.7805 25.0459C25.7002 25.0846 25.5711 25.1689 25.4943 25.2391C25.421 25.3094 25.3477 25.3656 25.3337 25.3656C25.3233 25.3656 25.3128 25.2848 25.3128 25.1864V25.0108L25.1313 25.0213L24.9463 25.0319V27.526H25.3651L25.3826 26.6338L25.4001 25.745L25.585 25.5729C25.8259 25.348 25.9899 25.2989 26.1714 25.3867C26.4577 25.5307 26.4996 25.7134 26.4996 26.7989V27.5471L26.702 27.5366L26.901 27.526L26.9114 26.6583L26.9184 25.7942L27.1104 25.5975C27.3931 25.3094 27.6514 25.2672 27.8608 25.4745C28.0074 25.622 28.0354 25.8293 28.0354 26.7391V27.5471L28.2378 27.5366L28.4368 27.526V25.5553L28.346 25.3832C28.2169 25.1302 28.0249 25.0038 27.7352 24.9862Z" fill="black"/>
<path d="M30.5309 25.0178C30.2901 24.9511 29.8608 24.9721 29.599 25.06C29.2988 25.1653 29.222 25.2321 29.222 25.4042C29.222 25.478 29.2394 25.5482 29.2569 25.5588C29.2778 25.5693 29.3965 25.5272 29.5257 25.4639C29.7176 25.3691 29.8119 25.3445 30.0248 25.3375C30.2552 25.3269 30.3006 25.334 30.4088 25.4077C30.5484 25.5026 30.6147 25.6571 30.6147 25.896L30.6182 26.0576L30.2273 26.0787C29.5606 26.1103 29.2045 26.3105 29.1243 26.6899C29.0126 27.2063 29.3407 27.5787 29.8991 27.5787C30.1679 27.5787 30.3494 27.5155 30.5658 27.3468L30.688 27.2555V27.5436H31.037V26.5846C31.037 25.9944 31.0231 25.5764 30.9986 25.4885C30.9463 25.3059 30.7124 25.0705 30.5309 25.0178ZM30.6182 26.6443V26.9042L30.4576 27.0483C30.2203 27.259 30.0248 27.3047 29.784 27.2063C29.4733 27.0834 29.4593 26.6443 29.763 26.4792C29.8817 26.4159 30.0318 26.3913 30.332 26.3878L30.6182 26.3843V26.6443Z" fill="black"/>
<path d="M32.6814 25.348C32.8804 25.3199 33.0723 25.3691 33.2818 25.5096C33.4877 25.6466 33.5505 25.6255 33.5505 25.4323C33.5505 25.2566 33.4249 25.1196 33.1771 25.0353C33.0095 24.9756 32.6221 24.9651 32.4685 25.0107C32.1543 25.1091 31.9589 25.2883 31.8088 25.6114C31.7355 25.773 31.718 25.8714 31.7076 26.2157C31.6901 26.718 31.7634 27.0201 31.9659 27.2555C32.1753 27.5049 32.3184 27.5611 32.7477 27.5611C33.0654 27.5611 33.1352 27.5506 33.2713 27.4768C33.5191 27.3468 33.5505 27.3082 33.5505 27.1185C33.5505 27.0271 33.5366 26.9428 33.5191 26.9288C33.4982 26.9182 33.39 26.9709 33.2748 27.0447C33.1596 27.122 33.0025 27.1922 32.9222 27.2063C32.5941 27.259 32.2975 27.0728 32.2067 26.7566C32.1439 26.5494 32.1369 26.0576 32.1962 25.8328C32.2521 25.5974 32.472 25.3796 32.6814 25.348Z" fill="black"/>
<path d="M38.3849 25.0387C38.1755 24.965 37.7427 24.965 37.5402 25.0387C37.3168 25.116 37.069 25.3619 36.9503 25.6184C36.8561 25.8256 36.8491 25.8678 36.8491 26.2963C36.8491 26.7249 36.8561 26.7671 36.9503 26.9743C37.1458 27.3994 37.4634 27.5785 38.0149 27.5785C38.5141 27.575 38.8701 27.4661 38.9015 27.3045C38.926 27.1675 38.8701 27.0376 38.7933 27.0692C38.4338 27.2237 37.987 27.2729 37.7357 27.1886C37.4774 27.1008 37.2854 26.7952 37.2854 26.465V26.349L38.1336 26.342L38.9783 26.3315L38.9888 26.0645C39.0062 25.5762 38.7689 25.1687 38.3849 25.0387ZM38.5769 26.0329H37.2784L37.3029 25.9029C37.3552 25.6184 37.5018 25.4287 37.7287 25.3443C37.8928 25.2881 37.9626 25.2846 38.1406 25.3338C38.3849 25.4041 38.5769 25.6746 38.5769 25.9521V26.0329Z" fill="black"/>
<path d="M41.2471 25.0462C41.0551 24.9583 40.734 24.9618 40.5351 25.0532C40.4478 25.0918 40.3117 25.1761 40.2314 25.2464L40.0813 25.3658L40.0708 25.2007L40.0603 25.0321L39.8788 25.0216L39.6938 25.011V27.5473L39.8963 27.5368L40.0953 27.5263L40.1057 26.6621L40.1127 25.7979L40.3152 25.6012C40.6328 25.2991 40.9365 25.264 41.1354 25.5063C41.2681 25.6644 41.2995 25.8963 41.2995 26.7569V27.5473L41.5019 27.5368L41.7009 27.5263L41.7113 26.634C41.7218 25.6258 41.6974 25.4642 41.4984 25.2358C41.4391 25.1656 41.3239 25.0813 41.2471 25.0462Z" fill="black"/>
<path d="M49.8715 25.077C49.6865 24.9786 49.17 24.9505 48.9675 25.0278C48.4684 25.214 48.2345 25.611 48.231 26.2784C48.2275 26.9072 48.3881 27.2515 48.786 27.4552C48.9605 27.5466 49.0373 27.5606 49.3166 27.5711C49.6935 27.5887 50.1333 27.5044 50.238 27.399C50.3078 27.3288 50.3323 27.1074 50.2729 27.0688C50.2555 27.0583 50.1229 27.0899 49.9763 27.1391C49.5295 27.2901 49.0548 27.2445 48.8663 27.0302C48.772 26.9248 48.7057 26.7316 48.6918 26.5419L48.6813 26.3662L49.5085 26.3557C50.4719 26.3452 50.4335 26.3627 50.3951 25.9798C50.3497 25.5407 50.1717 25.2316 49.8715 25.077ZM49.9553 26.0325H48.6673L48.6883 25.9166C48.7371 25.6426 48.9047 25.4318 49.1385 25.3475C49.2991 25.2878 49.3375 25.2878 49.5155 25.3264C49.7633 25.3861 49.9553 25.6496 49.9553 25.9341V26.0325Z" fill="black"/>
<path d="M52.989 25.3832C52.9367 25.2778 52.8424 25.1654 52.7517 25.1022C52.6225 25.0108 52.5667 24.9968 52.3363 24.9862C52.1094 24.9792 52.0396 24.9897 51.893 25.06C51.7988 25.1092 51.6731 25.197 51.6173 25.2567C51.5579 25.3164 51.5021 25.3656 51.4881 25.3656C51.4742 25.3656 51.4567 25.2919 51.4497 25.197L51.4393 25.0319H51.0902L51.0797 26.286L51.0728 27.5436H51.4916V25.7942L51.701 25.5975C51.9419 25.3726 52.1269 25.3024 52.3084 25.3656C52.4271 25.4043 52.5771 25.5448 52.6295 25.6642C52.6435 25.7029 52.6679 26.1385 52.6784 26.6303L52.6958 27.526L53.1007 27.5471L53.0903 26.553C53.0798 25.5623 53.0798 25.5553 52.989 25.3832Z" fill="black"/>
<path d="M54.727 26.1075C54.3744 25.967 54.2837 25.9037 54.2243 25.7597C54.1824 25.6543 54.1824 25.6297 54.2383 25.5138C54.3465 25.2855 54.6955 25.2363 55.0167 25.4014C55.1877 25.4892 55.247 25.4892 55.2715 25.4014C55.3029 25.2749 55.2435 25.1414 55.1214 25.0712C55.0306 25.0185 54.9224 24.9974 54.6851 24.9869C54.4093 24.9763 54.35 24.9869 54.1964 25.0606C53.8997 25.2047 53.795 25.3698 53.795 25.6894C53.795 26.0442 53.9451 26.2093 54.4896 26.4342C54.8701 26.5922 54.9992 26.7187 54.9678 26.9049C54.9329 27.1367 54.7793 27.2351 54.4442 27.2316C54.2837 27.2316 54.1859 27.207 54.0149 27.1227C53.8962 27.063 53.781 27.0243 53.7601 27.0349C53.6973 27.0735 53.7217 27.33 53.795 27.4037C53.98 27.5899 54.7025 27.6391 54.9992 27.4845C55.3587 27.2948 55.4984 26.8944 55.3308 26.5396C55.2435 26.3604 55.0865 26.248 54.727 26.1075Z" fill="black"/>
<path d="M57.4844 27.0231C57.0202 27.3358 56.6292 27.2725 56.4268 26.851C56.336 26.6648 56.3256 26.6121 56.3256 26.2784C56.3256 25.9447 56.336 25.892 56.4268 25.7058C56.6257 25.2948 57.0376 25.2175 57.453 25.5055C57.6415 25.639 57.6938 25.639 57.7217 25.502C57.7601 25.3334 57.6868 25.2105 57.4844 25.098C57.2401 24.9646 56.8003 24.94 56.5385 25.0489C56.179 25.1929 55.9521 25.5301 55.8858 26.0219C55.8299 26.4048 55.8788 26.7702 56.0254 27.0688C56.2034 27.4271 56.4652 27.5781 56.9224 27.5781C57.2121 27.5781 57.5018 27.4868 57.6484 27.3498C57.7148 27.2866 57.7392 27.2304 57.7392 27.132C57.7392 26.8966 57.7008 26.8791 57.4844 27.0231Z" fill="black"/>
<path d="M62.6086 25.0633C62.3783 24.9544 61.9629 24.9474 61.6941 25.0528C61.3311 25.1933 61.0728 25.5692 61.0239 26.0293C60.9506 26.7495 61.1636 27.2834 61.6138 27.4872C61.8337 27.5856 62.3887 27.6066 62.6959 27.5293C63.017 27.445 63.0798 27.3959 63.0798 27.2272C63.0798 27.1535 63.0659 27.0832 63.0519 27.0727C63.0345 27.0621 62.9053 27.0938 62.7657 27.1429C62.5493 27.2202 62.462 27.2308 62.2072 27.2202C61.9489 27.2132 61.8826 27.1956 61.7639 27.1148C61.5929 27.0024 61.5021 26.8162 61.4812 26.5493L61.4672 26.349H62.2875C62.9751 26.349 63.1147 26.342 63.1497 26.2963C63.1811 26.2612 63.188 26.1628 63.1776 25.9872C63.1497 25.5446 62.9542 25.2284 62.6086 25.0633ZM61.4742 26.0329V25.9345C61.4777 25.8045 61.5859 25.5762 61.6941 25.4778C61.8966 25.2881 62.2351 25.2565 62.476 25.4041C62.6121 25.4884 62.7099 25.6675 62.7448 25.8818L62.7657 26.0329H61.4742Z" fill="black"/>
<path d="M65.4359 25.0463C65.2475 24.9585 64.8914 24.9585 64.6995 25.0463C64.6192 25.085 64.49 25.1693 64.4132 25.2395C64.3399 25.3098 64.2666 25.366 64.2527 25.366C64.2422 25.366 64.2317 25.2852 64.2317 25.1869V25.0112L64.0502 25.0217L63.8652 25.0323V27.5264H64.2841L64.319 25.7559L64.4412 25.6295C64.6157 25.4468 64.8949 25.3168 65.0415 25.3484C65.1986 25.3836 65.3068 25.4609 65.3766 25.5908C65.4255 25.6822 65.4394 25.8438 65.4534 26.6131L65.4709 27.5264H65.8897V26.578C65.8897 25.6611 65.8862 25.6224 65.8094 25.4538C65.7082 25.2325 65.6105 25.1271 65.4359 25.0463Z" fill="black"/>
<path d="M68.7309 26.1033C68.347 25.9346 68.2108 25.8222 68.2108 25.6606C68.2108 25.3304 68.6018 25.211 69.052 25.4042C69.1428 25.4463 69.237 25.4674 69.2545 25.4534C69.2964 25.4288 69.3034 25.2285 69.265 25.1688C69.1986 25.067 68.9857 25.0002 68.6821 24.9862C68.3958 24.9756 68.3505 24.9826 68.1829 25.0705C67.9665 25.1794 67.8304 25.362 67.8025 25.5728C67.7501 25.9522 67.9386 26.2086 68.4098 26.3913C68.902 26.5845 69.0486 26.7602 68.9438 27.0307C68.8496 27.2836 68.319 27.3011 67.9037 27.0658C67.8059 27.0061 67.785 27.0061 67.7536 27.0517C67.7012 27.129 67.7396 27.3644 67.8164 27.4241C67.9316 27.5119 68.2178 27.5787 68.4936 27.5787C69.08 27.5787 69.3976 27.3152 69.3976 26.8269C69.3976 26.4721 69.2719 26.3351 68.7309 26.1033Z" fill="black"/>
<path d="M72.7378 27.0231C72.2736 27.3358 71.8687 27.269 71.6732 26.8475C71.5929 26.6718 71.579 26.6016 71.579 26.2784C71.579 25.9552 71.5894 25.892 71.6802 25.7058C71.8792 25.2948 72.291 25.2175 72.7064 25.5055C72.8949 25.639 72.9472 25.639 72.9752 25.502C73.0136 25.3334 72.9403 25.2105 72.7378 25.098C72.4935 24.9646 72.0537 24.94 71.7919 25.0489C71.4324 25.1929 71.2055 25.5301 71.1392 26.0219C71.0833 26.4048 71.1322 26.7702 71.2788 27.0688C71.4568 27.4271 71.7186 27.5781 72.1758 27.5781C72.4655 27.5781 72.7553 27.4868 72.9019 27.3498C72.9682 27.2866 72.9926 27.2304 72.9926 27.132C72.9926 26.8966 72.9542 26.8791 72.7378 27.0231Z" fill="black"/>
<path d="M77.8621 25.0636C77.7225 24.9969 77.6317 24.9793 77.4083 24.9828C77.2548 24.9828 77.0907 24.9969 77.0418 25.0109C76.4834 25.1831 76.1937 25.7697 76.2774 26.5531C76.3263 27.0063 76.5357 27.3365 76.8673 27.4875C77.0872 27.5859 77.6422 27.607 77.9494 27.5297C78.2705 27.4454 78.3333 27.3962 78.3333 27.2276C78.3333 27.1538 78.3194 27.0836 78.3054 27.073C78.2879 27.0625 78.1588 27.0941 78.0192 27.1433C77.8028 27.2206 77.7155 27.2311 77.4607 27.2206C77.2024 27.2135 77.1361 27.196 77.0174 27.1152C76.8464 27.0028 76.7556 26.8166 76.7347 26.5496L76.7207 26.3494H77.541C78.2286 26.3494 78.3682 26.3423 78.4031 26.2967C78.4345 26.2615 78.4415 26.1632 78.4311 25.9875C78.4031 25.5449 78.2077 25.2287 77.8621 25.0636ZM76.7277 26.0332V25.9348C76.7312 25.8049 76.8394 25.5765 76.9476 25.4782C77.15 25.2885 77.4886 25.2569 77.7295 25.4044C77.8656 25.4887 77.9633 25.6679 77.9982 25.8821L78.0192 26.0332H76.7277Z" fill="black"/>
<path d="M80.4101 25.0142C80.2635 24.958 80.0017 24.972 79.8866 25.0423C79.8307 25.0809 79.7225 25.1758 79.6527 25.2531C79.5794 25.3338 79.5131 25.4006 79.5026 25.4006C79.4921 25.4006 79.4852 25.3128 79.4852 25.2039V25.0107L79.3036 25.0212L79.1187 25.0317V27.5259H79.5375L79.548 26.7004L79.555 25.8748L79.6876 25.7027C79.8691 25.4603 79.9843 25.383 80.1414 25.3936C80.2112 25.3971 80.3194 25.4076 80.3752 25.4111C80.4765 25.4182 80.4799 25.4146 80.4904 25.232C80.5009 25.0634 80.4939 25.0458 80.4101 25.0142Z" fill="black"/>
<path d="M82.3993 25.0668C82.1899 24.9649 81.6907 24.9544 81.4499 25.0527C81.1811 25.1581 80.9368 25.4391 80.8425 25.7553C80.7413 26.0925 80.7588 26.6968 80.8774 26.9708C80.9857 27.2202 81.2405 27.452 81.4778 27.5223C81.8303 27.6277 82.525 27.5715 82.7588 27.4169C82.8147 27.3783 82.8356 27.3326 82.8356 27.2272C82.8356 27.1534 82.8216 27.0832 82.8077 27.0726C82.7902 27.0621 82.6681 27.0937 82.5354 27.1394C82.2143 27.2553 81.8094 27.2588 81.5895 27.1534C81.3905 27.0551 81.2649 26.8443 81.2405 26.5597L81.2195 26.349H82.0398C82.6297 26.349 82.867 26.3384 82.8984 26.3068C82.9613 26.2436 82.9473 25.8888 82.8705 25.6359C82.7902 25.3794 82.6262 25.1792 82.3993 25.0668ZM81.8792 26.0328C81.1567 26.0328 81.1916 26.0469 81.2649 25.7834C81.3347 25.527 81.6314 25.2986 81.8932 25.2986C81.942 25.2986 82.0398 25.3197 82.1131 25.3443C82.3434 25.4286 82.4551 25.5797 82.504 25.8818L82.5284 26.0328H81.8792Z" fill="black"/>
<path d="M84.9091 25.0142C84.766 24.958 84.5042 24.972 84.389 25.0423C84.3332 25.0809 84.2249 25.1758 84.1551 25.2531C84.0818 25.3338 84.0155 25.4006 84.005 25.4006C83.9946 25.4006 83.9876 25.3128 83.9876 25.2039V25.0107L83.8061 25.0212L83.6211 25.0317V27.5259H84.04L84.0504 26.7004L84.0574 25.8748L84.218 25.6676C84.4099 25.4217 84.56 25.3479 84.7485 25.4006C84.9859 25.4673 84.9998 25.4568 84.9998 25.2425C84.9998 25.0669 84.9929 25.0458 84.9091 25.0142Z" fill="black"/>
<path d="M20.6006 25.0107V26.2789V27.547L20.803 27.5365L21.002 27.526V25.0318L20.803 25.0213L20.6006 25.0107Z" fill="black"/>
<path d="M70.043 25.0917C70.0326 25.1374 70.0291 25.703 70.0326 26.3493L70.043 27.5262H70.4619V25.032L70.2629 25.0215C70.0779 25.0109 70.0605 25.018 70.043 25.0917Z" fill="black"/>
</g>
<defs>
<clipPath id="clip0_1493_26344">
<rect width="69.5652" height="16.7916" fill="white" transform="translate(15.4346 10.7871)"/>
</clipPath>
</defs>
</svg>
