<svg width="180" height="71" viewBox="0 0 180 71" fill="none" xmlns="http://www.w3.org/2000/svg">
<rect width="180" height="70.4348" fill="white"/>
<g clip-path="url(#clip0_2742_60623)">
<path fill-rule="evenodd" clip-rule="evenodd" d="M6.22844 53.7352C3.73976 53.7352 1.70996 51.7207 1.70996 49.2456V20.9061C1.70996 18.431 3.73563 16.4124 6.22844 16.4124H23.3226C25.8113 16.4124 27.8369 18.4269 27.8369 20.9061V49.2415C27.8369 51.7166 25.8113 53.7311 23.3226 53.7311H6.22844V53.7352Z" fill="white"/>
<path d="M23.3227 16.5602C25.7329 16.5602 27.6924 18.509 27.6924 20.91V49.2455C27.6924 51.6424 25.7329 53.5912 23.3227 53.5912H6.2286C3.81847 53.5912 1.85894 51.6424 1.85894 49.2455V20.9059C1.85894 18.509 3.81847 16.5602 6.2286 16.5602H23.3227ZM23.3227 16.2683H6.2286C3.66551 16.2683 1.56543 18.3487 1.56543 20.9059V49.2414C1.56543 51.8028 3.66551 53.879 6.2286 53.879H23.3227C25.8858 53.879 27.9859 51.8028 27.9859 49.2414V20.9059C27.9859 18.3445 25.89 16.2683 23.3227 16.2683Z" fill="#164194"/>
<path fill-rule="evenodd" clip-rule="evenodd" d="M26.4355 41.0023C26.4355 36.7018 26.4355 20.9101 26.4355 20.9101C26.4355 20.9101 26.3445 19.5492 25.497 18.694C24.8025 17.9992 23.3308 17.8142 23.3308 17.8142H6.22841C6.22841 17.8142 4.75256 17.9951 4.06218 18.694C3.21058 19.5492 3.11963 20.9101 3.11963 20.9101C3.11963 20.9101 3.11963 36.8087 3.11963 41.0023H26.4355Z" fill="#E30613"/>
<path fill-rule="evenodd" clip-rule="evenodd" d="M7.2412 27.6773V24.5445H4.15723V21.8474H7.2412V18.842H10.197V21.8474H13.2851V24.5445H10.197V27.6773H7.2412Z" fill="white"/>
<path d="M18.4777 34.8313H16.3528C16.142 34.8313 15.9684 34.6586 15.9684 34.4407L15.7575 26.3537L17.0721 27.0197L15.1788 24.2651L13.2812 27.0197L14.6 26.3537L14.3892 34.4407C14.3892 35.5261 15.2656 36.4019 16.3487 36.4019H18.4446V40.6941H20.0817V36.4019H22.1776C23.2649 36.4019 24.1413 35.5261 24.1413 34.4407L23.9305 26.3537L25.2492 27.0197L23.3517 24.2651L21.4542 27.0197L22.7729 26.3537L22.5621 34.4407C22.5621 34.6586 22.3926 34.8313 22.1776 34.8313H20.0486L19.8378 26.3537L21.1565 27.0197L19.259 24.2651L17.3657 27.0197L18.6803 26.3537L18.4736 34.8313H18.4777Z" fill="white"/>
<path d="M3.36357 50.5246C3.36357 50.5246 3.38456 50.5163 3.39295 50.5121C3.39295 50.5079 3.38875 50.5037 3.38456 50.4995C3.36777 50.5163 3.35938 50.5246 3.35938 50.5246H3.36357Z" fill="#164194"/>
<path d="M26.4313 39.2387C24.509 39.5923 23.0332 40.3529 22.0699 40.505C20.9041 40.69 17.969 39.0742 14.7775 39.0989C12.2393 39.1195 10.4368 39.8718 8.79976 40.3282C7.60503 40.6612 5.62897 39.5635 3.11963 39.251C3.11963 39.251 3.11963 49.2252 3.11963 49.2499C3.11963 50.9561 4.51279 52.3416 6.22841 52.3416H23.3225C25.0382 52.3416 26.4313 50.9561 26.4313 49.2499C26.4313 49.2416 26.4313 39.2428 26.4313 39.2428V39.2387Z" fill="#164194"/>
<path d="M7.19589 48.2755C7.04293 48.1645 6.82383 48.074 6.6502 48.074C6.43937 48.074 6.28227 48.2097 6.28227 48.5016C6.28227 49.2129 7.36952 48.884 7.36952 50.2736C7.36952 51.0137 6.95198 51.4618 6.40216 51.4618C6.06731 51.4618 5.77793 51.3508 5.65804 51.2973L5.69525 50.5326C5.88954 50.6395 6.05904 50.7752 6.30295 50.7752C6.50965 50.7752 6.70394 50.6313 6.70394 50.3106C6.70394 49.5541 5.6167 49.9241 5.6167 48.5263C5.6167 48.4071 5.64977 47.4121 6.57579 47.4121C6.82796 47.4121 6.98506 47.4738 7.22483 47.5478L7.19589 48.2755Z" fill="white"/>
<path d="M7.89062 47.4778H8.53967V50.1214C8.53967 50.5161 8.64301 50.7545 8.90346 50.7545C9.1639 50.7545 9.26725 50.512 9.26725 50.1214V47.4778H9.91629V49.9734C9.91629 50.9437 9.52356 51.4617 8.90346 51.4617C8.28336 51.4617 7.89062 50.9437 7.89062 49.9734V47.4778Z" fill="white"/>
<path d="M11.9379 48.2755C11.7849 48.1645 11.5658 48.074 11.3922 48.074C11.1813 48.074 11.0242 48.2097 11.0242 48.5016C11.0242 49.2129 12.1115 48.884 12.1115 50.2736C12.1115 51.0137 11.6939 51.4618 11.1441 51.4618C10.8093 51.4618 10.5199 51.3508 10.4 51.2973L10.4372 50.5326C10.6315 50.6395 10.801 50.7752 11.0449 50.7752C11.2516 50.7752 11.45 50.6313 11.45 50.3106C11.45 49.5541 10.3628 49.9241 10.3628 48.5263C10.3628 48.4071 10.3959 47.4121 11.3219 47.4121C11.5741 47.4121 11.7353 47.4738 11.9709 47.5478L11.942 48.2755H11.9379Z" fill="white"/>
<path d="M12.4292 47.4778H13.1237L13.6115 50.3352H13.6198L14.12 47.4778H14.7856L13.9505 51.3959H13.2519L12.4292 47.4778Z" fill="white"/>
<path d="M16.3442 47.4777H17.878V48.1643H16.9726V49.0729H17.8449V49.7554H16.9726V51.3918H16.3484V47.4736L16.3442 47.4777Z" fill="white"/>
<path d="M19.7755 48.2755C19.6225 48.1645 19.4034 48.074 19.2298 48.074C19.019 48.074 18.8619 48.2097 18.8619 48.5016C18.8619 49.2129 19.9491 48.884 19.9491 50.2736C19.9491 51.0137 19.5357 51.4618 18.9818 51.4618C18.6428 51.4618 18.3575 51.3508 18.2376 51.2973L18.2748 50.5326C18.4691 50.6395 18.6386 50.7752 18.8825 50.7752C19.0892 50.7752 19.2835 50.6313 19.2835 50.3106C19.2835 49.5541 18.1963 49.9241 18.1963 48.5263C18.1963 48.4071 18.2294 47.4121 19.1554 47.4121C19.4076 47.4121 19.5646 47.4738 19.8044 47.5478L19.7755 48.2755Z" fill="white"/>
<path d="M21.8424 48.2755C21.6894 48.1645 21.4703 48.074 21.2967 48.074C21.0859 48.074 20.9288 48.2097 20.9288 48.5016C20.9288 49.2129 22.016 48.884 22.016 50.2736C22.016 51.0137 21.5985 51.4618 21.0486 51.4618C20.7138 51.4618 20.4244 51.3508 20.3045 51.2973L20.3417 50.5326C20.536 50.6395 20.7055 50.7752 20.9453 50.7752C21.152 50.7752 21.3504 50.6313 21.3504 50.3106C21.3504 49.5541 20.2632 49.9241 20.2632 48.5263C20.2632 48.4071 20.2963 47.4121 21.2223 47.4121C21.4744 47.4121 21.6357 47.4738 21.8713 47.5478L21.8424 48.2755Z" fill="white"/>
<path d="M23.9098 48.2755C23.7568 48.1645 23.5377 48.074 23.3641 48.074C23.1532 48.074 22.9961 48.2097 22.9961 48.5016C22.9961 49.2129 24.0834 48.884 24.0834 50.2736C24.0834 51.0137 23.6659 51.4618 23.116 51.4618C22.7812 51.4618 22.4918 51.3508 22.3719 51.2973L22.4091 50.5326C22.6034 50.6395 22.7729 50.7752 23.0127 50.7752C23.2194 50.7752 23.4178 50.6313 23.4178 50.3106C23.4178 49.5541 22.3306 49.9241 22.3306 48.5263C22.3306 48.4071 22.3636 47.4121 23.2897 47.4121C23.5418 47.4121 23.7031 47.4738 23.9387 47.5478L23.9098 48.2755Z" fill="white"/>
<path d="M15.8155 49.3647C15.8155 49.5662 15.6501 49.7265 15.4517 49.7265C15.2533 49.7265 15.0879 49.5662 15.0879 49.3647C15.0879 49.1633 15.2491 49.0029 15.4517 49.0029C15.6543 49.0029 15.8155 49.1633 15.8155 49.3647Z" fill="white"/>
<path d="M26.4313 42.9428C24.6868 42.3096 23.8558 42.2726 22.0079 42.988C19.6681 43.8966 18.3121 44.7271 14.3724 43.3909C12.5369 42.7701 10.7097 42.2726 7.54302 43.1154C6.79063 43.3128 6.21187 43.5718 5.19904 43.802C4.77737 43.8966 3.99604 43.876 3.11963 43.7527C3.11963 43.4567 3.11963 42.0547 3.11963 42.0547C4.53346 42.4453 5.67445 42.8564 6.46818 42.6385C8.10111 42.1822 9.90768 41.4339 12.446 41.4133C15.6374 41.3887 18.5726 43.0044 19.7384 42.8194C20.9703 42.6262 23.0332 41.438 25.8071 41.3763C26.0221 41.3722 26.2288 41.3763 26.4313 41.3763C26.4313 41.3763 26.4313 42.7454 26.4313 42.9428Z" fill="white"/>
<path d="M26.4316 46.1703C26.1091 46.0798 25.7867 45.9688 25.456 45.8372C23.0996 44.9122 22.3141 44.7436 20.1975 45.5659C17.8618 46.4745 16.5058 47.305 12.562 45.9688C10.7306 45.348 8.89924 44.8505 5.73258 45.6933C4.98019 45.8948 4.40143 46.1497 3.3886 46.3799C3.31419 46.3964 3.21911 46.4087 3.12402 46.4169V45.1301C3.72346 45.2699 4.24021 45.3274 4.65774 45.2123C6.29068 44.756 8.09724 44.0077 10.6355 43.983C13.827 43.9584 16.7621 45.5741 17.9279 45.3891C19.1599 45.1959 21.2227 44.0077 23.9966 43.946C24.8937 43.9255 25.6957 44.0159 26.4357 44.1598C26.4357 44.2831 26.4357 45.9441 26.4357 46.1662L26.4316 46.1703Z" fill="white"/>
<path d="M3.11963 38.9918C5.62897 39.3042 7.60503 40.3978 8.79976 40.0689C10.4327 39.6126 12.2393 38.8643 14.7775 38.8396C17.9731 38.815 20.9041 40.4348 22.0699 40.2457C23.0332 40.0936 24.509 39.333 26.4313 38.9794V39.8921C25.8236 39.9168 25.187 40.0895 24.3395 40.4184C21.9997 41.327 20.6437 42.1575 16.704 40.8213C14.8685 40.2005 13.0413 39.703 9.8746 40.5458C9.12221 40.7473 8.54345 41.0022 7.53062 41.2324C6.74102 41.4092 4.71122 41.1872 3.11963 40.6281V38.9918Z" fill="white"/>
<path d="M36.7082 21.9214V22.0612C36.7082 22.5052 36.8405 22.7889 37.3738 22.7889C37.6797 22.7889 37.9732 22.6039 37.9732 22.2051C37.9732 21.7734 37.7417 21.6171 37.0802 21.3992C36.1873 21.1073 35.7739 20.7579 35.7739 19.9685C35.7739 19.0476 36.3692 18.5789 37.32 18.5789C38.213 18.5789 38.862 18.9407 38.862 19.8493V19.9808H37.8988C37.8988 19.5368 37.7375 19.2778 37.3531 19.2778C36.8983 19.2778 36.7785 19.5491 36.7785 19.8246C36.7785 20.1165 36.8694 20.2933 37.2952 20.466L38.0724 20.7825C38.8248 21.095 39.0232 21.4568 39.0232 22.0324C39.0232 23.0315 38.3824 23.4796 37.2911 23.4796C36.1997 23.4796 35.7036 22.978 35.7036 22.1023V21.9091H36.7082V21.9214Z" fill="#164194"/>
<path d="M41.4459 21.1236C41.4459 20.7783 41.3756 20.4083 41.0118 20.4083C40.5364 20.4083 40.4579 20.8071 40.4579 21.6252C40.4579 22.5051 40.5405 22.871 40.9746 22.871C41.2971 22.871 41.4417 22.612 41.4417 22.0364H42.3636C42.3636 22.9696 41.9502 23.4918 40.9333 23.4918C39.97 23.4918 39.4946 23.0478 39.4946 21.6211C39.4946 20.1945 40.1313 19.7463 41.0159 19.7463C41.9006 19.7463 42.3636 20.2808 42.3636 21.1236H41.4417H41.4459Z" fill="#164194"/>
<path d="M43.0044 18.6733H43.9676V20.2028H43.98C44.1619 19.8985 44.4885 19.7464 44.8936 19.7464C45.4931 19.7464 45.8527 20.0589 45.8527 20.7578V23.3973H44.8895V20.9428C44.8895 20.5851 44.7655 20.4453 44.4761 20.4453C44.1495 20.4453 43.9676 20.6386 43.9676 21.0333V23.3973H43.0044V18.6733Z" fill="#164194"/>
<path d="M46.3574 19.8372H47.3206L47.7589 22.3656H47.7713L48.2384 19.8372H49.2884L49.7845 22.3656H49.7969L50.2517 19.8372H51.1735L50.3633 23.3976H49.2678L48.7717 20.8691H48.7593L48.2921 23.3976H47.176L46.3574 19.8372Z" fill="#164194"/>
<path d="M52.5128 21.757V22.0407C52.5128 22.4559 52.6327 22.8671 52.9882 22.8671C53.3106 22.8671 53.4429 22.6327 53.4967 22.1969H54.3607C54.3276 23.0233 53.9059 23.4879 53.0006 23.4879C51.6033 23.4879 51.5454 22.4683 51.5454 21.5843C51.5454 20.6305 51.7397 19.7424 53.0419 19.7424C54.1664 19.7424 54.4185 20.4578 54.4185 21.5514V21.757H52.5128ZM53.4967 21.2143C53.476 20.6716 53.4057 20.3674 53.0088 20.3674C52.612 20.3674 52.5128 20.7456 52.5128 21.0745V21.2143H53.4967Z" fill="#164194"/>
<path d="M55.0962 18.6201H56.0594V19.4013H55.0962V18.6201ZM55.0962 19.8371H56.0594V23.3975H55.0962V19.8371Z" fill="#164194"/>
<path d="M56.7256 22.6985L58.2262 20.5811H56.7959V19.8411H59.3672V20.5441L57.8666 22.6615H59.3672V23.4015H56.7256V22.6985Z" fill="#164194"/>
<path d="M60.8094 21.757V22.0407C60.8094 22.4559 60.9293 22.8671 61.2848 22.8671C61.6073 22.8671 61.7396 22.6327 61.7933 22.1969H62.6615C62.6284 23.0233 62.2067 23.4879 61.3014 23.4879C59.9041 23.4879 59.8462 22.4683 59.8462 21.5843C59.8462 20.6305 60.0405 19.7424 61.3427 19.7424C62.4672 19.7424 62.7193 20.4578 62.7193 21.5514V21.757H60.8136H60.8094ZM61.7933 21.2143C61.7726 20.6716 61.7024 20.3674 61.3055 20.3674C60.9086 20.3674 60.8094 20.7456 60.8094 21.0745V21.2143H61.7933Z" fill="#164194"/>
<path d="M63.3604 19.8368H64.2822V20.3137H64.2946C64.4889 19.9684 64.7618 19.7463 65.1628 19.7463C65.2207 19.7463 65.2827 19.7546 65.3364 19.7587V20.6344C65.2372 20.6262 65.1338 20.6221 65.0346 20.6221C64.6998 20.6221 64.3236 20.7865 64.3236 21.2634V23.4013H63.3604V19.8409V19.8368Z" fill="#164194"/>
<path d="M68.6144 18.6733V21.9706C68.6144 22.4393 68.7343 22.7888 69.2015 22.7888C69.6686 22.7888 69.7885 22.4393 69.7885 21.9706V18.6733H70.7931V21.9706C70.7931 23.1753 70.0159 23.4918 69.2015 23.4918C68.3871 23.4918 67.6099 23.2328 67.6099 21.9706V18.6733H68.6144Z" fill="#164194"/>
<path d="M71.5332 19.837H72.4551V20.2522H72.4716C72.6742 19.9028 73.0256 19.7424 73.4266 19.7424C74.026 19.7424 74.3857 20.0549 74.3857 20.7538V23.3933H73.4225V20.9388C73.4225 20.5811 73.2984 20.4414 73.009 20.4414C72.6825 20.4414 72.5006 20.6346 72.5006 21.0293V23.3933H71.5373V19.8329L71.5332 19.837Z" fill="#164194"/>
<path d="M75.378 18.8174H76.3412V19.837H76.8993V20.4578H76.3412V22.3819C76.3412 22.6615 76.4032 22.7725 76.6843 22.7725C76.7629 22.7725 76.8373 22.7643 76.8993 22.7602V23.3974C76.6884 23.418 76.4941 23.4385 76.2709 23.4385C75.5144 23.4385 75.378 23.2206 75.378 22.497V20.4578H74.8901V19.837H75.378V18.8174Z" fill="#164194"/>
<path d="M78.1973 21.757V22.0407C78.1973 22.4559 78.3172 22.8671 78.6728 22.8671C78.9952 22.8671 79.1275 22.6327 79.1812 22.1969H80.0452C80.0122 23.0233 79.5905 23.4879 78.6852 23.4879C77.2879 23.4879 77.23 22.4683 77.23 21.5843C77.23 20.6305 77.4243 19.7424 78.7265 19.7424C79.8509 19.7424 80.1031 20.4578 80.1031 21.5514V21.757H78.1973ZM79.1812 21.2143C79.1606 20.6716 79.0903 20.3674 78.6934 20.3674C78.2966 20.3674 78.1973 20.7456 78.1973 21.0745V21.2143H79.1812Z" fill="#164194"/>
<path d="M80.7476 19.8368H81.6694V20.3137H81.686C81.8803 19.9684 82.1531 19.7463 82.5541 19.7463C82.6079 19.7463 82.674 19.7546 82.7278 19.7587V20.6344C82.6285 20.6262 82.5252 20.6221 82.426 20.6221C82.0911 20.6221 81.7149 20.7865 81.7149 21.2634V23.4013H80.7517V19.8409L80.7476 19.8368Z" fill="#164194"/>
<path d="M82.9353 19.8372H83.8985L84.3408 22.3656H84.3532L84.8204 19.8372H85.8663L86.3624 22.3656H86.3748L86.8295 19.8372H87.7514L86.9411 23.3976H85.8456L85.3495 20.8691H85.3371L84.87 23.3976H83.7497L82.9312 19.8372H82.9353Z" fill="#164194"/>
<path d="M88.2595 20.9304V20.8441C88.2595 20.0259 88.8548 19.7463 89.5783 19.7463C90.7234 19.7463 90.9425 20.1945 90.9425 20.84V22.7106C90.9425 23.0436 90.9632 23.1958 91.0624 23.3972H90.1405C90.0785 23.2862 90.0496 23.1464 90.0206 23.0272H90.0082C89.785 23.3972 89.5121 23.4918 89.0491 23.4918C88.3794 23.4918 88.1396 22.9491 88.1396 22.4722C88.1396 21.802 88.4249 21.5307 89.0905 21.358L89.6362 21.2182C89.9214 21.1442 90.0206 21.0414 90.0206 20.803C90.0206 20.5316 89.8925 20.3672 89.5741 20.3672C89.2806 20.3672 89.1277 20.5522 89.1277 20.8317V20.9304H88.2637H88.2595ZM90.0206 21.617C89.8883 21.7116 89.7271 21.7691 89.6072 21.7938C89.2145 21.8719 89.0615 22.0528 89.0615 22.3694C89.0615 22.6407 89.1649 22.8669 89.4253 22.8669C89.6858 22.8669 90.0206 22.7065 90.0206 22.3159V21.617Z" fill="#164194"/>
<path d="M92.4721 22.2337V22.3529C92.4721 22.6654 92.6458 22.871 92.9765 22.871C93.27 22.871 93.4643 22.7312 93.4643 22.4475C93.4643 22.2173 93.3031 22.1104 93.1129 22.0446L92.4349 21.8102C91.9058 21.6335 91.6329 21.321 91.6329 20.8194C91.6329 20.2315 92.0257 19.7463 93.0137 19.7463C93.886 19.7463 94.2994 20.1164 94.2994 20.7577V20.9016H93.4354C93.4354 20.5439 93.3238 20.363 93.0096 20.363C92.7657 20.363 92.5548 20.4946 92.5548 20.7454C92.5548 20.9181 92.654 21.062 92.9724 21.1606L93.5511 21.3457C94.1588 21.5389 94.3821 21.8267 94.3821 22.3653C94.3821 23.1135 93.795 23.4836 92.9848 23.4836C91.9017 23.4836 91.604 23.0354 91.604 22.3529V22.2255H92.468L92.4721 22.2337Z" fill="#164194"/>
<path d="M95.709 22.2337V22.3529C95.709 22.6654 95.8826 22.871 96.2133 22.871C96.5068 22.871 96.7011 22.7312 96.7011 22.4475C96.7011 22.2173 96.5399 22.1104 96.3497 22.0446L95.6718 21.8102C95.1426 21.6335 94.8698 21.321 94.8698 20.8194C94.8698 20.2315 95.2625 19.7463 96.2505 19.7463C97.1228 19.7463 97.5362 20.1164 97.5362 20.7577V20.9016H96.6722C96.6722 20.5439 96.5606 20.363 96.2464 20.363C96.0025 20.363 95.7916 20.4946 95.7916 20.7454C95.7916 20.9181 95.8909 21.062 96.2092 21.1606L96.7879 21.3457C97.3956 21.5389 97.6189 21.8267 97.6189 22.3653C97.6189 23.1135 97.0318 23.4836 96.2216 23.4836C95.1385 23.4836 94.8408 23.0354 94.8408 22.3529V22.2255H95.7048L95.709 22.2337Z" fill="#164194"/>
<path d="M99.0702 21.757V22.0407C99.0702 22.4559 99.19 22.8671 99.5456 22.8671C99.868 22.8671 100 22.6327 100.054 22.1969H100.922C100.885 23.0233 100.467 23.4879 99.5621 23.4879C98.1648 23.4879 98.1069 22.4683 98.1069 21.5843C98.1069 20.6305 98.3012 19.7424 99.6034 19.7424C100.728 19.7424 100.98 20.4578 100.98 21.5514V21.757H99.0743H99.0702ZM100.054 21.2143C100.033 20.6716 99.9631 20.3674 99.5662 20.3674C99.1694 20.3674 99.0702 20.7456 99.0702 21.0745V21.2143H100.054Z" fill="#164194"/>
<path d="M101.617 19.8368H102.539V20.3137H102.551C102.749 19.9684 103.018 19.7463 103.419 19.7463C103.477 19.7463 103.539 19.7546 103.593 19.7587V20.6344C103.494 20.6262 103.39 20.6221 103.291 20.6221C102.956 20.6221 102.58 20.7865 102.58 21.2634V23.4013H101.617V19.8409V19.8368Z" fill="#164194"/>
<path d="M105.783 21.095V21.8761H103.812V21.095H105.783Z" fill="#164194"/>
<path d="M107.388 21.9214V22.0612C107.388 22.5052 107.52 22.7889 108.053 22.7889C108.359 22.7889 108.653 22.6039 108.653 22.2051C108.653 21.7734 108.421 21.6171 107.76 21.3992C106.867 21.1073 106.454 20.7579 106.454 19.9685C106.454 19.0476 107.049 18.5789 107.996 18.5789C108.889 18.5789 109.542 18.9407 109.542 19.8493V19.9808H108.578C108.578 19.5368 108.417 19.2778 108.033 19.2778C107.578 19.2778 107.458 19.5491 107.458 19.8246C107.458 20.1165 107.549 20.2933 107.975 20.466L108.752 20.7825C109.509 21.095 109.703 21.4568 109.703 22.0324C109.703 23.0315 109.058 23.4796 107.971 23.4796C106.884 23.4796 106.383 22.978 106.383 22.1023V21.9091H107.388V21.9214Z" fill="#164194"/>
<path d="M110.306 19.8368H111.228V20.215H111.24C111.451 19.882 111.716 19.7463 112.092 19.7463C112.882 19.7463 113.245 20.2931 113.245 21.6211C113.245 22.9491 112.882 23.4918 112.092 23.4918C111.728 23.4918 111.484 23.352 111.282 23.0683H111.269V24.5648H110.306V19.8409V19.8368ZM111.782 22.7887C112.2 22.7887 112.286 22.3941 112.286 21.617C112.286 20.84 112.204 20.4453 111.782 20.4453C111.36 20.4453 111.274 20.84 111.274 21.617C111.274 22.3941 111.356 22.7887 111.782 22.7887Z" fill="#164194"/>
<path d="M115.296 19.7463C116.453 19.7258 116.776 20.3836 116.776 21.6211C116.776 22.8586 116.4 23.4918 115.296 23.4918C114.134 23.5123 113.816 22.8545 113.816 21.6211C113.816 20.3877 114.192 19.7463 115.296 19.7463ZM115.296 22.8709C115.689 22.8709 115.813 22.505 115.813 21.6211C115.813 20.7372 115.689 20.3712 115.296 20.3712C114.82 20.3712 114.779 20.8934 114.779 21.6211C114.779 22.3488 114.82 22.8709 115.296 22.8709Z" fill="#164194"/>
<path d="M117.433 19.8368H118.355V20.3137H118.367C118.562 19.9684 118.835 19.7463 119.236 19.7463C119.289 19.7463 119.355 19.7546 119.409 19.7587V20.6344C119.31 20.6262 119.207 20.6221 119.107 20.6221C118.773 20.6221 118.396 20.7865 118.396 21.2634V23.4013H117.433V19.8409V19.8368Z" fill="#164194"/>
<path d="M120.1 18.8174H121.063V19.837H121.621V20.4578H121.063V22.3819C121.063 22.6615 121.125 22.7725 121.406 22.7725C121.485 22.7725 121.559 22.7643 121.621 22.7602V23.3974C121.41 23.418 121.216 23.4385 120.993 23.4385C120.24 23.4385 120.1 23.2206 120.1 22.497V20.4578H119.612V19.837H120.1V18.8174Z" fill="#164194"/>
<path d="M124.052 21.095V21.8761H122.084V21.095H124.052Z" fill="#164194"/>
<path d="M125.585 18.6733L126.292 22.168H126.313L127.053 18.6733H128.095L126.95 23.3973H125.66L124.515 18.6733H125.589H125.585Z" fill="#164194"/>
<path d="M129.232 21.757V22.0407C129.232 22.4559 129.352 22.8671 129.707 22.8671C130.03 22.8671 130.162 22.6327 130.216 22.1969H131.08C131.047 23.0233 130.625 23.4879 129.72 23.4879C128.322 23.4879 128.269 22.4683 128.269 21.5843C128.269 20.6305 128.463 19.7424 129.761 19.7424C130.885 19.7424 131.138 20.4578 131.138 21.5514V21.757H129.232ZM130.216 21.2143C130.195 20.6716 130.125 20.3674 129.728 20.3674C129.331 20.3674 129.232 20.7456 129.232 21.0745V21.2143H130.216Z" fill="#164194"/>
<path d="M131.778 19.8368H132.7V20.3137H132.717C132.911 19.9684 133.184 19.7463 133.581 19.7463C133.634 19.7463 133.701 19.7546 133.754 19.7587V20.6344C133.655 20.6262 133.552 20.6221 133.453 20.6221C133.118 20.6221 132.742 20.7865 132.742 21.2634V23.4013H131.778V19.8409V19.8368Z" fill="#164194"/>
<path d="M134.242 18.6733H135.205V20.1699H135.217C135.42 19.8862 135.664 19.7464 136.028 19.7464C136.817 19.7464 137.181 20.2932 137.181 21.6212C137.181 22.9492 136.817 23.4918 136.028 23.4918C135.651 23.4918 135.383 23.3521 135.176 23.0232H135.164V23.4014H134.242V18.6733ZM135.718 22.7888C136.135 22.7888 136.222 22.3941 136.222 21.6171C136.222 20.84 136.139 20.4453 135.718 20.4453C135.296 20.4453 135.209 20.84 135.209 21.6171C135.209 22.3941 135.292 22.7888 135.718 22.7888Z" fill="#164194"/>
<path d="M137.867 20.9304V20.8441C137.867 20.0259 138.462 19.7463 139.186 19.7463C140.331 19.7463 140.546 20.1945 140.546 20.84V22.7106C140.546 23.0436 140.567 23.1958 140.666 23.3972H139.744C139.682 23.2862 139.653 23.1464 139.624 23.0272H139.612C139.388 23.3972 139.116 23.4918 138.653 23.4918C137.983 23.4918 137.743 22.9491 137.743 22.4722C137.743 21.802 138.028 21.5307 138.694 21.358L139.24 21.2182C139.525 21.1442 139.624 21.0414 139.624 20.803C139.624 20.5316 139.5 20.3672 139.178 20.3672C138.884 20.3672 138.731 20.5522 138.731 20.8317V20.9304H137.867ZM139.628 21.617C139.496 21.7116 139.335 21.7691 139.215 21.7938C138.822 21.8719 138.669 22.0528 138.669 22.3694C138.669 22.6407 138.773 22.8669 139.033 22.8669C139.293 22.8669 139.628 22.7065 139.628 22.3159V21.617Z" fill="#164194"/>
<path d="M141.377 19.837H142.299V20.2522H142.311C142.514 19.9028 142.865 19.7424 143.27 19.7424C143.87 19.7424 144.225 20.0549 144.225 20.7538V23.3933H143.262V20.9388C143.262 20.5811 143.138 20.4414 142.849 20.4414C142.522 20.4414 142.34 20.6346 142.34 21.0293V23.3933H141.377V19.8329V19.837Z" fill="#164194"/>
<path d="M146.929 23.0232H146.913C146.702 23.3562 146.437 23.4918 146.061 23.4918C145.272 23.4918 144.908 22.945 144.908 21.6212C144.908 20.2973 145.272 19.7464 146.061 19.7464C146.425 19.7464 146.669 19.8862 146.871 20.1699H146.884V18.6733H147.847V23.3973H146.925V23.019L146.929 23.0232ZM146.379 22.7929C146.805 22.7929 146.888 22.3982 146.888 21.6212C146.888 20.8441 146.805 20.4494 146.379 20.4494C145.954 20.4494 145.875 20.8441 145.875 21.6212C145.875 22.3982 145.958 22.7929 146.379 22.7929Z" fill="#164194"/>
<path d="M151.287 21.9214V22.0612C151.287 22.5052 151.419 22.7889 151.952 22.7889C152.258 22.7889 152.552 22.6039 152.552 22.2051C152.552 21.7734 152.32 21.6171 151.659 21.3992C150.766 21.1073 150.352 20.7579 150.352 19.9685C150.352 19.0476 150.948 18.5789 151.898 18.5789C152.791 18.5789 153.44 18.9407 153.44 19.8493V19.9808H152.477C152.477 19.5368 152.316 19.2778 151.931 19.2778C151.477 19.2778 151.361 19.5491 151.361 19.8246C151.361 20.1165 151.452 20.2933 151.878 20.466L152.655 20.7825C153.407 21.095 153.606 21.4568 153.606 22.0324C153.606 23.0315 152.965 23.4796 151.874 23.4796C150.782 23.4796 150.286 22.978 150.286 22.1023V21.9091H151.291L151.287 21.9214Z" fill="#164194"/>
<path d="M155.181 18.6733V21.9706C155.181 22.4393 155.301 22.7888 155.768 22.7888C156.235 22.7888 156.355 22.4393 156.355 21.9706V18.6733H157.359V21.9706C157.359 23.1753 156.582 23.4918 155.768 23.4918C154.953 23.4918 154.176 23.2328 154.176 21.9706V18.6733H155.181Z" fill="#164194"/>
<path d="M158.946 21.9214V22.0612C158.946 22.5052 159.079 22.7889 159.612 22.7889C159.918 22.7889 160.211 22.6039 160.211 22.2051C160.211 21.7734 159.98 21.6171 159.319 21.3992C158.426 21.1073 158.012 20.7579 158.012 19.9685C158.012 19.0476 158.607 18.5789 159.558 18.5789C160.451 18.5789 161.1 18.9407 161.1 19.8493V19.9808H160.137C160.137 19.5368 159.976 19.2778 159.591 19.2778C159.137 19.2778 159.017 19.5491 159.017 19.8246C159.017 20.1165 159.108 20.2933 159.533 20.466L160.311 20.7825C161.067 21.095 161.262 21.4568 161.262 22.0324C161.262 23.0315 160.621 23.4796 159.529 23.4796C158.438 23.4796 157.942 22.978 157.942 22.1023V21.9091H158.951L158.946 21.9214Z" fill="#164194"/>
<path d="M162.639 18.6733L163.345 22.168H163.366L164.106 18.6733H165.148L164.003 23.3973H162.713L161.568 18.6733H162.643H162.639Z" fill="#164194"/>
<path d="M35.8979 36.7222H38.6843V37.5033H36.9025V38.6134H38.5809V39.3945H36.9025V41.4461H35.8979V36.7222Z" fill="#164194"/>
<path d="M39.9325 39.8057V40.0935C39.9325 40.5087 40.0523 40.9198 40.4079 40.9198C40.7303 40.9198 40.8626 40.6855 40.9164 40.2497H41.7845C41.7473 41.0761 41.3298 41.5406 40.4244 41.5406C39.0271 41.5406 38.9692 40.521 38.9692 39.6371C38.9692 38.6833 39.1635 37.7993 40.4657 37.7993C41.5902 37.7993 41.8424 38.5147 41.8424 39.6042V39.8098H39.9366L39.9325 39.8057ZM40.9164 39.263C40.8957 38.7203 40.8254 38.416 40.4285 38.416C40.0317 38.416 39.9325 38.7943 39.9325 39.1232V39.263H40.9164Z" fill="#164194"/>
<path d="M44.4017 41.072H44.3893C44.1784 41.4009 43.9139 41.5407 43.5377 41.5407C42.7481 41.5407 42.3843 40.9939 42.3843 39.67C42.3843 38.3462 42.7481 37.7994 43.5377 37.7994C43.9015 37.7994 44.1454 37.9392 44.3479 38.2229H44.3603V36.7263H45.3236V41.4503H44.4017V41.072ZM43.8477 40.8418C44.2735 40.8418 44.3562 40.443 44.3562 39.67C44.3562 38.8971 44.2735 38.4983 43.8477 38.4983C43.4219 38.4983 43.3434 38.8971 43.3434 39.67C43.3434 40.443 43.426 40.8418 43.8477 40.8418Z" fill="#164194"/>
<path d="M46.9317 39.8057V40.0935C46.9317 40.5087 47.0516 40.9198 47.4071 40.9198C47.7296 40.9198 47.8619 40.6855 47.9156 40.2497H48.7837C48.7507 41.0761 48.329 41.5406 47.4195 41.5406C46.0222 41.5406 45.9644 40.521 45.9644 39.6371C45.9644 38.6833 46.1587 37.7993 47.4609 37.7993C48.5853 37.7993 48.8375 38.5147 48.8375 39.6042V39.8098H46.9276L46.9317 39.8057ZM47.9156 39.263C47.8949 38.7203 47.8247 38.416 47.4278 38.416C47.0309 38.416 46.9317 38.7943 46.9317 39.1232V39.263H47.9156Z" fill="#164194"/>
<path d="M49.4741 37.8898H50.396V38.3667H50.4125C50.6068 38.0213 50.8797 37.7993 51.2807 37.7993C51.3344 37.7993 51.4006 37.8075 51.4543 37.8117V38.6874C51.3551 38.6791 51.2517 38.675 51.1525 38.675C50.8177 38.675 50.4415 38.8395 50.4415 39.3164V41.4543H49.4783V37.8939L49.4741 37.8898Z" fill="#164194"/>
<path d="M51.9341 38.9792V38.8929C51.9341 38.0747 52.5294 37.7952 53.2528 37.7952C54.3979 37.7952 54.6129 38.2433 54.6129 38.8847V40.7553C54.6129 41.0884 54.6336 41.2405 54.7328 41.4419H53.8109C53.7489 41.3309 53.72 41.1911 53.691 41.0719H53.6786C53.4554 41.4419 53.1825 41.5324 52.7195 41.5324C52.0498 41.5324 51.8101 40.9897 51.8101 40.5128C51.8101 39.8426 52.0953 39.5713 52.7609 39.3986L53.3066 39.2588C53.5918 39.1848 53.691 39.082 53.691 38.8436C53.691 38.5722 53.567 38.4078 53.2446 38.4078C52.951 38.4078 52.7981 38.5928 52.7981 38.8723V38.971H51.9299L51.9341 38.9792ZM53.6952 39.6658C53.5629 39.7604 53.4017 39.818 53.2818 39.8426C52.889 39.9248 52.7361 40.1016 52.7361 40.4182C52.7361 40.6896 52.8394 40.9157 53.0999 40.9157C53.3603 40.9157 53.6952 40.7553 53.6952 40.3648V39.6617V39.6658Z" fill="#164194"/>
<path d="M55.2861 40.7475L56.7868 38.6302H55.3564V37.8901H57.9278V38.5932L56.4271 40.7105H57.9278V41.4506H55.2861V40.7475Z" fill="#164194"/>
<path d="M58.5894 36.6689H59.5526V37.4501H58.5894V36.6689ZM58.5894 37.8859H59.5526V41.4463H58.5894V37.8859Z" fill="#164194"/>
<path d="M61.727 37.7954C62.8846 37.7748 63.207 38.4326 63.207 39.6661C63.207 40.8995 62.8308 41.5367 61.727 41.5367C60.5654 41.5573 60.2471 40.8995 60.2471 39.6661C60.2471 38.4326 60.6233 37.7954 61.727 37.7954ZM61.727 40.92C62.1156 40.92 62.2438 40.5541 62.2438 39.6702C62.2438 38.7862 62.1198 38.4203 61.727 38.4203C61.2516 38.4203 61.2103 38.9425 61.2103 39.6702C61.2103 40.3979 61.2516 40.92 61.727 40.92Z" fill="#164194"/>
<path d="M63.8643 37.8898H64.7861V38.3091H64.7985C65.0011 37.9555 65.3525 37.7993 65.7576 37.7993C66.3571 37.7993 66.7126 38.1118 66.7126 38.8107V41.4502H65.7494V38.9957C65.7494 38.638 65.6253 38.4982 65.336 38.4982C65.0094 38.4982 64.8275 38.6915 64.8275 39.0862V41.4502H63.8643V37.8898Z" fill="#164194"/>
<path d="M68.3126 39.8057V40.0935C68.3126 40.5087 68.4325 40.9198 68.788 40.9198C69.1104 40.9198 69.2427 40.6855 69.2965 40.2497H70.1646C70.1315 41.0761 69.7099 41.5406 68.8004 41.5406C67.4031 41.5406 67.3452 40.521 67.3452 39.6371C67.3452 38.6833 67.5395 37.7993 68.8417 37.7993C69.9662 37.7993 70.2184 38.5147 70.2184 39.6042V39.8098H68.3126V39.8057ZM69.2965 39.263C69.2758 38.7203 69.2055 38.416 68.8087 38.416C68.4118 38.416 68.3126 38.7943 68.3126 39.1232V39.263H69.2965Z" fill="#164194"/>
<path d="M73.5172 39.9744V40.1142C73.5172 40.5582 73.6495 40.8419 74.1787 40.8419C74.4846 40.8419 74.7781 40.6569 74.7781 40.2581C74.7781 39.8305 74.5466 39.6701 73.8852 39.4522C72.9922 39.1603 72.5788 38.8109 72.5788 38.0215C72.5788 37.1005 73.1741 36.6318 74.1208 36.6318C75.0137 36.6318 75.6669 36.9936 75.6669 37.9022V38.0338H74.7037C74.7037 37.5898 74.5425 37.3308 74.158 37.3308C73.7033 37.3308 73.5834 37.6021 73.5834 37.8817C73.5834 38.1613 73.6743 38.3504 74.1001 38.5231L74.8732 38.8396C75.6297 39.1521 75.824 39.5139 75.824 40.0895C75.824 41.0885 75.1832 41.5367 74.0919 41.5367C73.0005 41.5367 72.5044 41.0351 72.5044 40.1594V39.9703H73.509L73.5172 39.9744Z" fill="#164194"/>
<path d="M78.2259 37.8901H79.1892L78.2466 41.4506H77.1263L76.1548 37.8901H77.1594L77.6968 40.4392H77.7133L78.2218 37.8901H78.2259Z" fill="#164194"/>
<path d="M79.7227 36.6689H80.6859V37.4501H79.7227V36.6689ZM79.7227 37.8859H80.6859V41.4463H79.7227V37.8859Z" fill="#164194"/>
<path d="M81.3472 40.7475L82.8478 38.6302H81.4174V37.8901H83.9888V38.5932L82.4882 40.7105H83.9888V41.4506H81.3472V40.7475Z" fill="#164194"/>
<path d="M84.4563 40.7475L85.9569 38.6302H84.5224V37.8901H87.0938V38.5932L85.5931 40.7105H87.0938V41.4506H84.4521V40.7475H84.4563Z" fill="#164194"/>
<path d="M88.5531 39.8057V40.0935C88.5531 40.5087 88.673 40.9198 89.0285 40.9198C89.3509 40.9198 89.4832 40.6855 89.537 40.2497H90.4051C90.372 41.0761 89.9504 41.5406 89.0409 41.5406C87.6436 41.5406 87.5898 40.521 87.5898 39.6371C87.5898 38.6833 87.7841 37.7993 89.0864 37.7993C90.2108 37.7993 90.463 38.5147 90.463 39.6042V39.8098H88.5572L88.5531 39.8057ZM89.537 39.263C89.5163 38.7203 89.446 38.416 89.0492 38.416C88.6523 38.416 88.5531 38.7943 88.5531 39.1232V39.263H89.537Z" fill="#164194"/>
<path d="M91.0996 37.8898H92.0215V38.3667H92.0339C92.2282 38.0213 92.501 37.7993 92.902 37.7993C92.9558 37.7993 93.0219 37.8075 93.0757 37.8117V38.6874C92.9765 38.6791 92.8731 38.675 92.7739 38.675C92.439 38.675 92.0628 38.8395 92.0628 39.3164V41.4543H91.0996V37.8939V37.8898Z" fill="#164194"/>
<path d="M93.5508 38.9792V38.8929C93.5508 38.0747 94.142 37.7952 94.8696 37.7952C96.0147 37.7952 96.2338 38.2433 96.2338 38.8847V40.7553C96.2338 41.0884 96.2545 41.2405 96.3537 41.4419H95.4318C95.3698 41.3309 95.3408 41.1911 95.3119 41.0719H95.2995C95.0763 41.4419 94.8034 41.5324 94.3445 41.5324C93.6748 41.5324 93.4351 40.9897 93.4351 40.5128C93.4351 39.8426 93.7203 39.5713 94.3859 39.3986L94.9316 39.2588C95.2168 39.1848 95.316 39.082 95.316 38.8436C95.316 38.5722 95.192 38.4078 94.8696 38.4078C94.576 38.4078 94.4231 38.5928 94.4231 38.8723V38.971H93.5591L93.5508 38.9792ZM95.3119 39.6658C95.1796 39.7604 95.0184 39.818 94.8985 39.8426C94.5058 39.9248 94.3528 40.1016 94.3528 40.4182C94.3528 40.6896 94.4562 40.9157 94.7166 40.9157C94.977 40.9157 95.3119 40.7553 95.3119 40.3648V39.6617V39.6658Z" fill="#164194"/>
<path d="M100.802 41.072H100.79C100.579 41.4009 100.314 41.5407 99.9381 41.5407C99.1485 41.5407 98.7847 40.9939 98.7847 39.67C98.7847 38.3462 99.1485 37.7994 99.9381 37.7994C100.302 37.7994 100.546 37.9392 100.748 38.2229H100.761V36.7263H101.724V41.4503H100.802V41.072ZM100.252 40.8418C100.678 40.8418 100.761 40.443 100.761 39.67C100.761 38.8971 100.678 38.4983 100.252 38.4983C99.8264 38.4983 99.7479 38.8971 99.7479 39.67C99.7479 40.443 99.8347 40.8418 100.252 40.8418Z" fill="#164194"/>
<path d="M102.539 36.6689H103.502V37.4501H102.539V36.6689ZM102.539 37.8859H103.502V41.4463H102.539V37.8859Z" fill="#164194"/>
<path d="M106.978 39.9744V40.1142C106.978 40.5582 107.11 40.8419 107.639 40.8419C107.945 40.8419 108.243 40.6569 108.243 40.2581C108.243 39.8305 108.011 39.6701 107.35 39.4522C106.457 39.1603 106.044 38.8109 106.044 38.0215C106.044 37.1005 106.639 36.6318 107.59 36.6318C108.483 36.6318 109.132 36.9936 109.132 37.9022V38.0338H108.169C108.169 37.5898 108.007 37.3308 107.623 37.3308C107.168 37.3308 107.052 37.6021 107.052 37.8817C107.052 38.1613 107.143 38.3504 107.569 38.5231L108.346 38.8396C109.099 39.1521 109.297 39.5139 109.297 40.0895C109.297 41.0885 108.656 41.5367 107.565 41.5367C106.474 41.5367 105.978 41.0351 105.978 40.1594V39.9703H106.982L106.978 39.9744Z" fill="#164194"/>
<path d="M109.901 37.8898H110.823V38.268H110.835C111.046 37.935 111.311 37.7993 111.687 37.7993C112.476 37.7993 112.84 38.3461 112.84 39.67C112.84 40.9938 112.476 41.5407 111.687 41.5407C111.323 41.5407 111.079 41.4009 110.877 41.1172H110.864V42.6137H109.901V37.8898ZM111.377 40.8417C111.794 40.8417 111.881 40.4429 111.881 39.67C111.881 38.897 111.798 38.4982 111.377 38.4982C110.955 38.4982 110.868 38.897 110.868 39.67C110.868 40.4429 110.951 40.8417 111.377 40.8417Z" fill="#164194"/>
<path d="M114.883 37.7954C116.044 37.7748 116.363 38.4326 116.363 39.6661C116.363 40.8995 115.987 41.5367 114.883 41.5367C113.725 41.5573 113.403 40.8995 113.403 39.6661C113.403 38.4326 113.779 37.7954 114.883 37.7954ZM114.883 40.92C115.276 40.92 115.4 40.5541 115.4 39.6702C115.4 38.7862 115.276 38.4203 114.883 38.4203C114.407 38.4203 114.366 38.9425 114.366 39.6702C114.366 40.3979 114.407 40.92 114.883 40.92Z" fill="#164194"/>
<path d="M117.02 37.8898H117.942V38.3667H117.954C118.149 38.0213 118.421 37.7993 118.818 37.7993C118.872 37.7993 118.938 37.8075 118.992 37.8117V38.6874C118.893 38.6791 118.789 38.675 118.694 38.675C118.359 38.675 117.983 38.8395 117.983 39.3164V41.4543H117.02V37.8939V37.8898Z" fill="#164194"/>
<path d="M119.694 36.8704H120.658V37.89H121.216V38.5108H120.658V40.4349C120.658 40.7145 120.72 40.8255 121.001 40.8255C121.075 40.8255 121.154 40.8173 121.216 40.8132V41.4504C121.005 41.471 120.811 41.4915 120.587 41.4915C119.835 41.4915 119.694 41.2736 119.694 40.55V38.5108H119.207V37.89H119.694V36.8704Z" fill="#164194"/>
<path d="M124.345 39.9744V40.1142C124.345 40.5582 124.477 40.8419 125.006 40.8419C125.312 40.8419 125.606 40.6569 125.606 40.2581C125.606 39.8305 125.374 39.6701 124.713 39.4522C123.82 39.1603 123.406 38.8109 123.406 38.0215C123.406 37.1005 124.002 36.6318 124.948 36.6318C125.841 36.6318 126.49 36.9936 126.49 37.9022V38.0338H125.527C125.527 37.5898 125.366 37.3308 124.982 37.3308C124.527 37.3308 124.411 37.6021 124.411 37.8817C124.411 38.1613 124.502 38.3504 124.928 38.5231L125.705 38.8396C126.457 39.1521 126.656 39.5139 126.656 40.0895C126.656 41.0885 126.015 41.5367 124.924 41.5367C123.832 41.5367 123.34 41.0351 123.34 40.1594V39.9703H124.345V39.9744Z" fill="#164194"/>
<path d="M129.198 41.0312H129.186C128.983 41.3807 128.632 41.541 128.231 41.541C127.631 41.541 127.276 41.2286 127.276 40.5296V37.8901H128.239V40.3446C128.239 40.7023 128.363 40.8421 128.653 40.8421C128.979 40.8421 129.161 40.6489 129.161 40.2542V37.8901H130.124V41.4506H129.202V41.0353L129.198 41.0312Z" fill="#164194"/>
<path d="M130.893 36.7222H131.856V38.2187H131.869C132.071 37.935 132.315 37.7952 132.679 37.7952C133.469 37.7952 133.832 38.342 133.832 39.6659C133.832 40.9898 133.469 41.5366 132.679 41.5366C132.303 41.5366 132.038 41.3968 131.827 41.0679H131.815V41.4461H130.893V36.7222ZM132.365 40.8376C132.782 40.8376 132.869 40.4388 132.869 39.6659C132.869 38.893 132.786 38.4942 132.365 38.4942C131.943 38.4942 131.856 38.893 131.856 39.6659C131.856 40.4388 131.939 40.8376 132.365 40.8376Z" fill="#164194"/>
<path d="M134.51 38.9792V38.8929C134.51 38.0747 135.101 37.7952 135.833 37.7952C136.978 37.7952 137.193 38.2433 137.193 38.8847V40.7553C137.193 41.0884 137.214 41.2405 137.313 41.4419H136.391C136.329 41.3309 136.3 41.1911 136.271 41.0719H136.259C136.036 41.4419 135.763 41.5324 135.304 41.5324C134.634 41.5324 134.395 40.9897 134.395 40.5128C134.395 39.8426 134.68 39.5713 135.345 39.3986L135.891 39.2588C136.176 39.1848 136.275 39.082 136.275 38.8436C136.275 38.5722 136.151 38.4078 135.829 38.4078C135.536 38.4078 135.383 38.5928 135.383 38.8723V38.971H134.514L134.51 38.9792ZM136.271 39.6658C136.139 39.7604 135.978 39.818 135.858 39.8426C135.465 39.9248 135.312 40.1016 135.312 40.4182C135.312 40.6896 135.416 40.9157 135.676 40.9157C135.937 40.9157 136.267 40.7553 136.267 40.3648V39.6617L136.271 39.6658Z" fill="#164194"/>
<path d="M139.827 39.1725C139.827 38.8272 139.756 38.4571 139.393 38.4571C138.917 38.4571 138.839 38.8559 138.839 39.6741C138.839 40.5539 138.926 40.9198 139.355 40.9198C139.678 40.9198 139.823 40.6608 139.823 40.0852H140.744C140.744 41.0185 140.331 41.5406 139.314 41.5406C138.351 41.5406 137.875 41.0966 137.875 39.67C137.875 38.2433 138.512 37.7993 139.397 37.7993C140.281 37.7993 140.744 38.3338 140.744 39.1766H139.823L139.827 39.1725Z" fill="#164194"/>
<path d="M143.275 41.1172H143.262C143.06 41.4009 142.816 41.5407 142.452 41.5407C141.663 41.5407 141.299 40.9938 141.299 39.67C141.299 38.3461 141.663 37.7993 142.452 37.7993C142.828 37.7993 143.097 37.9391 143.304 38.268H143.32V37.8898H144.242V42.6137H143.279V41.1172H143.275ZM142.766 38.4982C142.349 38.4982 142.262 38.897 142.262 39.67C142.262 40.4429 142.345 40.8417 142.766 40.8417C143.188 40.8417 143.275 40.4429 143.275 39.67C143.275 38.897 143.192 38.4982 142.766 38.4982Z" fill="#164194"/>
<path d="M146.942 41.0312H146.929C146.727 41.3807 146.379 41.541 145.97 41.541C145.371 41.541 145.015 41.2286 145.015 40.5296V37.8901H145.978V40.3446C145.978 40.7023 146.102 40.8421 146.392 40.8421C146.722 40.8421 146.9 40.6489 146.9 40.2542V37.8901H147.863V41.4506H146.942V41.0353V41.0312Z" fill="#164194"/>
<path d="M149.471 39.8057V40.0935C149.471 40.5087 149.591 40.9198 149.947 40.9198C150.269 40.9198 150.401 40.6855 150.455 40.2497H151.323C151.29 41.0761 150.869 41.5406 149.963 41.5406C148.566 41.5406 148.512 40.521 148.512 39.6371C148.512 38.6833 148.707 37.7993 150.009 37.7993C151.133 37.7993 151.385 38.5147 151.385 39.6042V39.8098H149.48L149.471 39.8057ZM150.455 39.263C150.435 38.7203 150.364 38.416 149.967 38.416C149.571 38.416 149.471 38.7943 149.471 39.1232V39.263H150.455Z" fill="#164194"/>
<path d="M152.06 36.6689H153.023V37.4501H152.06V36.6689ZM152.06 37.8859H153.023V41.4463H152.06V37.8859Z" fill="#164194"/>
<path d="M155.681 36.7222H158.467V37.5033H156.685V38.6134H158.364V39.3945H156.685V41.4461H155.681V36.7222Z" fill="#164194"/>
<path d="M159.861 39.9744V40.1142C159.861 40.5582 159.993 40.8419 160.526 40.8419C160.832 40.8419 161.13 40.6569 161.13 40.2581C161.13 39.8305 160.898 39.6701 160.237 39.4522C159.344 39.1603 158.93 38.8109 158.93 38.0215C158.93 37.1005 159.526 36.6318 160.477 36.6318C161.369 36.6318 162.019 36.9936 162.019 37.9022V38.0338H161.055C161.055 37.5898 160.894 37.3308 160.51 37.3308C160.055 37.3308 159.939 37.6021 159.939 37.8817C159.939 38.1613 160.03 38.3504 160.456 38.5231L161.233 38.8396C161.985 39.1521 162.184 39.5139 162.184 40.0895C162.184 41.0885 161.543 41.5367 160.452 41.5367C159.36 41.5367 158.864 41.0351 158.864 40.1594V39.9703H159.873L159.861 39.9744Z" fill="#164194"/>
<path d="M163.626 39.9744V40.1142C163.626 40.5582 163.759 40.8419 164.288 40.8419C164.598 40.8419 164.887 40.6569 164.887 40.2581C164.887 39.8305 164.66 39.6701 163.994 39.4522C163.101 39.1603 162.688 38.8109 162.688 38.0215C162.688 37.1005 163.283 36.6318 164.23 36.6318C165.123 36.6318 165.772 36.9936 165.772 37.9022V38.0338H164.809C164.809 37.5898 164.647 37.3308 164.263 37.3308C163.808 37.3308 163.688 37.6021 163.688 37.8817C163.688 38.1613 163.779 38.3504 164.205 38.5231L164.978 38.8396C165.731 39.1521 165.929 39.5139 165.929 40.0895C165.929 41.0885 165.288 41.5367 164.197 41.5367C163.105 41.5367 162.609 41.0351 162.609 40.1594V39.9703H163.614L163.626 39.9744Z" fill="#164194"/>
<path d="M167.384 39.9744V40.1142C167.384 40.5582 167.517 40.8419 168.05 40.8419C168.356 40.8419 168.649 40.6569 168.649 40.2581C168.649 39.8305 168.418 39.6701 167.756 39.4522C166.863 39.1603 166.45 38.8109 166.45 38.0215C166.45 37.1005 167.045 36.6318 167.996 36.6318C168.889 36.6318 169.538 36.9936 169.538 37.9022V38.0338H168.575C168.575 37.5898 168.414 37.3308 168.029 37.3308C167.574 37.3308 167.459 37.6021 167.459 37.8817C167.459 38.1613 167.55 38.3504 167.975 38.5231L168.753 38.8396C169.505 39.1521 169.703 39.5139 169.703 40.0895C169.703 41.0885 169.063 41.5367 167.971 41.5367C166.88 41.5367 166.384 41.0351 166.384 40.1594V39.9703H167.392L167.384 39.9744Z" fill="#164194"/>
<path d="M35.8979 27.6978H38.6843V28.4789H36.9025V29.589H38.5809V30.3701H36.9025V32.4217H35.8979V27.6978Z" fill="#164194"/>
<path d="M40.0692 30.7813V31.0691C40.0692 31.4843 40.1891 31.8954 40.5446 31.8954C40.867 31.8954 40.9993 31.6611 41.0531 31.2253H41.9212C41.884 32.0517 41.4665 32.5163 40.5611 32.5163C39.1638 32.5163 39.106 31.4966 39.106 30.6086C39.106 29.6548 39.3003 28.7708 40.6025 28.7708C41.7269 28.7708 41.9791 29.4862 41.9791 30.5798V30.7854H40.0733L40.0692 30.7813ZM41.0531 30.2386C41.0324 29.6959 40.9621 29.3916 40.5653 29.3916C40.1684 29.3916 40.0692 29.7699 40.0692 30.0988V30.2386H41.0531ZM40.466 27.4922H41.4293L40.743 28.446H40.0857L40.4619 27.4922H40.466Z" fill="#164194"/>
<path d="M44.5418 32.0476H44.5294C44.3186 32.3806 44.054 32.5163 43.6778 32.5163C42.8882 32.5163 42.5244 31.9695 42.5244 30.6415C42.5244 29.3135 42.8882 28.7708 43.6778 28.7708C44.0416 28.7708 44.2855 28.9106 44.4881 29.1943H44.5005V27.6978H45.4637V32.4217H44.5418V32.0435V32.0476ZM43.9879 31.8173C44.4137 31.8173 44.4963 31.4185 44.4963 30.6456C44.4963 29.8727 44.4137 29.4739 43.9879 29.4739C43.5621 29.4739 43.4835 29.8727 43.4835 30.6456C43.4835 31.4185 43.5662 31.8173 43.9879 31.8173Z" fill="#164194"/>
<path d="M47.0723 30.7813V31.0691C47.0723 31.4843 47.1922 31.8954 47.5478 31.8954C47.8702 31.8954 48.0025 31.6611 48.0562 31.2253H48.9244C48.8872 32.0517 48.4696 32.5163 47.5602 32.5163C46.1629 32.5163 46.105 31.4966 46.105 30.6086C46.105 29.6548 46.2993 28.7708 47.6015 28.7708C48.7259 28.7708 48.9781 29.4862 48.9781 30.5798V30.7854H47.0723V30.7813ZM48.0562 30.2386C48.0356 29.6959 47.9653 29.3916 47.5684 29.3916C47.1716 29.3916 47.0723 29.7699 47.0723 30.0988V30.2386H48.0562ZM47.4692 27.4922H48.4324L47.7462 28.446H47.0889L47.4651 27.4922H47.4692Z" fill="#164194"/>
<path d="M49.6147 28.8654H50.5366V29.3423H50.5532C50.7475 28.9969 51.0203 28.7749 51.4172 28.7749C51.4709 28.7749 51.5371 28.7831 51.5908 28.7872V29.663C51.4916 29.6547 51.3882 29.6465 51.289 29.6465C50.9542 29.6465 50.578 29.811 50.578 30.2879V32.4258H49.6147V28.8654Z" fill="#164194"/>
<path d="M52.0701 29.9548V29.8685C52.0701 29.0462 52.6654 28.7708 53.3888 28.7708C54.534 28.7708 54.7531 29.2189 54.7531 29.8603V31.735C54.7531 32.0681 54.7737 32.2202 54.8729 32.4216H53.9511C53.889 32.3106 53.8601 32.1708 53.8312 32.0516H53.8188C53.5955 32.4216 53.3227 32.5162 52.8597 32.5162C52.19 32.5162 51.9502 31.9735 51.9502 31.4966C51.9502 30.8305 52.2354 30.5551 52.901 30.3824L53.4467 30.2426C53.732 30.1686 53.8312 30.0658 53.8312 29.8233C53.8312 29.5519 53.7072 29.3875 53.3847 29.3875C53.0912 29.3875 52.9382 29.5725 52.9382 29.852V29.9507H52.0701V29.9548ZM53.8312 30.6414C53.6989 30.736 53.5377 30.7935 53.4178 30.8182C53.025 30.8963 52.8721 31.0772 52.8721 31.3938C52.8721 31.6651 52.9754 31.8913 53.2359 31.8913C53.4963 31.8913 53.8312 31.7309 53.8312 31.3403V30.6373V30.6414Z" fill="#164194"/>
<path d="M55.7866 27.8457H56.7499V28.8653H57.308V29.4861H56.7499V31.4102C56.7499 31.6898 56.8119 31.8008 57.093 31.8008C57.1715 31.8008 57.2459 31.7926 57.308 31.7885V32.4258C57.0971 32.4463 56.9028 32.4669 56.6796 32.4669C55.9231 32.4669 55.7866 32.249 55.7866 31.5254V29.4861H55.2988V28.8653H55.7866V27.8457Z" fill="#164194"/>
<path d="M57.8208 27.6445H58.784V28.4257H57.8208V27.6445ZM57.8208 28.8615H58.784V32.4219H57.8208V28.8615Z" fill="#164194"/>
<path d="M60.9585 28.771C62.116 28.7504 62.4385 29.4082 62.4385 30.6416C62.4385 31.875 62.0623 32.5164 60.9585 32.5164C59.801 32.537 59.4785 31.8792 59.4785 30.6416C59.4785 29.4041 59.8547 28.771 60.9585 28.771ZM60.9585 31.8956C61.3512 31.8956 61.4752 31.5297 61.4752 30.6458C61.4752 29.7618 61.3512 29.3959 60.9585 29.3959C60.4831 29.3959 60.4417 29.918 60.4417 30.6458C60.4417 31.3735 60.4831 31.8956 60.9585 31.8956Z" fill="#164194"/>
<path d="M63.0957 28.8653H64.0176V29.2806H64.03C64.2326 28.9311 64.5798 28.7708 64.9891 28.7708C65.5885 28.7708 65.9482 29.0832 65.9482 29.7821V32.4216H64.985V29.9672C64.985 29.6095 64.8609 29.4697 64.5715 29.4697C64.245 29.4697 64.0631 29.6629 64.0631 30.0576V32.4216H63.0998V28.8612L63.0957 28.8653Z" fill="#164194"/>
<path d="M69.3752 30.9458V31.0856C69.3752 31.5296 69.5075 31.8133 70.0407 31.8133C70.3467 31.8133 70.6402 31.6283 70.6402 31.2295C70.6402 30.7978 70.4087 30.6416 69.7472 30.4237C68.8543 30.1318 68.4409 29.7823 68.4409 28.9929C68.4409 28.072 69.0362 27.6033 69.9829 27.6033C70.8758 27.6033 71.529 27.9651 71.529 28.8737V29.0052H70.5658C70.5658 28.5612 70.4045 28.3022 70.0201 28.3022C69.5653 28.3022 69.4496 28.5736 69.4496 28.849C69.4496 29.1409 69.5405 29.3177 69.9663 29.4904L70.7394 29.807C71.4959 30.1194 71.6902 30.4812 71.6902 31.0568C71.6902 32.0559 71.0494 32.504 69.9581 32.504C68.8667 32.504 68.3706 32.0024 68.3706 31.1267V30.9335H69.3752V30.9458Z" fill="#164194"/>
<path d="M74.2287 32.0066H74.2163C74.0137 32.356 73.6665 32.5164 73.2572 32.5164C72.6578 32.5164 72.3022 32.2039 72.3022 31.505V28.8655H73.2655V31.32C73.2655 31.6776 73.3936 31.8174 73.6789 31.8174C74.0055 31.8174 74.1874 31.6242 74.1874 31.2295V28.8655H75.1506V32.4259H74.2287V32.0107V32.0066Z" fill="#164194"/>
<path d="M75.9648 27.6445H76.9281V28.4257H75.9648V27.6445ZM75.9648 28.8615H76.9281V32.4219H75.9648V28.8615Z" fill="#164194"/>
<path d="M78.4492 31.2581V31.3774C78.4492 31.6898 78.6228 31.8954 78.9535 31.8954C79.2471 31.8954 79.4414 31.7556 79.4414 31.4719C79.4414 31.2417 79.2801 31.1348 79.09 31.069L78.412 30.8347C77.8828 30.6579 77.61 30.3454 77.61 29.8438C77.61 29.2559 78.0027 28.7708 78.9949 28.7708C79.8672 28.7708 80.2806 29.1408 80.2806 29.7821V29.926H79.4124C79.4124 29.5684 79.3008 29.3875 78.9866 29.3875C78.7427 29.3875 78.5319 29.519 78.5319 29.7698C78.5319 29.9425 78.6311 30.0864 78.9494 30.1851L79.5282 30.3701C80.1359 30.5633 80.3591 30.8511 80.3591 31.3897C80.3591 32.138 79.7721 32.508 78.9618 32.508C77.8787 32.508 77.5811 32.0598 77.5811 31.3774V31.2499H78.4451L78.4492 31.2581Z" fill="#164194"/>
<path d="M81.6904 31.2581V31.3774C81.6904 31.6898 81.864 31.8954 82.1948 31.8954C82.4883 31.8954 82.6826 31.7556 82.6826 31.4719C82.6826 31.2417 82.5213 31.1348 82.3353 31.069L81.6573 30.8347C81.1282 30.6579 80.8553 30.3454 80.8553 29.8438C80.8553 29.2559 81.2481 28.7708 82.2402 28.7708C83.1125 28.7708 83.5259 29.1408 83.5259 29.7821V29.926H82.6578C82.6578 29.5684 82.5461 29.3875 82.232 29.3875C81.9881 29.3875 81.7772 29.519 81.7772 29.7698C81.7772 29.9425 81.8764 30.0864 82.1948 30.1851L82.7735 30.3701C83.3812 30.5633 83.6045 30.8511 83.6045 31.3897C83.6045 32.138 83.0174 32.508 82.2072 32.508C81.1241 32.508 80.8223 32.0598 80.8223 31.3774V31.2499H81.6904V31.2581Z" fill="#164194"/>
<path d="M85.0516 30.7812V31.069C85.0516 31.4842 85.1715 31.8954 85.527 31.8954C85.8495 31.8954 85.9818 31.661 86.0355 31.2252H86.9036C86.8664 32.0516 86.4489 32.5162 85.5394 32.5162C84.1421 32.5162 84.0884 31.4966 84.0884 30.6085C84.0884 29.6547 84.2827 28.7708 85.5849 28.7708C86.7094 28.7708 86.9615 29.4861 86.9615 30.5797V30.7853H85.0557L85.0516 30.7812ZM86.0355 30.2385C86.0148 29.6958 85.9446 29.3916 85.5477 29.3916C85.1508 29.3916 85.0516 29.7698 85.0516 30.0987V30.2385H86.0355Z" fill="#164194"/>
<path d="M91.3397 32.0476H91.3273C91.1164 32.3806 90.8519 32.5163 90.4757 32.5163C89.6861 32.5163 89.3223 31.9695 89.3223 30.6415C89.3223 29.3135 89.6861 28.7708 90.4757 28.7708C90.8395 28.7708 91.0834 28.9106 91.2859 29.1943H91.2983V27.6978H92.2615V32.4217H91.3397V32.0435V32.0476ZM90.7898 31.8173C91.2156 31.8173 91.2983 31.4185 91.2983 30.6456C91.2983 29.8727 91.2156 29.4739 90.7898 29.4739C90.364 29.4739 90.2855 29.8727 90.2855 30.6456C90.2855 31.4185 90.3682 31.8173 90.7898 31.8173Z" fill="#164194"/>
<path d="M99.6486 30.9458V31.0856C99.6486 31.5296 99.7809 31.8133 100.31 31.8133C100.616 31.8133 100.914 31.6283 100.914 31.2295C100.914 30.7978 100.682 30.6416 100.021 30.4237C99.1277 30.1318 98.7143 29.7823 98.7143 28.9929C98.7143 28.072 99.3096 27.6033 100.26 27.6033C101.153 27.6033 101.802 27.9651 101.802 28.8737V29.0052H100.839C100.839 28.5612 100.678 28.3022 100.294 28.3022C99.8388 28.3022 99.7189 28.5736 99.7189 28.849C99.7189 29.1409 99.8098 29.3177 100.236 29.4904L101.013 29.807C101.769 30.1194 101.964 30.4812 101.964 31.0568C101.964 32.0559 101.323 32.504 100.232 32.504C99.1401 32.504 98.644 32.0024 98.644 31.1267V30.9335H99.6486V30.9458Z" fill="#164194"/>
<path d="M102.575 28.8654H103.497V29.2436H103.509C103.72 28.9106 103.985 28.7749 104.361 28.7749C105.151 28.7749 105.514 29.3217 105.514 30.6456C105.514 31.9694 105.151 32.5203 104.361 32.5203C103.997 32.5203 103.753 32.3806 103.551 32.0969H103.538V33.5934H102.575V28.8695V28.8654ZM104.051 31.8173C104.469 31.8173 104.555 31.4185 104.555 30.6456C104.555 29.8726 104.473 29.4738 104.051 29.4738C103.629 29.4738 103.543 29.8726 103.543 30.6456C103.543 31.4185 103.625 31.8173 104.051 31.8173Z" fill="#164194"/>
<path d="M107.553 28.771C108.71 28.7504 109.033 29.4082 109.033 30.6416C109.033 31.875 108.657 32.5164 107.553 32.5164C106.395 32.537 106.073 31.8792 106.073 30.6416C106.073 29.4041 106.449 28.771 107.553 28.771ZM107.553 31.8956C107.945 31.8956 108.069 31.5297 108.069 30.6458C108.069 29.7618 107.945 29.3959 107.553 29.3959C107.077 29.3959 107.036 29.918 107.036 30.6458C107.036 31.3735 107.077 31.8956 107.553 31.8956Z" fill="#164194"/>
<path d="M109.69 28.8654H110.612V29.3423H110.624C110.819 28.9969 111.091 28.7749 111.492 28.7749C111.546 28.7749 111.612 28.7831 111.666 28.7872V29.663C111.567 29.6547 111.463 29.6465 111.364 29.6465C111.029 29.6465 110.653 29.811 110.653 30.2879V32.4258H109.69V28.8654Z" fill="#164194"/>
<path d="M112.36 27.8457H113.324V28.8653H113.882V29.4861H113.324V31.4102C113.324 31.6898 113.386 31.8008 113.667 31.8008C113.745 31.8008 113.82 31.7926 113.882 31.7885V32.4258C113.671 32.4463 113.477 32.4669 113.253 32.4669C112.497 32.4669 112.36 32.249 112.36 31.5254V29.4861H111.873V28.8653H112.36V27.8457Z" fill="#164194"/>
<path d="M115.064 31.2581V31.3774C115.064 31.6898 115.238 31.8954 115.569 31.8954C115.862 31.8954 116.057 31.7556 116.057 31.4719C116.057 31.2417 115.895 31.1348 115.705 31.069L115.027 30.8347C114.494 30.6579 114.221 30.3454 114.221 29.8438C114.221 29.2559 114.614 28.7708 115.606 28.7708C116.478 28.7708 116.892 29.1408 116.892 29.7821V29.926H116.023C116.023 29.5684 115.912 29.3875 115.598 29.3875C115.354 29.3875 115.143 29.519 115.143 29.7698C115.143 29.9425 115.242 30.0864 115.56 30.1851L116.139 30.3701C116.747 30.5633 116.97 30.8511 116.97 31.3897C116.97 32.138 116.383 32.508 115.573 32.508C114.49 32.508 114.188 32.0598 114.188 31.3774V31.2499H115.052L115.064 31.2581Z" fill="#164194"/>
<path d="M120.252 30.9458V31.0856C120.252 31.5296 120.385 31.8133 120.918 31.8133C121.224 31.8133 121.517 31.6283 121.517 31.2295C121.517 30.7978 121.286 30.6416 120.624 30.4237C119.732 30.1318 119.318 29.7823 119.318 28.9929C119.318 28.072 119.913 27.6033 120.86 27.6033C121.753 27.6033 122.402 27.9651 122.402 28.8737V29.0052H121.439C121.439 28.5612 121.278 28.3022 120.893 28.3022C120.438 28.3022 120.323 28.5736 120.323 28.849C120.323 29.1409 120.414 29.3177 120.839 29.4904L121.617 29.807C122.369 30.1194 122.567 30.4812 122.567 31.0568C122.567 32.0559 121.927 32.504 120.835 32.504C119.744 32.504 119.252 32.0024 119.252 31.1267V30.9335H120.257L120.252 30.9458Z" fill="#164194"/>
<path d="M125.106 32.0066H125.09C124.887 32.356 124.54 32.5164 124.135 32.5164C123.535 32.5164 123.18 32.2039 123.18 31.505V28.8655H124.143V31.32C124.143 31.6776 124.267 31.8174 124.556 31.8174C124.883 31.8174 125.065 31.6242 125.065 31.2295V28.8655H126.028V32.4259H125.106V32.0107V32.0066Z" fill="#164194"/>
<path d="M126.801 27.6978H127.764V29.1943H127.776C127.979 28.9106 128.223 28.7708 128.587 28.7708C129.376 28.7708 129.74 29.3176 129.74 30.6415C129.74 31.9653 129.376 32.5163 128.587 32.5163C128.21 32.5163 127.946 32.3765 127.735 32.0476H127.723V32.4258H126.801V27.7019V27.6978ZM128.272 31.8132C128.69 31.8132 128.777 31.4144 128.777 30.6415C128.777 29.8686 128.694 29.4697 128.272 29.4697C127.851 29.4697 127.764 29.8686 127.764 30.6415C127.764 31.4144 127.847 31.8132 128.272 31.8132Z" fill="#164194"/>
<path d="M130.418 29.9548V29.8685C130.418 29.0462 131.014 28.7708 131.737 28.7708C132.882 28.7708 133.097 29.2189 133.097 29.8603V31.735C133.097 32.0681 133.118 32.2202 133.217 32.4216H132.295C132.233 32.3106 132.204 32.1708 132.175 32.0516H132.163C131.94 32.4216 131.667 32.5162 131.208 32.5162C130.538 32.5162 130.298 31.9735 130.298 31.4966C130.298 30.8305 130.584 30.5551 131.249 30.3824L131.795 30.2426C132.08 30.1686 132.179 30.0658 132.179 29.8233C132.179 29.5519 132.055 29.3875 131.733 29.3875C131.439 29.3875 131.286 29.5725 131.286 29.852V29.9507H130.422L130.418 29.9548ZM132.179 30.6414C132.047 30.736 131.886 30.7935 131.766 30.8182C131.377 30.8963 131.224 31.0772 131.224 31.3938C131.224 31.6651 131.328 31.8913 131.588 31.8913C131.849 31.8913 132.179 31.7309 132.179 31.3403V30.6373V30.6414Z" fill="#164194"/>
<path d="M135.809 32.0927H135.797C135.594 32.3764 135.35 32.5162 134.986 32.5162C134.197 32.5162 133.833 31.9694 133.833 30.6414C133.833 29.3135 134.197 28.7708 134.986 28.7708C135.363 28.7708 135.627 28.9105 135.838 29.2394H135.85V28.8612H136.772V33.5852H135.809V32.0886V32.0927ZM135.301 29.4738C134.883 29.4738 134.796 29.8726 134.796 30.6455C134.796 31.4185 134.879 31.8173 135.301 31.8173C135.722 31.8173 135.809 31.4185 135.809 30.6455C135.809 29.8726 135.726 29.4738 135.301 29.4738Z" fill="#164194"/>
<path d="M139.476 32.0066H139.459C139.257 32.356 138.909 32.5164 138.504 32.5164C137.905 32.5164 137.549 32.2039 137.549 31.505V28.8655H138.513V31.32C138.513 31.6776 138.641 31.8174 138.926 31.8174C139.253 31.8174 139.434 31.6242 139.434 31.2295V28.8655H140.398V32.4259H139.476V32.0107V32.0066Z" fill="#164194"/>
<path d="M141.17 29.9548V29.8685C141.17 29.0462 141.766 28.7708 142.489 28.7708C143.634 28.7708 143.853 29.2189 143.853 29.8603V31.735C143.853 32.0681 143.874 32.2202 143.969 32.4216H143.047C142.985 32.3106 142.956 32.1708 142.927 32.0516H142.915C142.692 32.4216 142.419 32.5162 141.956 32.5162C141.286 32.5162 141.046 31.9735 141.046 31.4966C141.046 30.8305 141.332 30.5551 141.997 30.3824L142.543 30.2426C142.828 30.1686 142.927 30.0658 142.927 29.8233C142.927 29.5519 142.799 29.3875 142.481 29.3875C142.187 29.3875 142.034 29.5725 142.034 29.852V29.9507H141.17V29.9548ZM142.932 30.6414C142.799 30.736 142.638 30.7935 142.518 30.8182C142.125 30.8963 141.972 31.0772 141.972 31.3938C141.972 31.6651 142.08 31.8913 142.336 31.8913C142.593 31.8913 142.932 31.7309 142.932 31.3403V30.6373V30.6414Z" fill="#164194"/>
<path d="M144.891 27.8457H145.854V28.8653H146.412V29.4861H145.854V31.4102C145.854 31.6898 145.916 31.8008 146.197 31.8008C146.276 31.8008 146.35 31.7926 146.417 31.7885V32.4258C146.206 32.4463 146.011 32.4669 145.788 32.4669C145.032 32.4669 144.895 32.249 144.895 31.5254V29.4861H144.403V28.8653H144.895V27.8457H144.891Z" fill="#164194"/>
<path d="M146.921 27.6445H147.884V28.4257H146.921V27.6445ZM146.921 28.8615H147.884V32.4219H146.921V28.8615Z" fill="#164194"/>
<path d="M150.588 32.0927H150.572C150.369 32.3764 150.125 32.5162 149.761 32.5162C148.972 32.5162 148.608 31.9694 148.608 30.6414C148.608 29.3135 148.972 28.7708 149.761 28.7708C150.137 28.7708 150.406 28.9105 150.613 29.2394H150.625V28.8612H151.547V33.5852H150.584V32.0886L150.588 32.0927ZM150.075 29.4738C149.658 29.4738 149.571 29.8726 149.571 30.6455C149.571 31.4185 149.654 31.8173 150.075 31.8173C150.497 31.8173 150.588 31.4185 150.588 30.6455C150.588 29.8726 150.505 29.4738 150.075 29.4738Z" fill="#164194"/>
<path d="M154.263 32.0066H154.25C154.048 32.356 153.701 32.5164 153.296 32.5164C152.696 32.5164 152.336 32.2039 152.336 31.505V28.8655H153.304V31.32C153.304 31.6776 153.428 31.8174 153.713 31.8174C154.04 31.8174 154.222 31.6242 154.222 31.2295V28.8655H155.185V32.4259H154.263V32.0107V32.0066Z" fill="#164194"/>
<path d="M156.793 30.7812V31.069C156.793 31.4842 156.913 31.8954 157.268 31.8954C157.591 31.8954 157.723 31.661 157.777 31.2252H158.645C158.608 32.0516 158.19 32.5162 157.285 32.5162C155.887 32.5162 155.83 31.4966 155.83 30.6085C155.83 29.6547 156.024 28.7708 157.326 28.7708C158.451 28.7708 158.703 29.4861 158.703 30.5797V30.7853H156.797L156.793 30.7812ZM157.777 30.2385C157.756 29.6958 157.686 29.3916 157.289 29.3916C156.892 29.3916 156.793 29.7698 156.793 30.0987V30.2385H157.777Z" fill="#164194"/>
<path d="M160.042 31.2581V31.3774C160.042 31.6898 160.216 31.8954 160.547 31.8954C160.84 31.8954 161.035 31.7556 161.035 31.4719C161.035 31.2417 160.873 31.1348 160.683 31.069L160.005 30.8347C159.472 30.6579 159.203 30.3454 159.203 29.8438C159.203 29.2559 159.596 28.7708 160.584 28.7708C161.46 28.7708 161.87 29.1408 161.87 29.7821V29.926H161.002C161.002 29.5684 160.89 29.3875 160.576 29.3875C160.332 29.3875 160.121 29.519 160.121 29.7698C160.121 29.9425 160.22 30.0864 160.539 30.1851L161.117 30.3701C161.725 30.5633 161.948 30.8511 161.948 31.3897C161.948 32.138 161.361 32.508 160.551 32.508C159.468 32.508 159.166 32.0598 159.166 31.3774V31.2499H160.03L160.042 31.2581Z" fill="#164194"/>
<path d="M164.42 27.6978H167.207V28.4789H165.425V29.589H167.103V30.3701H165.425V32.4217H164.42V27.6978Z" fill="#164194"/>
<path d="M168.604 30.9458V31.0856C168.604 31.5296 168.736 31.8133 169.266 31.8133C169.576 31.8133 169.869 31.6283 169.869 31.2295C169.869 30.7978 169.638 30.6416 168.972 30.4237C168.079 30.1318 167.666 29.7823 167.666 28.9929C167.666 28.072 168.257 27.6033 169.208 27.6033C170.101 27.6033 170.75 27.9651 170.75 28.8737V29.0052H169.786C169.786 28.5612 169.625 28.3022 169.241 28.3022C168.786 28.3022 168.67 28.5736 168.67 28.849C168.67 29.1409 168.761 29.3177 169.187 29.4904L169.96 29.807C170.712 30.1194 170.911 30.4812 170.911 31.0568C170.911 32.0559 170.27 32.504 169.179 32.504C168.087 32.504 167.591 32.0024 167.591 31.1267V30.9335H168.6L168.604 30.9458Z" fill="#164194"/>
<path d="M172.366 30.9458V31.0856C172.366 31.5296 172.498 31.8133 173.027 31.8133C173.333 31.8133 173.631 31.6283 173.631 31.2295C173.631 30.7978 173.399 30.6416 172.738 30.4237C171.845 30.1318 171.432 29.7823 171.432 28.9929C171.432 28.072 172.027 27.6033 172.978 27.6033C173.871 27.6033 174.52 27.9651 174.52 28.8737V29.0052H173.556C173.556 28.5612 173.395 28.3022 173.011 28.3022C172.556 28.3022 172.436 28.5736 172.436 28.849C172.436 29.1409 172.527 29.3177 172.953 29.4904L173.73 29.807C174.483 30.1194 174.681 30.4812 174.681 31.0568C174.681 32.0559 174.04 32.504 172.949 32.504C171.857 32.504 171.361 32.0024 171.361 31.1267V30.9335H172.366V30.9458Z" fill="#164194"/>
<path d="M176.123 30.9458V31.0856C176.123 31.5296 176.256 31.8133 176.789 31.8133C177.095 31.8133 177.388 31.6283 177.388 31.2295C177.388 30.7978 177.157 30.6416 176.496 30.4237C175.603 30.1318 175.189 29.7823 175.189 28.9929C175.189 28.072 175.784 27.6033 176.731 27.6033C177.624 27.6033 178.273 27.9651 178.273 28.8737V29.0052H177.31C177.31 28.5612 177.149 28.3022 176.764 28.3022C176.309 28.3022 176.194 28.5736 176.194 28.849C176.194 29.1409 176.285 29.3177 176.71 29.4904L177.484 29.807C178.24 30.1194 178.434 30.4812 178.434 31.0568C178.434 32.0559 177.794 32.504 176.702 32.504C175.611 32.504 175.115 32.0024 175.115 31.1267V30.9335H176.123V30.9458Z" fill="#164194"/>
<path d="M93.8568 30.769V31.0568C93.8568 31.472 93.9767 31.8832 94.3322 31.8832C94.6546 31.8832 94.7869 31.6488 94.8407 31.213H95.7088C95.6716 32.0394 95.2541 32.504 94.3487 32.504C92.9514 32.504 92.8936 31.4844 92.8936 30.5963C92.8936 29.6425 93.0879 28.7585 94.3901 28.7585C95.5145 28.7585 95.7667 29.4739 95.7667 30.5675V30.7731H93.8609L93.8568 30.769ZM94.8407 30.2263C94.82 29.6836 94.7497 29.3794 94.3529 29.3794C93.956 29.3794 93.8568 29.7576 93.8568 30.0865V30.2263H94.8407Z" fill="#164194"/>
<path d="M36.0098 46.9595H37.0143L37.4732 49.4715H37.4897L37.9776 46.9595H39.0689L39.5857 49.4715H39.6022L40.0735 46.9595H41.0326L40.1893 50.4993H39.0483L38.5315 47.9873H38.515L38.0272 50.4993H36.8614L36.0098 46.9595Z" fill="#164194"/>
<path d="M41.144 46.9595H42.1486L42.6075 49.4715H42.624L43.1118 46.9595H44.2032L44.72 49.4715H44.7365L45.2078 46.9595H46.1669L45.3235 50.4993H44.1825L43.6658 47.9873H43.6493L43.1614 50.4993H41.9998L41.1482 46.9595H41.144Z" fill="#164194"/>
<path d="M46.2822 46.9595H47.2868L47.7457 49.4715H47.7622L48.25 46.9595H49.3414L49.8581 49.4715H49.8747L50.346 46.9595H51.3051L50.4617 50.4993H49.3207L48.804 47.9873H48.7874L48.2996 50.4993H47.138L46.2864 46.9595H46.2822Z" fill="#164194"/>
<path d="M52.4503 49.4758V50.5037H51.4912V49.4758H52.4503Z" fill="#164194"/>
<path d="M53.9308 49.3442V49.4634C53.9308 49.7718 54.1127 49.9774 54.4558 49.9774C54.7617 49.9774 54.9643 49.8376 54.9643 49.558C54.9643 49.3278 54.7948 49.2209 54.6005 49.1551L53.8936 48.9249C53.3396 48.7481 53.0585 48.4397 53.0585 47.9381C53.0585 47.3543 53.4678 46.8733 54.4971 46.8733C55.4066 46.8733 55.8365 47.2433 55.8365 47.8806V48.0245H54.9353C54.9353 47.6709 54.8196 47.49 54.493 47.49C54.2367 47.49 54.0217 47.6216 54.0217 47.8724C54.0217 48.045 54.1251 48.1889 54.4599 48.2876L55.0635 48.4726C55.696 48.6617 55.9275 48.9536 55.9275 49.484C55.9275 50.2282 55.3157 50.5982 54.4723 50.5982C53.3437 50.5982 53.0337 50.15 53.0337 49.4717V49.3483H53.9349L53.9308 49.3442Z" fill="#164194"/>
<path d="M58.4447 50.0882H58.4281C58.2173 50.4377 57.8535 50.5939 57.4318 50.5939C56.8076 50.5939 56.4355 50.2856 56.4355 49.5866V46.9595H57.4401V49.4016C57.4401 49.7552 57.5724 49.895 57.87 49.895C58.2132 49.895 58.3992 49.7059 58.3992 49.3112V46.9636H59.4038V50.5035H58.4447V50.0882Z" fill="#164194"/>
<path d="M60.8258 49.3442V49.4634C60.8258 49.7718 61.0077 49.9774 61.3508 49.9774C61.6567 49.9774 61.8593 49.8376 61.8593 49.558C61.8593 49.3278 61.6939 49.2209 61.4955 49.1551L60.7886 48.9249C60.2346 48.7481 59.9535 48.4397 59.9535 47.9381C59.9535 47.3543 60.3628 46.8733 61.3922 46.8733C62.3016 46.8733 62.7316 47.2433 62.7316 47.8806V48.0245H61.8304C61.8304 47.6709 61.7146 47.49 61.388 47.49C61.1317 47.49 60.9167 47.6216 60.9167 47.8724C60.9167 48.045 61.0201 48.1889 61.355 48.2876L61.9585 48.4726C62.591 48.6617 62.8225 48.9536 62.8225 49.484C62.8225 50.2282 62.2107 50.5982 61.3674 50.5982C60.2388 50.5982 59.9287 50.15 59.9287 49.4717V49.3483H60.8299L60.8258 49.3442Z" fill="#164194"/>
<path d="M65.1912 46.9595H66.1958L65.216 50.4993H64.0543L63.0415 46.9595H64.0874L64.6455 49.4921H64.662L65.1953 46.9595H65.1912Z" fill="#164194"/>
<path d="M67.2003 49.4758V50.5037H66.2412V49.4758H67.2003Z" fill="#164194"/>
<path d="M69.8257 48.238C69.8257 47.8967 69.7513 47.5267 69.3751 47.5267C68.879 47.5267 68.8005 47.9214 68.8005 48.7396C68.8005 49.6153 68.8873 49.9771 69.3379 49.9771C69.6727 49.9771 69.8257 49.7222 69.8257 49.1466H70.7848C70.7848 50.0758 70.3548 50.5938 69.2924 50.5938C68.2878 50.5938 67.7959 50.1539 67.7959 48.7313C67.7959 47.3088 68.4573 46.8689 69.3834 46.8689C70.3094 46.8689 70.7889 47.4034 70.7889 48.238H69.8298H69.8257Z" fill="#164194"/>
<path d="M71.3267 45.8042H72.3312V47.3254H72.3478C72.5379 47.0212 72.8769 46.8732 73.2986 46.8732C73.9228 46.8732 74.2949 47.1815 74.2949 47.8804V50.5076H73.2903V48.0654C73.2903 47.7119 73.158 47.5721 72.8604 47.5721C72.5173 47.5721 72.3312 47.7612 72.3312 48.1559V50.5035H71.3267V45.8042Z" fill="#164194"/>
<path d="M77.3579 45.3601H78.2591V51.1777H77.3579V45.3601Z" fill="#164194"/>
<path d="M81.3311 46.9595H82.3356L82.7945 49.4715H82.811L83.2989 46.9595H84.3902L84.907 49.4715H84.9235L85.3948 46.9595H86.3539L85.5105 50.4993H84.3696L83.8528 47.9873H83.8363L83.3485 50.4993H82.1827L81.3311 46.9595Z" fill="#164194"/>
<path d="M86.4648 46.9595H87.4694L87.9283 49.4715H87.9448L88.4326 46.9595H89.524L90.0408 49.4715H90.0573L90.5286 46.9595H91.4877L90.6443 50.4993H89.5033L88.9866 47.9873H88.9701L88.4822 50.4993H87.3206L86.469 46.9595H86.4648Z" fill="#164194"/>
<path d="M91.604 46.9595H92.6086L93.0674 49.4715H93.084L93.5718 46.9595H94.6632L95.1799 49.4715H95.1965L95.6677 46.9595H96.6268L95.7835 50.4993H94.6425L94.1257 47.9873H94.1092L93.6214 50.4993H92.4597L91.6081 46.9595H91.604Z" fill="#164194"/>
<path d="M97.7716 49.4758V50.5037H96.8125V49.4758H97.7716Z" fill="#164194"/>
<path d="M98.735 47.5804H98.2266V46.9637H98.735V46.5608C98.735 45.9235 99.136 45.7139 99.7809 45.7139C99.9628 45.7139 100.136 45.7221 100.318 45.7344V46.3799C100.252 46.3717 100.186 46.3717 100.12 46.3717C99.8347 46.3717 99.7355 46.4498 99.7355 46.6554V46.9637H100.318V47.5804H99.7355V50.5036H98.7309V47.5804H98.735Z" fill="#164194"/>
<path d="M101.418 49.3442V49.4634C101.418 49.7718 101.599 49.9774 101.943 49.9774C102.249 49.9774 102.451 49.8376 102.451 49.558C102.451 49.3278 102.282 49.2209 102.087 49.1551L101.38 48.9249C100.826 48.7481 100.545 48.4397 100.545 47.9381C100.545 47.3543 100.955 46.8733 101.984 46.8733C102.893 46.8733 103.323 47.2433 103.323 47.8806V48.0245H102.422C102.422 47.6709 102.306 47.49 101.98 47.49C101.724 47.49 101.509 47.6216 101.509 47.8724C101.509 48.045 101.612 48.1889 101.947 48.2876L102.55 48.4726C103.183 48.6617 103.414 48.9536 103.414 49.484C103.414 50.2282 102.802 50.5982 101.959 50.5982C100.831 50.5982 100.521 50.15 100.521 49.4717V49.3483H101.422L101.418 49.3442Z" fill="#164194"/>
<path d="M104.663 49.3442V49.4634C104.663 49.7718 104.845 49.9774 105.188 49.9774C105.494 49.9774 105.697 49.8376 105.697 49.558C105.697 49.3278 105.527 49.2209 105.333 49.1551L104.626 48.9249C104.072 48.7481 103.791 48.4397 103.791 47.9381C103.791 47.3543 104.2 46.8733 105.23 46.8733C106.139 46.8733 106.569 47.2433 106.569 47.8806V48.0245H105.668C105.668 47.6709 105.552 47.49 105.225 47.49C104.969 47.49 104.754 47.6216 104.754 47.8724C104.754 48.045 104.857 48.1889 105.192 48.2876L105.796 48.4726C106.428 48.6617 106.66 48.9536 106.66 49.484C106.66 50.2282 106.048 50.5982 105.205 50.5982C104.076 50.5982 103.766 50.15 103.766 49.4717V49.3483H104.667L104.663 49.3442Z" fill="#164194"/>
<path d="M107.908 49.3442V49.4634C107.908 49.7718 108.09 49.9774 108.433 49.9774C108.739 49.9774 108.942 49.8376 108.942 49.558C108.942 49.3278 108.772 49.2209 108.578 49.1551L107.871 48.9249C107.317 48.7481 107.036 48.4397 107.036 47.9381C107.036 47.3543 107.445 46.8733 108.475 46.8733C109.384 46.8733 109.814 47.2433 109.814 47.8806V48.0245H108.913C108.913 47.6709 108.797 47.49 108.471 47.49C108.214 47.49 107.999 47.6216 107.999 47.8724C107.999 48.045 108.103 48.1889 108.437 48.2876L109.041 48.4726C109.674 48.6617 109.905 48.9536 109.905 49.484C109.905 50.2282 109.293 50.5982 108.45 50.5982C107.321 50.5982 107.011 50.15 107.011 49.4717V49.3483H107.912L107.908 49.3442Z" fill="#164194"/>
<path d="M111.435 49.4758V50.5037H110.476V49.4758H111.435Z" fill="#164194"/>
<path d="M114.064 48.238C114.064 47.8967 113.99 47.5267 113.613 47.5267C113.117 47.5267 113.039 47.9214 113.039 48.7396C113.039 49.6153 113.126 49.9771 113.576 49.9771C113.911 49.9771 114.064 49.7222 114.064 49.1466H115.023C115.023 50.0758 114.593 50.5938 113.531 50.5938C112.526 50.5938 112.034 50.1539 112.034 48.7313C112.034 47.3088 112.696 46.8689 113.622 46.8689C114.548 46.8689 115.027 47.4034 115.027 48.238H114.068H114.064Z" fill="#164194"/>
<path d="M115.56 45.8042H116.565V47.3254H116.581C116.771 47.0212 117.11 46.8732 117.532 46.8732C118.156 46.8732 118.528 47.1815 118.528 47.8804V50.5076H117.524V48.0654C117.524 47.7119 117.391 47.5721 117.094 47.5721C116.751 47.5721 116.565 47.7612 116.565 48.1559V50.5035H115.56V45.8042Z" fill="#164194"/>
</g>
<defs>
<clipPath id="clip0_2742_60623">
<rect width="176.87" height="37.6148" fill="white" transform="translate(1.56543 16.2683)"/>
</clipPath>
</defs>
</svg>
