<svg width="100" height="54" viewBox="0 0 100 54" fill="none" xmlns="http://www.w3.org/2000/svg">
<g clip-path="url(#clip0_3102_149519)">
<path d="M0.556601 45.8186C0.928975 45.0974 1.43462 44.5447 2.07745 44.1566C2.72029 43.7686 3.43368 43.5765 4.22154 43.5765C4.82126 43.5765 5.38962 43.7059 5.93446 43.9685C6.47538 44.2311 6.91047 44.576 7.23189 45.0072V40.6367H9.59157V52.9407H7.23189V51.5767C6.94183 52.0314 6.5381 52.3959 6.01678 52.6742C5.49545 52.9525 4.89182 53.0897 4.20586 53.0897C3.42976 53.0897 2.72029 52.8898 2.07745 52.49C1.43462 52.0902 0.928975 51.5296 0.556601 50.8006C0.184227 50.0715 0 49.2366 0 48.2959C0 47.363 0.184227 46.5398 0.556601 45.8186ZM6.91439 46.873C6.69097 46.4693 6.39307 46.1596 6.01678 45.9401C5.64048 45.7245 5.23675 45.6148 4.80166 45.6148C4.36657 45.6148 3.97068 45.7206 3.60615 45.9323C3.24161 46.1439 2.94371 46.4497 2.71637 46.8534C2.48902 47.2571 2.37535 47.7353 2.37535 48.2919C2.37535 48.8485 2.48902 49.3307 2.71637 49.7462C2.94371 50.1617 3.24161 50.4791 3.61399 50.7026C3.98636 50.926 4.38225 51.0357 4.80166 51.0357C5.23283 51.0357 5.63656 50.926 6.01678 50.7104C6.39307 50.4948 6.69097 50.1852 6.91439 49.7814C7.13782 49.3777 7.24757 48.8917 7.24757 48.3272C7.24757 47.7628 7.13782 47.2767 6.91439 46.873Z" fill="white"/>
<path d="M20.3667 49.0246H13.6326C13.6875 49.6909 13.9227 50.2123 14.3303 50.5886C14.7419 50.9649 15.2436 51.153 15.8434 51.153C16.7096 51.153 17.3211 50.7806 17.6896 50.0398H20.1982C19.9316 50.9257 19.4221 51.6547 18.6695 52.227C17.9169 52.7993 16.9918 53.0815 15.8943 53.0815C15.0085 53.0815 14.2128 52.8855 13.5072 52.4896C12.8017 52.0977 12.2529 51.5411 11.8609 50.8198C11.4689 50.0986 11.269 49.2676 11.269 48.3269C11.269 47.3744 11.4611 46.5356 11.8492 45.8183C12.2372 45.097 12.7781 44.5443 13.4798 44.1563C14.1775 43.7682 14.981 43.5762 15.8904 43.5762C16.7645 43.5762 17.5484 43.7643 18.2422 44.1406C18.936 44.5169 19.473 45.0539 19.8532 45.7438C20.2335 46.4376 20.4255 47.2333 20.4255 48.1309C20.4334 48.4601 20.4098 48.762 20.3667 49.0246ZM18.0227 47.4645C18.011 46.8648 17.7954 46.3866 17.376 46.026C16.9526 45.6654 16.4392 45.4851 15.8316 45.4851C15.2554 45.4851 14.7694 45.6615 14.3774 46.0103C13.9854 46.3592 13.7424 46.8452 13.6522 47.4645H18.0227Z" fill="white"/>
<path d="M26.3522 45.6343H24.7412V52.9328H22.3815V45.6343H21.335V43.7214H22.3815V43.255C22.3815 42.1261 22.7029 41.2951 23.3458 40.7621C23.9886 40.229 24.9568 39.982 26.2542 40.0134V41.9733C25.6898 41.9615 25.2939 42.0556 25.0744 42.2555C24.851 42.4554 24.7412 42.816 24.7412 43.3373V43.7214H26.3522V45.6343Z" fill="white"/>
<path d="M28.0219 42.2356C27.7514 41.9769 27.6143 41.6515 27.6143 41.2635C27.6143 40.8754 27.7514 40.5501 28.0219 40.2914C28.2924 40.0327 28.6334 39.8994 29.045 39.8994C29.4565 39.8994 29.7975 40.0288 30.068 40.2914C30.3385 40.5501 30.4757 40.8754 30.4757 41.2635C30.4757 41.6515 30.3385 41.9769 30.068 42.2356C29.7975 42.4982 29.4565 42.6275 29.045 42.6275C28.6334 42.6275 28.2924 42.4943 28.0219 42.2356ZM30.1895 43.7211V52.9325H27.8612V43.7211H30.1895Z" fill="white"/>
<path d="M37.9387 52.9329L34.8146 49.0093V52.9329H32.4863V40.6289H34.8146V47.6295L37.9073 43.7216H40.9333L36.8764 48.3429L40.9647 52.9329H37.9387Z" fill="white"/>
<path d="M41.9018 45.8183C42.2742 45.097 42.7759 44.5443 43.4148 44.1563C44.0537 43.7682 44.7632 43.5762 45.5511 43.5762C46.237 43.5762 46.8407 43.7134 47.3541 43.9917C47.8676 44.27 48.2831 44.6188 48.5928 45.0382V43.7251H50.9368V52.9365H48.5928V51.5881C48.2949 52.0193 47.8794 52.3799 47.3541 52.6621C46.8289 52.9443 46.2213 53.0854 45.5354 53.0854C44.7593 53.0854 44.0537 52.8855 43.4148 52.4857C42.7759 52.0859 42.2742 51.5254 41.9018 50.7963C41.5294 50.0712 41.3452 49.2363 41.3452 48.2955C41.3452 47.3626 41.5294 46.5395 41.9018 45.8183ZM48.2635 46.8727C48.0401 46.4689 47.7422 46.1593 47.3659 45.9398C46.9896 45.7242 46.5859 45.6144 46.1508 45.6144C45.7196 45.6144 45.3198 45.7203 44.9553 45.9319C44.5907 46.1436 44.2928 46.4493 44.0655 46.8531C43.8382 47.2568 43.7245 47.735 43.7245 48.2916C43.7245 48.8482 43.8382 49.3303 44.0655 49.7458C44.2928 50.1613 44.5907 50.4788 44.9631 50.7022C45.3355 50.9257 45.7314 51.0354 46.1508 51.0354C46.582 51.0354 46.9857 50.9257 47.3659 50.7101C47.7422 50.4945 48.0401 50.1848 48.2635 49.7811C48.4869 49.3774 48.5967 48.8913 48.5967 48.3269C48.5967 47.7624 48.483 47.2764 48.2635 46.8727Z" fill="white"/>
<path d="M56.7181 44.0034C57.2002 43.7251 57.7529 43.5879 58.3722 43.5879V46.0299H57.7568C57.0238 46.0299 56.4751 46.2023 56.1027 46.5434C55.7303 46.8883 55.5461 47.4841 55.5461 48.3386V52.9286H53.2178V43.7172H55.5461V45.1479C55.844 44.6658 56.232 44.2817 56.7181 44.0034Z" fill="white"/>
<path d="M62.9742 45.6335V50.0903C62.9742 50.3999 63.0487 50.6233 63.1977 50.7644C63.3466 50.9016 63.6014 50.9722 63.9542 50.9722H65.036V52.936H63.5739C61.6141 52.936 60.6302 51.9835 60.6302 50.0746V45.6375H59.5327V43.7246H60.6302V41.4473H62.9742V43.7246H65.036V45.6375H62.9742V45.6335Z" fill="white"/>
<path d="M75.2115 49.0246H68.4774C68.5322 49.6909 68.7635 50.2123 69.1751 50.5886C69.5827 50.9649 70.0884 51.153 70.6881 51.153C71.5543 51.153 72.1658 50.7806 72.5343 50.0398H75.0429C74.7764 50.9257 74.2668 51.6547 73.5142 52.227C72.7616 52.7993 71.8366 53.0815 70.739 53.0815C69.8532 53.0815 69.0575 52.8855 68.3519 52.4896C67.6464 52.0977 67.0976 51.5411 66.7056 50.8198C66.3137 50.0986 66.1138 49.2676 66.1138 48.3269C66.1138 47.3744 66.3098 46.5356 66.6939 45.8183C67.0819 45.097 67.6268 44.5443 68.3245 44.1563C69.0222 43.7682 69.8258 43.5762 70.7351 43.5762C71.6092 43.5762 72.3932 43.7643 73.087 44.1406C73.7808 44.5169 74.3178 45.0539 74.698 45.7438C75.0821 46.4376 75.2702 47.2333 75.2702 48.1309C75.2781 48.4601 75.2546 48.762 75.2115 49.0246ZM72.8675 47.4645C72.8557 46.8648 72.6401 46.3866 72.2207 46.026C71.7974 45.6654 71.2839 45.4851 70.6763 45.4851C70.1001 45.4851 69.6141 45.6615 69.2221 46.0103C68.8301 46.3592 68.5871 46.8452 68.5009 47.4645H72.8675Z" fill="white"/>
<path d="M76.9638 52.6584C76.6933 52.3997 76.5562 52.0744 76.5562 51.6863C76.5562 51.2983 76.6933 50.9729 76.9638 50.7142C77.2343 50.4555 77.5831 50.3223 78.0025 50.3223C78.4141 50.3223 78.7512 50.4516 79.0177 50.7142C79.2843 50.9769 79.4176 51.2983 79.4176 51.6863C79.4176 52.0744 79.2843 52.3997 79.0177 52.6584C78.7512 52.9171 78.4141 53.0504 78.0025 53.0504C77.5831 53.0504 77.2382 52.921 76.9638 52.6584Z" fill="white"/>
<path d="M81.2793 45.8261C81.6674 45.1127 82.2044 44.5561 82.8903 44.1641C83.5763 43.7722 84.3642 43.5723 85.25 43.5723C86.3907 43.5723 87.3353 43.8584 88.084 44.4268C88.8326 44.999 89.3344 45.7987 89.5892 46.8296H87.0805C86.9473 46.4297 86.7238 46.1162 86.4063 45.8888C86.0888 45.6615 85.7008 45.5478 85.2343 45.5478C84.568 45.5478 84.0427 45.7869 83.6547 46.269C83.2666 46.7512 83.0746 47.4371 83.0746 48.323C83.0746 49.1971 83.2666 49.8791 83.6547 50.3612C84.0427 50.8434 84.568 51.0864 85.2343 51.0864C86.1751 51.0864 86.7905 50.663 87.0805 49.8242H89.5892C89.3344 50.8238 88.8287 51.6155 88.0761 52.2035C87.3235 52.7915 86.3789 53.0854 85.25 53.0854C84.3642 53.0854 83.5763 52.8894 82.8903 52.4936C82.2044 52.1016 81.6635 51.545 81.2793 50.8316C80.8913 50.1182 80.6992 49.2833 80.6992 48.3308C80.6992 47.3744 80.8913 46.5395 81.2793 45.8261Z" fill="white"/>
<path d="M98.2713 44.0469C98.8161 44.3526 99.2395 44.7995 99.5452 45.3953C99.851 45.9872 100.004 46.7005 100.004 47.5315V52.9368H97.6755V47.849C97.6755 47.116 97.4913 46.5555 97.1267 46.1635C96.7622 45.7716 96.2605 45.5717 95.6294 45.5717C94.9866 45.5717 94.4809 45.7676 94.1086 46.1635C93.7362 46.5555 93.5519 47.12 93.5519 47.849V52.9368H91.2236V40.6328H93.5519V44.874C93.8498 44.4741 94.2497 44.1606 94.7475 43.9332C95.2453 43.7059 95.8019 43.5922 96.4094 43.5922C97.1071 43.5883 97.7265 43.7412 98.2713 44.0469Z" fill="white"/>
<path d="M67.7211 23.6045L61.5867 23.6085L66.2865 18.9087C68.995 16.1022 70.2728 11.9002 68.8304 7.46312C67.8073 4.32342 65.4555 1.85399 62.3471 0.73687C57.4514 -1.02309 52.8614 0.552643 50.0039 3.7237C47.1465 0.552643 42.5565 -1.02701 37.6607 0.73687C34.5524 1.85399 32.1966 4.32342 31.1736 7.46312C29.7272 11.9002 31.005 16.1022 33.7136 18.9087L44.0342 29.2372C44.2341 29.4371 44.5634 29.4371 44.7633 29.2372L47.5463 26.4542C47.7462 26.2543 47.7462 25.925 47.5463 25.7251L41.3884 19.5672L41.3923 19.5633L37.1825 15.3496C35.4853 13.6524 34.8738 11.0732 35.8263 8.8703C37.696 4.539 42.8975 3.84521 45.8373 6.785L49.6316 10.5793C49.8354 10.7831 50.1686 10.7831 50.3724 10.5793L54.2098 6.74189C55.907 5.04465 58.4862 4.43317 60.6891 5.38566C65.0204 7.25537 65.7142 12.4568 62.7744 15.3966L58.6077 19.5594L58.6116 19.5633L52.8065 25.3684C52.5439 25.631 52.7281 26.0818 53.1005 26.0818L60.5519 26.0857L52.3989 35.007C52.0971 35.3363 52.5361 35.8184 52.8928 35.5519L67.9445 24.2591C68.0307 24.2043 68.0778 24.0945 68.0778 23.9808C68.0778 23.777 67.9288 23.6045 67.7211 23.6045Z" fill="#97C568"/>
</g>
<defs>
<clipPath id="clip0_3102_149519">
<rect width="100" height="53.0809" fill="white"/>
</clipPath>
</defs>
</svg>
