<?xml version="1.0" standalone="no"?>
<!DOCTYPE svg PUBLIC "-//W3C//DTD SVG 20010904//EN"
 "http://www.w3.org/TR/2001/REC-SVG-20010904/DTD/svg10.dtd">
<svg version="1.0" xmlns="http://www.w3.org/2000/svg"
 width="1200.000000pt" height="384.000000pt" viewBox="0 0 1200.000000 384.000000"
 preserveAspectRatio="xMidYMid meet">

<g transform="translate(0.000000,384.000000) scale(0.100000,-0.100000)"
fill="#000000" stroke="none">
<path d="M11440 1750 l0 -1380 145 0 145 0 0 1380 0 1380 -145 0 -145 0 0
-1380z"/>
<path d="M280 1730 l0 -1380 145 0 145 0 0 1380 0 1380 -145 0 -145 0 0 -1380z"/>
<path d="M1142 1808 l3 -793 144 -3 c97 -2 148 1 157 9 8 6 14 28 14 49 0 20
3 39 6 43 3 3 23 -10 43 -30 20 -19 59 -47 86 -62 45 -23 61 -26 155 -26 94 0
111 3 167 29 121 55 210 185 239 346 18 101 17 300 -1 396 -17 91 -68 202
-118 259 -69 80 -210 132 -324 122 -72 -7 -151 -38 -184 -73 -12 -13 -26 -24
-31 -24 -4 0 -8 124 -8 275 l0 275 -175 0 -175 0 2 -792z m571 58 c87 -36 111
-114 105 -340 -4 -166 -12 -192 -68 -240 -27 -22 -41 -26 -96 -26 -70 0 -94 8
-136 48 l-28 26 0 231 c0 260 1 263 74 296 49 22 104 24 149 5z"/>
<path d="M8797 1808 l3 -793 167 0 168 0 3 161 2 160 49 48 49 48 69 -118 c39
-66 89 -153 113 -194 68 -120 46 -110 262 -110 116 0 188 4 188 10 0 5 -90
152 -200 326 -110 175 -200 322 -200 328 1 6 86 110 189 231 104 121 186 222
182 225 -3 3 -96 4 -207 2 l-201 -3 -144 -180 -144 -181 -3 416 -2 416 -173 0
-172 0 2 -792z"/>
<path d="M3465 2398 c-3 -7 -6 -69 -7 -138 l-3 -125 -68 -3 -68 -3 3 -117 3
-117 68 -3 67 -3 0 -267 c0 -147 5 -305 10 -351 17 -134 64 -207 165 -253 45
-21 64 -23 185 -22 79 0 146 5 163 12 l27 12 0 120 0 120 -65 0 c-79 0 -111
14 -125 53 -6 18 -10 138 -10 303 l0 274 89 0 c72 0 90 3 95 16 11 28 7 212
-5 220 -6 3 -47 7 -92 8 l-82 1 -3 138 -3 137 -170 0 c-127 0 -171 -3 -174
-12z"/>
<path d="M4500 2134 c-179 -39 -299 -147 -368 -333 -20 -54 -26 -90 -30 -201
-5 -160 5 -221 55 -323 108 -215 363 -326 639 -276 114 20 304 134 304 182 0
19 -141 183 -154 179 -6 -2 -25 -17 -42 -33 -46 -44 -121 -69 -207 -69 -87 0
-138 21 -185 75 -32 35 -40 51 -56 103 l-7 22 347 0 347 0 -6 138 c-9 206 -46
313 -146 413 -118 117 -304 164 -491 123z m216 -275 c49 -23 84 -82 84 -142
l0 -37 -176 0 -176 0 7 33 c30 138 145 202 261 146z"/>
<path d="M7170 2134 c-196 -42 -337 -184 -385 -387 -22 -92 -20 -276 4 -369
46 -179 151 -299 317 -360 49 -18 82 -22 194 -22 124 -1 141 1 211 27 144 53
244 160 296 317 25 76 28 99 28 220 0 150 -11 211 -58 310 -38 81 -139 185
-217 223 -107 52 -263 69 -390 41z m205 -268 c46 -20 91 -85 106 -154 6 -33
10 -107 7 -178 -3 -111 -6 -127 -33 -179 -37 -71 -76 -95 -156 -95 -102 0
-158 63 -180 200 -12 79 -7 208 12 274 33 118 139 175 244 132z"/>
<path d="M8510 2141 c-49 -15 -87 -40 -128 -85 -23 -25 -44 -46 -46 -46 -2 0
-6 25 -9 55 -3 30 -8 58 -10 62 -3 5 -75 7 -161 5 l-156 -3 0 -559 0 -560 170
0 170 0 0 356 0 356 38 38 c47 48 101 63 207 58 l80 -3 3 161 2 161 -31 7
c-40 8 -97 6 -129 -3z"/>
<path d="M10240 2135 c-235 -53 -363 -233 -306 -430 14 -45 29 -69 69 -110 66
-66 147 -104 307 -145 144 -38 194 -62 210 -101 29 -68 -34 -129 -132 -129
-96 0 -157 38 -175 110 l-9 35 -149 3 c-82 1 -154 1 -161 -2 -8 -3 -9 -18 -3
-52 25 -133 128 -239 285 -295 83 -29 253 -36 354 -15 141 30 253 103 301 198
30 59 37 168 15 236 -37 111 -151 191 -331 233 -162 37 -206 52 -236 80 -54
51 -30 134 47 159 79 26 184 -21 184 -82 0 -44 14 -48 187 -48 l163 0 0 43 c0
93 -83 207 -191 262 -107 55 -305 78 -429 50z"/>
<path d="M2220 2128 c0 -8 15 -59 34 -114 341 -996 346 -1012 331 -1053 -37
-106 -70 -131 -170 -131 l-55 0 0 -125 c0 -110 2 -127 18 -133 9 -4 67 -7 127
-7 100 0 115 3 166 28 66 32 127 94 162 164 13 26 97 259 186 518 90 259 192
552 227 653 35 101 64 189 64 195 0 9 -47 11 -182 10 l-183 -2 -88 -298 c-48
-163 -91 -301 -95 -305 -4 -4 -45 130 -92 297 l-84 305 -167 0 c-92 0 -174 3
-183 6 -10 4 -16 1 -16 -8z"/>
<path d="M5210 2121 c0 -11 51 -233 224 -971 l32 -135 141 -3 c104 -2 143 1
150 10 5 7 26 74 47 148 77 283 134 481 139 486 6 6 28 -65 113 -376 37 -135
71 -251 77 -257 10 -14 264 -19 282 -5 6 4 23 61 39 127 15 66 50 215 77 330
132 565 150 647 146 652 -5 5 -319 5 -324 0 -1 -2 -26 -143 -55 -315 -29 -171
-56 -308 -61 -303 -4 4 -44 146 -89 314 l-81 307 -124 0 c-67 0 -123 -2 -123
-4 0 -13 -162 -622 -169 -633 -4 -9 -25 96 -51 254 -23 147 -48 294 -54 326
l-11 58 -163 2 c-131 2 -162 -1 -162 -12z"/>
</g>
</svg>
