<?xml version="1.0" encoding="UTF-8" standalone="no"?>
<!DOCTYPE svg PUBLIC "-//W3C//DTD SVG 1.1//EN" "http://www.w3.org/Graphics/SVG/1.1/DTD/svg11.dtd">
<svg width="100%" height="100%" viewBox="0 0 445 534" version="1.1" xmlns="http://www.w3.org/2000/svg" xmlns:xlink="http://www.w3.org/1999/xlink" xml:space="preserve" xmlns:serif="http://www.serif.com/" style="fill-rule:evenodd;clip-rule:evenodd;stroke-linejoin:round;stroke-miterlimit:2;">
    <g transform="matrix(1,0,0,1,-28.9662,-25.4114)">
        <g transform="matrix(6.35506,9.13827e-17,-9.13827e-17,-5.60886,-2426.27,2946.2)">
            <path d="M420.963,425.682L433.165,441.924L408.76,441.924L420.963,425.682Z" style="fill:rgb(1,127,2);"/>
        </g>
        <g transform="matrix(2.08608,0,0,2.08608,12.5174,4.64159)">
            <path d="M220.91,30.733C220.91,19.266 211.6,9.956 200.134,9.956L28.661,9.956C17.195,9.956 7.885,19.266 7.885,30.733L7.885,202.205C7.885,213.672 17.195,222.981 28.661,222.981L200.134,222.981C211.6,222.981 220.91,213.672 220.91,202.205L220.91,30.733Z" style="fill:rgb(1,127,2);"/>
        </g>
        <g transform="matrix(1.96557,0,0,1.87656,22.8473,37.7055)">
            <path d="M114.97,56.732C135.277,18.729 175.892,18.729 196.199,37.731C216.507,56.732 216.507,94.735 196.199,132.738C181.984,161.241 145.431,189.743 114.97,208.744C84.509,189.743 47.956,161.241 33.741,132.738C13.434,94.735 13.434,56.732 33.741,37.731C54.049,18.729 94.663,18.729 114.97,56.732Z" style="fill:white;"/>
        </g>
        <g transform="matrix(1.33091,1.60636,-1.60636,1.33091,354.003,-113.783)">
            <path d="M90.626,45.876L82.111,148.001L119.139,121.019L112.822,172.96L100.765,167.714L114.25,203.228L138.664,175.779L125.874,175.471L144.21,87.043L100.144,116.572L113.577,46.397C113.577,46.397 102.809,39.868 90.626,45.876Z" style="fill:rgb(1,127,2);"/>
        </g>
    </g>
</svg>
