<svg viewBox="0 0 2000 376" xmlns="http://www.w3.org/2000/svg" fill-rule="evenodd" clip-rule="evenodd" stroke-linejoin="round" stroke-miterlimit="1.414">
  <g fill="#5983c2" fill-rule="nonzero">
    <path d="M248.937 221.515h10.139c7.097-3.041 12.842-7.435 17.235-13.18 4.394-5.745 6.59-11.997 6.59-18.756v-79.588h40.048v79.588c0 9.8-1.943 19.094-5.83 27.881-3.886 8.787-9.209 16.391-15.968 22.812-6.759 6.421-14.617 11.49-23.572 15.208-8.956 3.717-18.503 5.576-28.642 5.576h-33.964c-21.629 0-39.372-7.435-53.228-22.305-14.194 14.87-32.274 22.305-54.241 22.305H73.539c-10.476 0-20.193-1.859-29.148-5.576-8.956-3.718-16.729-8.787-23.319-15.208-6.59-6.421-11.744-14.025-15.461-22.812-3.718-8.787-5.577-18.081-5.577-27.881v-79.588h39.541v79.588c0 8.786 3.464 16.306 10.392 22.558 6.928 6.252 14.785 9.378 23.572 9.378h44.103c7.097-3.041 12.842-7.435 17.236-13.18 4.393-5.745 6.59-11.997 6.59-18.756v-58.297c0-6.759 2.112-11.829 6.337-15.208 4.224-3.38 8.786-5.07 13.687-5.07 4.9 0 9.462 1.69 13.687 5.07 4.224 3.379 6.336 8.449 6.336 15.208v58.297c0 8.786 3.126 16.306 9.379 22.558 6.252 6.252 14.278 9.378 24.079 9.378h33.964zM379.582 187.551c0 2.028.085 3.971.254 5.83.169 1.858.591 3.126 1.267 3.802 2.366 7.097 6.337 12.926 11.913 17.489 5.576 4.562 12.42 6.843 20.531 6.843h120.142c7.097 0 12.42 2.113 15.969 6.337 3.548 4.224 5.322 8.787 5.322 13.687 0 4.9-1.774 9.463-5.322 13.687-3.549 4.225-8.872 6.337-15.969 6.337H413.547c-10.477 0-20.277-1.859-29.402-5.576-9.125-3.718-16.982-8.872-23.572-15.462-6.591-6.59-11.744-14.447-15.462-23.572-3.717-9.125-5.576-18.925-5.576-29.402v-4.055c0-10.477 1.859-20.278 5.576-29.402 3.718-9.125 8.871-16.983 15.462-23.573 6.59-6.59 14.447-11.744 23.572-15.461 9.125-3.718 18.925-5.576 29.402-5.576h120.142c7.097 0 12.42 2.112 15.969 6.336 3.548 4.225 5.322 8.787 5.322 13.687 0 4.901-1.774 9.463-5.322 13.688-3.549 4.224-8.872 6.336-15.969 6.336H413.547c-8.787 0-16.644 3.211-23.572 9.632-6.929 6.421-10.393 14.532-10.393 24.333v4.055z"/>
  </g>
  <g fill="#5983c2" fill-rule="nonzero">
    <path d="M1131.11 296.541c0-8.787-3.126-16.729-9.378-23.826-6.252-7.097-14.617-10.645-25.093-10.645H1021.106c-10.138 0-19.601-1.859-28.388-5.576-8.787-3.718-16.475-8.872-23.065-15.462s-11.744-14.363-15.462-23.319c-3.717-8.955-5.576-18.672-5.576-29.148v-6.083c0-10.139 1.859-19.602 5.576-28.388 3.718-8.787 8.872-16.476 15.462-23.066s14.278-11.744 23.065-15.461c8.787-3.718 18.25-5.576 28.388-5.576h75.533c10.476 0 20.277 1.858 29.402 5.576 9.125 3.717 17.066 8.871 23.825 15.461 6.76 6.59 11.998 14.279 15.715 23.066 3.718 8.786 5.577 18.249 5.577 28.388 0 7.097-2.113 12.335-6.337 15.715-4.224 3.379-8.787 5.069-13.687 5.069-4.901 0-9.463-1.69-13.687-5.069-4.225-3.38-6.337-8.618-6.337-15.715 0-9.463-3.126-17.236-9.378-23.319-6.252-6.083-14.617-9.125-25.093-9.125h-75.533c-9.463 0-17.235 3.042-23.319 9.125-6.083 6.083-9.124 13.856-9.124 23.319v6.083c0 8.787 3.041 16.644 9.124 23.572 6.084 6.928 13.856 10.392 23.319 10.392h75.533c10.476 0 20.277 2.028 29.402 6.083 9.125 4.056 17.066 9.463 23.825 16.222 6.76 6.759 11.998 14.617 15.715 23.572 3.718 8.956 5.577 18.334 5.577 28.135 0 10.139-1.859 19.686-5.577 28.642-3.717 8.955-8.955 16.813-15.715 23.572-6.759 6.759-14.7 12.082-23.825 15.968-9.125 3.887-18.926 5.83-29.402 5.83v-40.048c10.476 0 18.841-3.379 25.093-10.138 6.252-6.759 9.378-14.701 9.378-23.826zM1332.88 222.022c1.014 0 2.872-.338 5.576-1.014l4.055-1.013c6.759-1.69 12.082-5.577 15.969-11.66 3.886-6.083 5.829-12.673 5.829-19.77v-57.283c0-6.759 2.197-11.829 6.59-15.208 4.394-3.38 9.125-5.07 14.195-5.07 5.069 0 9.8 1.69 14.194 5.07 4.393 3.379 6.59 8.449 6.59 15.208v57.283c0 9.8-1.944 19.094-5.83 27.881-3.887 8.787-9.209 16.56-15.968 23.319s-14.532 12.082-23.319 15.968c-8.787 3.887-18.081 5.83-27.881 5.83H1257.854c-10.477 0-20.108-1.943-28.895-5.83-8.787-3.886-16.475-9.209-23.065-15.968s-11.744-14.532-15.462-23.319c-3.717-8.787-5.576-18.081-5.576-27.881v-57.283c0-6.759 2.028-11.829 6.083-15.208 4.056-3.38 8.618-5.07 13.687-5.07 5.07 0 9.632 1.69 13.687 5.07 4.056 3.379 6.084 8.449 6.084 15.208v57.283c0 8.787 3.126 16.56 9.378 23.319 6.252 6.759 14.278 10.138 24.079 10.138h75.026zM1438.83 130.775c0-7.097 2.112-12.42 6.337-15.969 4.224-3.548 8.871-5.322 13.94-5.322 5.07 0 9.716 1.774 13.941 5.322 4.224 3.549 6.337 8.872 6.337 15.969v112.031c0 6.759-2.113 11.744-6.337 14.955-4.225 3.21-8.871 4.816-13.941 4.816-5.069 0-9.716-1.606-13.94-4.816-4.225-3.211-6.337-8.196-6.337-14.955V130.775zM1745.52 5.056v183.002c0 10.476-1.859 20.193-5.576 29.148-3.718 8.956-8.872 16.729-15.462 23.319s-14.363 11.744-23.318 15.462c-8.956 3.717-18.672 5.576-29.149 5.576h-74.012c-10.476 0-20.192-1.859-29.148-5.576-8.956-3.718-16.729-8.872-23.319-15.462s-11.744-14.363-15.461-23.319c-3.718-8.955-5.577-18.672-5.577-29.148v-4.056c0-10.476 1.859-20.277 5.577-29.401 3.717-9.125 8.871-16.983 15.461-23.573s14.363-11.744 23.319-15.461c8.956-3.718 18.672-5.576 29.148-5.576h74.012c7.097 0 12.335 2.112 15.715 6.336 3.379 4.225 5.069 8.787 5.069 13.687 0 4.901-1.69 9.463-5.069 13.688-3.38 4.224-8.618 6.336-15.715 6.336h-74.012c-9.8 0-17.827 3.211-24.079 9.632-6.252 6.421-9.378 14.532-9.378 24.332v4.056c0 9.801 3.126 17.827 9.378 24.079 6.252 6.252 14.279 9.378 24.079 9.378h74.012c9.801 0 17.827-3.126 24.079-9.378 6.252-6.252 9.378-14.278 9.378-24.079V5.056h40.048zM1817 188.058c0 9.801 3.464 17.911 10.392 24.333 6.928 6.421 14.786 9.631 23.572 9.631h75.533c6.421 0 11.237 2.028 14.448 6.083 3.21 4.056 4.815 8.618 4.815 13.688 0 5.069-1.605 9.631-4.815 13.687-3.211 4.055-8.027 6.083-14.448 6.083h-75.533c-9.8 0-19.178-1.859-28.134-5.576-8.956-3.718-16.813-8.872-23.572-15.462s-12.082-14.363-15.969-23.319c-3.886-8.955-5.829-18.672-5.829-29.148v-4.056c0-10.476 1.943-20.192 5.829-29.148 3.887-8.956 9.21-16.729 15.969-23.319 6.759-6.59 14.616-11.744 23.572-15.461 8.956-3.718 18.334-5.576 28.134-5.576h75.533c9.463 0 18.419 1.774 26.867 5.322 8.449 3.549 15.969 8.365 22.559 14.448 6.59 6.083 11.997 13.18 16.222 21.291 4.224 8.111 6.843 16.898 7.857 26.36 0 7.097-2.197 13.518-6.59 19.264-4.393 5.745-10.139 8.617-17.236 8.617h-125.212c-6.421 0-11.236-2.027-14.447-6.083-3.211-4.055-4.816-8.618-4.816-13.687 0-5.069 1.605-9.631 4.816-13.687 3.211-4.055 8.026-6.083 14.447-6.083h103.414c-6.421-10.815-15.715-16.222-27.881-16.222h-75.533c-8.786 0-16.644 3.211-23.572 9.632-6.928 6.421-10.392 14.532-10.392 24.332v4.056z"/>
  </g>
  <ellipse cx="1440.94" cy="55.954" rx="18.805" ry="17.621" fill="#5983c2"/>
  <path d="M735.333 130.44c12.474 0 22.584-9.914 22.584-22.14 0-12.231-10.11-22.143-22.584-22.143-12.471 0-22.586 9.912-22.586 22.143 0 12.226 10.115 22.14 22.586 22.14M787.199 84.168c-8.665-.293-10.156 5.608-10.156 5.608s-8.963 34.513-10.455 39.786c-1.491 5.269.298 9.372.298 9.372l6.591 21.376 9.539-3.154 17.627-26.359-1.194-41.021c-3.884-4.935-3.586-5.314-12.25-5.608M818.56 243.483s12.251-4.1 19.124-10.546l-26.589-57.178-14.936 18.343-22.874.181-1.082 3.287-19.83 60.264s9.434 1.17 25.562-2.05l-4.947 110.444s.303 3.037 2.896 3.223c3.984.434 7.969.357 11.51.605 2.609.046 3.163-3.085 3.163-3.085l10.681-85.708 16.633 66.478 5.956-76.728-5.267-27.529v-.001zM787.794 70.11c12.873 0 23.302-10.226 23.302-22.841 0-12.617-10.429-22.846-23.302-22.846-12.867 0-23.302 10.229-23.302 22.846 0 12.615 10.435 22.841 23.302 22.841M844.552 55.175c13.032 0 23.599-10.357 23.599-23.136S857.584 8.903 844.552 8.903s-23.599 10.357-23.599 23.136 10.567 23.136 23.599 23.136" fill="#a7956f" fill-rule="nonzero"/>
  <path d="M895.6 289.276s-7.334-53.8-8.031-57.559c-.759-4.092-1.047-4.49-1.047-4.49S865.516 88.906 864.22 81.784c-1.296-7.117-6.745-8.643-6.745-8.643-11.674-3.561-16.597 3.049-16.597 3.049l-58.102 88.232h-16.079c-7.004 0-6.484 4.071-6.484 4.071l-.26 6.864s-8.561-3.815-10.635-4.576c-2.076-.765-2.336 1.271-2.336 1.271l-22.043 59.755s17.349-64.84 18.908-73.485c1.556-8.645-10.609-10.932-10.609-10.932-12.449-3.054-14.524 5.084-14.524 5.084l-23.529 85.536c-.885 4.216-6.071 3.968-6.071 3.968s-22.274-7.628-33.688-11.19c-11.411-3.561-15.3 4.579-15.3 4.579s-48.505 84.421-49.541 87.214c-1.037 2.799-4.67 1.019-4.67 1.019s-8.557-4.589-11.927-5.608c-3.373-1.013-5.709.268-5.709.268s-.517 1.27-2.593 5.083.26 6.869.26 6.869 20.337 9.963 26.197 12.963c0 0 2.992.838 5.446.838 5.035 0 8.299-7.955 8.299-7.955s45.131-74.503 47.722-77.296c2.596-2.799 6.225-1.02 6.225-1.02l57.33 26.359c11.314 6.365 18.949 18.305 18.949 32.009 0 20.383-16.852 36.901-37.64 36.901s-37.64-16.518-37.64-36.901c0-13.558 7.462-25.411 18.578-31.827a37.873 37.873 0 0 1 4.486-2.199l-17.949-8.287c-10.168 7.703-21.545 21.169-21.545 42.313 0 29.274 24.208 53.012 54.07 53.012 29.864 0 54.071-23.738 54.071-53.012 0-13.028-4.873-26.001-12.824-35.227l30.867-91.031s19.709.255 22.822-.252c1.825-.446 2.336-2.035 2.336-2.035s42.534-54.416 44.868-57.465c2.337-3.054 1.817.761 1.817.761s9.595 85.436 10.115 87.979c.52 2.542-.52 3.304-.52 3.304s-22.046 49.075-23.6 52.127c-1.558 3.051-1.558 5.341-1.558 5.341s-5.83 73.099-6.589 85.747c-.126 3.348 2.656 3.644 2.656 3.644l13.535.689c.15.008 18.931-92.627 18.931-92.627s5.707-10.167 6.741-11.444c1.039-1.265 4.601-.163 5.121.263.578.472 6.744 29.239 7.784 33.31 1.034 4.065 4.436 6.957 4.436 6.957l42.616 49.909s4.485 4.753 8.026 1.281c2.312-1.953 5.849-5.781 8.743-8.941 3.482-3.276.067-6.748.067-6.748s-39.446-46.276-41.776-49.58" fill="#a7956f" fill-rule="nonzero"/>
</svg>
