<svg width="30" height="36" viewBox="0 0 30 36" fill="none" xmlns="http://www.w3.org/2000/svg">
<path d="M27.9996 14.8451C27.9996 7.75074 22.1795 2 15 2C7.8205 2 2 7.75074 2 14.8451C2 18.5387 3.5784 21.8677 6.10419 24.211L14.9983 33L23.8624 24.2415C26.4078 21.8966 27.9996 18.5548 27.9996 14.8451Z" fill="#62AD4B"/>
<path d="M27.9996 14.8451C27.9996 7.75074 22.1795 2 15 2C7.8205 2 2 7.75074 2 14.8451C2 18.5387 3.5784 21.8677 6.10419 24.211L14.9983 33L23.8624 24.2415C26.4078 21.8966 27.9996 18.5548 27.9996 14.8451Z" fill="url(#paint0_linear_1496_26150)"/>
<path fill-rule="evenodd" clip-rule="evenodd" d="M14.9983 33L6.10419 24.211C3.5784 21.8677 2 18.5387 2 14.8451C2 7.75074 7.8205 2 15 2C22.1795 2 27.9996 7.75074 27.9996 14.8451C27.9996 18.5548 26.4078 21.8966 23.8624 24.2415L14.9983 33ZM25.2441 25.6879C28.1646 22.9843 29.9996 19.1279 29.9996 14.8451C29.9996 6.62368 23.2614 0 15 0C6.73863 0 0 6.6236 0 14.8451C0 19.1106 1.8206 22.9532 4.72003 25.655L14.9983 35.8117L25.2441 25.6879Z" fill="#ECF6E8"/>
<path d="M22.2 15L7.80005 15" stroke="white" stroke-width="2" stroke-linecap="round"/>
<path d="M15 22.1998L15 7.7998" stroke="white" stroke-width="2" stroke-linecap="round"/>
<defs>
<linearGradient id="paint0_linear_1496_26150" x1="3.94997" y1="6.65" x2="25.8241" y2="27.6166" gradientUnits="userSpaceOnUse">
<stop stop-color="#81B96F"/>
<stop offset="1" stop-color="#62AD4B"/>
</linearGradient>
</defs>
</svg>
