<svg width="28" height="28" viewBox="0 0 28 28" fill="none" xmlns="http://www.w3.org/2000/svg">
<path d="M0 14C0 6.26801 6.26801 0 14 0V0C21.732 0 28 6.26801 28 14V14C28 21.732 21.732 28 14 28V28C6.26801 28 0 21.732 0 14V14Z" fill="#93C460"/>
<path fill-rule="evenodd" clip-rule="evenodd" d="M14.0001 19.4996C17.0377 19.4996 19.5001 17.0372 19.5001 13.9996C19.5001 10.962 17.0377 8.49961 14.0001 8.49961C10.9625 8.49961 8.5001 10.962 8.5001 13.9996C8.5001 17.0372 10.9625 19.4996 14.0001 19.4996ZM14.0001 20.9996C17.8661 20.9996 21.0001 17.8656 21.0001 13.9996C21.0001 10.1336 17.8661 6.99961 14.0001 6.99961C10.1341 6.99961 7.0001 10.1336 7.0001 13.9996C7.0001 17.8656 10.1341 20.9996 14.0001 20.9996Z" fill="white"/>
<path fill-rule="evenodd" clip-rule="evenodd" d="M22.9503 13.9996C22.9503 14.4138 22.6145 14.7496 22.2003 14.7496H20.8003C20.3861 14.7496 20.0503 14.4138 20.0503 13.9996C20.0503 13.5854 20.3861 13.2496 20.8003 13.2496H22.2003C22.6145 13.2496 22.9503 13.5854 22.9503 13.9996Z" fill="white"/>
<path fill-rule="evenodd" clip-rule="evenodd" d="M7.95029 13.9996C7.95029 14.4138 7.61451 14.7496 7.20029 14.7496H5.80029C5.38608 14.7496 5.05029 14.4138 5.05029 13.9996C5.05029 13.5854 5.38608 13.2496 5.80029 13.2496H7.20029C7.61451 13.2496 7.95029 13.5854 7.95029 13.9996Z" fill="white"/>
<path fill-rule="evenodd" clip-rule="evenodd" d="M14.0001 22.9498C13.5859 22.9498 13.2501 22.614 13.2501 22.1998V20.7998C13.2501 20.3856 13.5859 20.0498 14.0001 20.0498C14.4143 20.0498 14.7501 20.3856 14.7501 20.7998V22.1998C14.7501 22.614 14.4143 22.9498 14.0001 22.9498Z" fill="white"/>
<path fill-rule="evenodd" clip-rule="evenodd" d="M14.0001 7.9498C13.5859 7.9498 13.2501 7.61402 13.2501 7.1998V5.7998C13.2501 5.38559 13.5859 5.0498 14.0001 5.0498C14.4143 5.0498 14.7501 5.38559 14.7501 5.7998V7.1998C14.7501 7.61402 14.4143 7.9498 14.0001 7.9498Z" fill="white"/>
<path fill-rule="evenodd" clip-rule="evenodd" d="M14.0001 12.4995C13.1717 12.4995 12.5001 13.1711 12.5001 13.9995C12.5001 14.8279 13.1717 15.4995 14.0001 15.4995C14.8286 15.4995 15.5001 14.8279 15.5001 13.9995C15.5001 13.1711 14.8286 12.4995 14.0001 12.4995ZM14.0001 10.9995C12.3433 10.9995 11.0001 12.3426 11.0001 13.9995C11.0001 15.6563 12.3433 16.9995 14.0001 16.9995C15.657 16.9995 17.0001 15.6563 17.0001 13.9995C17.0001 12.3426 15.657 10.9995 14.0001 10.9995Z" fill="white"/>
</svg>
