<svg width="20" height="20" viewBox="0 0 20 20" fill="none" xmlns="http://www.w3.org/2000/svg">
<path fill-rule="evenodd" clip-rule="evenodd" d="M2.0498 9.99982C2.0498 9.5856 2.38559 9.24982 2.7998 9.24982H17.1998C17.614 9.24982 17.9498 9.5856 17.9498 9.99982C17.9498 10.414 17.614 10.7498 17.1998 10.7498H2.7998C2.38559 10.7498 2.0498 10.414 2.0498 9.99982Z" fill="white"/>
<path fill-rule="evenodd" clip-rule="evenodd" d="M9.99982 2.0498C10.414 2.0498 10.7498 2.38559 10.7498 2.7998L10.7498 17.1998C10.7498 17.614 10.414 17.9498 9.99982 17.9498C9.5856 17.9498 9.24982 17.614 9.24982 17.1998L9.24982 2.7998C9.24982 2.38559 9.5856 2.0498 9.99982 2.0498Z" fill="white"/>
</svg>
