<svg width="24" height="24" viewBox="0 0 24 24" fill="none" xmlns="http://www.w3.org/2000/svg">
<path d="M0 12C0 5.37258 5.37258 0 12 0C18.6274 0 24 5.37258 24 12C24 18.6274 18.6274 24 12 24C5.37258 24 0 18.6274 0 12Z" fill="#CDCDCD" fill-opacity="0.2"/>
<path d="M14.4971 13.335C15.5283 13.5387 16.4354 13.8702 17.0986 14.3066C17.7483 14.7342 18.2597 15.332 18.2598 16.0801C18.2597 16.5907 18.0175 17.0367 17.6641 17.3965C17.3128 17.7539 16.8287 18.0527 16.2705 18.293C15.1521 18.7744 13.6418 19.0605 12 19.0605C10.3582 19.0605 8.8479 18.7745 7.72949 18.293C7.17127 18.0526 6.68719 17.754 6.33594 17.3965C5.98251 17.0367 5.74029 16.5907 5.74023 16.0801C5.74035 15.3321 6.25185 14.7342 6.90137 14.3066C7.5645 13.8702 8.47187 13.5388 9.50293 13.335C9.77383 13.2814 10.0373 13.4576 10.0908 13.7285C10.1441 13.9992 9.96794 14.2619 9.69727 14.3154C8.74561 14.5035 7.97221 14.7987 7.45117 15.1416C6.91692 15.4932 6.74035 15.8275 6.74023 16.0801C6.74029 16.2542 6.82041 16.4618 7.0498 16.6953C7.28146 16.931 7.64119 17.1667 8.125 17.375C9.09119 17.791 10.461 18.0605 12 18.0605C13.5389 18.0605 14.9088 17.7909 15.875 17.375C16.3589 17.1666 16.7195 16.9311 16.9512 16.6953C17.1805 16.4618 17.2597 16.2542 17.2598 16.0801C17.2597 15.8275 17.0831 15.4932 16.5488 15.1416C16.0279 14.7988 15.255 14.5035 14.3037 14.3154C14.0329 14.2619 13.8568 13.9993 13.9102 13.7285C13.9637 13.4576 14.2262 13.2815 14.4971 13.335ZM12.0801 4.7998C13.6264 4.7998 14.8798 6.0533 14.8799 7.59961C14.8799 9.00309 13.8469 10.1614 12.5 10.3643V15.6807C12.4998 15.9567 12.276 16.1807 12 16.1807C11.724 16.1807 11.5002 15.9567 11.5 15.6807V10.3379C10.2322 10.0706 9.28027 8.94696 9.28027 7.59961C9.28038 6.05337 10.5338 4.79991 12.0801 4.7998ZM12.0801 5.7998C11.0861 5.79991 10.2804 6.60565 10.2803 7.59961C10.2803 8.59366 11.0861 9.39931 12.0801 9.39941C13.0742 9.39941 13.8799 8.59372 13.8799 7.59961C13.8798 6.60559 13.0741 5.7998 12.0801 5.7998Z" fill="#666666"/>
</svg>
