<svg width="16" height="16" viewBox="0 0 16 16" fill="none" xmlns="http://www.w3.org/2000/svg">
<path fill-rule="evenodd" clip-rule="evenodd" d="M7.9999 12.6004C10.5404 12.6004 12.5999 10.5409 12.5999 8.00039C12.5999 5.45988 10.5404 3.40039 7.9999 3.40039C5.45939 3.40039 3.3999 5.45988 3.3999 8.00039C3.3999 10.5409 5.45939 12.6004 7.9999 12.6004ZM7.9999 13.6004C11.0927 13.6004 13.5999 11.0932 13.5999 8.00039C13.5999 4.9076 11.0927 2.40039 7.9999 2.40039C4.90711 2.40039 2.3999 4.9076 2.3999 8.00039C2.3999 11.0932 4.90711 13.6004 7.9999 13.6004Z" fill="white"/>
<path fill-rule="evenodd" clip-rule="evenodd" d="M8.00016 4.94043C8.2763 4.94043 8.50016 5.16429 8.50016 5.44043V8.11332L9.63372 9.24688C9.82898 9.44214 9.82898 9.75872 9.63372 9.95398C9.43845 10.1492 9.12187 10.1492 8.92661 9.95398L7.72661 8.75398C7.71306 8.74043 7.70044 8.72629 7.68877 8.71165C7.57383 8.62004 7.50016 8.47884 7.50016 8.32043V5.44043C7.50016 5.16429 7.72402 4.94043 8.00016 4.94043Z" fill="white"/>
</svg>
