<svg width="16" height="16" viewBox="0 0 16 16" fill="none" xmlns="http://www.w3.org/2000/svg">
<path fill-rule="evenodd" clip-rule="evenodd" d="M8.00039 12.5994C10.5409 12.5994 12.6004 10.5399 12.6004 7.99941C12.6004 5.4589 10.5409 3.39941 8.00039 3.39941C5.45988 3.39941 3.40039 5.4589 3.40039 7.99941C3.40039 10.5399 5.45988 12.5994 8.00039 12.5994ZM8.00039 13.5994C11.0932 13.5994 13.6004 11.0922 13.6004 7.99941C13.6004 4.90662 11.0932 2.39941 8.00039 2.39941C4.9076 2.39941 2.40039 4.90662 2.40039 7.99941C2.40039 11.0922 4.9076 13.5994 8.00039 13.5994Z" fill="#666666"/>
<path fill-rule="evenodd" clip-rule="evenodd" d="M8 7.17969C8.27614 7.17969 8.5 7.40355 8.5 7.67969V10.5597C8.5 10.8358 8.27614 11.0597 8 11.0597C7.72386 11.0597 7.5 10.8358 7.5 10.5597V7.67969C7.5 7.40355 7.72386 7.17969 8 7.17969Z" fill="#666666"/>
<path d="M7.35997 5.44C7.35997 5.08653 7.64651 4.8 7.99997 4.8C8.35344 4.8 8.63997 5.08653 8.63997 5.44C8.63997 5.79346 8.35344 6.08 7.99997 6.08C7.64651 6.08 7.35997 5.79346 7.35997 5.44Z" fill="#666666"/>
</svg>
