<svg width="20" height="20" viewBox="0 0 20 20" fill="none" xmlns="http://www.w3.org/2000/svg">
<path d="M0 10C0 4.47715 4.47715 0 10 0V0C15.5228 0 20 4.47715 20 10V10C20 15.5228 15.5228 20 10 20V20C4.47715 20 0 15.5228 0 10V10Z" fill="#30805D"/>
<path d="M0 10C0 4.47715 4.47715 0 10 0V0C15.5228 0 20 4.47715 20 10V10C20 15.5228 15.5228 20 10 20V20C4.47715 20 0 15.5228 0 10V10Z" fill="url(#paint0_linear_1493_26449)"/>
<path d="M16.875 4.33254H15.6675V3.125H14.5201V4.33254H13.3125V5.4799H14.5201V6.6875H15.6675V5.4799H16.875V4.33254Z" fill="white"/>
<path d="M9.74993 7.15689C9.70987 7.11396 7.26598 4.51408 5.41495 7.60603C3.34991 11.0555 9.65925 14.944 9.74948 14.9994V15C9.74948 15 9.74967 14.9999 9.75 14.9997C9.75033 14.9999 9.75052 15 9.75052 15V14.9994C9.84075 14.944 16.1501 11.0555 14.085 7.60603C12.234 4.51408 9.79006 7.11396 9.75007 7.15689H9.74993ZM8.59477 13.1982L9.67683 10.5068H8.1518L10.7734 7.29209L9.80029 9.83399H11.2527L8.59477 13.1983V13.1982Z" fill="white"/>
<defs>
<linearGradient id="paint0_linear_1493_26449" x1="1.5" y1="3" x2="15.5" y2="19" gradientUnits="userSpaceOnUse">
<stop stop-color="#81B96F"/>
<stop offset="1" stop-color="#62AD4B"/>
</linearGradient>
</defs>
</svg>
