<svg width="16" height="16" viewBox="0 0 16 16" fill="none" xmlns="http://www.w3.org/2000/svg">
<path fill-rule="evenodd" clip-rule="evenodd" d="M9.81391 11.3939C11.0556 10.014 12.1166 8.32013 12.1166 6.66305C12.1166 4.42924 10.2827 2.59961 7.99799 2.59961C5.7133 2.59961 3.87939 4.42924 3.87939 6.66305C3.87939 8.35126 4.94254 10.0457 6.18033 11.4142C6.78108 12.0784 7.3849 12.624 7.83936 13.0037C7.89316 13.0486 7.94476 13.0912 7.99389 13.1312C8.04419 13.0897 8.09708 13.0456 8.15228 12.999C8.60749 12.6143 9.21223 12.0626 9.81391 11.3939ZM7.99799 14.3961C7.99799 14.3961 13.1166 10.7516 13.1166 6.66305C13.1166 3.86677 10.8247 1.59961 7.99799 1.59961C5.17125 1.59961 2.87939 3.86677 2.87939 6.66305C2.87939 10.811 7.99799 14.3961 7.99799 14.3961Z" fill="#154430"/>
<path fill-rule="evenodd" clip-rule="evenodd" d="M7.9972 5.3186C7.22437 5.3186 6.59786 5.94511 6.59786 6.71794C6.59786 7.49078 7.22437 8.11728 7.9972 8.11728C8.77004 8.11728 9.39654 7.49078 9.39654 6.71794C9.39654 5.94511 8.77004 5.3186 7.9972 5.3186ZM7.9972 4.3186C6.67208 4.3186 5.59786 5.39282 5.59786 6.71794C5.59786 8.04306 6.67208 9.11728 7.9972 9.11728C9.32232 9.11728 10.3965 8.04306 10.3965 6.71794C10.3965 5.39282 9.32232 4.3186 7.9972 4.3186Z" fill="#154430"/>
</svg>
