<svg width="16" height="16" viewBox="0 0 16 16" fill="none" xmlns="http://www.w3.org/2000/svg">
<path fill-rule="evenodd" clip-rule="evenodd" d="M3.04013 7.02045C3.31627 7.02045 3.54013 7.24431 3.54013 7.52045V13.1005H12.4601V7.52045C12.4601 7.24431 12.684 7.02045 12.9601 7.02045C13.2363 7.02045 13.4601 7.24431 13.4601 7.52045V13.6005C13.4601 13.8766 13.2363 14.1005 12.9601 14.1005H3.04013C2.76398 14.1005 2.54013 13.8766 2.54013 13.6005V7.52045C2.54013 7.24431 2.76398 7.02045 3.04013 7.02045Z" fill="#154430"/>
<path fill-rule="evenodd" clip-rule="evenodd" d="M7.79273 1.03133C7.96815 0.908059 8.20265 0.910357 8.37563 1.03705L14.0556 5.19705C14.2784 5.36021 14.3267 5.67308 14.1636 5.89586C14.0004 6.11865 13.6875 6.16698 13.4648 6.00381L8.07417 2.05577L2.44767 6.00953C2.22173 6.16829 1.90987 6.11384 1.7511 5.8879C1.59234 5.66196 1.64679 5.3501 1.87273 5.19133L7.79273 1.03133Z" fill="#154430"/>
</svg>
