<svg width="20" height="20" viewBox="0 0 20 20" fill="none" xmlns="http://www.w3.org/2000/svg">
<path d="M9.63984 2.1162C9.86688 2.01366 10.133 2.02986 10.3478 2.16503L18.5998 7.36522C18.8177 7.50256 18.9504 7.74239 18.9504 7.99999C18.9503 8.25752 18.8177 8.49745 18.5998 8.63476L10.3478 13.834C10.1023 13.9887 9.7898 13.9881 9.54511 13.832L1.39667 8.63183C1.18086 8.4941 1.05006 8.256 1.05 7.99999C1.05 7.74391 1.1808 7.50494 1.39667 7.36718L9.54511 2.16796L9.63984 2.1162ZM3.19355 7.99901L9.95039 12.3115L16.7922 7.99999L9.95039 3.68749L3.19355 7.99901Z" fill="white"/>
<path d="M14.4797 9.67897C14.712 9.3364 15.1779 9.24669 15.5207 9.47878L18.6203 11.5794C18.8319 11.7227 18.9559 11.9636 18.9494 12.219C18.9429 12.4742 18.8073 12.7087 18.5891 12.8411L10.3371 17.8411C10.0969 17.9866 9.79522 17.986 9.55585 17.8391L1.40742 12.8391C1.19048 12.7059 1.05584 12.4716 1.05 12.2171C1.04426 11.9623 1.16815 11.7213 1.3791 11.5784L4.47968 9.47878C4.82248 9.24668 5.28834 9.33641 5.5207 9.67897C5.753 10.0219 5.66345 10.4887 5.3205 10.721L3.18281 12.1682L9.95039 16.3215L16.8107 12.1643L14.6799 10.721C14.3369 10.4886 14.2474 10.0219 14.4797 9.67897Z" fill="white"/>
</svg>
