<svg width="24" height="24" viewBox="0 0 24 24" fill="none" xmlns="http://www.w3.org/2000/svg">
<path d="M0 12C0 5.37258 5.37258 0 12 0V0C18.6274 0 24 5.37258 24 12V12C24 18.6274 18.6274 24 12 24V24C5.37258 24 0 18.6274 0 12V12Z" fill="#CDCDCD" fill-opacity="0.2"/>
<path d="M15.1928 18.2223C13.9828 18.2223 11.8628 17.7223 9.16279 15.0323C6.05279 11.9123 5.66279 9.50228 5.70279 8.34228C5.72279 7.90228 5.92279 7.47228 6.25279 7.18228L7.58279 6.01228C8.08279 5.57228 8.84279 5.60228 9.31279 6.07228L10.9128 7.68228C11.4028 8.17228 11.4028 8.98228 10.9128 9.47228L10.1328 10.2623C10.4128 10.8723 11.2828 12.4023 13.3828 13.7423L14.2028 12.9223C14.6828 12.4423 15.5128 12.4423 15.9928 12.9223L17.8728 14.8123C18.3628 15.3023 18.3628 16.1123 17.8728 16.6023L16.7628 17.7223C16.5328 17.9523 16.2528 18.1023 15.9328 18.1623C15.7528 18.2023 15.5128 18.2323 15.2128 18.2323L15.1928 18.2223ZM8.41279 6.70228C8.35279 6.70228 8.29279 6.72228 8.24279 6.77228L6.91279 7.94228C6.78279 8.05228 6.71279 8.21228 6.70279 8.39228C6.67279 9.19228 6.92279 11.3823 9.87279 14.3323C12.8928 17.3523 14.9728 17.3323 15.7228 17.1823C15.8428 17.1623 15.9428 17.1023 16.0328 17.0123L17.1428 15.8923C17.2428 15.7923 17.2428 15.6223 17.1428 15.5123L15.2628 13.6223C15.1628 13.5223 14.9928 13.5223 14.8928 13.6223L13.5228 15.0023L13.1928 14.8023C9.89279 12.8423 9.09279 10.3923 9.06279 10.2923L8.97279 10.0023L10.2028 8.77228C10.3028 8.67228 10.3028 8.50228 10.2028 8.39228L8.60279 6.78228C8.55279 6.73228 8.48279 6.70228 8.42279 6.70228H8.41279Z" fill="#666666"/>
</svg>
