<svg width="24" height="24" viewBox="0 0 24 24" fill="none" xmlns="http://www.w3.org/2000/svg">
<path d="M0 12C0 5.37258 5.37258 0 12 0C18.6274 0 24 5.37258 24 12C24 18.6274 18.6274 24 12 24C5.37258 24 0 18.6274 0 12Z" fill="#98C867" fill-opacity="0.2"/>
<path d="M15.1925 18.2223C13.9825 18.2223 11.8625 17.7223 9.16255 15.0323C6.05255 11.9123 5.66255 9.50228 5.70255 8.34228C5.72255 7.90228 5.92255 7.47228 6.25255 7.18228L7.58255 6.01228C8.08255 5.57228 8.84255 5.60228 9.31255 6.07228L10.9125 7.68228C11.4025 8.17228 11.4025 8.98228 10.9125 9.47228L10.1325 10.2623C10.4125 10.8723 11.2825 12.4023 13.3825 13.7423L14.2025 12.9223C14.6825 12.4423 15.5125 12.4423 15.9925 12.9223L17.8725 14.8123C18.3625 15.3023 18.3625 16.1123 17.8725 16.6023L16.7625 17.7223C16.5325 17.9523 16.2525 18.1023 15.9325 18.1623C15.7525 18.2023 15.5125 18.2323 15.2125 18.2323L15.1925 18.2223ZM8.41255 6.70228C8.35255 6.70228 8.29255 6.72228 8.24255 6.77228L6.91255 7.94228C6.78255 8.05228 6.71255 8.21228 6.70255 8.39228C6.67255 9.19228 6.92255 11.3823 9.87255 14.3323C12.8925 17.3523 14.9725 17.3323 15.7225 17.1823C15.8425 17.1623 15.9425 17.1023 16.0325 17.0123L17.1425 15.8923C17.2425 15.7923 17.2425 15.6223 17.1425 15.5123L15.2625 13.6223C15.1625 13.5223 14.9925 13.5223 14.8925 13.6223L13.5225 15.0023L13.1925 14.8023C9.89255 12.8423 9.09255 10.3923 9.06255 10.2923L8.97255 10.0023L10.2025 8.77228C10.3025 8.67228 10.3025 8.50228 10.2025 8.39228L8.60255 6.78228C8.55255 6.73228 8.48255 6.70228 8.42255 6.70228H8.41255Z" fill="#154430"/>
</svg>
