<svg width="16" height="16" viewBox="0 0 16 16" fill="none" xmlns="http://www.w3.org/2000/svg">
<path fill-rule="evenodd" clip-rule="evenodd" d="M7.06005 3.0398C7.06005 3.31594 6.83619 3.5398 6.56005 3.5398L3.54004 3.5398L3.54004 12.4598H6.56005C6.83619 12.4598 7.06005 12.6837 7.06005 12.9598C7.06005 13.2359 6.83619 13.4598 6.56005 13.4598H3.04004C2.7639 13.4598 2.54004 13.2359 2.54004 12.9598L2.54004 3.0398C2.54004 2.90719 2.59272 2.78001 2.68649 2.68624C2.78025 2.59248 2.90743 2.5398 3.04004 2.5398L6.56005 2.5398C6.83619 2.5398 7.06005 2.76366 7.06005 3.0398Z" fill="#154430"/>
<path fill-rule="evenodd" clip-rule="evenodd" d="M8.31501 1.3799C8.42599 1.28491 8.57298 1.24321 8.71731 1.26576L13.8373 2.06576C14.0807 2.10379 14.2601 2.31343 14.2601 2.55977V13.3598C14.2601 13.6004 14.0888 13.8069 13.8523 13.8512L8.73227 14.8112C8.58607 14.8386 8.43527 14.7995 8.32081 14.7045C8.20635 14.6095 8.14013 14.4685 8.14013 14.3198V1.75977C8.14013 1.61368 8.20402 1.4749 8.31501 1.3799ZM9.14013 2.34396V13.7173L13.2601 12.9448V2.98771L9.14013 2.34396Z" fill="#154430"/>
<path fill-rule="evenodd" clip-rule="evenodd" d="M10.56 7.01978C10.8362 7.01978 11.06 7.24364 11.06 7.51978V8.31978C11.06 8.59592 10.8362 8.81978 10.56 8.81978C10.2839 8.81978 10.06 8.59592 10.06 8.31978V7.51978C10.06 7.24364 10.2839 7.01978 10.56 7.01978Z" fill="#154430"/>
</svg>
