<svg width="24" height="24" viewBox="0 0 24 24" fill="none" xmlns="http://www.w3.org/2000/svg">
<path d="M0 12C0 5.37258 5.37258 0 12 0V0C18.6274 0 24 5.37258 24 12V12C24 18.6274 18.6274 24 12 24V24C5.37258 24 0 18.6274 0 12V12Z" fill="#98C867" fill-opacity="0.2"/>
<path fill-rule="evenodd" clip-rule="evenodd" d="M17.9399 6.40039C17.9399 6.67653 17.7161 6.90039 17.4399 6.90039L14.4616 6.90039L14.4616 10.6842L10.6808 10.6842L10.6808 14.5436L6.89994 14.5436L6.89994 17.6004C6.89994 17.8765 6.67608 18.1004 6.39994 18.1004C6.1238 18.1004 5.89994 17.8765 5.89994 17.6004L5.89994 13.5436L9.68076 13.5436L9.68076 9.68417L13.4616 9.68417L13.4616 5.90039L17.4399 5.90039C17.7161 5.90039 17.9399 6.12425 17.9399 6.40039Z" fill="#154430"/>
</svg>
