<svg width="20" height="20" viewBox="0 0 20 20" fill="none" xmlns="http://www.w3.org/2000/svg">
<path fill-rule="evenodd" clip-rule="evenodd" d="M10.0001 15.4996C13.0377 15.4996 15.5001 13.0372 15.5001 9.99961C15.5001 6.96204 13.0377 4.49961 10.0001 4.49961C6.96253 4.49961 4.5001 6.96204 4.5001 9.99961C4.5001 13.0372 6.96253 15.4996 10.0001 15.4996ZM10.0001 16.9996C13.8661 16.9996 17.0001 13.8656 17.0001 9.99961C17.0001 6.13362 13.8661 2.99961 10.0001 2.99961C6.1341 2.99961 3.0001 6.13362 3.0001 9.99961C3.0001 13.8656 6.1341 16.9996 10.0001 16.9996Z" fill="white"/>
<path fill-rule="evenodd" clip-rule="evenodd" d="M18.9503 9.99961C18.9503 10.4138 18.6145 10.7496 18.2003 10.7496H16.8003C16.3861 10.7496 16.0503 10.4138 16.0503 9.99961C16.0503 9.5854 16.3861 9.24961 16.8003 9.24961H18.2003C18.6145 9.24961 18.9503 9.5854 18.9503 9.99961Z" fill="white"/>
<path fill-rule="evenodd" clip-rule="evenodd" d="M3.95029 9.99961C3.95029 10.4138 3.61451 10.7496 3.20029 10.7496H1.80029C1.38608 10.7496 1.05029 10.4138 1.05029 9.99961C1.05029 9.5854 1.38608 9.24961 1.80029 9.24961H3.20029C3.61451 9.24961 3.95029 9.5854 3.95029 9.99961Z" fill="white"/>
<path fill-rule="evenodd" clip-rule="evenodd" d="M10.0001 18.9498C9.58588 18.9498 9.2501 18.614 9.2501 18.1998V16.7998C9.2501 16.3856 9.58588 16.0498 10.0001 16.0498C10.4143 16.0498 10.7501 16.3856 10.7501 16.7998V18.1998C10.7501 18.614 10.4143 18.9498 10.0001 18.9498Z" fill="white"/>
<path fill-rule="evenodd" clip-rule="evenodd" d="M10.0001 3.9498C9.58588 3.9498 9.2501 3.61402 9.2501 3.1998V1.7998C9.2501 1.38559 9.58588 1.0498 10.0001 1.0498C10.4143 1.0498 10.7501 1.38559 10.7501 1.7998V3.1998C10.7501 3.61402 10.4143 3.9498 10.0001 3.9498Z" fill="white"/>
<path fill-rule="evenodd" clip-rule="evenodd" d="M10.0001 8.49949C9.1717 8.49949 8.50013 9.17106 8.50013 9.99949C8.50013 10.8279 9.1717 11.4995 10.0001 11.4995C10.8286 11.4995 11.5001 10.8279 11.5001 9.99949C11.5001 9.17106 10.8286 8.49949 10.0001 8.49949ZM10.0001 6.99949C8.34327 6.99949 7.00013 8.34263 7.00013 9.99949C7.00013 11.6563 8.34327 12.9995 10.0001 12.9995C11.657 12.9995 13.0001 11.6563 13.0001 9.99949C13.0001 8.34263 11.657 6.99949 10.0001 6.99949Z" fill="white"/>
</svg>
