<svg width="16" height="16" viewBox="0 0 16 16" fill="none" xmlns="http://www.w3.org/2000/svg">
<path d="M11.1925 14.2223C9.98255 14.2223 7.86255 13.7223 5.16255 11.0323C2.05255 7.91228 1.66255 5.50228 1.70255 4.34228C1.72255 3.90228 1.92255 3.47228 2.25255 3.18228L3.58255 2.01228C4.08255 1.57228 4.84255 1.60228 5.31255 2.07228L6.91255 3.68228C7.40255 4.17228 7.40255 4.98228 6.91255 5.47228L6.13255 6.26228C6.41255 6.87228 7.28255 8.40228 9.38255 9.74228L10.2025 8.92228C10.6825 8.44228 11.5125 8.44228 11.9925 8.92228L13.8725 10.8123C14.3625 11.3023 14.3625 12.1123 13.8725 12.6023L12.7625 13.7223C12.5325 13.9523 12.2525 14.1023 11.9325 14.1623C11.7525 14.2023 11.5125 14.2323 11.2125 14.2323L11.1925 14.2223ZM4.41255 2.70228C4.35255 2.70228 4.29255 2.72228 4.24255 2.77228L2.91255 3.94228C2.78255 4.05228 2.71255 4.21228 2.70255 4.39228C2.67255 5.19228 2.92255 7.38228 5.87255 10.3323C8.89255 13.3523 10.9725 13.3323 11.7225 13.1823C11.8425 13.1623 11.9425 13.1023 12.0325 13.0123L13.1425 11.8923C13.2425 11.7923 13.2425 11.6223 13.1425 11.5123L11.2625 9.62228C11.1625 9.52228 10.9925 9.52228 10.8925 9.62228L9.52255 11.0023L9.19255 10.8023C5.89255 8.84228 5.09255 6.39228 5.06255 6.29228L4.97255 6.00228L6.20255 4.77228C6.30255 4.67228 6.30255 4.50228 6.20255 4.39228L4.60255 2.78228C4.55255 2.73228 4.48255 2.70228 4.42255 2.70228H4.41255Z" fill="#154430"/>
</svg>
