<svg width="16" height="16" viewBox="0 0 16 16" fill="none" xmlns="http://www.w3.org/2000/svg">
<path d="M11.1928 14.2223C9.98279 14.2223 7.86279 13.7223 5.16279 11.0323C2.05279 7.91228 1.66279 5.50228 1.70279 4.34228C1.72279 3.90228 1.92279 3.47228 2.25279 3.18228L3.58279 2.01228C4.08279 1.57228 4.84279 1.60228 5.31279 2.07228L6.91279 3.68228C7.40279 4.17228 7.40279 4.98228 6.91279 5.47228L6.13279 6.26228C6.41279 6.87228 7.28279 8.40228 9.38279 9.74228L10.2028 8.92228C10.6828 8.44228 11.5128 8.44228 11.9928 8.92228L13.8728 10.8123C14.3628 11.3023 14.3628 12.1123 13.8728 12.6023L12.7628 13.7223C12.5328 13.9523 12.2528 14.1023 11.9328 14.1623C11.7528 14.2023 11.5128 14.2323 11.2128 14.2323L11.1928 14.2223ZM4.41279 2.70228C4.35279 2.70228 4.29279 2.72228 4.24279 2.77228L2.91279 3.94228C2.78279 4.05228 2.71279 4.21228 2.70279 4.39228C2.67279 5.19228 2.92279 7.38228 5.87279 10.3323C8.89279 13.3523 10.9728 13.3323 11.7228 13.1823C11.8428 13.1623 11.9428 13.1023 12.0328 13.0123L13.1428 11.8923C13.2428 11.7923 13.2428 11.6223 13.1428 11.5123L11.2628 9.62228C11.1628 9.52228 10.9928 9.52228 10.8928 9.62228L9.52279 11.0023L9.19279 10.8023C5.89279 8.84228 5.09279 6.39228 5.06279 6.29228L4.97279 6.00228L6.20279 4.77228C6.30279 4.67228 6.30279 4.50228 6.20279 4.39228L4.60279 2.78228C4.55279 2.73228 4.48279 2.70228 4.42279 2.70228H4.41279Z" fill="#666666"/>
</svg>
