<svg width="20" height="20" viewBox="0 0 20 20" fill="none" xmlns="http://www.w3.org/2000/svg">
<path fill-rule="evenodd" clip-rule="evenodd" d="M10.0001 15.4996C13.0377 15.4996 15.5001 13.0372 15.5001 9.99961C15.5001 6.96204 13.0377 4.49961 10.0001 4.49961C6.96253 4.49961 4.5001 6.96204 4.5001 9.99961C4.5001 13.0372 6.96253 15.4996 10.0001 15.4996ZM10.0001 16.9996C13.8661 16.9996 17.0001 13.8656 17.0001 9.99961C17.0001 6.13362 13.8661 2.99961 10.0001 2.99961C6.1341 2.99961 3.0001 6.13362 3.0001 9.99961C3.0001 13.8656 6.1341 16.9996 10.0001 16.9996Z" fill="white"/>
<path fill-rule="evenodd" clip-rule="evenodd" d="M18.9498 9.99961C18.9498 10.4138 18.614 10.7496 18.1998 10.7496H16.7998C16.3856 10.7496 16.0498 10.4138 16.0498 9.99961C16.0498 9.5854 16.3856 9.24961 16.7998 9.24961H18.1998C18.614 9.24961 18.9498 9.5854 18.9498 9.99961Z" fill="white"/>
<path fill-rule="evenodd" clip-rule="evenodd" d="M3.9498 9.99961C3.9498 10.4138 3.61402 10.7496 3.1998 10.7496H1.7998C1.38559 10.7496 1.0498 10.4138 1.0498 9.99961C1.0498 9.5854 1.38559 9.24961 1.7998 9.24961H3.1998C3.61402 9.24961 3.9498 9.5854 3.9498 9.99961Z" fill="white"/>
<path fill-rule="evenodd" clip-rule="evenodd" d="M10.0001 18.9498C9.58588 18.9498 9.2501 18.614 9.2501 18.1998V16.7998C9.2501 16.3856 9.58588 16.0498 10.0001 16.0498C10.4143 16.0498 10.7501 16.3856 10.7501 16.7998V18.1998C10.7501 18.614 10.4143 18.9498 10.0001 18.9498Z" fill="white"/>
<path fill-rule="evenodd" clip-rule="evenodd" d="M10.0001 3.9498C9.58588 3.9498 9.2501 3.61402 9.2501 3.1998V1.7998C9.2501 1.38559 9.58588 1.0498 10.0001 1.0498C10.4143 1.0498 10.7501 1.38559 10.7501 1.7998V3.1998C10.7501 3.61402 10.4143 3.9498 10.0001 3.9498Z" fill="white"/>
<path d="M9.20019 13.1995C9.20019 12.7577 9.55836 12.3995 10.0002 12.3995C10.442 12.3995 10.8002 12.7577 10.8002 13.1995C10.8002 13.6414 10.442 13.9995 10.0002 13.9995C9.55836 13.9995 9.20019 13.6414 9.20019 13.1995Z" fill="white"/>
<path fill-rule="evenodd" clip-rule="evenodd" d="M9.54291 7.72669C9.43129 7.82853 9.36179 7.96754 9.33808 8.09795C9.26399 8.50548 8.87355 8.77579 8.46602 8.70169C8.05848 8.62759 7.78818 8.23716 7.86228 7.82962C8.01783 6.9741 8.75695 6.04923 10.0685 6.04923C10.5799 6.04923 11.0296 6.16998 11.3972 6.41074C11.7655 6.65194 12.0059 6.98401 12.1446 7.33081C12.4065 7.98537 12.3282 8.74678 12.0328 9.25308C11.8588 9.55133 11.5896 9.86075 11.3785 10.1035C11.3223 10.1681 11.2702 10.2279 11.2251 10.2816C10.9591 10.5983 10.835 10.8017 10.8019 10.9564C10.7151 11.3614 10.3164 11.6194 9.91139 11.5326C9.50637 11.4458 9.24839 11.0471 9.33518 10.6421C9.45395 10.0879 9.81088 9.6331 10.0765 9.31684C10.1659 9.2104 10.2468 9.11712 10.3198 9.03288C10.5057 8.81833 10.6408 8.66242 10.7372 8.49728C10.7962 8.39598 10.8445 8.11943 10.7519 7.8879C10.7134 7.79167 10.6564 7.71867 10.5753 7.66557C10.4936 7.61203 10.342 7.54923 10.0685 7.54923C9.80429 7.54923 9.64408 7.63438 9.54291 7.72669Z" fill="white"/>
</svg>
