<svg width="16" height="16" viewBox="0 0 16 16" fill="none" xmlns="http://www.w3.org/2000/svg">
<g clip-path="url(#clip0_1493_26653)">
<path fill-rule="evenodd" clip-rule="evenodd" d="M14.1109 1.58389C14.2496 1.72341 14.2936 1.93132 14.2234 2.11509L9.53776 14.3645C9.46307 14.5598 9.27475 14.688 9.06569 14.6859C8.85662 14.6837 8.67095 14.5518 8.60023 14.355L6.66878 8.98105L1.3093 7.02302C1.11288 6.95126 0.981871 6.76486 0.980881 6.55575C0.979891 6.34664 1.10913 6.159 1.30486 6.08539L13.5803 1.46846C13.7645 1.3992 13.9722 1.44438 14.1109 1.58389ZM12.8924 2.79559L2.9193 6.54657L7.23174 8.12208C7.37102 8.17297 7.48054 8.28305 7.53069 8.4226L9.08536 12.7482L12.8924 2.79559Z" fill="#154430"/>
</g>
<defs>
<clipPath id="clip0_1493_26653">
<rect width="16" height="16" fill="white"/>
</clipPath>
</defs>
</svg>
