<svg width="20" height="21" viewBox="0 0 20 21" fill="none" xmlns="http://www.w3.org/2000/svg">
<path d="M0 10.4998C0 4.97812 4.47617 0.501953 9.9978 0.501953V0.501953C15.5194 0.501953 19.9956 4.97812 19.9956 10.4998V10.4998C19.9956 16.0214 15.5194 20.4976 9.9978 20.4976V20.4976C4.47617 20.4976 0 16.0214 0 10.4998V10.4998Z" fill="#98C867" fill-opacity="0.2"/>
<path fill-rule="evenodd" clip-rule="evenodd" d="M11.8139 13.8959C13.0556 12.5159 14.1166 10.8221 14.1166 9.165C14.1166 6.9312 12.2827 5.10156 9.99799 5.10156C7.7133 5.10156 5.87939 6.9312 5.87939 9.165C5.87939 10.8532 6.94254 12.5477 8.18033 13.9162C8.78108 14.5804 9.3849 15.126 9.83936 15.5056C9.89316 15.5506 9.94476 15.5931 9.99389 15.6332C10.0442 15.5917 10.0971 15.5476 10.1523 15.5009C10.6075 15.1162 11.2122 14.5646 11.8139 13.8959ZM9.99799 16.898C9.99799 16.898 15.1166 13.2536 15.1166 9.165C15.1166 6.36873 12.8247 4.10156 9.99799 4.10156C7.17125 4.10156 4.87939 6.36873 4.87939 9.165C4.87939 13.3129 9.99799 16.898 9.99799 16.898Z" fill="#154430"/>
<path fill-rule="evenodd" clip-rule="evenodd" d="M9.9972 7.82056C9.22437 7.82056 8.59786 8.44706 8.59786 9.2199C8.59786 9.99273 9.22437 10.6192 9.9972 10.6192C10.77 10.6192 11.3965 9.99273 11.3965 9.2199C11.3965 8.44706 10.77 7.82056 9.9972 7.82056ZM9.9972 6.82056C8.67208 6.82056 7.59786 7.89478 7.59786 9.2199C7.59786 10.545 8.67208 11.6192 9.9972 11.6192C11.3223 11.6192 12.3965 10.545 12.3965 9.2199C12.3965 7.89478 11.3223 6.82056 9.9972 6.82056Z" fill="#154430"/>
</svg>
