<svg width="24" height="24" viewBox="0 0 24 24" fill="none" xmlns="http://www.w3.org/2000/svg">
<path d="M0 12C0 5.37258 5.37258 0 12 0V0C18.6274 0 24 5.37258 24 12V12C24 18.6274 18.6274 24 12 24V24C5.37258 24 0 18.6274 0 12V12Z" fill="#98C867" fill-opacity="0.2"/>
<path fill-rule="evenodd" clip-rule="evenodd" d="M12.0004 16.5994C14.5409 16.5994 16.6004 14.5399 16.6004 11.9994C16.6004 9.4589 14.5409 7.39941 12.0004 7.39941C9.45988 7.39941 7.40039 9.4589 7.40039 11.9994C7.40039 14.5399 9.45988 16.5994 12.0004 16.5994ZM12.0004 17.5994C15.0932 17.5994 17.6004 15.0922 17.6004 11.9994C17.6004 8.90662 15.0932 6.39941 12.0004 6.39941C8.9076 6.39941 6.40039 8.90662 6.40039 11.9994C6.40039 15.0922 8.9076 17.5994 12.0004 17.5994Z" fill="#154430"/>
<path fill-rule="evenodd" clip-rule="evenodd" d="M12 11.1797C12.2761 11.1797 12.5 11.4035 12.5 11.6797V14.5597C12.5 14.8358 12.2761 15.0597 12 15.0597C11.7239 15.0597 11.5 14.8358 11.5 14.5597V11.6797C11.5 11.4035 11.7239 11.1797 12 11.1797Z" fill="#154430"/>
<path d="M11.36 9.44C11.36 9.08653 11.6465 8.8 12 8.8C12.3534 8.8 12.64 9.08653 12.64 9.44C12.64 9.79346 12.3534 10.08 12 10.08C11.6465 10.08 11.36 9.79346 11.36 9.44Z" fill="#154430"/>
</svg>
