<svg width="20" height="20" viewBox="0 0 20 20" fill="none" xmlns="http://www.w3.org/2000/svg">
<path fill-rule="evenodd" clip-rule="evenodd" d="M9.54487 2.16757C9.78963 2.01138 10.1026 2.01049 10.3482 2.16529L18.5998 7.36529C18.8177 7.50263 18.9499 7.7422 18.9499 7.9998C18.9499 8.25741 18.8177 8.49698 18.5998 8.63432L10.3482 13.8343C10.1026 13.9891 9.78963 13.9882 9.54487 13.832L1.39645 8.63204C1.18057 8.49427 1.04991 8.25589 1.04991 7.9998C1.04991 7.74372 1.18057 7.50533 1.39645 7.36757L9.54487 2.16757ZM9.95086 3.6879L3.19409 7.9998L9.95086 12.3117L16.7932 7.9998L9.95086 3.6879Z" fill="white"/>
<path fill-rule="evenodd" clip-rule="evenodd" d="M18.8413 11.8112C19.056 12.1654 18.9428 12.6266 18.5886 12.8413L10.337 17.8413C10.0968 17.9868 9.79545 17.986 9.55609 17.8391L1.40766 12.8391C1.05461 12.6224 0.944028 12.1606 1.16066 11.8076C1.3773 11.4545 1.83912 11.3439 2.19216 11.5606L9.95079 16.3214L17.8112 11.5584C18.1655 11.3437 18.6267 11.4569 18.8413 11.8112Z" fill="white"/>
</svg>
