<svg width="24" height="24" viewBox="0 0 24 24" fill="none" xmlns="http://www.w3.org/2000/svg">
<path d="M0 12C0 5.37258 5.37258 0 12 0V0C18.6274 0 24 5.37258 24 12V12C24 18.6274 18.6274 24 12 24V24C5.37258 24 0 18.6274 0 12V12Z" fill="#98C867" fill-opacity="0.2"/>
<path fill-rule="evenodd" clip-rule="evenodd" d="M11.06 7.0398C11.06 7.31594 10.8362 7.5398 10.56 7.5398L7.54004 7.5398L7.54004 16.4598H10.56C10.8362 16.4598 11.06 16.6837 11.06 16.9598C11.06 17.2359 10.8362 17.4598 10.56 17.4598H7.04004C6.7639 17.4598 6.54004 17.2359 6.54004 16.9598L6.54004 7.0398C6.54004 6.90719 6.59272 6.78001 6.68649 6.68624C6.78025 6.59248 6.90743 6.5398 7.04004 6.5398L10.56 6.5398C10.8362 6.5398 11.06 6.76366 11.06 7.0398Z" fill="#154430"/>
<path fill-rule="evenodd" clip-rule="evenodd" d="M12.315 5.3799C12.426 5.28491 12.573 5.24321 12.7173 5.26576L17.8373 6.06576C18.0807 6.10379 18.2601 6.31343 18.2601 6.55977V17.3598C18.2601 17.6004 18.0888 17.8069 17.8523 17.8512L12.7323 18.8112C12.5861 18.8386 12.4353 18.7995 12.3208 18.7045C12.2063 18.6095 12.1401 18.4685 12.1401 18.3198V5.75977C12.1401 5.61368 12.204 5.4749 12.315 5.3799ZM13.1401 6.34396V17.7173L17.2601 16.9448V6.98771L13.1401 6.34396Z" fill="#154430"/>
<path fill-rule="evenodd" clip-rule="evenodd" d="M14.56 11.0198C14.8362 11.0198 15.06 11.2436 15.06 11.5198V12.3198C15.06 12.5959 14.8362 12.8198 14.56 12.8198C14.2839 12.8198 14.06 12.5959 14.06 12.3198V11.5198C14.06 11.2436 14.2839 11.0198 14.56 11.0198Z" fill="#154430"/>
</svg>
