<svg width="16" height="16" viewBox="0 0 16 16" fill="none" xmlns="http://www.w3.org/2000/svg">
<path fill-rule="evenodd" clip-rule="evenodd" d="M8.00063 12.6004C10.5411 12.6004 12.6006 10.5409 12.6006 8.00039C12.6006 5.45988 10.5411 3.40039 8.00063 3.40039C5.46012 3.40039 3.40063 5.45988 3.40063 8.00039C3.40063 10.5409 5.46012 12.6004 8.00063 12.6004ZM8.00063 13.6004C11.0934 13.6004 13.6006 11.0932 13.6006 8.00039C13.6006 4.9076 11.0934 2.40039 8.00063 2.40039C4.90784 2.40039 2.40063 4.9076 2.40063 8.00039C2.40063 11.0932 4.90784 13.6004 8.00063 13.6004Z" fill="#999999"/>
<path d="M7.36022 10.7204C7.36022 10.3669 7.64676 10.0804 8.00022 10.0804C8.35368 10.0804 8.64022 10.3669 8.64022 10.7204C8.64022 11.0738 8.35368 11.3604 8.00022 11.3604C7.64676 11.3604 7.36022 11.0738 7.36022 10.7204Z" fill="#999999"/>
<path fill-rule="evenodd" clip-rule="evenodd" d="M8.05514 6.10026C7.61957 6.10026 7.41721 6.37482 7.37239 6.62135C7.32299 6.89304 7.0627 7.07324 6.79101 7.02384C6.51932 6.97444 6.33912 6.71415 6.38852 6.44246C6.50572 5.79786 7.06166 5.10026 8.05514 5.10026C8.44836 5.10026 8.78822 5.193 9.06326 5.37312C9.33874 5.55354 9.51888 5.80192 9.62317 6.06267C9.82135 6.55811 9.76072 7.13491 9.54019 7.51296C9.40638 7.74235 9.20051 7.9791 9.03184 8.17307C8.98562 8.22622 8.9422 8.27616 8.90381 8.32186C8.69104 8.57515 8.57625 8.75468 8.54404 8.90503C8.48618 9.17504 8.22038 9.34702 7.95037 9.28916C7.68036 9.2313 7.50837 8.96551 7.56623 8.6955C7.65554 8.27876 7.92556 7.9317 8.13811 7.67866C8.2058 7.59807 8.26835 7.52591 8.32581 7.4596C8.47789 7.28414 8.59435 7.14976 8.67641 7.00908C8.73943 6.90105 8.78007 6.64748 8.6947 6.43406C8.65722 6.34037 8.59938 6.2647 8.51537 6.20968C8.43091 6.15436 8.28976 6.10026 8.05514 6.10026Z" fill="#999999"/>
</svg>
