<svg width="28" height="28" viewBox="0 0 28 28" fill="none" xmlns="http://www.w3.org/2000/svg">
<path d="M0 14C0 6.26801 6.26801 0 14 0V0C21.732 0 28 6.26801 28 14V14C28 21.732 21.732 28 14 28V28C6.26801 28 0 21.732 0 14V14Z" fill="#98C867" fill-opacity="0.6"/>
<path fill-rule="evenodd" clip-rule="evenodd" d="M14.0001 19.4996C17.0377 19.4996 19.5001 17.0372 19.5001 13.9996C19.5001 10.962 17.0377 8.49961 14.0001 8.49961C10.9625 8.49961 8.5001 10.962 8.5001 13.9996C8.5001 17.0372 10.9625 19.4996 14.0001 19.4996ZM14.0001 20.9996C17.8661 20.9996 21.0001 17.8656 21.0001 13.9996C21.0001 10.1336 17.8661 6.99961 14.0001 6.99961C10.1341 6.99961 7.0001 10.1336 7.0001 13.9996C7.0001 17.8656 10.1341 20.9996 14.0001 20.9996Z" fill="white"/>
<path fill-rule="evenodd" clip-rule="evenodd" d="M22.9498 13.9996C22.9498 14.4138 22.614 14.7496 22.1998 14.7496H20.7998C20.3856 14.7496 20.0498 14.4138 20.0498 13.9996C20.0498 13.5854 20.3856 13.2496 20.7998 13.2496H22.1998C22.614 13.2496 22.9498 13.5854 22.9498 13.9996Z" fill="white"/>
<path fill-rule="evenodd" clip-rule="evenodd" d="M7.9498 13.9996C7.9498 14.4138 7.61402 14.7496 7.1998 14.7496H5.7998C5.38559 14.7496 5.0498 14.4138 5.0498 13.9996C5.0498 13.5854 5.38559 13.2496 5.7998 13.2496H7.1998C7.61402 13.2496 7.9498 13.5854 7.9498 13.9996Z" fill="white"/>
<path fill-rule="evenodd" clip-rule="evenodd" d="M14.0001 22.9498C13.5859 22.9498 13.2501 22.614 13.2501 22.1998V20.7998C13.2501 20.3856 13.5859 20.0498 14.0001 20.0498C14.4143 20.0498 14.7501 20.3856 14.7501 20.7998V22.1998C14.7501 22.614 14.4143 22.9498 14.0001 22.9498Z" fill="white"/>
<path fill-rule="evenodd" clip-rule="evenodd" d="M14.0001 7.9498C13.5859 7.9498 13.2501 7.61402 13.2501 7.1998V5.7998C13.2501 5.38559 13.5859 5.0498 14.0001 5.0498C14.4143 5.0498 14.7501 5.38559 14.7501 5.7998V7.1998C14.7501 7.61402 14.4143 7.9498 14.0001 7.9498Z" fill="white"/>
<path d="M13.2002 17.1995C13.2002 16.7577 13.5584 16.3995 14.0002 16.3995C14.442 16.3995 14.8002 16.7577 14.8002 17.1995C14.8002 17.6414 14.442 17.9995 14.0002 17.9995C13.5584 17.9995 13.2002 17.6414 13.2002 17.1995Z" fill="white"/>
<path fill-rule="evenodd" clip-rule="evenodd" d="M13.5429 11.7267C13.4313 11.8285 13.3618 11.9675 13.3381 12.098C13.264 12.5055 12.8735 12.7758 12.466 12.7017C12.0585 12.6276 11.7882 12.2372 11.8623 11.8296C12.0178 10.9741 12.7569 10.0492 14.0685 10.0492C14.5799 10.0492 15.0296 10.17 15.3972 10.4107C15.7655 10.6519 16.0059 10.984 16.1446 11.3308C16.4065 11.9854 16.3282 12.7468 16.0328 13.2531C15.8588 13.5513 15.5896 13.8608 15.3785 14.1035C15.3223 14.1681 15.2702 14.2279 15.2251 14.2816C14.9591 14.5983 14.835 14.8017 14.8019 14.9564C14.7151 15.3614 14.3164 15.6194 13.9114 15.5326C13.5064 15.4458 13.2484 15.0471 13.3352 14.6421C13.4539 14.0879 13.8109 13.6331 14.0765 13.3168C14.1659 13.2104 14.2468 13.1171 14.3198 13.0329C14.5057 12.8183 14.6408 12.6624 14.7372 12.4973C14.7962 12.396 14.8445 12.1194 14.7519 11.8879C14.7134 11.7917 14.6564 11.7187 14.5753 11.6656C14.4936 11.612 14.342 11.5492 14.0685 11.5492C13.8043 11.5492 13.6441 11.6344 13.5429 11.7267Z" fill="white"/>
</svg>
