<svg width="28" height="28" viewBox="0 0 28 28" fill="none" xmlns="http://www.w3.org/2000/svg">
<path d="M0 13.9998C0 6.26794 6.26794 0 13.9998 0V0C21.7317 0 27.9997 6.26794 27.9997 13.9998V13.9998C27.9997 21.7317 21.7317 27.9997 13.9998 27.9997V27.9997C6.26794 27.9997 0 21.7317 0 13.9998V13.9998Z" fill="#98C867" fill-opacity="0.2"/>
<path fill-rule="evenodd" clip-rule="evenodd" d="M14.0011 19.501C17.0389 19.501 19.5015 17.0384 19.5015 14.0006C19.5015 10.9628 17.0389 8.50012 14.0011 8.50012C10.9632 8.50012 8.50061 10.9628 8.50061 14.0006C8.50061 17.0384 10.9632 19.501 14.0011 19.501ZM14.0011 21.0011C17.8674 21.0011 21.0016 17.8669 21.0016 14.0006C21.0016 10.1343 17.8674 7 14.0011 7C10.1348 7 7.00049 10.1343 7.00049 14.0006C7.00049 17.8669 10.1348 21.0011 14.0011 21.0011Z" fill="#154430"/>
<path fill-rule="evenodd" clip-rule="evenodd" d="M14.0005 12.8505C14.4147 12.8505 14.7505 13.1863 14.7505 13.6006V17.2006C14.7505 17.6148 14.4147 17.9506 14.0005 17.9506C13.5862 17.9506 13.2504 17.6148 13.2504 17.2006V13.6006C13.2504 13.1863 13.5862 12.8505 14.0005 12.8505Z" fill="#154430"/>
<path d="M13.2007 10.8002C13.2007 10.3584 13.5589 10.0002 14.0007 10.0002C14.4425 10.0002 14.8007 10.3584 14.8007 10.8002C14.8007 11.2421 14.4425 11.6002 14.0007 11.6002C13.5589 11.6002 13.2007 11.2421 13.2007 10.8002Z" fill="#154430"/>
</svg>
