<svg width="20" height="20" viewBox="0 0 20 20" fill="none" xmlns="http://www.w3.org/2000/svg">
<path fill-rule="evenodd" clip-rule="evenodd" d="M1.04981 6.00008C1.04981 5.58587 1.38559 5.25008 1.79981 5.25008H3.19981C3.61402 5.25008 3.94981 5.58587 3.94981 6.00008C3.94981 6.4143 3.61402 6.75008 3.19981 6.75008H1.79981C1.38559 6.75008 1.04981 6.4143 1.04981 6.00008Z" fill="#154430"/>
<path fill-rule="evenodd" clip-rule="evenodd" d="M11.2498 6.00008C11.2498 5.58587 11.5856 5.25008 11.9998 5.25008H18.1998C18.614 5.25008 18.9498 5.58587 18.9498 6.00008C18.9498 6.4143 18.614 6.75008 18.1998 6.75008H11.9998C11.5856 6.75008 11.2498 6.4143 11.2498 6.00008Z" fill="#154430"/>
<path fill-rule="evenodd" clip-rule="evenodd" d="M7.59981 7.5C8.42823 7.5 9.09981 6.82843 9.09981 6C9.09981 5.17157 8.42823 4.5 7.59981 4.5C6.77138 4.5 6.09981 5.17157 6.09981 6C6.09981 6.82843 6.77138 7.5 7.59981 7.5ZM7.59981 9C9.25666 9 10.5998 7.65685 10.5998 6C10.5998 4.34315 9.25666 3 7.59981 3C5.94295 3 4.59981 4.34315 4.59981 6C4.59981 7.65685 5.94295 9 7.59981 9Z" fill="#154430"/>
<path fill-rule="evenodd" clip-rule="evenodd" d="M18.9498 14.0002C18.9498 14.4144 18.614 14.7502 18.1998 14.7502H16.7998C16.3856 14.7502 16.0498 14.4144 16.0498 14.0002C16.0498 13.5859 16.3856 13.2502 16.7998 13.2502H18.1998C18.614 13.2502 18.9498 13.5859 18.9498 14.0002Z" fill="#154430"/>
<path fill-rule="evenodd" clip-rule="evenodd" d="M8.7498 14.0002C8.7498 14.4144 8.41402 14.7502 7.9998 14.7502L1.7998 14.7502C1.38559 14.7502 1.0498 14.4144 1.0498 14.0002C1.0498 13.5859 1.38559 13.2502 1.7998 13.2502L7.9998 13.2502C8.41402 13.2502 8.7498 13.5859 8.7498 14.0002Z" fill="#154430"/>
<path fill-rule="evenodd" clip-rule="evenodd" d="M12.3998 12.5002C11.5714 12.5002 10.8998 13.1718 10.8998 14.0002C10.8998 14.8287 11.5714 15.5002 12.3998 15.5002C13.2282 15.5002 13.8998 14.8287 13.8998 14.0002C13.8998 13.1718 13.2282 12.5002 12.3998 12.5002ZM12.3998 11.0002C10.7429 11.0002 9.3998 12.3434 9.3998 14.0002C9.3998 15.6571 10.7429 17.0002 12.3998 17.0002C14.0567 17.0002 15.3998 15.6571 15.3998 14.0002C15.3998 12.3434 14.0567 11.0002 12.3998 11.0002Z" fill="#154430"/>
</svg>
