<svg width="72" height="72" viewBox="0 0 72 72" fill="none" xmlns="http://www.w3.org/2000/svg">
<circle opacity="0.4" cx="36" cy="36" r="36" fill="#93C460"/>
<path d="M60 36C60 49.2548 49.2548 60 36 60C22.7452 60 12 49.2548 12 36C12 22.7452 22.7452 12 36 12C49.2548 12 60 22.7452 60 36Z" fill="#62AD4B"/>
<path d="M60 36C60 49.2548 49.2548 60 36 60C22.7452 60 12 49.2548 12 36C12 22.7452 22.7452 12 36 12C49.2548 12 60 22.7452 60 36Z" fill="url(#paint0_linear_1684_57685)"/>
<path fill-rule="evenodd" clip-rule="evenodd" d="M62 36C62 50.3594 50.3594 62 36 62C21.6406 62 10 50.3594 10 36C10 21.6406 21.6406 10 36 10C50.3594 10 62 21.6406 62 36ZM36 60C49.2548 60 60 49.2548 60 36C60 22.7452 49.2548 12 36 12C22.7452 12 12 22.7452 12 36C12 49.2548 22.7452 60 36 60Z" fill="#ECF6E8"/>
<defs>
<linearGradient id="paint0_linear_1684_57685" x1="21" y1="17.5" x2="51.5" y2="54" gradientUnits="userSpaceOnUse">
<stop stop-color="#81B96F"/>
<stop offset="1" stop-color="#62AD4B"/>
</linearGradient>
</defs>
</svg>
