<svg width="21" height="20" viewBox="0 0 21 20" fill="none" xmlns="http://www.w3.org/2000/svg">
  <path
    d="M1.66106 1.16116C2.05158 0.770638 2.68475 0.770638 3.07527 1.16116L19.3387 17.4246C19.7293 17.8151 19.7293 18.4483 19.3387 18.8388C18.9482 19.2294 18.315 19.2294 17.9245 18.8388L1.66106 2.57538C1.27053 2.18485 1.27053 1.55169 1.66106 1.16116Z"
    fill="white" />
  <path
    d="M1.66121 18.8388C1.27068 18.4483 1.27068 17.8151 1.66121 17.4246L17.9247 1.16116C18.3152 0.77064 18.9484 0.770639 19.3389 1.16116C19.7294 1.55169 19.7294 2.18485 19.3389 2.57538L3.07542 18.8388C2.6849 19.2294 2.05173 19.2294 1.66121 18.8388Z"
    fill="white" />
</svg>