<svg width="16" height="16" viewBox="0 0 16 16" fill="none" xmlns="http://www.w3.org/2000/svg">
<path fill-rule="evenodd" clip-rule="evenodd" d="M13.5534 3.15335L3.23343 13.4734C3.03817 13.6686 2.72159 13.6686 2.52632 13.4734C2.33106 13.2781 2.33106 12.9615 2.52632 12.7663L12.8463 2.44624C13.0416 2.25098 13.3582 2.25098 13.5534 2.44624C13.7487 2.6415 13.7487 2.95809 13.5534 3.15335Z" fill="#30805D"/>
<path fill-rule="evenodd" clip-rule="evenodd" d="M4.14014 2.24023C4.14014 1.96409 4.36399 1.74023 4.64014 1.74023H13.7601C14.0363 1.74023 14.2601 1.96409 14.2601 2.24023V11.3602C14.2601 11.6364 14.0363 11.8602 13.7601 11.8602C13.484 11.8602 13.2601 11.6364 13.2601 11.3602V2.74023H4.64014C4.36399 2.74023 4.14014 2.51638 4.14014 2.24023Z" fill="#30805D"/>
</svg>
