<svg width="200" height="49" viewBox="0 0 200 49" fill="none" xmlns="http://www.w3.org/2000/svg">
<g clip-path="url(#clip0_984_2103)">
<path d="M5.26844 25.2994L5.23833 12.6446L5.21826 0H0V15.3008V30.6016H25.8906V25.3499L15.5845 25.3297L5.26844 25.2994Z" fill="white"/>
<path d="M35.9258 0H30.7075V15.3008V30.6016H35.9258V0Z" fill="white"/>
<path d="M43.0508 15.3008V30.6016H48.269V17.7752H68.9414V12.4225H48.269V5.35276H68.9414V0H43.0508V15.3008Z" fill="white"/>
<path d="M99.5483 25.3499H78.876V17.7752H99.5483V12.4225H78.876V5.35276H99.5483V0H73.6577V15.3008V30.6016H99.5483V25.3499Z" fill="white"/>
<path d="M120.622 30.6016V5.35276H132.463V0H103.663V2.67638V5.35276H115.504V30.6016H120.622Z" fill="white"/>
<path d="M162.067 25.3499L151.711 25.3297L141.345 25.2994L141.315 21.5322L141.294 17.7752H162.067V12.4225H141.294V5.35276H162.067V0H136.076V15.3008V30.6016H162.067V25.3499Z" fill="white"/>
<path d="M177.521 29.9654C179.769 30.5814 179.909 30.5915 190.095 30.6016H199.297V25.3499H190.747C186.041 25.3499 181.746 25.2994 181.214 25.2489C178.565 24.9863 176.467 23.9662 174.792 22.118C173.196 20.3607 172.403 18.0883 172.403 15.2705C172.403 13.9475 172.524 13.19 172.915 11.9579C173.507 10.0895 173.818 9.57438 175.213 8.18064C176.598 6.7768 178.143 5.94864 180.08 5.54465C180.923 5.37296 181.595 5.35276 190.145 5.35276H199.297V0L189.995 0.0100996C181.595 0.0302987 180.572 0.0504978 179.548 0.212091C178.414 0.393883 176.538 0.888761 175.966 1.16145C175.805 1.24225 175.404 1.41394 175.083 1.55533C174.761 1.69672 174.29 1.94921 174.049 2.12091C173.798 2.2825 173.567 2.42389 173.537 2.42389C173.357 2.42389 172.002 3.56514 171.179 4.4236C167.606 8.13014 166.392 13.3819 167.727 19.3911C167.887 20.1183 168.449 21.714 168.6 21.8554C168.65 21.916 168.69 22.0069 168.69 22.0776C168.69 22.2493 169.623 23.8551 170.175 24.6429C171.119 25.966 173.136 27.8445 174.36 28.5312C174.641 28.6827 175.042 28.915 175.263 29.0362C175.815 29.3594 176.859 29.7836 177.521 29.9654Z" fill="white"/>
<path d="M59.2974 41.9636C59.1468 41.6606 58.8759 41.3374 58.615 41.1557C58.2537 40.9032 58.0731 40.8527 57.4609 40.8224C56.618 40.7719 56.0861 40.9638 55.474 41.499C55.2733 41.6707 55.0926 41.8121 55.0525 41.8121C55.0224 41.8121 54.9923 40.8527 54.9923 39.6912V37.5703H54.4604C54.1594 37.5703 53.8884 37.6006 53.8583 37.641C53.8182 37.6713 53.7881 40.0649 53.7881 42.9433V48.1748H54.9923V43.1453L55.5944 42.5797C56.2868 41.9333 56.8187 41.7313 57.3405 41.9131C57.6817 42.0242 58.1132 42.4282 58.2637 42.7716C58.3139 42.8827 58.3741 44.135 58.4042 45.549L58.4544 48.1243L59.6185 48.1849L59.5884 45.3268C59.5583 42.4787 59.5583 42.4585 59.2974 41.9636Z" fill="white"/>
<path d="M124.957 41.5092L124.586 41.8122L124.536 39.7216L124.486 37.6209L123.914 37.5906L123.332 37.5603V48.185L123.914 48.1547L124.486 48.1244L124.516 45.6399L124.536 43.1555L125.128 42.5899C126.031 41.7213 126.904 41.6203 127.476 42.3172C127.857 42.7717 127.948 43.4382 127.948 45.9126V48.185L128.53 48.1547L129.102 48.1244L129.132 45.5592C129.162 42.6606 129.092 42.196 128.52 41.5395C127.667 40.5599 126.121 40.5397 124.957 41.5092Z" fill="white"/>
<path d="M168.811 41.5092L168.439 41.8122L168.389 39.7216L168.339 37.6209L167.767 37.5906L167.185 37.5603V48.185L167.767 48.1547L168.339 48.1244L168.369 45.65L168.389 43.1757L168.911 42.6505C169.814 41.7314 170.737 41.6001 171.33 42.3172C171.711 42.7717 171.801 43.4382 171.801 45.9126V48.185L172.383 48.1547L172.955 48.1244L172.985 45.5592C173.015 42.6606 172.945 42.196 172.373 41.5395C171.52 40.5599 169.975 40.5397 168.811 41.5092Z" fill="white"/>
<path d="M14.8119 38.237C14.6312 38.4188 14.6011 39.0046 14.7517 39.2975C14.842 39.449 14.9724 39.4894 15.3839 39.4894C15.6749 39.4894 15.9659 39.4389 16.0361 39.3682C16.1064 39.2975 16.1566 39.0349 16.1566 38.7824C16.1566 38.5299 16.1064 38.2673 16.0361 38.1966C15.8555 38.0148 15.0025 38.0451 14.8119 38.237Z" fill="white"/>
<path d="M157.01 38.237C156.829 38.4188 156.799 39.0046 156.949 39.2975C157.04 39.449 157.17 39.4894 157.582 39.4894C157.873 39.4894 158.164 39.4389 158.234 39.3682C158.304 39.2975 158.354 39.0349 158.354 38.7824C158.354 38.5299 158.304 38.2673 158.234 38.1966C158.053 38.0148 157.2 38.0451 157.01 38.237Z" fill="white"/>
<path d="M12.4739 38.2975L11.9019 38.3278L10.798 42.5394C10.1959 44.8623 9.68411 46.7509 9.67407 46.7307C9.654 46.7206 9.15225 44.8926 8.5401 42.6706C7.938 40.4487 7.40614 38.55 7.37603 38.449C7.31582 38.3177 7.18536 38.2773 6.72375 38.2773C6.38255 38.2773 6.11161 38.3278 6.05139 38.3985C5.99118 38.4692 5.48943 40.3781 4.91743 42.6404C4.34542 44.9027 3.86374 46.7509 3.8537 46.7307C3.84367 46.7206 3.35195 44.9128 2.76991 42.7211C2.18787 40.5295 1.66605 38.6308 1.60584 38.4995C1.52555 38.3076 1.43524 38.2773 0.903377 38.2773C0.371515 38.2773 0.30127 38.2975 0.30127 38.4793C0.30127 38.7823 2.90037 47.8921 3.03082 48.0537C3.1111 48.1446 3.37202 48.1749 3.90388 48.1547L4.66655 48.1244L5.61988 44.3674C6.14171 42.3071 6.59329 40.5901 6.6234 40.5699C6.6535 40.5396 7.12515 42.1354 7.66705 44.1149C8.20895 46.0944 8.69063 47.8214 8.74081 47.9426C8.82109 48.1547 8.89133 48.1749 9.57372 48.1749C10.0454 48.1749 10.3464 48.1244 10.4066 48.0436C10.5873 47.8315 13.1763 38.5904 13.1061 38.4288C13.0659 38.2975 12.9255 38.2773 12.4739 38.2975Z" fill="white"/>
<path d="M91.1991 38.2773C90.5669 38.2773 90.4766 38.3076 90.2257 38.55C90.0551 38.7419 89.4329 40.0851 88.4194 42.5494C87.5664 44.5895 86.8639 46.2458 86.8439 46.2357C86.8338 46.2155 86.1916 44.6097 85.4189 42.6706C83.7029 38.3581 83.8132 38.6005 83.4821 38.4187C83.161 38.2571 82.027 38.2369 81.7661 38.3884C81.5955 38.4793 81.5854 38.8227 81.5854 43.3372V48.185L82.1675 48.1547L82.7395 48.1244L82.7897 43.7816C82.8398 39.6609 82.8499 39.4589 83.0004 39.8427C83.0907 40.0649 83.8534 42.0343 84.6963 44.2057L86.2317 48.1749H86.7535C87.0546 48.1749 87.3255 48.1244 87.3757 48.0436C87.4359 47.983 88.2488 46.0136 89.1921 43.6806L90.9081 39.4387L90.9683 48.1244H92.1725L92.2026 43.3877C92.2327 37.8632 92.313 38.2773 91.1991 38.2773Z" fill="white"/>
<path d="M21.5555 40.8223C21.0337 40.8021 20.8631 40.8324 20.542 41.0243C20.3413 41.1556 20.0202 41.4383 19.8395 41.6605L19.5184 42.0645L19.4181 40.9536H18.4146V48.1242L18.9966 48.1545L19.5686 48.1848V43.5592L19.8295 43.1654C20.5019 42.1554 21.0237 41.8322 21.686 42.014C22.258 42.1756 22.3784 42.1049 22.3784 41.5898C22.3784 40.9536 22.2881 40.8728 21.5555 40.8223Z" fill="white"/>
<path d="M35.3638 40.8224C34.5309 40.7618 34.0191 40.9537 33.3066 41.6001L32.7747 42.0849L32.5038 41.6607C31.992 40.8527 30.7175 40.5497 29.7441 40.9941C29.5133 41.1052 29.142 41.3476 28.9212 41.5496C28.7105 41.7516 28.4997 41.9132 28.4596 41.9132C28.4295 41.9132 28.3994 41.6809 28.3994 41.3981V40.8931L27.8776 40.9234L27.3457 40.9537V48.1244H28.5499L28.6001 45.5591L28.6503 43.0039L29.1821 42.509C29.8746 41.8627 30.3462 41.7213 30.868 41.9738C31.6909 42.3879 31.8113 42.913 31.8113 46.0338V48.185L32.3934 48.1547L32.9654 48.1244L32.9955 45.6298L33.0155 43.1453L33.5675 42.5797C34.3803 41.7516 35.1229 41.6304 35.725 42.2263C36.1465 42.6504 36.2268 43.2463 36.2268 45.8621V48.185L36.8088 48.1547L37.3808 48.1244V42.4585L37.1199 41.9637C36.7486 41.2365 36.1967 40.8729 35.3638 40.8224Z" fill="white"/>
<path d="M43.402 40.9132C42.7096 40.7214 41.4753 40.782 40.7226 41.0344C39.8596 41.3374 39.6389 41.5293 39.6389 42.0242C39.6389 42.2363 39.689 42.4383 39.7392 42.4686C39.7994 42.4989 40.1406 42.3777 40.5119 42.1959C41.0638 41.9232 41.3348 41.8525 41.9469 41.8323C42.6092 41.802 42.7397 41.8222 43.0508 42.0343C43.4522 42.307 43.6429 42.7514 43.6429 43.4381L43.6529 43.9027L42.529 43.9633C40.6123 44.0542 39.5887 44.6299 39.3579 45.7206C39.0367 47.2053 39.98 48.2758 41.5857 48.2758C42.3584 48.2758 42.8802 48.094 43.5024 47.6092L43.8536 47.3467V48.1748H44.8571V45.4176C44.8571 43.7209 44.817 42.5191 44.7467 42.2666C44.5962 41.7414 43.9238 41.0647 43.402 40.9132ZM43.6529 45.5893V46.3367L43.1913 46.7508C42.5089 47.3568 41.9469 47.4881 41.2545 47.2053C40.3614 46.8518 40.3212 45.5893 41.1943 45.1147C41.5355 44.9329 41.967 44.8622 42.83 44.8521L43.6529 44.842V45.5893Z" fill="white"/>
<path d="M49.5833 41.8627C50.1553 41.7819 50.7072 41.9233 51.3093 42.3273C51.9014 42.7212 52.0821 42.6606 52.0821 42.1051C52.0821 41.6002 51.7208 41.2063 51.0083 40.9639C50.5266 40.7922 49.4127 40.7619 48.9712 40.8932C48.068 41.176 47.506 41.691 47.0745 42.6202C46.8638 43.0848 46.8136 43.3676 46.7835 44.3573C46.7333 45.8016 46.9441 46.6701 47.5261 47.3468C48.1282 48.0639 48.5397 48.2255 49.774 48.2255C50.6872 48.2255 50.8879 48.1952 51.2792 47.9831C51.9917 47.6094 52.0821 47.4983 52.0821 46.9529C52.0821 46.6903 52.0419 46.4479 51.9917 46.4075C51.9315 46.3772 51.6204 46.5287 51.2893 46.7408C50.9581 46.963 50.5065 47.165 50.2757 47.2054C49.3324 47.3569 48.4794 46.8216 48.2185 45.9127C48.0379 45.3168 48.0178 43.9028 48.1884 43.2565C48.349 42.5798 48.9812 41.9536 49.5833 41.8627Z" fill="white"/>
<path d="M65.9809 40.974C65.3788 40.7619 64.1344 40.7619 63.5524 40.974C62.9101 41.1962 62.1976 41.9032 61.8565 42.6404C61.5855 43.2363 61.5654 43.3575 61.5654 44.5896C61.5654 45.8218 61.5855 45.943 61.8565 46.5389C62.4184 47.7609 63.3316 48.276 64.9172 48.276C66.3522 48.2659 67.3758 47.9528 67.4661 47.4882C67.5363 47.0943 67.3758 46.7207 67.155 46.8116C66.1214 47.2559 64.8369 47.3973 64.1144 47.1549C63.3718 46.9024 62.8198 46.0238 62.8198 45.0744V44.7411L65.2584 44.7209L67.6869 44.6906L67.717 43.9231C67.7671 42.5192 67.0847 41.3477 65.9809 40.974ZM66.5328 43.8322H62.7997L62.87 43.4585C63.0205 42.6404 63.442 42.0951 64.0943 41.8527C64.5659 41.6911 64.7666 41.681 65.2784 41.8224C65.9809 42.0244 66.5328 42.802 66.5328 43.5999V43.8322Z" fill="white"/>
<path d="M74.2098 40.994C73.6578 40.7415 72.7346 40.7516 72.1626 41.0142C71.9117 41.1253 71.5204 41.3677 71.2896 41.5697L70.858 41.9131L70.8279 41.4384L70.7978 40.9536L70.276 40.9233L69.7441 40.893V48.1849L70.3262 48.1546L70.8982 48.1243L70.9283 45.6398L70.9484 43.1553L71.5304 42.5897C72.4436 41.7212 73.3166 41.6202 73.8886 42.3171C74.27 42.7715 74.3603 43.4381 74.3603 45.9125V48.1849L74.9423 48.1546L75.5143 48.1243L75.5444 45.559C75.5745 42.6604 75.5043 42.1959 74.9323 41.5394C74.7617 41.3374 74.4305 41.095 74.2098 40.994Z" fill="white"/>
<path d="M99.0067 41.085C98.4748 40.8022 96.9897 40.7214 96.4076 40.9436C94.9726 41.4789 94.3002 42.6201 94.2902 44.5391C94.2802 46.3469 94.7418 47.3366 95.8858 47.9224C96.3875 48.185 96.6083 48.2254 97.4111 48.2557C98.4949 48.3062 99.7593 48.0638 100.06 47.7608C100.261 47.5588 100.331 46.9226 100.161 46.8115C100.111 46.7812 99.7292 46.8721 99.3078 47.0135C98.0233 47.4477 96.6585 47.3164 96.1166 46.7004C95.8456 46.3974 95.655 45.8419 95.6148 45.2965L95.5847 44.7916L97.9631 44.7613C100.733 44.731 100.622 44.7815 100.512 43.6806C100.382 42.4182 99.8697 41.5294 99.0067 41.085ZM99.2476 43.8321H95.5446L95.6048 43.4988C95.7453 42.711 96.227 42.1051 96.8993 41.8627C97.3609 41.691 97.4713 41.691 97.9831 41.8021C98.6956 41.9738 99.2476 42.7312 99.2476 43.5493V43.8321Z" fill="white"/>
<path d="M107.968 41.9637C107.817 41.6607 107.546 41.3375 107.285 41.1558C106.914 40.8932 106.754 40.8528 106.091 40.8225C105.439 40.8023 105.238 40.8326 104.817 41.0346C104.546 41.176 104.185 41.4284 104.024 41.6001C103.853 41.7718 103.693 41.9132 103.653 41.9132C103.613 41.9132 103.562 41.7011 103.542 41.4284L103.512 40.9538H102.509L102.479 44.5593L102.458 48.1749H103.663V43.1454L104.265 42.5798C104.957 41.9334 105.489 41.7314 106.011 41.9132C106.352 42.0243 106.784 42.4283 106.934 42.7717C106.974 42.8828 107.045 44.1351 107.075 45.5491L107.125 48.1244L108.289 48.185L108.259 45.3269C108.229 42.4788 108.229 42.4586 107.968 41.9637Z" fill="white"/>
<path d="M112.965 44.0442C111.952 43.6402 111.691 43.4584 111.52 43.0444C111.4 42.7414 111.4 42.6707 111.56 42.3374C111.871 41.6809 112.875 41.5395 113.798 42.0142C114.29 42.2667 114.46 42.2667 114.531 42.0142C114.621 41.6506 114.45 41.2668 114.099 41.0648C113.838 40.9133 113.527 40.8527 112.845 40.8225C112.052 40.7922 111.881 40.8224 111.44 41.0345C110.587 41.4486 110.286 41.9233 110.286 42.8424C110.286 43.8624 110.717 44.3371 112.283 44.9835C113.377 45.4379 113.748 45.8015 113.658 46.3368C113.557 47.0034 113.116 47.2862 112.152 47.2761C111.691 47.2761 111.41 47.2054 110.918 46.963C110.577 46.7913 110.246 46.6802 110.185 46.7105C110.005 46.8216 110.075 47.5589 110.286 47.7709C110.818 48.3062 112.895 48.4476 113.748 48.0032C114.782 47.4579 115.183 46.3065 114.701 45.2865C114.45 44.7714 113.999 44.4482 112.965 44.0442Z" fill="white"/>
<path d="M120.893 46.6802C119.558 47.5791 118.435 47.3973 117.852 46.1853C117.592 45.6501 117.561 45.4986 117.561 44.5391C117.561 43.5797 117.592 43.4282 117.852 42.8929C118.424 41.7112 119.609 41.489 120.803 42.3172C121.345 42.701 121.495 42.701 121.576 42.3071C121.686 41.8223 121.475 41.4688 120.893 41.1457C120.191 40.7619 118.926 40.6912 118.174 41.0043C117.14 41.4183 116.488 42.3879 116.297 43.8018C116.136 44.9027 116.277 45.953 116.698 46.8115C117.21 47.8417 117.963 48.2759 119.277 48.2759C120.11 48.2759 120.943 48.0134 121.365 47.6195C121.555 47.4377 121.626 47.2761 121.626 46.9933C121.626 46.3166 121.515 46.2661 120.893 46.6802Z" fill="white"/>
<path d="M135.625 41.0447C134.962 40.7316 133.768 40.7114 132.995 41.0144C131.952 41.4183 131.209 42.499 131.069 43.822C130.858 45.8924 131.47 47.4276 132.765 48.0134C133.397 48.2961 134.992 48.3567 135.875 48.1345C136.799 47.8922 136.979 47.7508 136.979 47.266C136.979 47.0539 136.939 46.8519 136.899 46.8216C136.849 46.7913 136.478 46.8822 136.076 47.0236C135.454 47.2458 135.203 47.2761 134.471 47.2458C133.728 47.2256 133.537 47.1751 133.196 46.9428C132.704 46.6196 132.443 46.0843 132.383 45.3168L132.343 44.7411H134.701C136.678 44.7411 137.08 44.7209 137.18 44.5896C137.27 44.4886 137.29 44.2058 137.26 43.7008C137.18 42.4283 136.618 41.5193 135.625 41.0447ZM132.363 43.8321V43.5494C132.373 43.1757 132.684 42.5192 132.995 42.2364C133.577 41.691 134.551 41.6001 135.243 42.0243C135.635 42.2667 135.916 42.7818 136.016 43.3979L136.076 43.8321H132.363Z" fill="white"/>
<path d="M143.753 40.9941C143.211 40.7416 142.188 40.7416 141.636 40.9941C141.405 41.1051 141.034 41.3475 140.813 41.5495C140.602 41.7515 140.391 41.9131 140.351 41.9131C140.321 41.9131 140.291 41.6808 140.291 41.398V40.8931L139.769 40.9234L139.237 40.9537V48.1243H140.442L140.542 43.0342L140.893 42.6706C141.395 42.1454 142.198 41.7717 142.619 41.8626C143.071 41.9636 143.382 42.1858 143.583 42.5595C143.723 42.8221 143.763 43.2867 143.803 45.4985L143.853 48.1243H145.058V45.3975C145.058 42.7615 145.048 42.6504 144.827 42.1656C144.536 41.5293 144.255 41.2263 143.753 40.9941Z" fill="white"/>
<path d="M153.226 44.0342C152.122 43.5494 151.731 43.2262 151.731 42.7616C151.731 41.8123 152.855 41.4689 154.15 42.0243C154.41 42.1455 154.681 42.2061 154.732 42.1657C154.852 42.095 154.872 41.5194 154.762 41.3477C154.571 41.0548 153.959 40.8629 153.086 40.8225C152.263 40.7922 152.132 40.8124 151.651 41.0649C151.029 41.378 150.637 41.9032 150.557 42.5091C150.406 43.5999 150.948 44.3371 152.303 44.8623C153.718 45.4178 154.139 45.9228 153.838 46.7004C153.567 47.4276 152.042 47.4781 150.848 46.8014C150.567 46.6297 150.507 46.6297 150.416 46.761C150.266 46.9832 150.376 47.6599 150.597 47.8316C150.928 48.0841 151.751 48.276 152.544 48.276C154.23 48.276 155.143 47.5185 155.143 46.1147C155.143 45.0946 154.782 44.7007 153.226 44.0342Z" fill="white"/>
<path d="M164.747 46.6802C163.412 47.5791 162.248 47.3872 161.686 46.1752C161.455 45.6703 161.415 45.4683 161.415 44.5391C161.415 43.61 161.445 43.4282 161.706 42.8929C162.278 41.7112 163.462 41.489 164.656 42.3172C165.198 42.701 165.349 42.701 165.429 42.3071C165.539 41.8223 165.329 41.4688 164.747 41.1457C164.044 40.7619 162.78 40.6912 162.027 41.0043C160.993 41.4183 160.341 42.3879 160.151 43.8018C159.99 44.9027 160.13 45.953 160.552 46.8115C161.064 47.8417 161.816 48.2759 163.131 48.2759C163.964 48.2759 164.797 48.0134 165.218 47.6195C165.409 47.4377 165.479 47.2761 165.479 46.9933C165.479 46.3166 165.369 46.2661 164.747 46.6802Z" fill="white"/>
<path d="M179.478 41.0445C179.077 40.8527 178.816 40.8022 178.174 40.8123C177.732 40.8123 177.26 40.8527 177.12 40.893C175.514 41.3879 174.681 43.0746 174.922 45.3268C175.063 46.6296 175.665 47.579 176.618 48.0132C177.25 48.296 178.846 48.3566 179.729 48.1344C180.652 47.892 180.833 47.7506 180.833 47.2659C180.833 47.0538 180.793 46.8518 180.753 46.8215C180.703 46.7912 180.331 46.8821 179.93 47.0235C179.308 47.2457 179.057 47.276 178.324 47.2457C177.582 47.2255 177.391 47.175 177.05 46.9427C176.558 46.6195 176.297 46.0842 176.237 45.3167L176.197 44.741H178.555C180.532 44.741 180.933 44.7208 181.034 44.5895C181.124 44.4885 181.144 44.2057 181.114 43.7007C181.034 42.4282 180.472 41.5192 179.478 41.0445ZM176.217 43.832V43.5492C176.227 43.1756 176.538 42.5191 176.849 42.2363C177.431 41.6909 178.404 41.6 179.097 42.0242C179.488 42.2666 179.769 42.7817 179.87 43.3977L179.93 43.832H176.217Z" fill="white"/>
<path d="M186.804 40.9032C186.382 40.7416 185.63 40.782 185.299 40.984C185.138 41.0951 184.827 41.3678 184.626 41.5899C184.415 41.8222 184.225 42.0141 184.195 42.0141C184.165 42.0141 184.145 41.7616 184.145 41.4486V40.8931L183.623 40.9234L183.091 40.9537V48.1244H184.295L184.325 45.751L184.345 43.3776L184.727 42.8827C185.248 42.1858 185.58 41.9636 186.031 41.9939C186.232 42.004 186.543 42.0343 186.703 42.0444C186.994 42.0646 187.005 42.0545 187.035 41.5294C187.065 41.0446 187.045 40.9941 186.804 40.9032Z" fill="white"/>
<path d="M192.524 41.0548C191.922 40.7619 190.487 40.7316 189.794 41.0144C189.022 41.3173 188.319 42.1253 188.048 43.0343C187.757 44.0038 187.807 45.741 188.149 46.5287C188.46 47.2458 189.192 47.9124 189.875 48.1143C190.888 48.4173 192.885 48.2557 193.557 47.8114C193.718 47.7003 193.778 47.569 193.778 47.266C193.778 47.0539 193.738 46.8519 193.698 46.8216C193.648 46.7913 193.297 46.8822 192.915 47.0135C191.992 47.3468 190.828 47.3569 190.196 47.0539C189.624 46.7711 189.262 46.1651 189.192 45.3471L189.132 44.7411H191.49C193.186 44.7411 193.869 44.7108 193.959 44.6199C194.139 44.4381 194.099 43.4181 193.879 42.6909C193.648 41.9536 193.176 41.3779 192.524 41.0548ZM191.029 43.8321C188.951 43.8321 189.052 43.8725 189.262 43.1151C189.463 42.3778 190.316 41.7213 191.069 41.7213C191.209 41.7213 191.49 41.7819 191.701 41.8526C192.363 42.095 192.684 42.5293 192.825 43.3979L192.895 43.8321H191.029Z" fill="white"/>
<path d="M199.739 40.9032C199.328 40.7416 198.575 40.782 198.244 40.984C198.083 41.0951 197.772 41.3678 197.572 41.5899C197.361 41.8222 197.17 42.0141 197.14 42.0141C197.11 42.0141 197.09 41.7616 197.09 41.4486V40.8931L196.568 40.9234L196.036 40.9537V48.1244H197.24L197.27 45.751L197.291 43.3776L197.752 42.7817C198.304 42.0747 198.736 41.8626 199.277 42.0141C199.96 42.206 200 42.1757 200 41.5596C200 41.0547 199.98 40.9941 199.739 40.9032Z" fill="white"/>
<path d="M14.8521 40.8931V44.539V48.1849L15.4341 48.1546L16.0061 48.1243V40.9537L15.4341 40.9234L14.8521 40.8931Z" fill="white"/>
<path d="M157 41.1253C156.97 41.2566 156.96 42.8826 156.97 44.7409L157 48.1243H158.204V40.9536L157.632 40.9233C157.1 40.893 157.05 40.9132 157 41.1253Z" fill="white"/>
</g>
<defs>
<clipPath id="clip0_984_2103">
<rect width="200" height="48.2759" fill="white"/>
</clipPath>
</defs>
</svg>
