<svg width="120" height="18" viewBox="0 0 120 18" fill="none" xmlns="http://www.w3.org/2000/svg">
<g clip-path="url(#clip0_2683_70751)">
<path d="M11.2676 6.95669H14.4692V14.0808H11.2857V17.3412H14.4692H17.7296V6.95669H17.7319V3.69629H11.2676V6.95669Z" fill="white"/>
<path d="M6.40557 9.99081H3.2604V6.95635H6.40557V3.69595H3.2604V0.550781H0V3.81118H3.14517V6.83886H0V10.0993H3.14517V17.3408H6.40557H9.65468V14.0804H6.40557V9.99081Z" fill="white"/>
<path d="M28.1819 6.11771C27.5312 5.75168 26.8104 5.56641 26.0196 5.56641C25.2288 5.56641 24.5193 5.74942 23.8641 6.11771C23.2088 6.48601 22.6914 6.99439 22.3073 7.64511C21.9232 8.29584 21.7334 9.0279 21.7334 9.84357C21.7334 10.6592 21.9255 11.4026 22.3073 12.0533C22.6914 12.704 23.2088 13.2124 23.8641 13.5807C24.5193 13.949 25.2378 14.132 26.0196 14.132C26.8014 14.132 27.5199 13.949 28.1751 13.5807C28.8304 13.2147 29.3455 12.704 29.7251 12.0533C30.1047 11.4026 30.2945 10.666 30.2945 9.84357C30.2945 9.02112 30.1047 8.29584 29.7251 7.64511C29.3455 6.99439 28.8304 6.48601 28.1796 6.11771H28.1819ZM28.2474 11.3145C28.0328 11.737 27.7323 12.0624 27.3482 12.2906C26.9641 12.5188 26.5212 12.6317 26.0196 12.6317C25.518 12.6317 25.0706 12.5188 24.6843 12.2906C24.2979 12.0624 23.9951 11.737 23.7805 11.3145C23.5658 10.892 23.4574 10.4017 23.4574 9.84131C23.4574 9.28096 23.5658 8.79292 23.7805 8.37492C23.9951 7.95692 24.2979 7.63381 24.6843 7.41013C25.0706 7.18644 25.5157 7.07573 26.0196 7.07573C26.5235 7.07573 26.9663 7.1887 27.3482 7.41013C27.7323 7.63381 28.0305 7.95466 28.2474 8.37492C28.4621 8.79518 28.5705 9.28322 28.5705 9.84131C28.5705 10.3994 28.4621 10.892 28.2474 11.3145Z" fill="white"/>
<path d="M36.5876 7.72464C36.1289 7.44447 35.616 7.30664 35.0489 7.30664C34.5608 7.30664 34.1293 7.40832 33.7497 7.61167C33.3701 7.81502 33.0741 8.06808 32.8572 8.37311V7.41509H31.1807V17.2099H32.8572V13.1022C33.0876 13.4049 33.3904 13.658 33.761 13.8568C34.1315 14.0557 34.5608 14.1551 35.0489 14.1551C35.616 14.1551 36.1289 14.0105 36.5876 13.7235C37.0462 13.4366 37.41 13.0299 37.6766 12.5079C37.9432 11.986 38.0788 11.385 38.0788 10.7049C38.0788 10.0248 37.9455 9.43053 37.6766 8.91538C37.41 8.40022 37.0462 8.00255 36.5876 7.72464ZM36.1198 11.76C35.9572 12.056 35.7403 12.282 35.4736 12.4424C35.207 12.6028 34.9178 12.6819 34.606 12.6819C34.2942 12.6819 34.0163 12.6051 33.7497 12.4492C33.4831 12.2933 33.2661 12.0673 33.1035 11.7713C32.9408 11.4753 32.8572 11.1296 32.8572 10.7297C32.8572 10.3298 32.9385 9.9841 33.1035 9.68811C33.2661 9.39212 33.4831 9.16618 33.7497 9.01253C34.0163 8.85663 34.3032 8.77981 34.606 8.77981C34.9088 8.77981 35.207 8.85663 35.4736 9.00802C35.7403 9.1594 35.9572 9.38083 36.1198 9.6723C36.2825 9.96377 36.3661 10.3095 36.3661 10.7071C36.3661 11.1048 36.2848 11.4663 36.1198 11.76Z" fill="white"/>
<path d="M43.5335 7.71139C43.0342 7.44026 42.4693 7.30469 41.8389 7.30469C41.2085 7.30469 40.6053 7.44477 40.1014 7.72269C39.5975 8.00286 39.2067 8.40053 38.9287 8.9202C38.6486 9.43988 38.5107 10.0409 38.5107 10.7278C38.5107 11.4146 38.6531 12.0044 38.9355 12.524C39.218 13.0437 39.6134 13.4436 40.1217 13.7283C40.6279 14.0108 41.2018 14.1531 41.8412 14.1531C42.632 14.1531 43.2985 13.9475 43.8408 13.5363C44.3831 13.1251 44.7514 12.6009 44.9434 11.9614H43.1359C42.8715 12.4969 42.4286 12.7635 41.8073 12.7635C41.3757 12.7635 41.012 12.628 40.7182 12.3568C40.4222 12.0857 40.255 11.7106 40.2144 11.2316H45.0654C45.0971 11.0396 45.1129 10.8249 45.1129 10.5854C45.1129 9.93922 44.9751 9.36532 44.6994 8.86598C44.4238 8.36663 44.0374 7.98253 43.538 7.71139H43.5335ZM40.2234 10.1064C40.2867 9.65905 40.4607 9.30883 40.7453 9.05803C41.0278 8.80723 41.378 8.6807 41.7937 8.6807C42.2321 8.6807 42.6049 8.81175 42.9077 9.06933C43.2104 9.32917 43.3663 9.67486 43.3754 10.1042H40.2257L40.2234 10.1064Z" fill="white"/>
<path d="M49.6468 7.31543C49.2311 7.31543 48.8515 7.39677 48.5036 7.56171C48.1556 7.72439 47.8709 7.95034 47.6472 8.23729V7.41033H45.9707V14.0441H47.6472V10.3793C47.6472 9.8528 47.7805 9.44836 48.0494 9.16367C48.316 8.88124 48.6821 8.73889 49.1452 8.73889C49.6084 8.73889 49.9587 8.88124 50.223 9.16367C50.4874 9.4461 50.6184 9.8528 50.6184 10.3793V14.0441H52.2949V10.1533C52.2949 9.25857 52.0509 8.56265 51.5651 8.06331C51.0771 7.56397 50.4399 7.31543 49.6491 7.31543H49.6468Z" fill="white"/>
<path d="M58.2696 9.76003C58.7012 9.62446 59.0469 9.39399 59.3045 9.06637C59.5643 8.73875 59.6931 8.33205 59.6931 7.844C59.6931 7.42826 59.5869 7.05771 59.3768 6.73009C59.1644 6.40247 58.8548 6.14715 58.4436 5.96413C58.0324 5.78111 57.5444 5.68848 56.9772 5.68848H53.5293V14.0462H57.1331C57.7003 14.0462 58.1906 13.9513 58.6063 13.7593C59.022 13.5672 59.3384 13.3029 59.5575 12.9639C59.7767 12.625 59.8874 12.2319 59.8874 11.7845C59.8874 11.2897 59.736 10.8513 59.4333 10.4672C59.1305 10.0831 58.7419 9.84815 58.2719 9.76003H58.2696ZM55.2036 7.04189H56.7355C57.1354 7.04189 57.4427 7.13453 57.6573 7.31755C57.872 7.50056 57.9804 7.7604 57.9804 8.09706C57.9804 8.43372 57.872 8.68904 57.6573 8.8698C57.4427 9.05056 57.1354 9.13867 56.7355 9.13867H55.2036V7.04415V7.04189ZM57.8449 12.3946C57.6167 12.5866 57.3003 12.6815 56.8936 12.6815H55.2058V10.4311H56.8575C57.2642 10.4311 57.5873 10.5328 57.8268 10.7361C58.0663 10.9395 58.186 11.2219 58.186 11.5812C58.186 11.9404 58.0731 12.2048 57.8449 12.3946Z" fill="white"/>
<path d="M62.5437 8.44259V7.41228H60.8672V14.0461H62.5437V10.7405C62.5437 10.1259 62.677 9.69434 62.9459 9.44806C63.2125 9.19951 63.6102 9.0775 64.1366 9.0775H64.5795V7.31738C64.1321 7.31738 63.7344 7.4168 63.3887 7.61789C63.0408 7.81672 62.7606 8.09238 62.5437 8.44485V8.44259Z" fill="white"/>
<path d="M70.1357 8.35693C69.912 8.05416 69.6137 7.8011 69.2432 7.60227C68.8726 7.40343 68.4388 7.30176 67.944 7.30176C67.3769 7.30176 66.864 7.44184 66.4053 7.71976C65.9466 7.99993 65.5829 8.3976 65.3162 8.91727C65.0496 9.43695 64.9141 10.0312 64.9141 10.7022C64.9141 11.3733 65.0474 11.9811 65.3162 12.5053C65.5829 13.0272 65.9466 13.4339 66.4053 13.7209C66.864 14.0078 67.3724 14.1524 67.9327 14.1524C68.4275 14.1524 68.8636 14.0508 69.2432 13.8474C69.6228 13.6441 69.921 13.3865 70.1357 13.0747V14.044H71.8235V7.41021H70.1357V8.35693ZM69.8962 11.7755C69.7358 12.067 69.5211 12.2906 69.25 12.4466C68.9788 12.6025 68.6874 12.6793 68.3756 12.6793C68.0638 12.6793 67.7858 12.6002 67.5192 12.4398C67.2526 12.2794 67.0357 12.0511 66.873 11.7506C66.7103 11.4501 66.6267 11.1022 66.6267 10.7022C66.6267 10.3023 66.7081 9.95888 66.873 9.66741C67.038 9.37594 67.2503 9.15452 67.5147 9.00313C67.7791 8.85175 68.066 8.77493 68.3778 8.77493C68.6896 8.77493 68.9811 8.85175 69.2522 9.00765C69.5234 9.16355 69.7403 9.38724 69.8984 9.67871C70.0589 9.97018 70.1379 10.3181 70.1379 10.7271C70.1379 11.1361 70.0589 11.484 69.8984 11.7755H69.8962Z" fill="white"/>
<path d="M75.9423 8.73041C76.2767 8.73041 76.5591 8.81175 76.7873 8.97669C77.0155 9.13937 77.176 9.36532 77.2731 9.65227H79.0807C78.8977 8.9089 78.5362 8.33274 77.9961 7.92152C77.4584 7.5103 76.776 7.30469 75.9536 7.30469C75.3142 7.30469 74.747 7.44703 74.2522 7.72947C73.7574 8.0119 73.371 8.41182 73.0908 8.92698C72.8107 9.44214 72.6729 10.0432 72.6729 10.73C72.6729 11.4169 72.8129 12.0179 73.0908 12.5331C73.371 13.0482 73.7574 13.4482 74.2522 13.7306C74.747 14.013 75.3142 14.1554 75.9536 14.1554C76.767 14.1554 77.4471 13.943 77.9894 13.5205C78.5316 13.0979 78.8954 12.5263 79.0784 11.8078H77.2709C77.063 12.4156 76.6201 12.7184 75.9423 12.7184C75.4633 12.7184 75.0837 12.5444 74.8035 12.1964C74.5233 11.8485 74.3855 11.3604 74.3855 10.73C74.3855 10.0996 74.5256 9.59804 74.8035 9.25008C75.0837 8.90213 75.4633 8.72815 75.9423 8.72815V8.73041Z" fill="white"/>
<path d="M86.0376 7.4124H83.8594L81.6316 10.2254V5.18457H79.9551V14.0462H81.6316V11.2196L83.882 14.0462H86.0624L83.1161 10.7406L86.0376 7.4124Z" fill="white"/>
<path d="M91.1829 7.71139C90.6836 7.44026 90.1187 7.30469 89.4883 7.30469C88.858 7.30469 88.2547 7.44477 87.7508 7.72269C87.247 8.00286 86.8561 8.40053 86.5782 8.9202C86.298 9.43988 86.1602 10.0409 86.1602 10.7278C86.1602 11.4146 86.3025 12.0044 86.5849 12.524C86.8674 13.0437 87.2628 13.4436 87.7712 13.7283C88.2773 14.0108 88.8512 14.1531 89.4906 14.1531C90.2814 14.1531 90.948 13.9475 91.4902 13.5363C92.0325 13.1251 92.4008 12.6009 92.5928 11.9614H90.7853C90.5209 12.4969 90.0781 12.7635 89.4567 12.7635C89.0252 12.7635 88.6614 12.628 88.3677 12.3568C88.0717 12.0857 87.9045 11.7106 87.8638 11.2316H92.7126C92.7442 11.0396 92.76 10.8249 92.76 10.5854C92.76 9.93922 92.6222 9.36532 92.3466 8.86598C92.0709 8.36663 91.6845 7.98253 91.1852 7.71139H91.1829ZM87.8728 10.1064C87.9361 9.65905 88.1101 9.30883 88.3948 9.05803C88.6772 8.80723 89.0274 8.6807 89.4432 8.6807C89.8815 8.6807 90.252 8.81175 90.5571 9.06933C90.8598 9.32917 91.0157 9.67486 91.0248 10.1042H87.8751L87.8728 10.1064Z" fill="white"/>
<path d="M95.5704 5.77246H93.8826V7.41283H93.0918V8.7911H93.8826V11.9882C93.8826 13.362 94.5898 14.0489 96.002 14.0489H97.0549V12.6367H96.2754C96.0201 12.6367 95.8393 12.587 95.7308 12.4876C95.6224 12.3882 95.5682 12.2255 95.5682 12.0018V8.79336H97.0526V7.41509H95.5682V5.77472L95.5704 5.77246Z" fill="white"/>
<path d="M101.893 10.5018C101.581 10.3753 101.186 10.251 100.707 10.1313C100.237 10.0115 99.889 9.89403 99.6653 9.7788C99.4416 9.66357 99.3309 9.49411 99.3309 9.27042C99.3309 9.07159 99.4123 8.91568 99.5772 8.80271C99.7399 8.692 99.9749 8.63551 100.278 8.63551C100.605 8.63551 100.865 8.71233 101.062 8.86824C101.258 9.02414 101.367 9.23427 101.392 9.49637H102.996C102.948 8.82531 102.688 8.29207 102.219 7.89667C101.746 7.50126 101.116 7.30469 100.327 7.30469C99.7919 7.30469 99.3264 7.39281 98.9333 7.56904C98.5401 7.74528 98.2351 7.98479 98.0227 8.28755C97.8103 8.59032 97.7064 8.92698 97.7064 9.29301C97.7064 9.74039 97.8194 10.0951 98.0476 10.3595C98.2758 10.6238 98.5469 10.8181 98.861 10.9469C99.175 11.0757 99.5817 11.1977 100.077 11.3175C100.556 11.4463 100.906 11.5638 101.125 11.67C101.344 11.7784 101.455 11.9388 101.455 12.1558C101.455 12.3546 101.364 12.5195 101.186 12.6461C101.007 12.7748 100.757 12.8381 100.438 12.8381C100.119 12.8381 99.8371 12.7545 99.6179 12.5873C99.3987 12.4201 99.2722 12.2077 99.2406 11.9524H97.5527C97.5776 12.3591 97.7132 12.7319 97.9662 13.0663C98.217 13.4007 98.5582 13.6673 98.9897 13.8616C99.4213 14.056 99.9071 14.1554 100.452 14.1554C100.996 14.1554 101.439 14.0695 101.834 13.8978C102.23 13.7261 102.533 13.4888 102.745 13.1861C102.957 12.8833 103.061 12.5399 103.061 12.1558C103.052 11.7174 102.935 11.3627 102.709 11.0961C102.481 10.8294 102.212 10.6306 101.9 10.5041L101.893 10.5018Z" fill="white"/>
<path d="M104.814 12.167C104.511 12.167 104.261 12.2619 104.066 12.4494C103.87 12.637 103.772 12.8697 103.772 13.1499C103.772 13.43 103.87 13.6628 104.066 13.8503C104.263 14.0378 104.511 14.1327 104.814 14.1327C105.117 14.1327 105.352 14.0378 105.544 13.8503C105.736 13.6628 105.831 13.43 105.831 13.1499C105.831 12.8697 105.736 12.637 105.544 12.4494C105.352 12.2619 105.108 12.167 104.814 12.167Z" fill="white"/>
<path d="M109.665 8.73041C109.999 8.73041 110.282 8.81175 110.51 8.97669C110.738 9.13937 110.899 9.36532 110.996 9.65227H112.803C112.62 8.9089 112.259 8.33274 111.719 7.92152C111.181 7.5103 110.499 7.30469 109.676 7.30469C109.037 7.30469 108.47 7.44703 107.975 7.72947C107.48 8.0119 107.094 8.41182 106.814 8.92698C106.533 9.44214 106.396 10.0432 106.396 10.73C106.396 11.4169 106.536 12.0179 106.814 12.5331C107.094 13.0482 107.48 13.4482 107.975 13.7306C108.47 14.013 109.037 14.1554 109.676 14.1554C110.49 14.1554 111.17 13.943 111.712 13.5205C112.254 13.0979 112.618 12.5263 112.801 11.8078H110.994C110.786 12.4156 110.343 12.7184 109.665 12.7184C109.186 12.7184 108.806 12.5444 108.526 12.1964C108.246 11.8485 108.108 11.3604 108.108 10.73C108.108 10.0996 108.248 9.59804 108.526 9.25008C108.806 8.90213 109.186 8.72815 109.665 8.72815V8.73041Z" fill="white"/>
<path d="M119.67 8.61443C119.451 8.18739 119.146 7.86429 118.755 7.64512C118.364 7.42596 117.917 7.31524 117.413 7.31524C116.975 7.31524 116.575 7.39658 116.215 7.56152C115.856 7.72421 115.569 7.95015 115.352 8.2371V5.18457H113.676V14.0462H115.352V10.3813C115.352 9.85488 115.486 9.45043 115.754 9.16574C116.021 8.88331 116.387 8.74096 116.85 8.74096C117.314 8.74096 117.664 8.88331 117.928 9.16574C118.192 9.44817 118.323 9.85488 118.323 10.3813V14.0462H120V10.1554C120 9.55663 119.889 9.04373 119.67 8.61669V8.61443Z" fill="white"/>
</g>
<defs>
<clipPath id="clip0_2683_70751">
<rect width="120" height="16.7901" fill="white" transform="translate(0 0.550781)"/>
</clipPath>
</defs>
</svg>
