<svg width="200" height="41" viewBox="0 0 200 41" fill="none" xmlns="http://www.w3.org/2000/svg">
<g clip-path="url(#clip0_984_2157)">
<path d="M198.336 0L198.334 20.2716C198.334 24.4055 194.974 27.7678 190.844 27.7678C186.714 27.7678 183.356 24.4055 183.356 20.2716C183.356 16.1378 186.715 12.7769 190.844 12.7769H195.837V11.1115H190.844C185.797 11.1115 181.692 15.2206 181.692 20.2716C181.692 25.3227 185.799 29.4331 190.844 29.4331C195.889 29.4331 199.998 25.3241 199.998 20.2716L200 0H198.335H198.336Z" fill="white"/>
<path d="M175.932 24.2914C174.6 26.3776 172.269 27.7652 169.617 27.7652C165.487 27.7652 162.127 24.4028 162.127 20.269C162.127 16.1352 165.487 12.7742 169.617 12.7742C173.464 12.7742 176.641 15.6951 177.057 19.437H169.617V21.1024H178.729C178.754 20.8273 178.77 20.5509 178.77 20.269C178.77 15.2179 174.665 11.1089 169.617 11.1089C164.569 11.1089 160.463 15.2179 160.463 20.269C160.463 25.3201 164.569 29.4305 169.617 29.4305C172.858 29.4305 175.708 27.7349 177.335 25.1853L175.932 24.2914Z" fill="white"/>
<path d="M150.922 11.1089C148.419 11.1089 146.234 12.5006 145.098 14.5524C143.962 12.502 141.777 11.1089 139.274 11.1089C135.604 11.1089 132.617 14.0972 132.617 17.7717V29.4305H134.282V17.7717C134.282 15.0158 136.522 12.7742 139.274 12.7742C142.026 12.7742 144.265 15.0144 144.267 17.7689V29.4319H145.931V17.773C145.931 17.773 145.931 17.7717 145.931 17.7703C145.932 15.0158 148.172 12.7756 150.924 12.7756C153.676 12.7756 155.917 15.0172 155.917 17.773V29.4319H157.581V17.773C157.581 14.0985 154.595 11.1103 150.924 11.1103L150.922 11.1089Z" fill="white"/>
<path d="M120.542 11.1089C115.496 11.1089 111.389 15.2179 111.389 20.269C111.389 25.3201 115.496 29.4305 120.542 29.4305H125.535V27.7652H120.542C116.413 27.7652 113.054 24.4028 113.054 20.269C113.054 16.1352 116.413 12.7742 120.542 12.7742C124.671 12.7742 128.032 16.1366 128.032 20.269V29.4305H129.696V20.269C129.696 15.2179 125.59 11.1089 120.542 11.1089Z" fill="white"/>
<path d="M107.184 24.2899C105.853 26.3761 103.525 27.7664 100.873 27.7664C96.7444 27.7664 93.385 24.404 93.385 20.2702C93.385 16.1364 96.7444 12.7755 100.873 12.7755C103.525 12.7755 105.853 14.1658 107.184 16.2519L108.587 15.3581C106.96 12.8085 104.115 11.1101 100.873 11.1101C95.8266 11.1101 91.7197 15.2192 91.7197 20.2702C91.7197 25.3213 95.8252 29.4317 100.873 29.4317C104.113 29.4317 106.96 27.7334 108.587 25.1838L107.184 24.2913V24.2899Z" fill="white"/>
<path d="M79.6477 29.4317C74.601 29.4317 70.4941 25.3227 70.4941 20.2702C70.4941 15.2178 74.5996 11.1101 79.6477 11.1101C84.6957 11.1101 88.8012 15.2192 88.8012 20.2702C88.8012 25.3213 84.6944 29.4317 79.6477 29.4317ZM79.6477 12.7755C75.5175 12.7755 72.158 16.1378 72.158 20.2702C72.158 24.4027 75.5175 27.7664 79.6477 27.7664C83.7779 27.7664 87.1373 24.404 87.1373 20.2702C87.1373 16.1364 83.7779 12.7755 79.6477 12.7755Z" fill="white"/>
<path d="M58.81 20.2702V29.4317H60.4739V20.2702C60.4739 16.1378 63.8333 12.7755 67.9621 12.7755V11.1101C62.9155 11.1101 58.8086 15.2192 58.8086 20.2702H58.81Z" fill="white"/>
<path d="M39.2483 40.5406V20.2703C39.2469 16.1365 42.6063 12.7741 46.7366 12.7741C50.8668 12.7741 54.2262 16.1365 54.2262 20.2703C54.2262 24.4041 50.8668 27.7651 46.7366 27.7651H41.7448V29.4291H46.7366C51.7832 29.4291 55.8901 25.32 55.8901 20.2689C55.8901 15.2179 51.7832 11.1074 46.7366 11.1074C41.6899 11.1074 37.583 15.2165 37.583 20.2689V40.5392H39.2483V40.5406Z" fill="white"/>
<g clip-path="url(#clip1_984_2157)">
<path d="M20.7471 19.5226C18.1508 17.5796 15.6273 19.6835 14.5585 20.6997C13.4266 19.4621 9.91541 17.5548 7.96063 19.9819C6.64462 21.6169 7.48121 23.5393 8.24911 24.4441C9.32746 25.7175 11.9677 27.8791 14.5585 29.2034V33.4277C17.1974 31.5094 19.894 28.9806 21.618 25.2348C22.4312 23.4678 22.5329 20.8592 20.7471 19.5226Z" fill="white"/>
<path d="M20.2484 11.1001H0V31.3691C0 36.4282 4.09638 40.5287 9.15024 40.5287H29.3986V20.2597C29.4 15.2007 25.3022 11.1001 20.2484 11.1001ZM25.022 26.7103C22.5754 32.3702 16.8526 36.2219 14.5585 37.7455V33.4346C14.5585 33.4346 8.03479 29.9583 5.41926 26.845C4.00847 25.166 3.32299 23.1446 3.50981 21.1384C3.67603 19.3466 4.53185 17.7391 5.92203 16.6088C7.20507 15.5651 8.63922 15.0356 10.1833 15.0356C11.8853 15.0356 13.5021 15.8965 14.5585 16.7202C15.6533 15.8703 17.2001 15.0687 18.898 15.0687C20.4228 15.0687 21.8556 15.5761 23.1565 16.5758C24.6717 17.7405 25.6058 19.4195 25.8558 21.4299C26.0646 23.1075 25.7693 24.9818 25.0234 26.7075L25.022 26.7103Z" fill="white"/>
</g>
</g>
<defs>
<clipPath id="clip0_984_2157">
<rect width="200" height="40.5405" fill="white"/>
</clipPath>
<clipPath id="clip1_984_2157">
<rect width="29.4" height="29.43" fill="white" transform="translate(0 11.1001)"/>
</clipPath>
</defs>
</svg>
